999
dxflib 2.0.4.8
  0
SECTION
  2
HEADER
  9
$ACADVER
  1
AC1015
  9
$HANDSEED
  5
FFFF
  9
$DIMADEC
 70
2
  9
$GRIDUNIT
 10
0.25
 20
0.25
  9
$DIMASZ
 40
1.0
  9
$DIMGAP
 40
0.625
  9
$LUNITS
 70
2
  9
$AUPREC
 70
2
  9
$SPLINESEGS
 70
8
  9
$INSUNITS
 70
4
  9
$DIMEXO
 40
0.625
  9
$DIMLUNIT
 70
2
  9
$GRIDMODE
 70
1
  9
$DIMTXT
 40
2.0
  9
$LUPREC
 70
4
  9
$DIMSTYLE
  2
Standard
  9
$PLIMMIN
 10
0.0
 20
0.0
  9
$PLIMMAX
 10
297.0
 20
210.0
  9
$DIMEXE
 40
0.5
  9
$PINSBASE
 10
14.0000165833333341
 20
75.75
 30
0.0
  9
$DIMAUNIT
 70
0
  9
$AUNITS
 70
0
  0
ENDSEC
  0
SECTION
  2
TABLES
  0
TABLE
  2
VPORT
  5
8
100
AcDbSymbolTable
 70
1
  0
VPORT
  5
30
100
AcDbSymbolTableRecord
100
AcDbViewportTableRecord
  2
*Active
 70
0
 10
0.0
 20
0.0
 11
1.0
 21
1.0
 12
286.3055555555554861
 22
148.5
 13
0.0
 23
0.0
 14
10.0
 24
10.0
 15
10.0
 25
10.0
 16
0.0
 26
0.0
 36
1.0
 17
0.0
 27
0.0
 37
0.0
 40
297.0
 41
1.92798353909465
 42
50.0
 43
0.0
 44
0.0
 50
0.0
 51
0.0
 71
0
 72
100
 73
1
 74
3
 75
1
 76
1
 77
0
 78
0
281
0
 65
1
110
0.0
120
0.0
130
0.0
111
1.0
121
0.0
131
0.0
112
0.0
122
1.0
132
0.0
 79
0
146
0.0
  0
ENDTAB
  0
TABLE
  2
LTYPE
  5
5
100
AcDbSymbolTable
 70
21
  0
LTYPE
  5
14
100
AcDbSymbolTableRecord
100
AcDbLinetypeTableRecord
  2
ByBlock
 70
0
  3

 72
65
 73
0
 40
0.0
  0
LTYPE
  5
15
100
AcDbSymbolTableRecord
100
AcDbLinetypeTableRecord
  2
ByLayer
 70
0
  3

 72
65
 73
0
 40
0.0
  0
LTYPE
  5
16
100
AcDbSymbolTableRecord
100
AcDbLinetypeTableRecord
  2
CONTINUOUS
 70
0
  3
Solid line
 72
65
 73
0
 40
0.0
  0
LTYPE
  5
31
100
AcDbSymbolTableRecord
100
AcDbLinetypeTableRecord
  2
DOT
 70
0
  3
Dot . . . . . . . . . . . . . . . . . . . . . .
 72
65
 73
2
 40
6.3499999999999996
 49
0.0
 74
0
 49
-6.3499999999999996
 74
0
  0
LTYPE
  5
32
100
AcDbSymbolTableRecord
100
AcDbLinetypeTableRecord
  2
DOT2
 70
0
  3
Dot (.5x) .....................................
 72
65
 73
2
 40
3.1749999999999998
 49
0.0
 74
0
 49
-3.1749999999999998
 74
0
  0
LTYPE
  5
33
100
AcDbSymbolTableRecord
100
AcDbLinetypeTableRecord
  2
DOTX2
 70
0
  3
Dot (2x) .  .  .  .  .  .  .  .  .  .  .  .  .
 72
65
 73
2
 40
12.6999999999999993
 49
0.0
 74
0
 49
-12.6999999999999993
 74
0
  0
LTYPE
  5
34
100
AcDbSymbolTableRecord
100
AcDbLinetypeTableRecord
  2
DASHED
 70
0
  3
Dashed __ __ __ __ __ __ __ __ __ __ __ __ __ _
 72
65
 73
2
 40
19.0500000000000007
 49
12.6999999999999993
 74
0
 49
-6.3499999999999996
 74
0
  0
LTYPE
  5
35
100
AcDbSymbolTableRecord
100
AcDbLinetypeTableRecord
  2
DASHED2
 70
0
  3
Dashed (.5x) _ _ _ _ _ _ _ _ _ _ _ _ _ _ _ _ _
 72
65
 73
2
 40
9.5250000000000004
 49
6.3499999999999996
 74
0
 49
-3.1749999999999998
 74
0
  0
LTYPE
  5
36
100
AcDbSymbolTableRecord
100
AcDbLinetypeTableRecord
  2
DASHEDX2
 70
0
  3
Dashed (2x) ____  ____  ____  ____  ____  ___
 72
65
 73
2
 40
38.1000000000000014
 49
25.3999999999999986
 74
0
 49
-12.6999999999999993
 74
0
  0
LTYPE
  5
37
100
AcDbSymbolTableRecord
100
AcDbLinetypeTableRecord
  2
DASHDOT
 70
0
  3
Dash dot __ . __ . __ . __ . __ . __ . __ . __
 72
65
 73
4
 40
25.3999999999999986
 49
12.6999999999999993
 74
0
 49
-6.3499999999999996
 74
0
 49
0.0
 74
0
 49
-6.3499999999999996
 74
0
  0
LTYPE
  5
38
100
AcDbSymbolTableRecord
100
AcDbLinetypeTableRecord
  2
DASHDOT2
 70
0
  3
Dash dot (.5x) _._._._._._._._._._._._._._._.
 72
65
 73
4
 40
12.6999999999999993
 49
6.3499999999999996
 74
0
 49
-3.1749999999999998
 74
0
 49
0.0
 74
0
 49
-3.1749999999999998
 74
0
  0
LTYPE
  5
39
100
AcDbSymbolTableRecord
100
AcDbLinetypeTableRecord
  2
DASHDOTX2
 70
0
  3
Dash dot (2x) ____  .  ____  .  ____  .  ___
 72
65
 73
4
 40
50.7999999999999972
 49
25.3999999999999986
 74
0
 49
-12.6999999999999993
 74
0
 49
0.0
 74
0
 49
-12.6999999999999993
 74
0
  0
LTYPE
  5
3A
100
AcDbSymbolTableRecord
100
AcDbLinetypeTableRecord
  2
DIVIDE
 70
0
  3
Divide ____ . . ____ . . ____ . . ____ . . ____
 72
65
 73
6
 40
31.75
 49
12.6999999999999993
 74
0
 49
-6.3499999999999996
 74
0
 49
0.0
 74
0
 49
-6.3499999999999996
 74
0
 49
0.0
 74
0
 49
-6.3499999999999996
 74
0
  0
LTYPE
  5
3B
100
AcDbSymbolTableRecord
100
AcDbLinetypeTableRecord
  2
DIVIDE2
 70
0
  3
Divide (.5x) __..__..__..__..__..__..__..__.._
 72
65
 73
6
 40
15.875
 49
6.3499999999999996
 74
0
 49
-3.1749999999999998
 74
0
 49
0.0
 74
0
 49
-3.1749999999999998
 74
0
 49
0.0
 74
0
 49
-3.1749999999999998
 74
0
  0
LTYPE
  5
3C
100
AcDbSymbolTableRecord
100
AcDbLinetypeTableRecord
  2
DIVIDEX2
 70
0
  3
Divide (2x) ________  .  .  ________  .  .  _
 72
65
 73
6
 40
63.5
 49
25.3999999999999986
 74
0
 49
-12.6999999999999993
 74
0
 49
0.0
 74
0
 49
-12.6999999999999993
 74
0
 49
0.0
 74
0
 49
-12.6999999999999993
 74
0
  0
LTYPE
  5
3D
100
AcDbSymbolTableRecord
100
AcDbLinetypeTableRecord
  2
CENTER
 70
0
  3
Center ____ _ ____ _ ____ _ ____ _ ____ _ ____
 72
65
 73
4
 40
50.7999999999999972
 49
31.75
 74
0
 49
-6.3499999999999996
 74
0
 49
6.3499999999999996
 74
0
 49
-6.3499999999999996
 74
0
  0
LTYPE
  5
3E
100
AcDbSymbolTableRecord
100
AcDbLinetypeTableRecord
  2
CENTER2
 70
0
  3
Center (.5x) ___ _ ___ _ ___ _ ___ _ ___ _ ___
 72
65
 73
4
 40
28.5749999999999993
 49
19.0500000000000007
 74
0
 49
-3.1749999999999998
 74
0
 49
3.1749999999999998
 74
0
 49
-3.1749999999999998
 74
0
  0
LTYPE
  5
3F
100
AcDbSymbolTableRecord
100
AcDbLinetypeTableRecord
  2
CENTERX2
 70
0
  3
Center (2x) ________  __  ________  __  _____
 72
65
 73
4
 40
101.5999999999999943
 49
63.5
 74
0
 49
-12.6999999999999993
 74
0
 49
12.6999999999999993
 74
0
 49
-12.6999999999999993
 74
0
  0
LTYPE
  5
40
100
AcDbSymbolTableRecord
100
AcDbLinetypeTableRecord
  2
BORDER
 70
0
  3
Border __ __ . __ __ . __ __ . __ __ . __ __ .
 72
65
 73
6
 40
44.4500000000000028
 49
12.6999999999999993
 74
0
 49
-6.3499999999999996
 74
0
 49
12.6999999999999993
 74
0
 49
-6.3499999999999996
 74
0
 49
0.0
 74
0
 49
-6.3499999999999996
 74
0
  0
LTYPE
  5
41
100
AcDbSymbolTableRecord
100
AcDbLinetypeTableRecord
  2
BORDER2
 70
0
  3
Border (.5x) __.__.__.__.__.__.__.__.__.__.__.
 72
65
 73
6
 40
22.2250000000000014
 49
6.3499999999999996
 74
0
 49
-3.1749999999999998
 74
0
 49
6.3499999999999996
 74
0
 49
-3.1749999999999998
 74
0
 49
0.0
 74
0
 49
-3.1749999999999998
 74
0
  0
LTYPE
  5
42
100
AcDbSymbolTableRecord
100
AcDbLinetypeTableRecord
  2
BORDERX2
 70
0
  3
Border (2x) ____  ____  .  ____  ____  .  ___
 72
65
 73
6
 40
88.9000000000000057
 49
25.3999999999999986
 74
0
 49
-12.6999999999999993
 74
0
 49
25.3999999999999986
 74
0
 49
-12.6999999999999993
 74
0
 49
0.0
 74
0
 49
-12.6999999999999993
 74
0
  0
ENDTAB
  0
TABLE
  2
LAYER
  5
2
100
AcDbSymbolTable
 70
6
  0
LAYER
  5
10
100
AcDbSymbolTableRecord
100
AcDbLayerTableRecord
  2
0
 70
0
 62
7
  6
CONTINUOUS
370
0
390
F
  0
LAYER
  5
43
100
AcDbSymbolTableRecord
100
AcDbLayerTableRecord
  2
outlines
 70
0
 62
7
  6
CONTINUOUS
370
0
390
F
  0
LAYER
  5
44
100
AcDbSymbolTableRecord
100
AcDbLayerTableRecord
  2
hatch
 70
0
 62
7
  6
CONTINUOUS
370
5
390
F
  0
LAYER
  5
45
100
AcDbSymbolTableRecord
100
AcDbLayerTableRecord
  2
Names
 70
0
 62
7
  6
CONTINUOUS
370
0
390
F
  0
LAYER
  5
46
100
AcDbSymbolTableRecord
100
AcDbLayerTableRecord
  2
dimensions
 70
0
 62
7
  6
CONTINUOUS
370
0
390
F
  0
LAYER
  5
47
100
AcDbSymbolTableRecord
100
AcDbLayerTableRecord
  2
centres
 70
0
 62
7
  6
CONTINUOUS
370
0
390
F
  0
ENDTAB
  0
TABLE
  2
STYLE
  5
3
100
AcDbSymbolTable
 70
1
  0
STYLE
  5
11
100
AcDbSymbolTableRecord
100
AcDbTextStyleTableRecord
  2
Standard
 70
0
 40
0.0
 41
0.75
 50
0.0
 71
0
 42
2.5
  3
txt
  4

  0
ENDTAB
  0
TABLE
  2
VIEW
  5
6
100
AcDbSymbolTable
 70
0
  0
ENDTAB
  0
TABLE
  2
UCS
  5
7
100
AcDbSymbolTable
 70
0
  0
ENDTAB
  0
TABLE
  2
APPID
  5
9
100
AcDbSymbolTable
 70
1
  0
APPID
  5
12
100
AcDbSymbolTableRecord
100
AcDbRegAppTableRecord
  2
ACAD
 70
0
  0
ENDTAB
  0
TABLE
  2
DIMSTYLE
  5
A
100
AcDbSymbolTable
 70
1
100
AcDbDimStyleTable
 71
0
  0
DIMSTYLE
105
27
100
AcDbSymbolTableRecord
100
AcDbDimStyleTableRecord
  2
Standard
 41
1.0
 42
0.625
 43
3.75
 44
0.5
 70
0
 73
0
 74
0
 77
1
 78
8
140
2.0
141
2.5
143
0.03937007874016
147
0.625
171
3
172
1
271
2
272
2
274
3
278
44
283
0
284
8
340
11
  0
ENDTAB
  0
TABLE
  2
BLOCK_RECORD
  5
1
100
AcDbSymbolTable
 70
1
  0
BLOCK_RECORD
  5
1F
100
AcDbSymbolTableRecord
100
AcDbBlockTableRecord
  2
*Model_Space
340
22
  0
BLOCK_RECORD
  5
1B
100
AcDbSymbolTableRecord
100
AcDbBlockTableRecord
  2
*Paper_Space
340
1E
  0
BLOCK_RECORD
  5
23
100
AcDbSymbolTableRecord
100
AcDbBlockTableRecord
  2
*Paper_Space0
340
26
  0
ENDTAB
  0
ENDSEC
  0
SECTION
  2
BLOCKS
  0
BLOCK
  5
20
100
AcDbEntity
  8
0
100
AcDbBlockBegin
  2
*Model_Space
 70
0
 10
0.0
 20
0.0
 30
0.0
  3
*Model_Space
  1

  0
ENDBLK
  5
21
100
AcDbEntity
  8
0
100
AcDbBlockEnd
  0
BLOCK
  5
1C
100
AcDbEntity
 67
1
  8
0
100
AcDbBlockBegin
  2
*Paper_Space
 70
0
 10
0.0
 20
0.0
 30
0.0
  3
*Paper_Space
  1

  0
ENDBLK
  5
1D
100
AcDbEntity
 67
1
  8
0
100
AcDbBlockEnd
  0
BLOCK
  5
24
100
AcDbEntity
  8
0
100
AcDbBlockBegin
  2
*Paper_Space0
 70
0
 10
0.0
 20
0.0
 30
0.0
  3
*Paper_Space0
  1

  0
ENDBLK
  5
25
100
AcDbEntity
  8
0
100
AcDbBlockEnd
  0
ENDSEC
  0
SECTION
  2
ENTITIES
  0
HATCH
  5
48
  8
hatch
 62
256
370
5
  6
ByLayer
100
AcDbEntity
100
AcDbHatch
 10
0.0
 20
0.0
 30
0.0
210
0.0
220
0.0
230
1.0
  2
ansi31
 70
0
 71
0
 91
1
 92
1
 93
9
 72
1
 10
80.0
 20
44.5
 11
80.0
 21
44.0
 72
1
 10
80.0
 20
44.0
 11
80.0
 21
43.5
 72
1
 10
80.0
 20
43.5
 11
111.0
 21
43.5
 72
1
 10
111.0
 20
43.5
 11
111.0
 21
44.5
 72
1
 10
111.0
 20
44.5
 11
120.0
 21
44.5
 72
1
 10
120.0
 20
44.5
 11
120.0
 21
45.5
 72
1
 10
120.0
 20
45.5
 11
120.0
 21
46.25
 72
1
 10
120.0
 20
46.25
 11
80.0
 21
46.25
 72
1
 10
80.0
 20
46.25
 11
80.0
 21
44.5
 97
0
 75
0
 76
1
 52
1.5707963267948966
 41
0.6
 77
0
 78
1
 53
45.0
 43
0.0
 44
0.0
 45
-0.0883883476483184
 46
0.0883883476483185
 79
0
 98
0
  0
HATCH
  5
49
  8
hatch
 62
256
370
5
  6
ByLayer
100
AcDbEntity
100
AcDbHatch
 10
0.0
 20
0.0
 30
0.0
210
0.0
220
0.0
230
1.0
  2
ansi31
 70
0
 71
0
 91
1
 92
1
 93
9
 72
1
 10
80.0
 20
51.0
 11
80.0
 21
50.5
 72
1
 10
80.0
 20
50.5
 11
80.0
 21
48.75
 72
1
 10
80.0
 20
48.75
 11
120.0
 21
48.75
 72
1
 10
120.0
 20
48.75
 11
120.0
 21
49.5
 72
1
 10
120.0
 20
49.5
 11
120.0
 21
50.5
 72
1
 10
120.0
 20
50.5
 11
111.0
 21
50.5
 72
1
 10
111.0
 20
50.5
 11
111.0
 21
51.5
 72
1
 10
111.0
 20
51.5
 11
80.0
 21
51.5
 72
1
 10
80.0
 20
51.5
 11
80.0
 21
51.0
 97
0
 75
0
 76
1
 52
1.5707963267948966
 41
0.6
 77
0
 78
1
 53
45.0
 43
0.0
 44
0.0
 45
-0.0883883476483184
 46
0.0883883476483185
 79
0
 98
0
  0
HATCH
  5
4A
  8
hatch
 62
256
370
5
  6
ByLayer
100
AcDbEntity
100
AcDbHatch
 10
0.0
 20
0.0
 30
0.0
210
0.0
220
0.0
230
1.0
  2
ansi31
 70
0
 71
0
 91
1
 92
1
 93
12
 72
1
 10
179.1071428571428612
 20
47.25
 11
179.8541666666666572
 21
47.25
 72
1
 10
179.8541666666666572
 20
47.25
 11
178.3111111111111029
 21
44.5
 72
1
 10
178.3111111111111029
 20
44.5
 11
154.75
 21
44.5
 72
1
 10
154.75
 20
44.5
 11
154.75
 21
43.5
 72
1
 10
154.75
 20
43.5
 11
144.75
 21
43.5
 72
1
 10
144.75
 20
43.5
 11
144.75
 21
44.0
 72
1
 10
144.75
 20
44.0
 11
144.75
 21
44.5
 72
1
 10
144.75
 20
44.5
 11
152.75
 21
44.5
 72
1
 10
152.75
 20
44.5
 11
152.75
 21
45.5
 72
1
 10
152.75
 20
45.5
 11
152.75
 21
46.25
 72
1
 10
152.75
 20
46.25
 11
178.5
 21
46.25
 72
1
 10
178.5
 20
46.25
 11
179.1071428571428612
 21
47.25
 97
0
 75
0
 76
1
 52
1.5707963267948966
 41
0.6
 77
0
 78
1
 53
45.0
 43
0.0
 44
0.0
 45
-0.0883883476483184
 46
0.0883883476483185
 79
0
 98
0
  0
HATCH
  5
4B
  8
hatch
 62
256
370
5
  6
ByLayer
100
AcDbEntity
100
AcDbHatch
 10
0.0
 20
0.0
 30
0.0
210
0.0
220
0.0
230
1.0
  2
ansi31
 70
0
 71
0
 91
1
 92
1
 93
12
 72
1
 10
179.1071428571428612
 20
47.75
 11
179.8541666666666572
 21
47.75
 72
1
 10
179.8541666666666572
 20
47.75
 11
178.25
 21
50.5
 72
1
 10
178.25
 20
50.5
 11
154.75
 21
50.5
 72
1
 10
154.75
 20
50.5
 11
154.75
 21
51.5
 72
1
 10
154.75
 20
51.5
 11
144.75
 21
51.5
 72
1
 10
144.75
 20
51.5
 11
144.75
 21
51.0
 72
1
 10
144.75
 20
51.0
 11
144.75
 21
50.5
 72
1
 10
144.75
 20
50.5
 11
152.75
 21
50.5
 72
1
 10
152.75
 20
50.5
 11
152.75
 21
49.5
 72
1
 10
152.75
 20
49.5
 11
152.75
 21
48.75
 72
1
 10
152.75
 20
48.75
 11
178.5
 21
48.75
 72
1
 10
178.5
 20
48.75
 11
179.1071428571428612
 21
47.75
 97
0
 75
0
 76
1
 52
1.5707963267948966
 41
0.6
 77
0
 78
1
 53
45.0
 43
0.0
 44
0.0
 45
-0.0883883476483184
 46
0.0883883476483185
 79
0
 98
0
  0
MTEXT
  5
4C
100
AcDbEntity
100
AcDbMText
  8
Names
 62
256
370
18
  6
CENTER
 10
61.0970386887748447
 20
26.9818899126149638
 30
0.0
 40
1.5
 41
100.0
 71
1
 72
2
  1
PEEK\~block\~(elevation)
  7
normallatin1
 50
0.0
 73
0
 44
1.0
  0
MTEXT
  5
4D
100
AcDbEntity
100
AcDbMText
  8
Names
 62
256
370
18
  6
CENTER
 10
96.0970386887748447
 20
26.9818899126149638
 30
0.0
 40
1.5
 41
100.0
 71
1
 72
2
  1
PEEK\~block\~(plan)
  7
normallatin1
 50
0.0
 73
0
 44
1.0
  0
MTEXT
  5
4E
100
AcDbEntity
100
AcDbMText
  8
dimensions
 62
256
370
-1
  6
ByLayer
 10
75.3498134328358162
 20
-1.1721082089552237
 30
0.0
 40
1.5
 41
100.0
 71
1
 72
2
  1
drill\~7\~mm\~deep
  7
normallatin1
 50
0.0
 73
0
 44
1.0
  0
LINE
  5
4F
100
AcDbEntity
100
AcDbLine
  8
centres
 62
256
370
5
  6
CENTER
 10
107.5
 20
25.0
 30
0.0
 11
107.5
 21
-23.0
 31
0.0
  0
LINE
  5
50
100
AcDbEntity
100
AcDbLine
  8
centres
 62
256
370
5
  6
CENTER
 10
97.0
 20
0.0
 30
0.0
 11
114.0
 21
0.0
 31
0.0
  0
LINE
  5
51
100
AcDbEntity
100
AcDbLine
  8
centres
 62
256
370
5
  6
CENTER
 10
62.0
 20
0.0
 30
0.0
 11
79.0
 21
0.0
 31
0.0
  0
LINE
  5
52
100
AcDbEntity
100
AcDbLine
  8
outlines
 62
256
370
15
  6
ByLayer
 10
155.0
 20
13.0
 30
0.0
 11
165.0
 21
13.0
 31
0.0
  0
LINE
  5
53
100
AcDbEntity
100
AcDbLine
  8
centres
 62
256
370
5
  6
DASHDOTX2
 10
155.75
 20
9.0
 30
0.0
 11
163.75
 21
9.0
 31
0.0
  0
LINE
  5
54
100
AcDbEntity
100
AcDbLine
  8
centres
 62
256
370
5
  6
DASHDOTX2
 10
160.0
 20
12.5
 30
0.0
 11
160.0
 21
5.5
 31
0.0
  0
POINT
  5
55
100
AcDbEntity
100
AcDbPoint
  8
outlines
 62
256
370
9
  6
DOTX2
 10
165.0
 20
3.25
 30
0.0
  0
POINT
  5
56
100
AcDbEntity
100
AcDbPoint
  8
outlines
 62
256
370
9
  6
DOTX2
 10
155.0
 20
3.25
 30
0.0
  0
CIRCLE
  5
57
100
AcDbEntity
100
AcDbCircle
  8
outlines
 62
256
370
13
  6
ByLayer
 10
160.0
 20
9.0
 30
0.0
 40
3.0
  0
LINE
  5
58
100
AcDbEntity
100
AcDbLine
  8
centres
 62
256
370
5
  6
CENTERX2
 10
169.0
 20
1.0
 30
0.0
 11
151.25
 21
1.0
 31
0.0
  0
LINE
  5
59
100
AcDbEntity
100
AcDbLine
  8
centres
 62
256
370
5
  6
DASHDOTX2
 10
183.0
 20
9.0
 30
0.0
 11
203.0878378378378386
 21
9.0
 31
0.0
  0
LINE
  5
5A
100
AcDbEntity
100
AcDbLine
  8
centres
 62
256
370
5
  6
CENTERX2
 10
197.75
 20
1.0
 30
0.0
 11
186.75
 21
1.0
 31
0.0
  0
LINE
  5
5B
100
AcDbEntity
100
AcDbLine
  8
centres
 62
256
370
5
  6
CENTERX2
 10
192.5
 20
-3.75
 30
0.0
 11
192.5
 21
5.5
 31
0.0
  0
MTEXT
  5
5C
100
AcDbEntity
100
AcDbMText
  8
dimensions
 62
256
370
5
  6
CONTINUOUS
 10
202.0
 20
-8.0
 30
0.0
 40
1.5
 41
100.0
 71
1
 72
2
  1
hacksaw\Pslot
  7
normallatin1
 50
0.0
 73
0
 44
1.0
  0
MTEXT
  5
5D
100
AcDbEntity
100
AcDbMText
  8
Names
 62
256
370
5
  6
ByLayer
 10
173.25
 20
-6.75
 30
0.0
 40
1.0
 41
100.0
 71
1
 72
2
  1
1.5mm\~dia\~for\Pthermistor
  7
normallatin1
 50
0.0
 73
0
 44
1.0
  0
LEADER
  5
5E
  8
dimensions
 62
256
370
5
  6
CONTINUOUS
100
AcDbEntity
100
AcDbLeader
  3
Standard
 71
1
 72
0
 73
3
 74
0
 75
0
 40
1.0
 41
10.0
 76
2
 10
193.2975914213225792
 20
-4.0173760007628996
 10
201.3323434228483961
 20
-10.1979544634750532
  0
LINE
  5
5F
100
AcDbEntity
100
AcDbLine
  8
centres
 62
256
370
5
  6
CENTER2
 10
76.0
 20
47.5
 30
0.0
 11
124.0
 21
47.5
 31
0.0
  0
LINE
  5
60
100
AcDbEntity
100
AcDbLine
  8
outlines
 62
256
370
13
  6
ByLayer
 10
80.0
 20
51.0
 30
0.0
 11
80.0
 21
50.5
 31
0.0
  0
LINE
  5
61
100
AcDbEntity
100
AcDbLine
  8
outlines
 62
256
370
13
  6
ByLayer
 10
80.0
 20
44.5
 30
0.0
 11
80.0
 21
44.0
 31
0.0
  0
MTEXT
  5
62
100
AcDbEntity
100
AcDbMText
  8
dimensions
 62
256
370
5
  6
ByLayer
 10
182.9079416197829175
 20
50.7873333705496748
 30
0.0
 40
1.0
 41
100.0
 71
1
 72
2
  1
nozzle\~0.5\~dia.
  7
normallatin1
 50
0.0
 73
0
 44
1.0
  0
MTEXT
  5
63
100
AcDbEntity
100
AcDbMText
  8
dimensions
 62
256
370
5
  6
ByLayer
 10
178.7614415360461351
 20
57.2349020483521826
 30
0.0
 40
1.0
 41
100.0
 71
1
 72
2
  1
cone\~angle\Pmatches\~drill\~tip\P
  7
normallatin1
 50
0.0
 73
0
 44
1.0
  0
LINE
  5
64
100
AcDbEntity
100
AcDbLine
  8
outlines
 62
256
370
13
  6
ByLayer
 10
179.1071428571428612
 20
47.75
 30
0.0
 11
179.1071428571428612
 21
47.25
 31
0.0
  0
LEADER
  5
65
  8
dimensions
 62
256
370
5
  6
ByLayer
100
AcDbEntity
100
AcDbLeader
  3
Standard
 71
1
 72
0
 73
3
 74
0
 75
0
 40
1.0
 41
10.0
 76
2
 10
178.7531572250571514
 20
50.0138431657144622
 10
181.943804320002414
 20
54.0263236032971577
  0
LINE
  5
66
100
AcDbEntity
100
AcDbLine
  8
outlines
 62
256
370
13
  6
ByLayer
 10
179.1071428571428612
 20
47.75
 30
0.0
 11
179.8541666666666572
 21
47.75
 31
0.0
  0
LINE
  5
67
100
AcDbEntity
100
AcDbLine
  8
outlines
 62
256
370
13
  6
ByLayer
 10
179.1071428571428612
 20
47.25
 30
0.0
 11
179.8541666666666572
 21
47.25
 31
0.0
  0
LINE
  5
68
100
AcDbEntity
100
AcDbLine
  8
outlines
 62
256
370
13
  6
ByLayer
 10
179.8541666666666572
 20
47.75
 30
0.0
 11
179.8541666666666572
 21
47.25
 31
0.0
  0
LEADER
  5
69
  8
dimensions
 62
256
370
5
  6
ByLayer
100
AcDbEntity
100
AcDbLeader
  3
Standard
 71
1
 72
0
 73
3
 74
0
 75
0
 40
1.0
 41
10.0
 76
3
 10
180.0
 20
47.75
 10
185.75
 20
49.75
 10
185.75
 20
49.75
  0
MTEXT
  5
6A
100
AcDbEntity
100
AcDbMText
  8
Names
 62
256
370
18
  6
ByLayer
 10
155.0
 20
64.75
 30
0.0
 40
1.5
 41
100.0
 71
1
 72
2
  1
Brass\~Nozzle
  7
normallatin1
 50
0.0
 73
0
 44
1.0
  0
DIMENSION
  5
6B
100
AcDbEntity
  8
dimensions
 62
256
370
5
  6
ByLayer
100
AcDbDimension
 10
152.75
 20
39.75
 30
0.0
 11
148.75
 21
41.375
 31
0.0
 70
0
 71
5
 72
1
 41
1.0
 42
0.0
  1

  3
Standard
100
AcDbAlignedDimension
 13
144.75
 23
44.0
 33
0.0
 14
152.75
 24
44.0
 34
0.0
 50
0.0
100
AcDbRotatedDimension
  0
DIMENSION
  5
6C
100
AcDbEntity
  8
dimensions
 62
256
370
5
  6
ByLayer
100
AcDbDimension
 10
154.75
 20
36.0
 30
0.0
 11
149.75
 21
37.625
 31
0.0
 70
0
 71
5
 72
1
 41
1.0
 42
0.0
  1

  3
Standard
100
AcDbAlignedDimension
 13
144.75
 23
42.75
 33
0.0
 14
154.75
 24
42.75
 34
0.0
 50
0.0
100
AcDbRotatedDimension
  0
DIMENSION
  5
6D
100
AcDbEntity
  8
dimensions
 62
256
370
5
  6
ByLayer
100
AcDbDimension
 10
179.75
 20
29.75
 30
0.0
 11
162.25
 21
31.375
 31
0.0
 70
0
 71
5
 72
1
 41
1.0
 42
0.0
  1

  3
Standard
100
AcDbAlignedDimension
 13
144.75
 23
42.75
 33
0.0
 14
179.75
 24
47.25
 34
0.0
 50
0.0
100
AcDbRotatedDimension
  0
LEADER
  5
6E
  8
dimensions
 62
256
370
5
  6
ByLayer
100
AcDbEntity
100
AcDbLeader
  3
Standard
 71
1
 72
0
 73
3
 74
0
 75
0
 40
1.0
 41
10.0
 76
2
 10
180.0
 20
47.25
 10
185.25
 20
45.0
  0
MTEXT
  5
6F
100
AcDbEntity
100
AcDbMText
  8
Names
 62
256
370
18
  6
ByLayer
 10
155.0
 20
22.5
 30
0.0
 40
1.5
 41
100.0
 71
1
 72
2
  1
Brass\~heater\~block\P\Pelevation\~\~\~\~\~\~\~\~\~\~\~\~\~\~\~\~\~\~\~\~\~\~\~plan
  7
normallatin1
 50
0.0
 73
0
 44
1.0
  0
DIMENSION
  5
70
100
AcDbEntity
  8
dimensions
 62
256
370
5
  6
CONTINUOUS
100
AcDbDimension
 10
180.0
 20
79.75
 30
0.0
 11
140.0
 21
81.375
 31
0.0
 70
0
 71
5
 72
1
 41
1.0
 42
0.0
  1

  3
Standard
100
AcDbAlignedDimension
 13
100.0
 23
77.0
 33
0.0
 14
180.0
 24
77.0
 34
0.0
 50
0.0
100
AcDbRotatedDimension
  0
LEADER
  5
71
  8
dimensions
 62
256
370
5
  6
CONTINUOUS
100
AcDbEntity
100
AcDbLeader
  3
Standard
 71
1
 72
0
 73
3
 74
0
 75
0
 40
1.0
 41
10.0
 76
2
 10
115.75
 20
51.0
 10
120.25
 20
55.75
  0
DIMENSION
  5
72
100
AcDbEntity
  8
dimensions
 62
256
370
5
  6
ByLayer
100
AcDbDimension
 10
157.5038491169864585
 20
7.3358994113243128
 30
0.0
 11
159.0986121811340013
 21
10.3520817282989981
 31
0.0
 70
3
 71
5
 72
1
 41
1.0
 42
0.0
  1

  3
Standard
100
AcDbDiametricDimension
 15
162.4961508830135415
 25
10.6641005886756872
 35
0.0
 40
0.0
  0
LINE
  5
73
100
AcDbEntity
100
AcDbLine
  8
outlines
 62
256
370
13
  6
ByLayer
 10
152.75
 20
48.75
 30
0.0
 11
178.5
 21
48.75
 31
0.0
  0
LINE
  5
74
100
AcDbEntity
100
AcDbLine
  8
outlines
 62
256
370
13
  6
ByLayer
 10
152.75
 20
46.25
 30
0.0
 11
178.5
 21
46.25
 31
0.0
  0
LINE
  5
75
100
AcDbEntity
100
AcDbLine
  8
outlines
 62
256
370
13
  6
ByLayer
 10
178.5
 20
46.25
 30
0.0
 11
179.1071428571428612
 21
47.25
 31
0.0
  0
LINE
  5
76
100
AcDbEntity
100
AcDbLine
  8
outlines
 62
256
370
13
  6
ByLayer
 10
179.1071428571428612
 20
47.75
 30
0.0
 11
178.5
 21
48.75
 31
0.0
  0
LINE
  5
77
100
AcDbEntity
100
AcDbLine
  8
outlines
 62
256
370
13
  6
ByLayer
 10
154.75
 20
51.5
 30
0.0
 11
154.75
 21
50.5
 31
0.0
  0
LINE
  5
78
100
AcDbEntity
100
AcDbLine
  8
outlines
 62
256
370
13
  6
ByLayer
 10
152.75
 20
50.5
 30
0.0
 11
152.75
 21
49.5
 31
0.0
  0
LINE
  5
79
100
AcDbEntity
100
AcDbLine
  8
outlines
 62
256
370
13
  6
ByLayer
 10
144.75
 20
50.5
 30
0.0
 11
152.75
 21
50.5
 31
0.0
  0
LINE
  5
7A
100
AcDbEntity
100
AcDbLine
  8
outlines
 62
256
370
13
  6
ByLayer
 10
144.75
 20
51.5
 30
0.0
 11
144.75
 21
51.0
 31
0.0
  0
LINE
  5
7B
100
AcDbEntity
100
AcDbLine
  8
outlines
 62
256
370
13
  6
ByLayer
 10
154.75
 20
51.5
 30
0.0
 11
144.75
 21
51.5
 31
0.0
  0
LINE
  5
7C
100
AcDbEntity
100
AcDbLine
  8
outlines
 62
256
370
13
  6
ByLayer
 10
144.75
 20
43.5
 30
0.0
 11
144.75
 21
44.0
 31
0.0
  0
LINE
  5
7D
100
AcDbEntity
100
AcDbLine
  8
outlines
 62
256
370
13
  6
ByLayer
 10
144.75
 20
43.5
 30
0.0
 11
154.75
 21
43.5
 31
0.0
  0
LINE
  5
7E
100
AcDbEntity
100
AcDbLine
  8
outlines
 62
256
370
13
  6
ByLayer
 10
154.75
 20
43.5
 30
0.0
 11
154.75
 21
44.5
 31
0.0
  0
LINE
  5
7F
100
AcDbEntity
100
AcDbLine
  8
outlines
 62
256
370
13
  6
ByLayer
 10
152.75
 20
45.5
 30
0.0
 11
152.75
 21
44.5
 31
0.0
  0
LINE
  5
80
100
AcDbEntity
100
AcDbLine
  8
outlines
 62
256
370
13
  6
ByLayer
 10
144.75
 20
44.5
 30
0.0
 11
152.75
 21
44.5
 31
0.0
  0
LINE
  5
81
100
AcDbEntity
100
AcDbLine
  8
outlines
 62
256
370
13
  6
ByLayer
 10
178.25
 20
50.5
 30
0.0
 11
179.8541666666666572
 21
47.75
 31
0.0
  0
LINE
  5
82
100
AcDbEntity
100
AcDbLine
  8
outlines
 62
256
370
13
  6
ByLayer
 10
154.75
 20
50.5
 30
0.0
 11
178.25
 21
50.5
 31
0.0
  0
LINE
  5
83
100
AcDbEntity
100
AcDbLine
  8
outlines
 62
256
370
13
  6
CONTINUOUS
 10
178.3111111111111029
 20
44.5
 30
0.0
 11
179.8541666666666572
 21
47.25
 31
0.0
  0
LINE
  5
84
100
AcDbEntity
100
AcDbLine
  8
outlines
 62
256
370
13
  6
ByLayer
 10
178.3111111111111029
 20
44.5
 30
0.0
 11
154.75
 21
44.5
 31
0.0
  0
LEADER
  5
85
  8
dimensions
 62
256
370
5
  6
ByLayer
100
AcDbEntity
100
AcDbLeader
  3
Standard
 71
1
 72
0
 73
3
 74
0
 75
0
 40
1.0
 41
10.0
 76
2
 10
169.75
 20
46.25
 10
182.25
 20
37.25
  0
LINE
  5
86
100
AcDbEntity
100
AcDbLine
  8
outlines
 62
256
370
13
  6
ByLayer
 10
152.75
 20
49.5
 30
0.0
 11
152.75
 21
48.75
 31
0.0
  0
LINE
  5
87
100
AcDbEntity
100
AcDbLine
  8
centres
 62
256
370
5
  6
CENTER
 10
142.75
 20
47.5
 30
0.0
 11
144.75
 21
47.5
 31
0.0
  0
LINE
  5
88
100
AcDbEntity
100
AcDbLine
  8
centres
 62
256
370
5
  6
CENTER
 10
144.75
 20
47.5
 30
0.0
 11
183.75
 21
47.5
 31
0.0
  0
LINE
  5
89
100
AcDbEntity
100
AcDbLine
  8
outlines
 62
256
370
13
  6
ByLayer
 10
144.75
 20
51.0
 30
0.0
 11
144.75
 21
50.5
 31
0.0
  0
LINE
  5
8A
100
AcDbEntity
100
AcDbLine
  8
outlines
 62
256
370
13
  6
ByLayer
 10
144.75
 20
50.5
 30
0.0
 11
144.75
 21
44.5
 31
0.0
  0
LINE
  5
8B
100
AcDbEntity
100
AcDbLine
  8
outlines
 62
256
370
13
  6
ByLayer
 10
144.75
 20
44.5
 30
0.0
 11
144.75
 21
44.0
 31
0.0
  0
LINE
  5
8C
100
AcDbEntity
100
AcDbLine
  8
outlines
 62
256
370
13
  6
ByLayer
 10
152.75
 20
48.75
 30
0.0
 11
152.75
 21
46.25
 31
0.0
  0
LINE
  5
8D
100
AcDbEntity
100
AcDbLine
  8
outlines
 62
256
370
13
  6
ByLayer
 10
152.75
 20
46.25
 30
0.0
 11
152.75
 21
45.5
 31
0.0
  0
LEADER
  5
8E
  8
dimensions
 62
256
370
5
  6
ByLayer
100
AcDbEntity
100
AcDbLeader
  3
Standard
 71
1
 72
0
 73
3
 74
0
 75
0
 40
1.0
 41
10.0
 76
2
 10
150.25
 20
51.5
 10
146.0
 20
57.0
  0
LEADER
  5
8F
  8
dimensions
 62
256
370
5
  6
ByLayer
100
AcDbEntity
100
AcDbLeader
  3
Standard
 71
1
 72
0
 73
3
 74
0
 75
0
 40
1.0
 41
10.0
 76
2
 10
169.5
 20
50.5
 10
164.5
 20
55.75
  0
MTEXT
  5
90
100
AcDbEntity
100
AcDbMText
  8
dimensions
 62
256
370
5
  6
ByLayer
 10
185.5617110405670758
 20
46.4187136394205169
 30
0.0
 40
1.0
 41
100.0
 71
1
 72
2
  1
nozzle\~hole\~\P0.5\~long
  7
normallatin1
 50
0.0
 73
0
 44
1.0
  0
LEADER
  5
91
  8
dimensions
 62
256
370
5
  6
ByLayer
100
AcDbEntity
100
AcDbLeader
  3
Standard
 71
1
 72
0
 73
3
 74
0
 75
0
 40
1.0
 41
10.0
 76
2
 10
151.75
 20
50.5
 10
138.0
 20
45.0
  0
MTEXT
  5
92
100
AcDbEntity
100
AcDbMText
  8
dimensions
 62
256
370
5
  6
ByLayer
 10
128.75
 20
46.75
 30
0.0
 40
1.5
 41
100.0
 71
1
 72
0
  1
6\~mm\~dia.\Pcounterbore
  7
normallatin1
 50
0.0
 73
1
 44
1.0
  0
MTEXT
  5
93
100
AcDbEntity
100
AcDbMText
  8
dimensions
 62
256
370
5
  6
ByLayer
 10
144.25
 20
58.75
 30
0.0
 40
1.5
 41
100.0
 71
1
 72
0
  1
8\~mm\~dia.
  7
normallatin1
 50
0.0
 73
1
 44
1.0
  0
MTEXT
  5
94
100
AcDbEntity
100
AcDbMText
  8
dimensions
 62
256
370
5
  6
ByLayer
 10
161.25
 20
57.5
 30
0.0
 40
1.5
 41
100.0
 71
1
 72
0
  1
6\~mm\~dia.
  7
normallatin1
 50
0.0
 73
1
 44
1.0
  0
MTEXT
  5
95
100
AcDbEntity
100
AcDbMText
  8
dimensions
 62
256
370
5
  6
ByLayer
 10
183.0
 20
38.0
 30
0.0
 40
1.5
 41
100.0
 71
1
 72
2
  1
2.5\~mm\~dia.
  7
normallatin1
 50
0.0
 73
1
 44
1.0
  0
MTEXT
  5
96
100
AcDbEntity
100
AcDbMText
  8
Names
 62
256
370
18
  6
ByLayer
 10
84.9942313611735187
 20
65.7920650140736996
 30
0.0
 40
1.5
 41
100.0
 71
1
 72
2
  1
8\~mm\~dia.\~PEEK\~insulator
  7
normallatin1
 50
0.0
 73
0
 44
1.0
  0
LINE
  5
97
100
AcDbEntity
100
AcDbLine
  8
outlines
 62
256
370
13
  6
ByLayer
 10
80.0
 20
51.5
 30
0.0
 11
80.0
 21
51.0
 31
0.0
  0
LINE
  5
98
100
AcDbEntity
100
AcDbLine
  8
outlines
 62
256
370
13
  6
ByLayer
 10
80.0
 20
51.5
 30
0.0
 11
111.0
 21
51.5
 31
0.0
  0
LINE
  5
99
100
AcDbEntity
100
AcDbLine
  8
outlines
 62
256
370
13
  6
ByLayer
 10
111.0
 20
51.5
 30
0.0
 11
111.0
 21
50.5
 31
0.0
  0
LINE
  5
9A
100
AcDbEntity
100
AcDbLine
  8
outlines
 62
256
370
13
  6
ByLayer
 10
120.0
 20
50.5
 30
0.0
 11
120.0
 21
49.5
 31
0.0
  0
LINE
  5
9B
100
AcDbEntity
100
AcDbLine
  8
outlines
 62
256
370
13
  6
ByLayer
 10
120.0
 20
50.5
 30
0.0
 11
111.0
 21
50.5
 31
0.0
  0
LINE
  5
9C
100
AcDbEntity
100
AcDbLine
  8
outlines
 62
256
370
13
  6
ByLayer
 10
120.0
 20
45.5
 30
0.0
 11
120.0
 21
44.5
 31
0.0
  0
LINE
  5
9D
100
AcDbEntity
100
AcDbLine
  8
outlines
 62
256
370
13
  6
ByLayer
 10
120.0
 20
44.5
 30
0.0
 11
111.0
 21
44.5
 31
0.0
  0
LINE
  5
9E
100
AcDbEntity
100
AcDbLine
  8
outlines
 62
256
370
13
  6
ByLayer
 10
111.0
 20
44.5
 30
0.0
 11
111.0
 21
43.5
 31
0.0
  0
LINE
  5
9F
100
AcDbEntity
100
AcDbLine
  8
outlines
 62
256
370
13
  6
ByLayer
 10
80.0
 20
44.0
 30
0.0
 11
80.0
 21
43.5
 31
0.0
  0
LINE
  5
A0
100
AcDbEntity
100
AcDbLine
  8
outlines
 62
256
370
13
  6
ByLayer
 10
80.0
 20
43.5
 30
0.0
 11
111.0
 21
43.5
 31
0.0
  0
LINE
  5
A1
100
AcDbEntity
100
AcDbLine
  8
outlines
 62
256
370
13
  6
ByLayer
 10
80.0
 20
48.75
 30
0.0
 11
120.0
 21
48.75
 31
0.0
  0
LINE
  5
A2
100
AcDbEntity
100
AcDbLine
  8
outlines
 62
256
370
13
  6
ByLayer
 10
80.0
 20
46.25
 30
0.0
 11
120.0
 21
46.25
 31
0.0
  0
LINE
  5
A3
100
AcDbEntity
100
AcDbLine
  8
outlines
 62
256
370
13
  6
ByLayer
 10
80.0
 20
50.5
 30
0.0
 11
80.0
 21
48.75
 31
0.0
  0
LINE
  5
A4
100
AcDbEntity
100
AcDbLine
  8
outlines
 62
256
370
13
  6
ByLayer
 10
80.0
 20
48.75
 30
0.0
 11
80.0
 21
46.25
 31
0.0
  0
LINE
  5
A5
100
AcDbEntity
100
AcDbLine
  8
outlines
 62
256
370
13
  6
ByLayer
 10
80.0
 20
46.25
 30
0.0
 11
80.0
 21
44.5
 31
0.0
  0
LINE
  5
A6
100
AcDbEntity
100
AcDbLine
  8
outlines
 62
256
370
13
  6
ByLayer
 10
120.0
 20
49.5
 30
0.0
 11
120.0
 21
48.75
 31
0.0
  0
LINE
  5
A7
100
AcDbEntity
100
AcDbLine
  8
outlines
 62
256
370
13
  6
ByLayer
 10
120.0
 20
48.75
 30
0.0
 11
120.0
 21
46.25
 31
0.0
  0
LINE
  5
A8
100
AcDbEntity
100
AcDbLine
  8
outlines
 62
256
370
13
  6
ByLayer
 10
120.0
 20
46.25
 30
0.0
 11
120.0
 21
45.5
 31
0.0
  0
MTEXT
  5
A9
100
AcDbEntity
100
AcDbMText
  8
dimensions
 62
256
370
5
  6
ByLayer
 10
114.5
 20
57.75
 30
0.0
 40
1.5
 41
100.0
 71
1
 72
2
  1
6\~mm\~dia.
  7
normallatin1
 50
0.0
 73
1
 44
1.0
  0
DIMENSION
  5
AA
100
AcDbEntity
  8
hatch
 62
256
370
5
  6
ByLayer
100
AcDbDimension
 10
74.0
 20
43.5
 30
0.0
 11
72.375
 21
47.5
 31
0.0
 70
0
 71
5
 72
1
 41
1.0
 42
0.0
  1

  3
Standard
100
AcDbAlignedDimension
 13
80.0
 23
51.5
 33
0.0
 14
80.0
 24
43.5
 34
0.0
 50
90.0
100
AcDbRotatedDimension
  0
MTEXT
  5
AB
100
AcDbEntity
100
AcDbMText
  8
dimensions
 62
256
370
5
  6
ByLayer
 10
94.5
 20
58.25
 30
0.0
 40
1.5
 41
100.0
 71
1
 72
0
  1
2.5\~mm\~dia.
  7
normallatin1
 50
0.0
 73
1
 44
1.0
  0
LEADER
  5
AC
  8
dimensions
 62
256
370
5
  6
ByLayer
100
AcDbEntity
100
AcDbLeader
  3
Standard
 71
1
 72
0
 73
3
 74
0
 75
0
 40
1.0
 41
10.0
 76
2
 10
88.5
 20
48.75
 10
98.25
 20
56.25
  0
DIMENSION
  5
AD
100
AcDbEntity
  8
dimensions
 62
256
370
5
  6
ByLayer
100
AcDbDimension
 10
111.0
 20
39.25
 30
0.0
 11
95.5
 21
40.875
 31
0.0
 70
0
 71
5
 72
1
 41
1.0
 42
0.0
  1

  3
Standard
100
AcDbAlignedDimension
 13
80.0
 23
43.5
 33
0.0
 14
111.0
 24
43.5
 34
0.0
 50
0.0
100
AcDbRotatedDimension
  0
DIMENSION
  5
AE
100
AcDbEntity
  8
dimensions
 62
256
370
5
  6
ByLayer
100
AcDbDimension
 10
120.0
 20
34.75
 30
0.0
 11
100.0
 21
36.375
 31
0.0
 70
0
 71
5
 72
1
 41
1.0
 42
0.0
  1

  3
Standard
100
AcDbAlignedDimension
 13
80.0
 23
43.5
 33
0.0
 14
120.0
 24
44.5
 34
0.0
 50
0.0
100
AcDbRotatedDimension
  0
MTEXT
  5
AF
100
AcDbEntity
100
AcDbMText
  8
Names
 62
256
370
13
  6
CONTINUOUS
 10
129.75
 20
85.25
 30
0.0
 40
1.5
 41
100.0
 71
1
 72
2
  1
2mm\~i.d.\~PTFE\~sleeve
  7
normallatin1
 50
0.0
 73
1
 44
1.0
  0
LINE
  5
B0
100
AcDbEntity
100
AcDbLine
  8
centres
 62
256
370
5
  6
CENTER
 10
106.0
 20
14.0
 30
0.0
 11
112.0
 21
14.0
 31
0.0
  0
LINE
  5
B1
100
AcDbEntity
100
AcDbLine
  8
centres
 62
256
370
5
  6
CENTER
 10
105.0
 20
-14.0
 30
0.0
 11
112.0
 21
-14.0
 31
0.0
  0
CIRCLE
  5
B2
100
AcDbEntity
100
AcDbCircle
  8
outlines
 62
256
370
15
  6
ByLayer
 10
107.5
 20
0.0
 30
0.0
 40
3.0
  0
CIRCLE
  5
B3
100
AcDbEntity
100
AcDbCircle
  8
outlines
 62
256
370
15
  6
ByLayer
 10
107.5
 20
0.0
 30
0.0
 40
4.0
  0
CIRCLE
  5
B4
100
AcDbEntity
100
AcDbCircle
  8
outlines
 62
256
370
15
  6
ByLayer
 10
107.5
 20
14.0
 30
0.0
 40
1.75
  0
CIRCLE
  5
B5
100
AcDbEntity
100
AcDbCircle
  8
outlines
 62
256
370
15
  6
ByLayer
 10
107.5
 20
-14.0
 30
0.0
 40
1.75
  0
LINE
  5
B6
100
AcDbEntity
100
AcDbLine
  8
outlines
 62
256
370
5
  6
DASHED
 10
74.0
 20
15.75
 30
0.0
 11
64.0
 21
15.75
 31
0.0
  0
LINE
  5
B7
100
AcDbEntity
100
AcDbLine
  8
outlines
 62
256
370
5
  6
DASHED
 10
74.0
 20
12.25
 30
0.0
 11
64.0
 21
12.25
 31
0.0
  0
LINE
  5
B8
100
AcDbEntity
100
AcDbLine
  8
outlines
 62
256
370
5
  6
DASHED
 10
74.0
 20
-15.75
 30
0.0
 11
64.0
 21
-15.75
 31
0.0
  0
LINE
  5
B9
100
AcDbEntity
100
AcDbLine
  8
outlines
 62
256
370
5
  6
DASHED
 10
74.0
 20
-12.25
 30
0.0
 11
64.0
 21
-12.25
 31
0.0
  0
LINE
  5
BA
100
AcDbEntity
100
AcDbLine
  8
centres
 62
256
370
5
  6
CENTER
 10
76.5
 20
14.0
 30
0.0
 11
61.25
 21
14.0
 31
0.0
  0
LINE
  5
BB
100
AcDbEntity
100
AcDbLine
  8
centres
 62
256
370
5
  6
CENTER
 10
76.5
 20
-14.0
 30
0.0
 11
60.75
 21
-14.0
 31
0.0
  0
LINE
  5
BC
100
AcDbEntity
100
AcDbLine
  8
outlines
 62
256
370
5
  6
DASHED
 10
65.5
 20
-3.0
 30
0.0
 11
65.5
 21
3.0
 31
0.0
  0
LINE
  5
BD
100
AcDbEntity
100
AcDbLine
  8
outlines
 62
256
370
5
  6
DASHED
 10
74.0
 20
4.0
 30
0.0
 11
66.25
 21
4.0
 31
0.0
  0
LINE
  5
BE
100
AcDbEntity
100
AcDbLine
  8
outlines
 62
256
370
5
  6
DASHED
 10
66.25
 20
4.0
 30
0.0
 11
65.5
 21
3.0
 31
0.0
  0
LINE
  5
BF
100
AcDbEntity
100
AcDbLine
  8
outlines
 62
256
370
5
  6
DASHED
 10
65.5
 20
3.0
 30
0.0
 11
64.0
 21
3.0
 31
0.0
  0
LINE
  5
C0
100
AcDbEntity
100
AcDbLine
  8
outlines
 62
256
370
5
  6
DASHED
 10
74.0
 20
-4.0
 30
0.0
 11
66.25
 21
-4.0
 31
0.0
  0
LINE
  5
C1
100
AcDbEntity
100
AcDbLine
  8
outlines
 62
256
370
5
  6
DASHED
 10
65.5
 20
-3.0
 30
0.0
 11
66.25
 21
-4.0
 31
0.0
  0
LINE
  5
C2
100
AcDbEntity
100
AcDbLine
  8
outlines
 62
256
370
5
  6
DASHED
 10
65.5
 20
-3.0
 30
0.0
 11
64.0
 21
-3.0
 31
0.0
  0
DIMENSION
  5
C3
100
AcDbEntity
  8
dimensions
 62
256
370
5
  6
CONTINUOUS
100
AcDbDimension
 10
99.0
 20
14.0000000000000018
 30
0.0
 11
97.375
 21
6.9999999999999991
 31
0.0
 70
0
 71
5
 72
1
 41
1.0
 42
0.0
  1

  3
Standard
100
AcDbAlignedDimension
 13
107.5
 23
0.0
 33
0.0
 14
107.5
 24
14.0
 34
0.0
 50
90.0
100
AcDbRotatedDimension
  0
LINE
  5
C4
100
AcDbEntity
100
AcDbLine
  8
outlines
 62
256
370
13
  6
CONTINUOUS
 10
74.0
 20
17.0
 30
0.0
 11
64.0
 21
17.0
 31
0.0
  0
LINE
  5
C5
100
AcDbEntity
100
AcDbLine
  8
outlines
 62
256
370
13
  6
ByLayer
 10
102.5
 20
17.0
 30
0.0
 11
112.5
 21
17.0
 31
0.0
  0
LINE
  5
C6
100
AcDbEntity
100
AcDbLine
  8
outlines
 62
256
370
15
  6
ByLayer
 10
74.0
 20
17.0
 30
0.0
 11
74.0
 21
-17.0
 31
0.0
  0
LINE
  5
C7
100
AcDbEntity
100
AcDbLine
  8
outlines
 62
256
370
13
  6
CONTINUOUS
 10
74.0
 20
-17.0
 30
0.0
 11
64.0
 21
-17.0
 31
0.0
  0
LINE
  5
C8
100
AcDbEntity
100
AcDbLine
  8
outlines
 62
256
370
15
  6
ByLayer
 10
64.0
 20
-17.0
 30
0.0
 11
64.0
 21
17.0
 31
0.0
  0
LINE
  5
C9
100
AcDbEntity
100
AcDbLine
  8
outlines
 62
256
370
13
  6
ByLayer
 10
102.5
 20
17.0
 30
0.0
 11
102.5
 21
-17.0
 31
0.0
  0
LINE
  5
CA
100
AcDbEntity
100
AcDbLine
  8
outlines
 62
256
370
13
  6
ByLayer
 10
102.5
 20
-17.0
 30
0.0
 11
112.5
 21
-17.0
 31
0.0
  0
LINE
  5
CB
100
AcDbEntity
100
AcDbLine
  8
outlines
 62
256
370
13
  6
ByLayer
 10
112.5
 20
-17.0
 30
0.0
 11
112.5
 21
17.0
 31
0.0
  0
DIMENSION
  5
CC
100
AcDbEntity
  8
dimensions
 62
256
370
5
  6
CONTINUOUS
100
AcDbDimension
 10
95.25
 20
17.0
 30
0.0
 11
93.625
 21
8.5
 31
0.0
 70
0
 71
5
 72
1
 41
1.0
 42
0.0
  1

  3
Standard
100
AcDbAlignedDimension
 13
102.5
 23
0.0
 33
0.0
 14
102.5
 24
17.0
 34
0.0
 50
90.0
100
AcDbRotatedDimension
  0
DIMENSION
  5
CD
100
AcDbEntity
  8
dimensions
 62
256
370
5
  6
CONTINUOUS
100
AcDbDimension
 10
74.0
 20
-21.75
 30
0.0
 11
69.0
 21
-20.125
 31
0.0
 70
0
 71
5
 72
1
 41
1.0
 42
0.0
  1

  3
Standard
100
AcDbAlignedDimension
 13
64.0
 23
-17.0
 33
0.0
 14
74.0
 24
-17.0
 34
0.0
 50
0.0
100
AcDbRotatedDimension
  0
DIMENSION
  5
CE
100
AcDbEntity
  8
dimensions
 62
256
370
5
  6
CONTINUOUS
100
AcDbDimension
 10
112.5
 20
-21.75
 30
0.0
 11
107.5
 21
-20.125
 31
0.0
 70
0
 71
5
 72
1
 41
1.0
 42
0.0
  1

  3
Standard
100
AcDbAlignedDimension
 13
102.5
 23
-17.0
 33
0.0
 14
112.5
 24
-17.0
 34
0.0
 50
0.0
100
AcDbRotatedDimension
  0
MTEXT
  5
CF
100
AcDbEntity
100
AcDbMText
  8
dimensions
 62
256
370
5
  6
CONTINUOUS
 10
50.75
 20
8.75
 30
0.0
 40
1.5
 41
100.0
 71
1
 72
0
  1
3.5\~mm\~dia.
  7
normallatin1
 50
0.0
 73
1
 44
1.0
  0
LEADER
  5
D0
  8
dimensions
 62
256
370
5
  6
CONTINUOUS
100
AcDbEntity
100
AcDbLeader
  3
Standard
 71
1
 72
0
 73
3
 74
0
 75
0
 40
1.0
 41
10.0
 76
2
 10
65.0
 20
15.75
 10
56.0
 20
9.25
  0
MTEXT
  5
D1
100
AcDbEntity
100
AcDbMText
  8
dimensions
 62
256
370
5
  6
CONTINUOUS
 10
48.25
 20
-6.25
 30
0.0
 40
1.5
 41
100.0
 71
1
 72
0
  1
6\~mm\~dia.
  7
normallatin1
 50
0.0
 73
1
 44
1.0
  0
LEADER
  5
D2
  8
dimensions
 62
256
370
5
  6
CONTINUOUS
100
AcDbEntity
100
AcDbLeader
  3
Standard
 71
1
 72
0
 73
3
 74
0
 75
0
 40
1.0
 41
10.0
 76
2
 10
64.75
 20
3.0
 10
53.0
 20
-6.0
  0
MTEXT
  5
D3
100
AcDbEntity
100
AcDbMText
  8
dimensions
 62
256
370
5
  6
CONTINUOUS
 10
76.75
 20
6.0
 30
0.0
 40
1.5
 41
100.0
 71
1
 72
0
  1
8\~mm\~dia.
  7
normallatin1
 50
0.0
 73
1
 44
1.0
  0
LEADER
  5
D4
  8
dimensions
 62
256
370
5
  6
CONTINUOUS
100
AcDbEntity
100
AcDbLeader
  3
Standard
 71
1
 72
0
 73
3
 74
0
 75
0
 40
1.0
 41
10.0
 76
2
 10
68.75
 20
-4.0
 10
78.25
 20
4.25
  0
LINE
  5
D5
100
AcDbEntity
100
AcDbLine
  8
outlines
 62
256
370
13
  6
CONTINUOUS
 10
180.0
 20
77.0
 30
0.0
 11
100.0
 21
77.0
 31
0.0
  0
LINE
  5
D6
100
AcDbEntity
100
AcDbLine
  8
outlines
 62
256
370
5
  6
DASHED
 10
100.0
 20
76.5
 30
0.0
 11
180.0
 21
76.5
 31
0.0
  0
LINE
  5
D7
100
AcDbEntity
100
AcDbLine
  8
outlines
 62
256
370
5
  6
DASHED
 10
180.0
 20
75.0
 30
0.0
 11
100.0
 21
75.0
 31
0.0
  0
LINE
  5
D8
100
AcDbEntity
100
AcDbLine
  8
outlines
 62
256
370
13
  6
ByLayer
 10
100.0
 20
77.0
 30
0.0
 11
100.0
 21
74.5
 31
0.0
  0
LINE
  5
D9
100
AcDbEntity
100
AcDbLine
  8
outlines
 62
256
370
13
  6
ByLayer
 10
180.0
 20
74.5
 30
0.0
 11
180.0
 21
77.0
 31
0.0
  0
LINE
  5
DA
100
AcDbEntity
100
AcDbLine
  8
outlines
 62
256
370
13
  6
CONTINUOUS
 10
100.0
 20
74.5
 30
0.0
 11
180.0
 21
74.5
 31
0.0
  0
ARC
  5
DB
100
AcDbEntity
  8
outlines
 62
7
370
13
  6
CONTINUOUS
100
AcDbCircle
 10
192.5
 20
1.0
 30
0.0
 40
3.0
100
AcDbArc
 50
279.5940682268604291
 51
260.4059317731395709
  0
LINE
  5
DC
100
AcDbEntity
100
AcDbLine
  8
outlines
 62
256
370
5
  6
DASHED
 10
187.25
 20
-3.0
 30
0.0
 11
187.25
 21
0.75
 31
0.0
  0
LINE
  5
DD
100
AcDbEntity
100
AcDbLine
  8
outlines
 62
256
370
5
  6
DASHED
 10
187.25
 20
0.75
 30
0.0
 11
188.0
 21
1.5
 31
0.0
  0
LINE
  5
DE
100
AcDbEntity
100
AcDbLine
  8
outlines
 62
256
370
5
  6
DASHED
 10
188.0
 20
1.5
 30
0.0
 11
188.75
 21
0.75
 31
0.0
  0
LINE
  5
DF
100
AcDbEntity
100
AcDbLine
  8
outlines
 62
256
370
5
  6
DASHED
 10
188.75
 20
0.75
 30
0.0
 11
188.75
 21
-3.0
 31
0.0
  0
LINE
  5
E0
100
AcDbEntity
100
AcDbLine
  8
outlines
 62
256
370
5
  6
DASHED
 10
188.75
 20
0.75
 30
0.0
 11
187.25
 21
0.75
 31
0.0
  0
LINE
  5
E1
100
AcDbEntity
100
AcDbLine
  8
centres
 62
256
370
5
  6
DASHDOTX2
 10
188.0
 20
2.75
 30
0.0
 11
188.0
 21
-4.25
 31
0.0
  0
LINE
  5
E2
100
AcDbEntity
100
AcDbLine
  8
outlines
 62
256
370
15
  6
ByLayer
 10
186.25
 20
13.0
 30
0.0
 11
198.75
 21
13.0
 31
0.0
  0
LINE
  5
E3
100
AcDbEntity
100
AcDbLine
  8
outlines
 62
256
370
15
  6
ByLayer
 10
198.75
 20
-3.0000000000000009
 30
0.0
 11
198.75
 21
13.0
 31
0.0
  0
LINE
  5
E4
100
AcDbEntity
100
AcDbLine
  8
outlines
 62
256
370
15
  6
ByLayer
 10
186.25
 20
-2.9999999999999996
 30
0.0
 11
186.25
 21
13.0
 31
0.0
  0
LINE
  5
E5
100
AcDbEntity
100
AcDbLine
  8
outlines
 62
256
370
13
  6
CONTINUOUS
 10
192.0
 20
-1.9580398915498083
 30
0.0
 11
192.0
 21
-3.0
 31
0.0
  0
LINE
  5
E6
100
AcDbEntity
100
AcDbLine
  8
outlines
 62
256
370
15
  6
ByLayer
 10
192.0
 20
-3.0
 30
0.0
 11
186.25
 21
-2.9999999999999996
 31
0.0
  0
LINE
  5
E7
100
AcDbEntity
100
AcDbLine
  8
outlines
 62
256
370
13
  6
CONTINUOUS
 10
193.0
 20
-1.9580398915498083
 30
0.0
 11
193.0
 21
-3.0
 31
0.0
  0
LINE
  5
E8
100
AcDbEntity
100
AcDbLine
  8
outlines
 62
256
370
15
  6
ByLayer
 10
198.75
 20
-3.0000000000000009
 30
0.0
 11
193.0
 21
-3.0
 31
0.0
  0
LINE
  5
E9
100
AcDbEntity
100
AcDbLine
  8
outlines
 62
256
370
5
  6
DASHED
 10
186.25
 20
12.0
 30
0.0
 11
198.75
 21
12.0
 31
0.0
  0
LINE
  5
EA
100
AcDbEntity
100
AcDbLine
  8
outlines
 62
256
370
5
  6
DASHED
 10
186.25
 20
6.0
 30
0.0
 11
198.75
 21
6.0
 31
0.0
  0
MTEXT
  5
EB
100
AcDbEntity
100
AcDbMText
  8
dimensions
 62
256
370
5
  6
CONTINUOUS
 10
199.75
 20
6.25
 30
0.0
 40
1.5
 41
100.0
 71
1
 72
0
  1
6\~mm\~dia.
  7
normallatin1
 50
0.0
 73
1
 44
1.0
  0
LEADER
  5
EC
  8
dimensions
 62
256
370
5
  6
CONTINUOUS
100
AcDbEntity
100
AcDbLeader
  3
Standard
 71
1
 72
0
 73
3
 74
0
 75
0
 40
1.0
 41
10.0
 76
2
 10
195.5
 20
2.25
 10
201.25
 20
4.5
  0
DIMENSION
  5
ED
100
AcDbEntity
  8
dimensions
 62
256
370
5
  6
CONTINUOUS
100
AcDbDimension
 10
183.25
 20
-2.9999999999999996
 30
0.0
 11
181.625
 21
5.0
 31
0.0
 70
0
 71
5
 72
1
 41
1.0
 42
0.0
  1

  3
Standard
100
AcDbAlignedDimension
 13
186.25
 23
13.0
 33
0.0
 14
186.25
 24
-3.0
 34
0.0
 50
90.0
100
AcDbRotatedDimension
  0
LEADER
  5
EE
  8
dimensions
 62
256
370
5
  6
CONTINUOUS
100
AcDbEntity
100
AcDbLeader
  3
Standard
 71
1
 72
0
 73
3
 74
0
 75
0
 40
1.0
 41
10.0
 76
2
 10
187.75
 20
-3.0
 10
181.5
 20
-6.5
  0
LINE
  5
EF
100
AcDbEntity
100
AcDbLine
  8
outlines
 62
256
370
5
  6
DASHED
 10
164.0
 20
-3.0
 30
0.0
 11
164.0
 21
0.75
 31
0.0
  0
LINE
  5
F0
100
AcDbEntity
100
AcDbLine
  8
outlines
 62
256
370
5
  6
DASHED
 10
164.0
 20
0.75
 30
0.0
 11
163.25
 21
1.5
 31
0.0
  0
LINE
  5
F1
100
AcDbEntity
100
AcDbLine
  8
outlines
 62
256
370
5
  6
DASHED
 10
163.25
 20
1.5
 30
0.0
 11
162.5
 21
0.75
 31
0.0
  0
LINE
  5
F2
100
AcDbEntity
100
AcDbLine
  8
outlines
 62
256
370
5
  6
DASHED
 10
162.5
 20
0.75
 30
0.0
 11
162.5
 21
-3.0
 31
0.0
  0
LINE
  5
F3
100
AcDbEntity
100
AcDbLine
  8
outlines
 62
256
370
5
  6
DASHED
 10
164.0
 20
0.75
 30
0.0
 11
162.5
 21
0.75
 31
0.0
  0
LINE
  5
F4
100
AcDbEntity
100
AcDbLine
  8
centres
 62
256
370
5
  6
DASHDOTX2
 10
163.25
 20
2.75
 30
0.0
 11
163.25
 21
-4.5
 31
0.0
  0
DIMENSION
  5
F5
100
AcDbEntity
  8
dimensions
 62
256
370
5
  6
ByLayer
100
AcDbDimension
 10
160.0
 20
-7.5
 30
0.0
 11
157.5
 21
-5.875
 31
0.0
 70
0
 71
5
 72
0
 41
1.0
 42
0.0
  1

  3
Standard
100
AcDbAlignedDimension
 13
155.0
 23
-3.0
 33
0.0
 14
160.0
 24
11.0
 34
0.0
 50
0.0
100
AcDbRotatedDimension
  0
DIMENSION
  5
F6
100
AcDbEntity
  8
dimensions
 62
256
370
5
  6
ByLayer
100
AcDbDimension
 10
163.25
 20
-11.25
 30
0.0
 11
159.125
 21
-9.625
 31
0.0
 70
0
 71
5
 72
0
 41
1.0
 42
0.0
  1

  3
Standard
100
AcDbAlignedDimension
 13
155.0
 23
-3.0
 33
0.0
 14
163.25
 24
-3.0
 34
0.0
 50
0.0
100
AcDbRotatedDimension
  0
DIMENSION
  5
F7
100
AcDbEntity
  8
dimensions
 62
256
370
5
  6
ByLayer
100
AcDbDimension
 10
165.0
 20
-14.25
 30
0.0
 11
160.0
 21
-12.625
 31
0.0
 70
0
 71
5
 72
0
 41
1.0
 42
0.0
  1

  3
Standard
100
AcDbAlignedDimension
 13
155.0
 23
-3.0
 33
0.0
 14
165.0
 24
-3.0
 34
0.0
 50
0.0
100
AcDbRotatedDimension
  0
LINE
  5
F8
100
AcDbEntity
100
AcDbLine
  8
outlines
 62
256
370
15
  6
ByLayer
 10
155.0
 20
-3.0
 30
0.0
 11
155.0
 21
13.0
 31
0.0
  0
LINE
  5
F9
100
AcDbEntity
100
AcDbLine
  8
outlines
 62
256
370
15
  6
ByLayer
 10
165.0
 20
13.0
 30
0.0
 11
165.0
 21
-3.0
 31
0.0
  0
LINE
  5
FA
100
AcDbEntity
100
AcDbLine
  8
outlines
 62
256
370
15
  6
ByLayer
 10
165.0
 20
-3.0
 30
0.0
 11
155.0
 21
-3.0
 31
0.0
  0
LINE
  5
FB
100
AcDbEntity
100
AcDbLine
  8
outlines
 62
256
370
5
  6
DASHED
 10
165.0
 20
4.0
 30
0.0
 11
155.0
 21
4.0
 31
0.0
  0
LINE
  5
FC
100
AcDbEntity
100
AcDbLine
  8
outlines
 62
256
370
5
  6
DASHED
 10
165.0
 20
-2.0
 30
0.0
 11
155.0
 21
-2.0
 31
0.0
  0
DIMENSION
  5
FD
100
AcDbEntity
  8
dimensions
 62
256
370
5
  6
CONTINUOUS
100
AcDbDimension
 10
188.0
 20
-6.75
 30
0.0
 11
187.125
 21
-5.125
 31
0.0
 70
0
 71
5
 72
1
 41
1.0
 42
0.0
  1

  3
Standard
100
AcDbAlignedDimension
 13
186.25
 23
-3.0
 33
0.0
 14
188.0
 24
-3.0
 34
0.0
 50
0.0
100
AcDbRotatedDimension
  0
DIMENSION
  5
FE
100
AcDbEntity
  8
dimensions
 62
256
370
5
  6
CONTINUOUS
100
AcDbDimension
 10
198.75
 20
-11.0
 30
0.0
 11
192.5
 21
-9.375
 31
0.0
 70
0
 71
5
 72
1
 41
1.0
 42
0.0
  1

  3
Standard
100
AcDbAlignedDimension
 13
186.25
 23
-3.0
 33
0.0
 14
198.75
 24
-3.0
 34
0.0
 50
0.0
100
AcDbRotatedDimension
  0
DIMENSION
  5
FF
100
AcDbEntity
  8
dimensions
 62
256
370
5
  6
CONTINUOUS
100
AcDbDimension
 10
151.75
 20
1.0000000000000004
 30
0.0
 11
150.125
 21
-0.9999999999999996
 31
0.0
 70
0
 71
5
 72
1
 41
1.0
 42
0.0
  1

  3
Standard
100
AcDbAlignedDimension
 13
155.0
 23
-3.0
 33
0.0
 14
155.0
 24
1.0
 34
0.0
 50
90.0
100
AcDbRotatedDimension
  0
DIMENSION
  5
100
100
AcDbEntity
  8
dimensions
 62
256
370
5
  6
CONTINUOUS
100
AcDbDimension
 10
148.25
 20
9.0
 30
0.0
 11
146.625
 21
3.0
 31
0.0
 70
0
 71
5
 72
1
 41
1.0
 42
0.0
  1

  3
Standard
100
AcDbAlignedDimension
 13
155.0
 23
-3.0
 33
0.0
 14
155.0
 24
9.0
 34
0.0
 50
90.0
100
AcDbRotatedDimension
  0
DIMENSION
  5
101
100
AcDbEntity
  8
dimensions
 62
256
370
5
  6
CONTINUOUS
100
AcDbDimension
 10
169.75
 20
1.4999999999999993
 30
0.0
 11
168.125
 21
-0.7499999999999993
 31
0.0
 70
0
 71
5
 72
1
 41
1.0
 42
0.0
  1

  3
Standard
100
AcDbAlignedDimension
 13
165.0
 23
-3.0
 33
0.0
 14
165.0
 24
1.5
 34
0.0
 50
90.0
100
AcDbRotatedDimension
  0
ENDSEC
  0
SECTION
  2
OBJECTS
  0
DICTIONARY
  5
C
100
AcDbDictionary
280
0
281
1
  3
ACAD_GROUP
350
D
  3
ACAD_LAYOUT
350
1A
  3
ACAD_MLINESTYLE
350
17
  3
ACAD_PLOTSETTINGS
350
19
  3
ACAD_PLOTSTYLENAME
350
E
  3
AcDbVariableDictionary
350
102
  0
DICTIONARY
  5
D
100
AcDbDictionary
280
0
281
1
  0
ACDBDICTIONARYWDFLT
  5
E
100
AcDbDictionary
281
1
  3
Normal
350
F
100
AcDbDictionaryWithDefault
340
F
  0
ACDBPLACEHOLDER
  5
F
  0
DICTIONARY
  5
17
100
AcDbDictionary
280
0
281
1
  3
Standard
350
18
  0
MLINESTYLE
  5
18
100
AcDbMlineStyle
  2
STANDARD
 70
0
  3

 62
256
 51
90.0
 52
90.0
 71
2
 49
0.5
 62
256
  6
BYLAYER
 49
-0.5
 62
256
  6
BYLAYER
  0
DICTIONARY
  5
19
100
AcDbDictionary
280
0
281
1
  0
DICTIONARY
  5
1A
100
AcDbDictionary
281
1
  3
Layout1
350
1E
  3
Layout2
350
26
  3
Model
350
22
  0
LAYOUT
  5
1E
100
AcDbPlotSettings
  1

  2
C:\Program Files\AutoCAD 2002\plotters\DWF ePlot (optimized for plotting).pc3
  4

  6

 40
0.0
 41
0.0
 42
0.0
 43
0.0
 44
0.0
 45
0.0
 46
0.0
 47
0.0
 48
0.0
 49
0.0
140
0.0
141
0.0
142
1.0
143
1.0
 70
688
 72
0
 73
0
 74
5
  7

 75
16
147
1.0
148
0.0
149
0.0
100
AcDbLayout
  1
Layout1
 70
1
 71
1
 10
0.0
 20
0.0
 11
420.0
 21
297.0
 12
0.0
 22
0.0
 32
0.0
 14
100000000000000000000.0
 24
100000000000000000000.0
 34
100000000000000000000.0
 15
-100000000000000000000.0
 25
-100000000000000000000.0
 35
-100000000000000000000.0
146
0.0
 13
0.0
 23
0.0
 33
0.0
 16
1.0
 26
0.0
 36
0.0
 17
0.0
 27
1.0
 37
0.0
 76
0
330
1B
  0
LAYOUT
  5
22
100
AcDbPlotSettings
  1

  2
C:\Program Files\AutoCAD 2002\plotters\DWF ePlot (optimized for plotting).pc3
  4

  6

 40
0.0
 41
0.0
 42
0.0
 43
0.0
 44
0.0
 45
0.0
 46
0.0
 47
0.0
 48
0.0
 49
0.0
140
0.0
141
0.0
142
1.0
143
1.0
 70
1712
 72
0
 73
0
 74
0
  7

 75
0
147
1.0
148
0.0
149
0.0
100
AcDbLayout
  1
Model
 70
1
 71
0
 10
0.0
 20
0.0
 11
12.0
 21
9.0
 12
0.0
 22
0.0
 32
0.0
 14
0.0
 24
0.0
 34
0.0
 15
0.0
 25
0.0
 35
0.0
146
0.0
 13
0.0
 23
0.0
 33
0.0
 16
1.0
 26
0.0
 36
0.0
 17
0.0
 27
1.0
 37
0.0
 76
0
330
1F
  0
LAYOUT
  5
26
100
AcDbPlotSettings
  1

  2
C:\Program Files\AutoCAD 2002\plotters\DWF ePlot (optimized for plotting).pc3
  4

  6

 40
0.0
 41
0.0
 42
0.0
 43
0.0
 44
0.0
 45
0.0
 46
0.0
 47
0.0
 48
0.0
 49
0.0
140
0.0
141
0.0
142
1.0
143
1.0
 70
688
 72
0
 73
0
 74
5
  7

 75
16
147
1.0
148
0.0
149
0.0
100
AcDbLayout
  1
Layout2
 70
1
 71
2
 10
0.0
 20
0.0
 11
12.0
 21
9.0
 12
0.0
 22
0.0
 32
0.0
 14
0.0
 24
0.0
 34
0.0
 15
0.0
 25
0.0
 35
0.0
146
0.0
 13
0.0
 23
0.0
 33
0.0
 16
1.0
 26
0.0
 36
0.0
 17
0.0
 27
1.0
 37
0.0
 76
0
330
23
  0
DICTIONARY
  5
102
100
AcDbDictionary
281
1
  3
DIMASSOC
350
104
  3
HIDETEXT
350
103
  0
DICTIONARYVAR
  5
103
100
DictionaryVariables
280
0
  1
2
  0
DICTIONARYVAR
  5
104
100
DictionaryVariables
280
0
  1
1
  0
ENDSEC
  0
EOF
