solid ascii
  facet normal -1.000000e+000 0.000000e+000 0.000000e+000
    outer loop
      vertex   -5.000000e+000 -6.000000e+001 0.000000e+000
      vertex   -5.000000e+000 -6.000000e+001 5.000000e+000
      vertex   -5.000000e+000 2.000000e+001 0.000000e+000
    endloop
  endfacet
  facet normal -1.000000e+000 0.000000e+000 0.000000e+000
    outer loop
      vertex   -5.000000e+000 2.000000e+001 0.000000e+000
      vertex   -5.000000e+000 -6.000000e+001 5.000000e+000
      vertex   -5.000000e+000 2.000000e+001 5.000000e+000
    endloop
  endfacet
  facet normal -0.000000e+000 0.000000e+000 1.000000e+000
    outer loop
      vertex   1.667417e+001 1.529520e+001 5.000000e+000
      vertex   1.670000e+001 1.500000e+001 5.000000e+000
      vertex   2.000000e+001 2.000000e+001 5.000000e+000
    endloop
  endfacet
  facet normal 0.000000e+000 -0.000000e+000 1.000000e+000
    outer loop
      vertex   1.659748e+001 1.558143e+001 5.000000e+000
      vertex   2.000000e+001 2.000000e+001 5.000000e+000
      vertex   1.647224e+001 1.585000e+001 5.000000e+000
    endloop
  endfacet
  facet normal -0.000000e+000 0.000000e+000 1.000000e+000
    outer loop
      vertex   1.659748e+001 1.558143e+001 5.000000e+000
      vertex   1.667417e+001 1.529520e+001 5.000000e+000
      vertex   2.000000e+001 2.000000e+001 5.000000e+000
    endloop
  endfacet
  facet normal -0.000000e+000 0.000000e+000 1.000000e+000
    outer loop
      vertex   1.670000e+001 1.500000e+001 5.000000e+000
      vertex   1.667417e+001 1.470480e+001 5.000000e+000
      vertex   2.000000e+001 2.000000e+001 5.000000e+000
    endloop
  endfacet
  facet normal 0.000000e+000 0.000000e+000 1.000000e+000
    outer loop
      vertex   2.000000e+001 2.000000e+001 5.000000e+000
      vertex   1.667417e+001 1.470480e+001 5.000000e+000
      vertex   1.659748e+001 1.441857e+001 5.000000e+000
    endloop
  endfacet
  facet normal 0.000000e+000 0.000000e+000 1.000000e+000
    outer loop
      vertex   2.000000e+001 -6.000000e+001 5.000000e+000
      vertex   1.659748e+001 1.441857e+001 5.000000e+000
      vertex   1.647224e+001 1.415000e+001 5.000000e+000
    endloop
  endfacet
  facet normal -0.000000e+000 -0.000000e+000 1.000000e+000
    outer loop
      vertex   1.630228e+001 1.390726e+001 5.000000e+000
      vertex   2.000000e+001 -6.000000e+001 5.000000e+000
      vertex   1.647224e+001 1.415000e+001 5.000000e+000
    endloop
  endfacet
  facet normal 0.000000e+000 0.000000e+000 1.000000e+000
    outer loop
      vertex   1.630228e+001 1.390726e+001 5.000000e+000
      vertex   1.609274e+001 1.369772e+001 5.000000e+000
      vertex   2.000000e+001 -6.000000e+001 5.000000e+000
    endloop
  endfacet
  facet normal 0.000000e+000 0.000000e+000 1.000000e+000
    outer loop
      vertex   2.000000e+001 -6.000000e+001 5.000000e+000
      vertex   1.609274e+001 1.369772e+001 5.000000e+000
      vertex   1.585000e+001 1.352776e+001 5.000000e+000
    endloop
  endfacet
  facet normal -0.000000e+000 -0.000000e+000 1.000000e+000
    outer loop
      vertex   1.558143e+001 1.340252e+001 5.000000e+000
      vertex   2.000000e+001 -6.000000e+001 5.000000e+000
      vertex   1.585000e+001 1.352776e+001 5.000000e+000
    endloop
  endfacet
  facet normal 0.000000e+000 0.000000e+000 1.000000e+000
    outer loop
      vertex   1.558143e+001 1.340252e+001 5.000000e+000
      vertex   1.529520e+001 1.332583e+001 5.000000e+000
      vertex   2.000000e+001 -6.000000e+001 5.000000e+000
    endloop
  endfacet
  facet normal 0.000000e+000 0.000000e+000 1.000000e+000
    outer loop
      vertex   2.000000e+001 -6.000000e+001 5.000000e+000
      vertex   1.529520e+001 1.332583e+001 5.000000e+000
      vertex   1.500000e+001 1.330000e+001 5.000000e+000
    endloop
  endfacet
  facet normal 0.000000e+000 -0.000000e+000 1.000000e+000
    outer loop
      vertex   1.674173e+000 -2.952019e-001 5.000000e+000
      vertex   1.500000e+001 1.330000e+001 5.000000e+000
      vertex   1.700000e+000 0.000000e+000 5.000000e+000
    endloop
  endfacet
  facet normal -0.000000e+000 -0.000000e+000 1.000000e+000
    outer loop
      vertex   1.674173e+000 -2.952019e-001 5.000000e+000
      vertex   2.000000e+001 -6.000000e+001 5.000000e+000
      vertex   1.500000e+001 1.330000e+001 5.000000e+000
    endloop
  endfacet
  facet normal 0.000000e+000 0.000000e+000 1.000000e+000
    outer loop
      vertex   1.674173e+000 -2.952019e-001 5.000000e+000
      vertex   1.597477e+000 -5.814342e-001 5.000000e+000
      vertex   2.000000e+001 -6.000000e+001 5.000000e+000
    endloop
  endfacet
  facet normal 0.000000e+000 0.000000e+000 1.000000e+000
    outer loop
      vertex   2.000000e+001 -6.000000e+001 5.000000e+000
      vertex   1.597477e+000 -5.814342e-001 5.000000e+000
      vertex   1.472243e+000 -8.500000e-001 5.000000e+000
    endloop
  endfacet
  facet normal 0.000000e+000 -0.000000e+000 1.000000e+000
    outer loop
      vertex   -5.000000e+000 -6.000000e+001 5.000000e+000
      vertex   1.472243e+000 -8.500000e-001 5.000000e+000
      vertex   1.302276e+000 -1.092739e+000 5.000000e+000
    endloop
  endfacet
  facet normal -0.000000e+000 0.000000e+000 1.000000e+000
    outer loop
      vertex   1.092739e+000 -1.302276e+000 5.000000e+000
      vertex   -5.000000e+000 -6.000000e+001 5.000000e+000
      vertex   1.302276e+000 -1.092739e+000 5.000000e+000
    endloop
  endfacet
  facet normal 0.000000e+000 0.000000e+000 1.000000e+000
    outer loop
      vertex   1.092739e+000 -1.302276e+000 5.000000e+000
      vertex   8.500000e-001 -1.472243e+000 5.000000e+000
      vertex   -5.000000e+000 -6.000000e+001 5.000000e+000
    endloop
  endfacet
  facet normal 0.000000e+000 -0.000000e+000 1.000000e+000
    outer loop
      vertex   -5.000000e+000 -6.000000e+001 5.000000e+000
      vertex   8.500000e-001 -1.472243e+000 5.000000e+000
      vertex   5.814342e-001 -1.597477e+000 5.000000e+000
    endloop
  endfacet
  facet normal -0.000000e+000 0.000000e+000 1.000000e+000
    outer loop
      vertex   2.952019e-001 -1.674173e+000 5.000000e+000
      vertex   -5.000000e+000 -6.000000e+001 5.000000e+000
      vertex   5.814342e-001 -1.597477e+000 5.000000e+000
    endloop
  endfacet
  facet normal 0.000000e+000 0.000000e+000 1.000000e+000
    outer loop
      vertex   2.952019e-001 -1.674173e+000 5.000000e+000
      vertex   1.040915e-016 -1.700000e+000 5.000000e+000
      vertex   -5.000000e+000 -6.000000e+001 5.000000e+000
    endloop
  endfacet
  facet normal 0.000000e+000 -0.000000e+000 1.000000e+000
    outer loop
      vertex   -5.000000e+000 -6.000000e+001 5.000000e+000
      vertex   1.040915e-016 -1.700000e+000 5.000000e+000
      vertex   -2.952019e-001 -1.674173e+000 5.000000e+000
    endloop
  endfacet
  facet normal -0.000000e+000 0.000000e+000 1.000000e+000
    outer loop
      vertex   -5.814342e-001 -1.597477e+000 5.000000e+000
      vertex   -5.000000e+000 -6.000000e+001 5.000000e+000
      vertex   -2.952019e-001 -1.674173e+000 5.000000e+000
    endloop
  endfacet
  facet normal 0.000000e+000 0.000000e+000 1.000000e+000
    outer loop
      vertex   -5.814342e-001 -1.597477e+000 5.000000e+000
      vertex   -8.500000e-001 -1.472243e+000 5.000000e+000
      vertex   -5.000000e+000 -6.000000e+001 5.000000e+000
    endloop
  endfacet
  facet normal 0.000000e+000 -0.000000e+000 1.000000e+000
    outer loop
      vertex   -5.000000e+000 -6.000000e+001 5.000000e+000
      vertex   -8.500000e-001 -1.472243e+000 5.000000e+000
      vertex   -1.092739e+000 -1.302276e+000 5.000000e+000
    endloop
  endfacet
  facet normal -0.000000e+000 0.000000e+000 1.000000e+000
    outer loop
      vertex   -1.302276e+000 -1.092739e+000 5.000000e+000
      vertex   -5.000000e+000 -6.000000e+001 5.000000e+000
      vertex   -1.092739e+000 -1.302276e+000 5.000000e+000
    endloop
  endfacet
  facet normal 0.000000e+000 0.000000e+000 1.000000e+000
    outer loop
      vertex   -1.302276e+000 -1.092739e+000 5.000000e+000
      vertex   -1.472243e+000 -8.500000e-001 5.000000e+000
      vertex   -5.000000e+000 -6.000000e+001 5.000000e+000
    endloop
  endfacet
  facet normal 0.000000e+000 -0.000000e+000 1.000000e+000
    outer loop
      vertex   -5.000000e+000 -6.000000e+001 5.000000e+000
      vertex   -1.472243e+000 -8.500000e-001 5.000000e+000
      vertex   -1.597477e+000 -5.814342e-001 5.000000e+000
    endloop
  endfacet
  facet normal -0.000000e+000 0.000000e+000 1.000000e+000
    outer loop
      vertex   -1.674173e+000 -2.952019e-001 5.000000e+000
      vertex   -5.000000e+000 -6.000000e+001 5.000000e+000
      vertex   -1.597477e+000 -5.814342e-001 5.000000e+000
    endloop
  endfacet
  facet normal 0.000000e+000 0.000000e+000 1.000000e+000
    outer loop
      vertex   -1.674173e+000 -2.952019e-001 5.000000e+000
      vertex   -5.000000e+000 2.000000e+001 5.000000e+000
      vertex   -5.000000e+000 -6.000000e+001 5.000000e+000
    endloop
  endfacet
  facet normal 0.000000e+000 0.000000e+000 1.000000e+000
    outer loop
      vertex   -1.674173e+000 -2.952019e-001 5.000000e+000
      vertex   -1.700000e+000 -2.081831e-016 5.000000e+000
      vertex   -5.000000e+000 2.000000e+001 5.000000e+000
    endloop
  endfacet
  facet normal -0.000000e+000 0.000000e+000 1.000000e+000
    outer loop
      vertex   -5.000000e+000 2.000000e+001 5.000000e+000
      vertex   -1.700000e+000 -2.081831e-016 5.000000e+000
      vertex   -1.674173e+000 2.952019e-001 5.000000e+000
    endloop
  endfacet
  facet normal 0.000000e+000 0.000000e+000 1.000000e+000
    outer loop
      vertex   -1.597477e+000 5.814342e-001 5.000000e+000
      vertex   -5.000000e+000 2.000000e+001 5.000000e+000
      vertex   -1.674173e+000 2.952019e-001 5.000000e+000
    endloop
  endfacet
  facet normal 0.000000e+000 -0.000000e+000 1.000000e+000
    outer loop
      vertex   -1.597477e+000 5.814342e-001 5.000000e+000
      vertex   -1.472243e+000 8.500000e-001 5.000000e+000
      vertex   -5.000000e+000 2.000000e+001 5.000000e+000
    endloop
  endfacet
  facet normal -0.000000e+000 0.000000e+000 1.000000e+000
    outer loop
      vertex   -5.000000e+000 2.000000e+001 5.000000e+000
      vertex   -1.472243e+000 8.500000e-001 5.000000e+000
      vertex   -1.302276e+000 1.092739e+000 5.000000e+000
    endloop
  endfacet
  facet normal 0.000000e+000 0.000000e+000 1.000000e+000
    outer loop
      vertex   -1.092739e+000 1.302276e+000 5.000000e+000
      vertex   -5.000000e+000 2.000000e+001 5.000000e+000
      vertex   -1.302276e+000 1.092739e+000 5.000000e+000
    endloop
  endfacet
  facet normal 0.000000e+000 -0.000000e+000 1.000000e+000
    outer loop
      vertex   -1.092739e+000 1.302276e+000 5.000000e+000
      vertex   -8.500000e-001 1.472243e+000 5.000000e+000
      vertex   -5.000000e+000 2.000000e+001 5.000000e+000
    endloop
  endfacet
  facet normal -0.000000e+000 0.000000e+000 1.000000e+000
    outer loop
      vertex   -5.000000e+000 2.000000e+001 5.000000e+000
      vertex   -8.500000e-001 1.472243e+000 5.000000e+000
      vertex   1.332583e+001 1.529520e+001 5.000000e+000
    endloop
  endfacet
  facet normal 0.000000e+000 0.000000e+000 1.000000e+000
    outer loop
      vertex   1.340252e+001 1.558143e+001 5.000000e+000
      vertex   -5.000000e+000 2.000000e+001 5.000000e+000
      vertex   1.332583e+001 1.529520e+001 5.000000e+000
    endloop
  endfacet
  facet normal 0.000000e+000 -0.000000e+000 1.000000e+000
    outer loop
      vertex   1.340252e+001 1.558143e+001 5.000000e+000
      vertex   1.352776e+001 1.585000e+001 5.000000e+000
      vertex   -5.000000e+000 2.000000e+001 5.000000e+000
    endloop
  endfacet
  facet normal -0.000000e+000 0.000000e+000 1.000000e+000
    outer loop
      vertex   -5.000000e+000 2.000000e+001 5.000000e+000
      vertex   1.352776e+001 1.585000e+001 5.000000e+000
      vertex   1.369772e+001 1.609274e+001 5.000000e+000
    endloop
  endfacet
  facet normal 0.000000e+000 0.000000e+000 1.000000e+000
    outer loop
      vertex   1.390726e+001 1.630228e+001 5.000000e+000
      vertex   -5.000000e+000 2.000000e+001 5.000000e+000
      vertex   1.369772e+001 1.609274e+001 5.000000e+000
    endloop
  endfacet
  facet normal 0.000000e+000 -0.000000e+000 1.000000e+000
    outer loop
      vertex   1.390726e+001 1.630228e+001 5.000000e+000
      vertex   1.415000e+001 1.647224e+001 5.000000e+000
      vertex   -5.000000e+000 2.000000e+001 5.000000e+000
    endloop
  endfacet
  facet normal -0.000000e+000 0.000000e+000 1.000000e+000
    outer loop
      vertex   -5.000000e+000 2.000000e+001 5.000000e+000
      vertex   1.415000e+001 1.647224e+001 5.000000e+000
      vertex   1.441857e+001 1.659748e+001 5.000000e+000
    endloop
  endfacet
  facet normal -0.000000e+000 0.000000e+000 1.000000e+000
    outer loop
      vertex   2.000000e+001 2.000000e+001 5.000000e+000
      vertex   1.441857e+001 1.659748e+001 5.000000e+000
      vertex   1.470480e+001 1.667417e+001 5.000000e+000
    endloop
  endfacet
  facet normal 0.000000e+000 -0.000000e+000 1.000000e+000
    outer loop
      vertex   1.500000e+001 1.670000e+001 5.000000e+000
      vertex   2.000000e+001 2.000000e+001 5.000000e+000
      vertex   1.470480e+001 1.667417e+001 5.000000e+000
    endloop
  endfacet
  facet normal -0.000000e+000 0.000000e+000 1.000000e+000
    outer loop
      vertex   1.500000e+001 1.670000e+001 5.000000e+000
      vertex   1.529520e+001 1.667417e+001 5.000000e+000
      vertex   2.000000e+001 2.000000e+001 5.000000e+000
    endloop
  endfacet
  facet normal 0.000000e+000 0.000000e+000 1.000000e+000
    outer loop
      vertex   2.000000e+001 2.000000e+001 5.000000e+000
      vertex   1.529520e+001 1.667417e+001 5.000000e+000
      vertex   1.558143e+001 1.659748e+001 5.000000e+000
    endloop
  endfacet
  facet normal 0.000000e+000 -0.000000e+000 1.000000e+000
    outer loop
      vertex   1.585000e+001 1.647224e+001 5.000000e+000
      vertex   2.000000e+001 2.000000e+001 5.000000e+000
      vertex   1.558143e+001 1.659748e+001 5.000000e+000
    endloop
  endfacet
  facet normal -0.000000e+000 0.000000e+000 1.000000e+000
    outer loop
      vertex   1.585000e+001 1.647224e+001 5.000000e+000
      vertex   1.609274e+001 1.630228e+001 5.000000e+000
      vertex   2.000000e+001 2.000000e+001 5.000000e+000
    endloop
  endfacet
  facet normal 0.000000e+000 0.000000e+000 1.000000e+000
    outer loop
      vertex   2.000000e+001 2.000000e+001 5.000000e+000
      vertex   1.609274e+001 1.630228e+001 5.000000e+000
      vertex   1.630228e+001 1.609274e+001 5.000000e+000
    endloop
  endfacet
  facet normal 0.000000e+000 -0.000000e+000 1.000000e+000
    outer loop
      vertex   1.647224e+001 1.585000e+001 5.000000e+000
      vertex   2.000000e+001 2.000000e+001 5.000000e+000
      vertex   1.630228e+001 1.609274e+001 5.000000e+000
    endloop
  endfacet
  facet normal -0.000000e+000 0.000000e+000 1.000000e+000
    outer loop
      vertex   1.470480e+001 1.332583e+001 5.000000e+000
      vertex   -2.952019e-001 1.674173e+000 5.000000e+000
      vertex   1.500000e+001 1.330000e+001 5.000000e+000
    endloop
  endfacet
  facet normal 0.000000e+000 0.000000e+000 1.000000e+000
    outer loop
      vertex   1.470480e+001 1.332583e+001 5.000000e+000
      vertex   1.441857e+001 1.340252e+001 5.000000e+000
      vertex   -2.952019e-001 1.674173e+000 5.000000e+000
    endloop
  endfacet
  facet normal 0.000000e+000 -0.000000e+000 1.000000e+000
    outer loop
      vertex   -2.952019e-001 1.674173e+000 5.000000e+000
      vertex   1.441857e+001 1.340252e+001 5.000000e+000
      vertex   1.415000e+001 1.352776e+001 5.000000e+000
    endloop
  endfacet
  facet normal -0.000000e+000 0.000000e+000 1.000000e+000
    outer loop
      vertex   1.390726e+001 1.369772e+001 5.000000e+000
      vertex   -2.952019e-001 1.674173e+000 5.000000e+000
      vertex   1.415000e+001 1.352776e+001 5.000000e+000
    endloop
  endfacet
  facet normal 0.000000e+000 0.000000e+000 1.000000e+000
    outer loop
      vertex   1.390726e+001 1.369772e+001 5.000000e+000
      vertex   1.369772e+001 1.390726e+001 5.000000e+000
      vertex   -2.952019e-001 1.674173e+000 5.000000e+000
    endloop
  endfacet
  facet normal 0.000000e+000 -0.000000e+000 1.000000e+000
    outer loop
      vertex   -2.952019e-001 1.674173e+000 5.000000e+000
      vertex   1.369772e+001 1.390726e+001 5.000000e+000
      vertex   1.352776e+001 1.415000e+001 5.000000e+000
    endloop
  endfacet
  facet normal 0.000000e+000 -0.000000e+000 1.000000e+000
    outer loop
      vertex   -5.814342e-001 1.597477e+000 5.000000e+000
      vertex   1.352776e+001 1.415000e+001 5.000000e+000
      vertex   1.340252e+001 1.441857e+001 5.000000e+000
    endloop
  endfacet
  facet normal -0.000000e+000 0.000000e+000 1.000000e+000
    outer loop
      vertex   1.332583e+001 1.470480e+001 5.000000e+000
      vertex   -5.814342e-001 1.597477e+000 5.000000e+000
      vertex   1.340252e+001 1.441857e+001 5.000000e+000
    endloop
  endfacet
  facet normal -0.000000e+000 0.000000e+000 1.000000e+000
    outer loop
      vertex   1.332583e+001 1.470480e+001 5.000000e+000
      vertex   -8.500000e-001 1.472243e+000 5.000000e+000
      vertex   -5.814342e-001 1.597477e+000 5.000000e+000
    endloop
  endfacet
  facet normal 0.000000e+000 0.000000e+000 1.000000e+000
    outer loop
      vertex   1.332583e+001 1.470480e+001 5.000000e+000
      vertex   1.330000e+001 1.500000e+001 5.000000e+000
      vertex   -8.500000e-001 1.472243e+000 5.000000e+000
    endloop
  endfacet
  facet normal 0.000000e+000 0.000000e+000 1.000000e+000
    outer loop
      vertex   -8.500000e-001 1.472243e+000 5.000000e+000
      vertex   1.330000e+001 1.500000e+001 5.000000e+000
      vertex   1.332583e+001 1.529520e+001 5.000000e+000
    endloop
  endfacet
  facet normal 0.000000e+000 -0.000000e+000 1.000000e+000
    outer loop
      vertex   -5.000000e+000 -6.000000e+001 5.000000e+000
      vertex   2.000000e+001 -6.000000e+001 5.000000e+000
      vertex   1.472243e+000 -8.500000e-001 5.000000e+000
    endloop
  endfacet
  facet normal 0.000000e+000 -0.000000e+000 1.000000e+000
    outer loop
      vertex   2.000000e+001 -6.000000e+001 5.000000e+000
      vertex   2.000000e+001 2.000000e+001 5.000000e+000
      vertex   1.659748e+001 1.441857e+001 5.000000e+000
    endloop
  endfacet
  facet normal 0.000000e+000 0.000000e+000 1.000000e+000
    outer loop
      vertex   2.000000e+001 2.000000e+001 5.000000e+000
      vertex   -5.000000e+000 2.000000e+001 5.000000e+000
      vertex   1.441857e+001 1.659748e+001 5.000000e+000
    endloop
  endfacet
  facet normal 0.000000e+000 0.000000e+000 1.000000e+000
    outer loop
      vertex   -5.814342e-001 1.597477e+000 5.000000e+000
      vertex   -2.952019e-001 1.674173e+000 5.000000e+000
      vertex   1.352776e+001 1.415000e+001 5.000000e+000
    endloop
  endfacet
  facet normal 0.000000e+000 0.000000e+000 1.000000e+000
    outer loop
      vertex   -2.952019e-001 1.674173e+000 5.000000e+000
      vertex   -3.122746e-016 1.700000e+000 5.000000e+000
      vertex   1.500000e+001 1.330000e+001 5.000000e+000
    endloop
  endfacet
  facet normal 0.000000e+000 0.000000e+000 1.000000e+000
    outer loop
      vertex   1.500000e+001 1.330000e+001 5.000000e+000
      vertex   -3.122746e-016 1.700000e+000 5.000000e+000
      vertex   2.952019e-001 1.674173e+000 5.000000e+000
    endloop
  endfacet
  facet normal 0.000000e+000 -0.000000e+000 1.000000e+000
    outer loop
      vertex   5.814342e-001 1.597477e+000 5.000000e+000
      vertex   1.500000e+001 1.330000e+001 5.000000e+000
      vertex   2.952019e-001 1.674173e+000 5.000000e+000
    endloop
  endfacet
  facet normal -0.000000e+000 0.000000e+000 1.000000e+000
    outer loop
      vertex   5.814342e-001 1.597477e+000 5.000000e+000
      vertex   8.500000e-001 1.472243e+000 5.000000e+000
      vertex   1.500000e+001 1.330000e+001 5.000000e+000
    endloop
  endfacet
  facet normal 0.000000e+000 0.000000e+000 1.000000e+000
    outer loop
      vertex   1.500000e+001 1.330000e+001 5.000000e+000
      vertex   8.500000e-001 1.472243e+000 5.000000e+000
      vertex   1.092739e+000 1.302276e+000 5.000000e+000
    endloop
  endfacet
  facet normal 0.000000e+000 -0.000000e+000 1.000000e+000
    outer loop
      vertex   1.302276e+000 1.092739e+000 5.000000e+000
      vertex   1.500000e+001 1.330000e+001 5.000000e+000
      vertex   1.092739e+000 1.302276e+000 5.000000e+000
    endloop
  endfacet
  facet normal -0.000000e+000 0.000000e+000 1.000000e+000
    outer loop
      vertex   1.302276e+000 1.092739e+000 5.000000e+000
      vertex   1.472243e+000 8.500000e-001 5.000000e+000
      vertex   1.500000e+001 1.330000e+001 5.000000e+000
    endloop
  endfacet
  facet normal 0.000000e+000 0.000000e+000 1.000000e+000
    outer loop
      vertex   1.500000e+001 1.330000e+001 5.000000e+000
      vertex   1.472243e+000 8.500000e-001 5.000000e+000
      vertex   1.597477e+000 5.814342e-001 5.000000e+000
    endloop
  endfacet
  facet normal 0.000000e+000 -0.000000e+000 1.000000e+000
    outer loop
      vertex   1.674173e+000 2.952019e-001 5.000000e+000
      vertex   1.500000e+001 1.330000e+001 5.000000e+000
      vertex   1.597477e+000 5.814342e-001 5.000000e+000
    endloop
  endfacet
  facet normal -0.000000e+000 0.000000e+000 1.000000e+000
    outer loop
      vertex   1.674173e+000 2.952019e-001 5.000000e+000
      vertex   1.700000e+000 0.000000e+000 5.000000e+000
      vertex   1.500000e+001 1.330000e+001 5.000000e+000
    endloop
  endfacet
  facet normal -0.000000e+000 -1.000000e+000 0.000000e+000
    outer loop
      vertex   2.000000e+001 -6.000000e+001 0.000000e+000
      vertex   2.000000e+001 -6.000000e+001 5.000000e+000
      vertex   -5.000000e+000 -6.000000e+001 0.000000e+000
    endloop
  endfacet
  facet normal 0.000000e+000 -1.000000e+000 0.000000e+000
    outer loop
      vertex   -5.000000e+000 -6.000000e+001 0.000000e+000
      vertex   2.000000e+001 -6.000000e+001 5.000000e+000
      vertex   -5.000000e+000 -6.000000e+001 5.000000e+000
    endloop
  endfacet
  facet normal 1.000000e+000 0.000000e+000 -0.000000e+000
    outer loop
      vertex   2.000000e+001 2.000000e+001 0.000000e+000
      vertex   2.000000e+001 2.000000e+001 5.000000e+000
      vertex   2.000000e+001 -6.000000e+001 0.000000e+000
    endloop
  endfacet
  facet normal 1.000000e+000 0.000000e+000 -0.000000e+000
    outer loop
      vertex   2.000000e+001 -6.000000e+001 0.000000e+000
      vertex   2.000000e+001 2.000000e+001 5.000000e+000
      vertex   2.000000e+001 -6.000000e+001 5.000000e+000
    endloop
  endfacet
  facet normal -0.000000e+000 1.000000e+000 0.000000e+000
    outer loop
      vertex   -5.000000e+000 2.000000e+001 0.000000e+000
      vertex   -5.000000e+000 2.000000e+001 5.000000e+000
      vertex   2.000000e+001 2.000000e+001 0.000000e+000
    endloop
  endfacet
  facet normal 0.000000e+000 1.000000e+000 -0.000000e+000
    outer loop
      vertex   2.000000e+001 2.000000e+001 0.000000e+000
      vertex   -5.000000e+000 2.000000e+001 5.000000e+000
      vertex   2.000000e+001 2.000000e+001 5.000000e+000
    endloop
  endfacet
  facet normal 0.000000e+000 0.000000e+000 -1.000000e+000
    outer loop
      vertex   1.667417e+001 1.470480e+001 0.000000e+000
      vertex   1.670000e+001 1.500000e+001 0.000000e+000
      vertex   2.000000e+001 2.000000e+001 0.000000e+000
    endloop
  endfacet
  facet normal 0.000000e+000 0.000000e+000 -1.000000e+000
    outer loop
      vertex   1.659748e+001 1.441857e+001 0.000000e+000
      vertex   2.000000e+001 2.000000e+001 0.000000e+000
      vertex   2.000000e+001 -6.000000e+001 0.000000e+000
    endloop
  endfacet
  facet normal -0.000000e+000 -0.000000e+000 -1.000000e+000
    outer loop
      vertex   1.647224e+001 1.415000e+001 0.000000e+000
      vertex   2.000000e+001 -6.000000e+001 0.000000e+000
      vertex   1.630228e+001 1.390726e+001 0.000000e+000
    endloop
  endfacet
  facet normal 0.000000e+000 0.000000e+000 -1.000000e+000
    outer loop
      vertex   1.647224e+001 1.415000e+001 0.000000e+000
      vertex   1.659748e+001 1.441857e+001 0.000000e+000
      vertex   2.000000e+001 -6.000000e+001 0.000000e+000
    endloop
  endfacet
  facet normal 0.000000e+000 0.000000e+000 -1.000000e+000
    outer loop
      vertex   1.670000e+001 1.500000e+001 0.000000e+000
      vertex   1.667417e+001 1.529520e+001 0.000000e+000
      vertex   2.000000e+001 2.000000e+001 0.000000e+000
    endloop
  endfacet
  facet normal -0.000000e+000 0.000000e+000 -1.000000e+000
    outer loop
      vertex   2.000000e+001 2.000000e+001 0.000000e+000
      vertex   1.667417e+001 1.529520e+001 0.000000e+000
      vertex   1.659748e+001 1.558143e+001 0.000000e+000
    endloop
  endfacet
  facet normal 0.000000e+000 -0.000000e+000 -1.000000e+000
    outer loop
      vertex   1.647224e+001 1.585000e+001 0.000000e+000
      vertex   2.000000e+001 2.000000e+001 0.000000e+000
      vertex   1.659748e+001 1.558143e+001 0.000000e+000
    endloop
  endfacet
  facet normal 0.000000e+000 0.000000e+000 -1.000000e+000
    outer loop
      vertex   1.647224e+001 1.585000e+001 0.000000e+000
      vertex   1.630228e+001 1.609274e+001 0.000000e+000
      vertex   2.000000e+001 2.000000e+001 0.000000e+000
    endloop
  endfacet
  facet normal -0.000000e+000 0.000000e+000 -1.000000e+000
    outer loop
      vertex   2.000000e+001 2.000000e+001 0.000000e+000
      vertex   1.630228e+001 1.609274e+001 0.000000e+000
      vertex   1.609274e+001 1.630228e+001 0.000000e+000
    endloop
  endfacet
  facet normal 0.000000e+000 -0.000000e+000 -1.000000e+000
    outer loop
      vertex   1.585000e+001 1.647224e+001 0.000000e+000
      vertex   2.000000e+001 2.000000e+001 0.000000e+000
      vertex   1.609274e+001 1.630228e+001 0.000000e+000
    endloop
  endfacet
  facet normal 0.000000e+000 0.000000e+000 -1.000000e+000
    outer loop
      vertex   1.585000e+001 1.647224e+001 0.000000e+000
      vertex   1.558143e+001 1.659748e+001 0.000000e+000
      vertex   2.000000e+001 2.000000e+001 0.000000e+000
    endloop
  endfacet
  facet normal -0.000000e+000 0.000000e+000 -1.000000e+000
    outer loop
      vertex   2.000000e+001 2.000000e+001 0.000000e+000
      vertex   1.558143e+001 1.659748e+001 0.000000e+000
      vertex   1.529520e+001 1.667417e+001 0.000000e+000
    endloop
  endfacet
  facet normal 0.000000e+000 -0.000000e+000 -1.000000e+000
    outer loop
      vertex   1.500000e+001 1.670000e+001 0.000000e+000
      vertex   2.000000e+001 2.000000e+001 0.000000e+000
      vertex   1.529520e+001 1.667417e+001 0.000000e+000
    endloop
  endfacet
  facet normal -0.000000e+000 0.000000e+000 -1.000000e+000
    outer loop
      vertex   1.500000e+001 1.670000e+001 0.000000e+000
      vertex   1.470480e+001 1.667417e+001 0.000000e+000
      vertex   2.000000e+001 2.000000e+001 0.000000e+000
    endloop
  endfacet
  facet normal 0.000000e+000 0.000000e+000 -1.000000e+000
    outer loop
      vertex   2.000000e+001 2.000000e+001 0.000000e+000
      vertex   1.470480e+001 1.667417e+001 0.000000e+000
      vertex   1.441857e+001 1.659748e+001 0.000000e+000
    endloop
  endfacet
  facet normal 0.000000e+000 -0.000000e+000 -1.000000e+000
    outer loop
      vertex   -5.000000e+000 2.000000e+001 0.000000e+000
      vertex   1.441857e+001 1.659748e+001 0.000000e+000
      vertex   1.415000e+001 1.647224e+001 0.000000e+000
    endloop
  endfacet
  facet normal 0.000000e+000 0.000000e+000 -1.000000e+000
    outer loop
      vertex   1.390726e+001 1.630228e+001 0.000000e+000
      vertex   -5.000000e+000 2.000000e+001 0.000000e+000
      vertex   1.415000e+001 1.647224e+001 0.000000e+000
    endloop
  endfacet
  facet normal -0.000000e+000 0.000000e+000 -1.000000e+000
    outer loop
      vertex   1.390726e+001 1.630228e+001 0.000000e+000
      vertex   1.369772e+001 1.609274e+001 0.000000e+000
      vertex   -5.000000e+000 2.000000e+001 0.000000e+000
    endloop
  endfacet
  facet normal 0.000000e+000 -0.000000e+000 -1.000000e+000
    outer loop
      vertex   -5.000000e+000 2.000000e+001 0.000000e+000
      vertex   1.369772e+001 1.609274e+001 0.000000e+000
      vertex   1.352776e+001 1.585000e+001 0.000000e+000
    endloop
  endfacet
  facet normal 0.000000e+000 0.000000e+000 -1.000000e+000
    outer loop
      vertex   1.340252e+001 1.558143e+001 0.000000e+000
      vertex   -5.000000e+000 2.000000e+001 0.000000e+000
      vertex   1.352776e+001 1.585000e+001 0.000000e+000
    endloop
  endfacet
  facet normal -0.000000e+000 0.000000e+000 -1.000000e+000
    outer loop
      vertex   1.340252e+001 1.558143e+001 0.000000e+000
      vertex   1.332583e+001 1.529520e+001 0.000000e+000
      vertex   -5.000000e+000 2.000000e+001 0.000000e+000
    endloop
  endfacet
  facet normal 0.000000e+000 -0.000000e+000 -1.000000e+000
    outer loop
      vertex   -5.000000e+000 2.000000e+001 0.000000e+000
      vertex   1.332583e+001 1.529520e+001 0.000000e+000
      vertex   -8.500000e-001 1.472243e+000 0.000000e+000
    endloop
  endfacet
  facet normal 0.000000e+000 0.000000e+000 -1.000000e+000
    outer loop
      vertex   -1.092739e+000 1.302276e+000 0.000000e+000
      vertex   -5.000000e+000 2.000000e+001 0.000000e+000
      vertex   -8.500000e-001 1.472243e+000 0.000000e+000
    endloop
  endfacet
  facet normal -0.000000e+000 0.000000e+000 -1.000000e+000
    outer loop
      vertex   -1.092739e+000 1.302276e+000 0.000000e+000
      vertex   -1.302276e+000 1.092739e+000 0.000000e+000
      vertex   -5.000000e+000 2.000000e+001 0.000000e+000
    endloop
  endfacet
  facet normal 0.000000e+000 -0.000000e+000 -1.000000e+000
    outer loop
      vertex   -5.000000e+000 2.000000e+001 0.000000e+000
      vertex   -1.302276e+000 1.092739e+000 0.000000e+000
      vertex   -1.472243e+000 8.500000e-001 0.000000e+000
    endloop
  endfacet
  facet normal 0.000000e+000 0.000000e+000 -1.000000e+000
    outer loop
      vertex   -1.597477e+000 5.814342e-001 0.000000e+000
      vertex   -5.000000e+000 2.000000e+001 0.000000e+000
      vertex   -1.472243e+000 8.500000e-001 0.000000e+000
    endloop
  endfacet
  facet normal -0.000000e+000 0.000000e+000 -1.000000e+000
    outer loop
      vertex   -1.597477e+000 5.814342e-001 0.000000e+000
      vertex   -1.674173e+000 2.952019e-001 0.000000e+000
      vertex   -5.000000e+000 2.000000e+001 0.000000e+000
    endloop
  endfacet
  facet normal 0.000000e+000 -0.000000e+000 -1.000000e+000
    outer loop
      vertex   -5.000000e+000 2.000000e+001 0.000000e+000
      vertex   -1.674173e+000 2.952019e-001 0.000000e+000
      vertex   -1.700000e+000 -2.081831e-016 0.000000e+000
    endloop
  endfacet
  facet normal 0.000000e+000 0.000000e+000 -1.000000e+000
    outer loop
      vertex   -1.674173e+000 -2.952019e-001 0.000000e+000
      vertex   -5.000000e+000 2.000000e+001 0.000000e+000
      vertex   -1.700000e+000 -2.081831e-016 0.000000e+000
    endloop
  endfacet
  facet normal -0.000000e+000 0.000000e+000 -1.000000e+000
    outer loop
      vertex   -1.674173e+000 -2.952019e-001 0.000000e+000
      vertex   -5.000000e+000 -6.000000e+001 0.000000e+000
      vertex   -5.000000e+000 2.000000e+001 0.000000e+000
    endloop
  endfacet
  facet normal 0.000000e+000 -0.000000e+000 -1.000000e+000
    outer loop
      vertex   -1.674173e+000 -2.952019e-001 0.000000e+000
      vertex   -1.597477e+000 -5.814342e-001 0.000000e+000
      vertex   -5.000000e+000 -6.000000e+001 0.000000e+000
    endloop
  endfacet
  facet normal 0.000000e+000 0.000000e+000 -1.000000e+000
    outer loop
      vertex   -5.000000e+000 -6.000000e+001 0.000000e+000
      vertex   -1.597477e+000 -5.814342e-001 0.000000e+000
      vertex   -1.472243e+000 -8.500000e-001 0.000000e+000
    endloop
  endfacet
  facet normal -0.000000e+000 0.000000e+000 -1.000000e+000
    outer loop
      vertex   -1.302276e+000 -1.092739e+000 0.000000e+000
      vertex   -5.000000e+000 -6.000000e+001 0.000000e+000
      vertex   -1.472243e+000 -8.500000e-001 0.000000e+000
    endloop
  endfacet
  facet normal 0.000000e+000 -0.000000e+000 -1.000000e+000
    outer loop
      vertex   -1.302276e+000 -1.092739e+000 0.000000e+000
      vertex   -1.092739e+000 -1.302276e+000 0.000000e+000
      vertex   -5.000000e+000 -6.000000e+001 0.000000e+000
    endloop
  endfacet
  facet normal 0.000000e+000 0.000000e+000 -1.000000e+000
    outer loop
      vertex   -5.000000e+000 -6.000000e+001 0.000000e+000
      vertex   -1.092739e+000 -1.302276e+000 0.000000e+000
      vertex   -8.500000e-001 -1.472243e+000 0.000000e+000
    endloop
  endfacet
  facet normal -0.000000e+000 0.000000e+000 -1.000000e+000
    outer loop
      vertex   -5.814342e-001 -1.597477e+000 0.000000e+000
      vertex   -5.000000e+000 -6.000000e+001 0.000000e+000
      vertex   -8.500000e-001 -1.472243e+000 0.000000e+000
    endloop
  endfacet
  facet normal 0.000000e+000 -0.000000e+000 -1.000000e+000
    outer loop
      vertex   -5.814342e-001 -1.597477e+000 0.000000e+000
      vertex   -2.952019e-001 -1.674173e+000 0.000000e+000
      vertex   -5.000000e+000 -6.000000e+001 0.000000e+000
    endloop
  endfacet
  facet normal 0.000000e+000 0.000000e+000 -1.000000e+000
    outer loop
      vertex   -5.000000e+000 -6.000000e+001 0.000000e+000
      vertex   -2.952019e-001 -1.674173e+000 0.000000e+000
      vertex   1.040915e-016 -1.700000e+000 0.000000e+000
    endloop
  endfacet
  facet normal -0.000000e+000 0.000000e+000 -1.000000e+000
    outer loop
      vertex   2.952019e-001 -1.674173e+000 0.000000e+000
      vertex   -5.000000e+000 -6.000000e+001 0.000000e+000
      vertex   1.040915e-016 -1.700000e+000 0.000000e+000
    endloop
  endfacet
  facet normal 0.000000e+000 -0.000000e+000 -1.000000e+000
    outer loop
      vertex   2.952019e-001 -1.674173e+000 0.000000e+000
      vertex   5.814342e-001 -1.597477e+000 0.000000e+000
      vertex   -5.000000e+000 -6.000000e+001 0.000000e+000
    endloop
  endfacet
  facet normal 0.000000e+000 0.000000e+000 -1.000000e+000
    outer loop
      vertex   -5.000000e+000 -6.000000e+001 0.000000e+000
      vertex   5.814342e-001 -1.597477e+000 0.000000e+000
      vertex   8.500000e-001 -1.472243e+000 0.000000e+000
    endloop
  endfacet
  facet normal -0.000000e+000 0.000000e+000 -1.000000e+000
    outer loop
      vertex   1.092739e+000 -1.302276e+000 0.000000e+000
      vertex   -5.000000e+000 -6.000000e+001 0.000000e+000
      vertex   8.500000e-001 -1.472243e+000 0.000000e+000
    endloop
  endfacet
  facet normal 0.000000e+000 -0.000000e+000 -1.000000e+000
    outer loop
      vertex   1.092739e+000 -1.302276e+000 0.000000e+000
      vertex   1.302276e+000 -1.092739e+000 0.000000e+000
      vertex   -5.000000e+000 -6.000000e+001 0.000000e+000
    endloop
  endfacet
  facet normal 0.000000e+000 0.000000e+000 -1.000000e+000
    outer loop
      vertex   -5.000000e+000 -6.000000e+001 0.000000e+000
      vertex   1.302276e+000 -1.092739e+000 0.000000e+000
      vertex   1.472243e+000 -8.500000e-001 0.000000e+000
    endloop
  endfacet
  facet normal 0.000000e+000 0.000000e+000 -1.000000e+000
    outer loop
      vertex   2.000000e+001 -6.000000e+001 0.000000e+000
      vertex   1.472243e+000 -8.500000e-001 0.000000e+000
      vertex   1.597477e+000 -5.814342e-001 0.000000e+000
    endloop
  endfacet
  facet normal -0.000000e+000 -0.000000e+000 -1.000000e+000
    outer loop
      vertex   1.674173e+000 -2.952019e-001 0.000000e+000
      vertex   2.000000e+001 -6.000000e+001 0.000000e+000
      vertex   1.597477e+000 -5.814342e-001 0.000000e+000
    endloop
  endfacet
  facet normal 0.000000e+000 0.000000e+000 -1.000000e+000
    outer loop
      vertex   1.674173e+000 -2.952019e-001 0.000000e+000
      vertex   1.500000e+001 1.330000e+001 0.000000e+000
      vertex   2.000000e+001 -6.000000e+001 0.000000e+000
    endloop
  endfacet
  facet normal 0.000000e+000 0.000000e+000 -1.000000e+000
    outer loop
      vertex   1.674173e+000 -2.952019e-001 0.000000e+000
      vertex   1.700000e+000 0.000000e+000 0.000000e+000
      vertex   1.500000e+001 1.330000e+001 0.000000e+000
    endloop
  endfacet
  facet normal -0.000000e+000 0.000000e+000 -1.000000e+000
    outer loop
      vertex   1.500000e+001 1.330000e+001 0.000000e+000
      vertex   1.700000e+000 0.000000e+000 0.000000e+000
      vertex   1.674173e+000 2.952019e-001 0.000000e+000
    endloop
  endfacet
  facet normal 0.000000e+000 -0.000000e+000 -1.000000e+000
    outer loop
      vertex   1.597477e+000 5.814342e-001 0.000000e+000
      vertex   1.500000e+001 1.330000e+001 0.000000e+000
      vertex   1.674173e+000 2.952019e-001 0.000000e+000
    endloop
  endfacet
  facet normal 0.000000e+000 0.000000e+000 -1.000000e+000
    outer loop
      vertex   1.597477e+000 5.814342e-001 0.000000e+000
      vertex   1.472243e+000 8.500000e-001 0.000000e+000
      vertex   1.500000e+001 1.330000e+001 0.000000e+000
    endloop
  endfacet
  facet normal -0.000000e+000 0.000000e+000 -1.000000e+000
    outer loop
      vertex   1.500000e+001 1.330000e+001 0.000000e+000
      vertex   1.472243e+000 8.500000e-001 0.000000e+000
      vertex   1.302276e+000 1.092739e+000 0.000000e+000
    endloop
  endfacet
  facet normal 0.000000e+000 -0.000000e+000 -1.000000e+000
    outer loop
      vertex   1.092739e+000 1.302276e+000 0.000000e+000
      vertex   1.500000e+001 1.330000e+001 0.000000e+000
      vertex   1.302276e+000 1.092739e+000 0.000000e+000
    endloop
  endfacet
  facet normal 0.000000e+000 0.000000e+000 -1.000000e+000
    outer loop
      vertex   1.092739e+000 1.302276e+000 0.000000e+000
      vertex   8.500000e-001 1.472243e+000 0.000000e+000
      vertex   1.500000e+001 1.330000e+001 0.000000e+000
    endloop
  endfacet
  facet normal -0.000000e+000 0.000000e+000 -1.000000e+000
    outer loop
      vertex   1.500000e+001 1.330000e+001 0.000000e+000
      vertex   8.500000e-001 1.472243e+000 0.000000e+000
      vertex   5.814342e-001 1.597477e+000 0.000000e+000
    endloop
  endfacet
  facet normal 0.000000e+000 -0.000000e+000 -1.000000e+000
    outer loop
      vertex   2.952019e-001 1.674173e+000 0.000000e+000
      vertex   1.500000e+001 1.330000e+001 0.000000e+000
      vertex   5.814342e-001 1.597477e+000 0.000000e+000
    endloop
  endfacet
  facet normal 0.000000e+000 0.000000e+000 -1.000000e+000
    outer loop
      vertex   2.952019e-001 1.674173e+000 0.000000e+000
      vertex   -3.122746e-016 1.700000e+000 0.000000e+000
      vertex   1.500000e+001 1.330000e+001 0.000000e+000
    endloop
  endfacet
  facet normal 0.000000e+000 0.000000e+000 -1.000000e+000
    outer loop
      vertex   1.500000e+001 1.330000e+001 0.000000e+000
      vertex   -3.122746e-016 1.700000e+000 0.000000e+000
      vertex   -2.952019e-001 1.674173e+000 0.000000e+000
    endloop
  endfacet
  facet normal -0.000000e+000 0.000000e+000 -1.000000e+000
    outer loop
      vertex   1.470480e+001 1.332583e+001 0.000000e+000
      vertex   -2.952019e-001 1.674173e+000 0.000000e+000
      vertex   1.441857e+001 1.340252e+001 0.000000e+000
    endloop
  endfacet
  facet normal 0.000000e+000 -0.000000e+000 -1.000000e+000
    outer loop
      vertex   1.470480e+001 1.332583e+001 0.000000e+000
      vertex   1.500000e+001 1.330000e+001 0.000000e+000
      vertex   -2.952019e-001 1.674173e+000 0.000000e+000
    endloop
  endfacet
  facet normal 0.000000e+000 0.000000e+000 -1.000000e+000
    outer loop
      vertex   1.332583e+001 1.529520e+001 0.000000e+000
      vertex   1.330000e+001 1.500000e+001 0.000000e+000
      vertex   -8.500000e-001 1.472243e+000 0.000000e+000
    endloop
  endfacet
  facet normal 0.000000e+000 0.000000e+000 -1.000000e+000
    outer loop
      vertex   -8.500000e-001 1.472243e+000 0.000000e+000
      vertex   1.330000e+001 1.500000e+001 0.000000e+000
      vertex   1.332583e+001 1.470480e+001 0.000000e+000
    endloop
  endfacet
  facet normal 0.000000e+000 0.000000e+000 -1.000000e+000
    outer loop
      vertex   -5.814342e-001 1.597477e+000 0.000000e+000
      vertex   1.332583e+001 1.470480e+001 0.000000e+000
      vertex   1.340252e+001 1.441857e+001 0.000000e+000
    endloop
  endfacet
  facet normal -0.000000e+000 0.000000e+000 -1.000000e+000
    outer loop
      vertex   1.352776e+001 1.415000e+001 0.000000e+000
      vertex   -5.814342e-001 1.597477e+000 0.000000e+000
      vertex   1.340252e+001 1.441857e+001 0.000000e+000
    endloop
  endfacet
  facet normal 0.000000e+000 0.000000e+000 -1.000000e+000
    outer loop
      vertex   1.352776e+001 1.415000e+001 0.000000e+000
      vertex   -2.952019e-001 1.674173e+000 0.000000e+000
      vertex   -5.814342e-001 1.597477e+000 0.000000e+000
    endloop
  endfacet
  facet normal 0.000000e+000 -0.000000e+000 -1.000000e+000
    outer loop
      vertex   1.352776e+001 1.415000e+001 0.000000e+000
      vertex   1.369772e+001 1.390726e+001 0.000000e+000
      vertex   -2.952019e-001 1.674173e+000 0.000000e+000
    endloop
  endfacet
  facet normal 0.000000e+000 0.000000e+000 -1.000000e+000
    outer loop
      vertex   -2.952019e-001 1.674173e+000 0.000000e+000
      vertex   1.369772e+001 1.390726e+001 0.000000e+000
      vertex   1.390726e+001 1.369772e+001 0.000000e+000
    endloop
  endfacet
  facet normal -0.000000e+000 0.000000e+000 -1.000000e+000
    outer loop
      vertex   1.415000e+001 1.352776e+001 0.000000e+000
      vertex   -2.952019e-001 1.674173e+000 0.000000e+000
      vertex   1.390726e+001 1.369772e+001 0.000000e+000
    endloop
  endfacet
  facet normal 0.000000e+000 -0.000000e+000 -1.000000e+000
    outer loop
      vertex   1.415000e+001 1.352776e+001 0.000000e+000
      vertex   1.441857e+001 1.340252e+001 0.000000e+000
      vertex   -2.952019e-001 1.674173e+000 0.000000e+000
    endloop
  endfacet
  facet normal 0.000000e+000 0.000000e+000 -1.000000e+000
    outer loop
      vertex   1.500000e+001 1.330000e+001 0.000000e+000
      vertex   1.529520e+001 1.332583e+001 0.000000e+000
      vertex   2.000000e+001 -6.000000e+001 0.000000e+000
    endloop
  endfacet
  facet normal 0.000000e+000 0.000000e+000 -1.000000e+000
    outer loop
      vertex   2.000000e+001 -6.000000e+001 0.000000e+000
      vertex   1.529520e+001 1.332583e+001 0.000000e+000
      vertex   1.558143e+001 1.340252e+001 0.000000e+000
    endloop
  endfacet
  facet normal -0.000000e+000 -0.000000e+000 -1.000000e+000
    outer loop
      vertex   1.585000e+001 1.352776e+001 0.000000e+000
      vertex   2.000000e+001 -6.000000e+001 0.000000e+000
      vertex   1.558143e+001 1.340252e+001 0.000000e+000
    endloop
  endfacet
  facet normal 0.000000e+000 0.000000e+000 -1.000000e+000
    outer loop
      vertex   1.585000e+001 1.352776e+001 0.000000e+000
      vertex   1.609274e+001 1.369772e+001 0.000000e+000
      vertex   2.000000e+001 -6.000000e+001 0.000000e+000
    endloop
  endfacet
  facet normal 0.000000e+000 0.000000e+000 -1.000000e+000
    outer loop
      vertex   2.000000e+001 -6.000000e+001 0.000000e+000
      vertex   1.609274e+001 1.369772e+001 0.000000e+000
      vertex   1.630228e+001 1.390726e+001 0.000000e+000
    endloop
  endfacet
  facet normal 0.000000e+000 0.000000e+000 -1.000000e+000
    outer loop
      vertex   1.659748e+001 1.441857e+001 0.000000e+000
      vertex   1.667417e+001 1.470480e+001 0.000000e+000
      vertex   2.000000e+001 2.000000e+001 0.000000e+000
    endloop
  endfacet
  facet normal 0.000000e+000 -0.000000e+000 -1.000000e+000
    outer loop
      vertex   -5.000000e+000 2.000000e+001 0.000000e+000
      vertex   2.000000e+001 2.000000e+001 0.000000e+000
      vertex   1.441857e+001 1.659748e+001 0.000000e+000
    endloop
  endfacet
  facet normal 0.000000e+000 0.000000e+000 -1.000000e+000
    outer loop
      vertex   2.000000e+001 -6.000000e+001 0.000000e+000
      vertex   -5.000000e+000 -6.000000e+001 0.000000e+000
      vertex   1.472243e+000 -8.500000e-001 0.000000e+000
    endloop
  endfacet
  facet normal -0.000000e+000 0.000000e+000 -1.000000e+000
    outer loop
      vertex   -5.814342e-001 1.597477e+000 0.000000e+000
      vertex   -8.500000e-001 1.472243e+000 0.000000e+000
      vertex   1.332583e+001 1.470480e+001 0.000000e+000
    endloop
  endfacet
  facet normal -9.961947e-001 -8.715574e-002 -0.000000e+000
    outer loop
      vertex   1.667417e+001 1.529520e+001 5.000000e+000
      vertex   1.667417e+001 1.529520e+001 0.000000e+000
      vertex   1.670000e+001 1.500000e+001 5.000000e+000
    endloop
  endfacet
  facet normal -9.659258e-001 -2.588190e-001 0.000000e+000
    outer loop
      vertex   1.667417e+001 1.529520e+001 5.000000e+000
      vertex   1.659748e+001 1.558143e+001 0.000000e+000
      vertex   1.667417e+001 1.529520e+001 0.000000e+000
    endloop
  endfacet
  facet normal -9.659258e-001 -2.588190e-001 -0.000000e+000
    outer loop
      vertex   1.667417e+001 1.529520e+001 5.000000e+000
      vertex   1.659748e+001 1.558143e+001 5.000000e+000
      vertex   1.659748e+001 1.558143e+001 0.000000e+000
    endloop
  endfacet
  facet normal -9.063078e-001 -4.226183e-001 0.000000e+000
    outer loop
      vertex   1.659748e+001 1.558143e+001 0.000000e+000
      vertex   1.659748e+001 1.558143e+001 5.000000e+000
      vertex   1.647224e+001 1.585000e+001 0.000000e+000
    endloop
  endfacet
  facet normal -9.063078e-001 -4.226183e-001 0.000000e+000
    outer loop
      vertex   1.647224e+001 1.585000e+001 0.000000e+000
      vertex   1.659748e+001 1.558143e+001 5.000000e+000
      vertex   1.647224e+001 1.585000e+001 5.000000e+000
    endloop
  endfacet
  facet normal -8.191520e-001 -5.735764e-001 0.000000e+000
    outer loop
      vertex   1.630228e+001 1.609274e+001 0.000000e+000
      vertex   1.647224e+001 1.585000e+001 5.000000e+000
      vertex   1.630228e+001 1.609274e+001 5.000000e+000
    endloop
  endfacet
  facet normal -7.071068e-001 -7.071068e-001 0.000000e+000
    outer loop
      vertex   1.609274e+001 1.630228e+001 0.000000e+000
      vertex   1.630228e+001 1.609274e+001 5.000000e+000
      vertex   1.609274e+001 1.630228e+001 5.000000e+000
    endloop
  endfacet
  facet normal -5.735764e-001 -8.191520e-001 0.000000e+000
    outer loop
      vertex   1.585000e+001 1.647224e+001 0.000000e+000
      vertex   1.609274e+001 1.630228e+001 5.000000e+000
      vertex   1.585000e+001 1.647224e+001 5.000000e+000
    endloop
  endfacet
  facet normal -4.226183e-001 -9.063078e-001 0.000000e+000
    outer loop
      vertex   1.558143e+001 1.659748e+001 0.000000e+000
      vertex   1.585000e+001 1.647224e+001 5.000000e+000
      vertex   1.558143e+001 1.659748e+001 5.000000e+000
    endloop
  endfacet
  facet normal -2.588190e-001 -9.659258e-001 0.000000e+000
    outer loop
      vertex   1.529520e+001 1.667417e+001 0.000000e+000
      vertex   1.558143e+001 1.659748e+001 5.000000e+000
      vertex   1.529520e+001 1.667417e+001 5.000000e+000
    endloop
  endfacet
  facet normal -8.715574e-002 -9.961947e-001 0.000000e+000
    outer loop
      vertex   1.500000e+001 1.670000e+001 0.000000e+000
      vertex   1.529520e+001 1.667417e+001 5.000000e+000
      vertex   1.500000e+001 1.670000e+001 5.000000e+000
    endloop
  endfacet
  facet normal 8.715574e-002 -9.961947e-001 0.000000e+000
    outer loop
      vertex   1.470480e+001 1.667417e+001 0.000000e+000
      vertex   1.500000e+001 1.670000e+001 5.000000e+000
      vertex   1.470480e+001 1.667417e+001 5.000000e+000
    endloop
  endfacet
  facet normal 2.588190e-001 -9.659258e-001 0.000000e+000
    outer loop
      vertex   1.441857e+001 1.659748e+001 0.000000e+000
      vertex   1.470480e+001 1.667417e+001 5.000000e+000
      vertex   1.441857e+001 1.659748e+001 5.000000e+000
    endloop
  endfacet
  facet normal 4.226183e-001 -9.063078e-001 0.000000e+000
    outer loop
      vertex   1.415000e+001 1.647224e+001 0.000000e+000
      vertex   1.441857e+001 1.659748e+001 5.000000e+000
      vertex   1.415000e+001 1.647224e+001 5.000000e+000
    endloop
  endfacet
  facet normal 5.735764e-001 -8.191520e-001 0.000000e+000
    outer loop
      vertex   1.390726e+001 1.630228e+001 0.000000e+000
      vertex   1.415000e+001 1.647224e+001 5.000000e+000
      vertex   1.390726e+001 1.630228e+001 5.000000e+000
    endloop
  endfacet
  facet normal 7.071068e-001 -7.071068e-001 0.000000e+000
    outer loop
      vertex   1.369772e+001 1.609274e+001 0.000000e+000
      vertex   1.390726e+001 1.630228e+001 5.000000e+000
      vertex   1.369772e+001 1.609274e+001 5.000000e+000
    endloop
  endfacet
  facet normal 8.191520e-001 -5.735764e-001 0.000000e+000
    outer loop
      vertex   1.352776e+001 1.585000e+001 0.000000e+000
      vertex   1.369772e+001 1.609274e+001 5.000000e+000
      vertex   1.352776e+001 1.585000e+001 5.000000e+000
    endloop
  endfacet
  facet normal 9.063078e-001 -4.226183e-001 0.000000e+000
    outer loop
      vertex   1.340252e+001 1.558143e+001 0.000000e+000
      vertex   1.352776e+001 1.585000e+001 5.000000e+000
      vertex   1.340252e+001 1.558143e+001 5.000000e+000
    endloop
  endfacet
  facet normal 9.659258e-001 -2.588190e-001 0.000000e+000
    outer loop
      vertex   1.332583e+001 1.529520e+001 0.000000e+000
      vertex   1.340252e+001 1.558143e+001 5.000000e+000
      vertex   1.332583e+001 1.529520e+001 5.000000e+000
    endloop
  endfacet
  facet normal 9.961947e-001 -8.715574e-002 0.000000e+000
    outer loop
      vertex   1.330000e+001 1.500000e+001 0.000000e+000
      vertex   1.332583e+001 1.529520e+001 5.000000e+000
      vertex   1.330000e+001 1.500000e+001 5.000000e+000
    endloop
  endfacet
  facet normal 9.961947e-001 8.715574e-002 0.000000e+000
    outer loop
      vertex   1.332583e+001 1.470480e+001 0.000000e+000
      vertex   1.330000e+001 1.500000e+001 5.000000e+000
      vertex   1.332583e+001 1.470480e+001 5.000000e+000
    endloop
  endfacet
  facet normal 9.659258e-001 2.588190e-001 0.000000e+000
    outer loop
      vertex   1.340252e+001 1.441857e+001 0.000000e+000
      vertex   1.332583e+001 1.470480e+001 5.000000e+000
      vertex   1.340252e+001 1.441857e+001 5.000000e+000
    endloop
  endfacet
  facet normal 9.063078e-001 4.226183e-001 0.000000e+000
    outer loop
      vertex   1.352776e+001 1.415000e+001 0.000000e+000
      vertex   1.340252e+001 1.441857e+001 5.000000e+000
      vertex   1.352776e+001 1.415000e+001 5.000000e+000
    endloop
  endfacet
  facet normal 8.191520e-001 5.735764e-001 0.000000e+000
    outer loop
      vertex   1.369772e+001 1.390726e+001 0.000000e+000
      vertex   1.352776e+001 1.415000e+001 5.000000e+000
      vertex   1.369772e+001 1.390726e+001 5.000000e+000
    endloop
  endfacet
  facet normal 7.071068e-001 7.071068e-001 0.000000e+000
    outer loop
      vertex   1.390726e+001 1.369772e+001 0.000000e+000
      vertex   1.369772e+001 1.390726e+001 5.000000e+000
      vertex   1.390726e+001 1.369772e+001 5.000000e+000
    endloop
  endfacet
  facet normal 5.735764e-001 8.191520e-001 0.000000e+000
    outer loop
      vertex   1.415000e+001 1.352776e+001 0.000000e+000
      vertex   1.390726e+001 1.369772e+001 5.000000e+000
      vertex   1.415000e+001 1.352776e+001 5.000000e+000
    endloop
  endfacet
  facet normal 4.226183e-001 9.063078e-001 0.000000e+000
    outer loop
      vertex   1.441857e+001 1.340252e+001 0.000000e+000
      vertex   1.415000e+001 1.352776e+001 5.000000e+000
      vertex   1.441857e+001 1.340252e+001 5.000000e+000
    endloop
  endfacet
  facet normal 2.588190e-001 9.659258e-001 0.000000e+000
    outer loop
      vertex   1.470480e+001 1.332583e+001 0.000000e+000
      vertex   1.441857e+001 1.340252e+001 5.000000e+000
      vertex   1.470480e+001 1.332583e+001 5.000000e+000
    endloop
  endfacet
  facet normal 8.715574e-002 9.961947e-001 0.000000e+000
    outer loop
      vertex   1.500000e+001 1.330000e+001 0.000000e+000
      vertex   1.470480e+001 1.332583e+001 5.000000e+000
      vertex   1.500000e+001 1.330000e+001 5.000000e+000
    endloop
  endfacet
  facet normal -8.715574e-002 9.961947e-001 0.000000e+000
    outer loop
      vertex   1.529520e+001 1.332583e+001 0.000000e+000
      vertex   1.500000e+001 1.330000e+001 5.000000e+000
      vertex   1.529520e+001 1.332583e+001 5.000000e+000
    endloop
  endfacet
  facet normal -2.588190e-001 9.659258e-001 0.000000e+000
    outer loop
      vertex   1.558143e+001 1.340252e+001 0.000000e+000
      vertex   1.529520e+001 1.332583e+001 5.000000e+000
      vertex   1.558143e+001 1.340252e+001 5.000000e+000
    endloop
  endfacet
  facet normal -4.226183e-001 9.063078e-001 0.000000e+000
    outer loop
      vertex   1.585000e+001 1.352776e+001 0.000000e+000
      vertex   1.558143e+001 1.340252e+001 5.000000e+000
      vertex   1.585000e+001 1.352776e+001 5.000000e+000
    endloop
  endfacet
  facet normal -5.735764e-001 8.191520e-001 0.000000e+000
    outer loop
      vertex   1.609274e+001 1.369772e+001 0.000000e+000
      vertex   1.585000e+001 1.352776e+001 5.000000e+000
      vertex   1.609274e+001 1.369772e+001 5.000000e+000
    endloop
  endfacet
  facet normal -7.071068e-001 7.071068e-001 0.000000e+000
    outer loop
      vertex   1.630228e+001 1.390726e+001 0.000000e+000
      vertex   1.609274e+001 1.369772e+001 5.000000e+000
      vertex   1.630228e+001 1.390726e+001 5.000000e+000
    endloop
  endfacet
  facet normal -8.191520e-001 5.735764e-001 0.000000e+000
    outer loop
      vertex   1.647224e+001 1.415000e+001 0.000000e+000
      vertex   1.630228e+001 1.390726e+001 5.000000e+000
      vertex   1.647224e+001 1.415000e+001 5.000000e+000
    endloop
  endfacet
  facet normal -9.063078e-001 4.226183e-001 0.000000e+000
    outer loop
      vertex   1.659748e+001 1.441857e+001 0.000000e+000
      vertex   1.647224e+001 1.415000e+001 5.000000e+000
      vertex   1.659748e+001 1.441857e+001 5.000000e+000
    endloop
  endfacet
  facet normal -9.659258e-001 2.588190e-001 0.000000e+000
    outer loop
      vertex   1.667417e+001 1.470480e+001 0.000000e+000
      vertex   1.659748e+001 1.441857e+001 5.000000e+000
      vertex   1.667417e+001 1.470480e+001 5.000000e+000
    endloop
  endfacet
  facet normal -9.961947e-001 8.715574e-002 0.000000e+000
    outer loop
      vertex   1.670000e+001 1.500000e+001 0.000000e+000
      vertex   1.667417e+001 1.470480e+001 5.000000e+000
      vertex   1.670000e+001 1.500000e+001 5.000000e+000
    endloop
  endfacet
  facet normal -9.961947e-001 -8.715574e-002 0.000000e+000
    outer loop
      vertex   1.667417e+001 1.529520e+001 0.000000e+000
      vertex   1.670000e+001 1.500000e+001 0.000000e+000
      vertex   1.670000e+001 1.500000e+001 5.000000e+000
    endloop
  endfacet
  facet normal -9.961947e-001 8.715574e-002 0.000000e+000
    outer loop
      vertex   1.670000e+001 1.500000e+001 0.000000e+000
      vertex   1.667417e+001 1.470480e+001 0.000000e+000
      vertex   1.667417e+001 1.470480e+001 5.000000e+000
    endloop
  endfacet
  facet normal -9.659258e-001 2.588190e-001 0.000000e+000
    outer loop
      vertex   1.667417e+001 1.470480e+001 0.000000e+000
      vertex   1.659748e+001 1.441857e+001 0.000000e+000
      vertex   1.659748e+001 1.441857e+001 5.000000e+000
    endloop
  endfacet
  facet normal -9.063078e-001 4.226183e-001 0.000000e+000
    outer loop
      vertex   1.659748e+001 1.441857e+001 0.000000e+000
      vertex   1.647224e+001 1.415000e+001 0.000000e+000
      vertex   1.647224e+001 1.415000e+001 5.000000e+000
    endloop
  endfacet
  facet normal -8.191520e-001 5.735764e-001 0.000000e+000
    outer loop
      vertex   1.647224e+001 1.415000e+001 0.000000e+000
      vertex   1.630228e+001 1.390726e+001 0.000000e+000
      vertex   1.630228e+001 1.390726e+001 5.000000e+000
    endloop
  endfacet
  facet normal -7.071068e-001 7.071068e-001 0.000000e+000
    outer loop
      vertex   1.630228e+001 1.390726e+001 0.000000e+000
      vertex   1.609274e+001 1.369772e+001 0.000000e+000
      vertex   1.609274e+001 1.369772e+001 5.000000e+000
    endloop
  endfacet
  facet normal -5.735764e-001 8.191520e-001 0.000000e+000
    outer loop
      vertex   1.609274e+001 1.369772e+001 0.000000e+000
      vertex   1.585000e+001 1.352776e+001 0.000000e+000
      vertex   1.585000e+001 1.352776e+001 5.000000e+000
    endloop
  endfacet
  facet normal -4.226183e-001 9.063078e-001 0.000000e+000
    outer loop
      vertex   1.585000e+001 1.352776e+001 0.000000e+000
      vertex   1.558143e+001 1.340252e+001 0.000000e+000
      vertex   1.558143e+001 1.340252e+001 5.000000e+000
    endloop
  endfacet
  facet normal -2.588190e-001 9.659258e-001 0.000000e+000
    outer loop
      vertex   1.558143e+001 1.340252e+001 0.000000e+000
      vertex   1.529520e+001 1.332583e+001 0.000000e+000
      vertex   1.529520e+001 1.332583e+001 5.000000e+000
    endloop
  endfacet
  facet normal -8.715574e-002 9.961947e-001 0.000000e+000
    outer loop
      vertex   1.529520e+001 1.332583e+001 0.000000e+000
      vertex   1.500000e+001 1.330000e+001 0.000000e+000
      vertex   1.500000e+001 1.330000e+001 5.000000e+000
    endloop
  endfacet
  facet normal 8.715574e-002 9.961947e-001 -0.000000e+000
    outer loop
      vertex   1.500000e+001 1.330000e+001 0.000000e+000
      vertex   1.470480e+001 1.332583e+001 0.000000e+000
      vertex   1.470480e+001 1.332583e+001 5.000000e+000
    endloop
  endfacet
  facet normal 2.588190e-001 9.659258e-001 -0.000000e+000
    outer loop
      vertex   1.470480e+001 1.332583e+001 0.000000e+000
      vertex   1.441857e+001 1.340252e+001 0.000000e+000
      vertex   1.441857e+001 1.340252e+001 5.000000e+000
    endloop
  endfacet
  facet normal 4.226183e-001 9.063078e-001 -0.000000e+000
    outer loop
      vertex   1.441857e+001 1.340252e+001 0.000000e+000
      vertex   1.415000e+001 1.352776e+001 0.000000e+000
      vertex   1.415000e+001 1.352776e+001 5.000000e+000
    endloop
  endfacet
  facet normal 5.735764e-001 8.191520e-001 -0.000000e+000
    outer loop
      vertex   1.415000e+001 1.352776e+001 0.000000e+000
      vertex   1.390726e+001 1.369772e+001 0.000000e+000
      vertex   1.390726e+001 1.369772e+001 5.000000e+000
    endloop
  endfacet
  facet normal 7.071068e-001 7.071068e-001 -0.000000e+000
    outer loop
      vertex   1.390726e+001 1.369772e+001 0.000000e+000
      vertex   1.369772e+001 1.390726e+001 0.000000e+000
      vertex   1.369772e+001 1.390726e+001 5.000000e+000
    endloop
  endfacet
  facet normal 8.191520e-001 5.735764e-001 -0.000000e+000
    outer loop
      vertex   1.369772e+001 1.390726e+001 0.000000e+000
      vertex   1.352776e+001 1.415000e+001 0.000000e+000
      vertex   1.352776e+001 1.415000e+001 5.000000e+000
    endloop
  endfacet
  facet normal 9.063078e-001 4.226183e-001 -0.000000e+000
    outer loop
      vertex   1.352776e+001 1.415000e+001 0.000000e+000
      vertex   1.340252e+001 1.441857e+001 0.000000e+000
      vertex   1.340252e+001 1.441857e+001 5.000000e+000
    endloop
  endfacet
  facet normal 9.659258e-001 2.588190e-001 -0.000000e+000
    outer loop
      vertex   1.340252e+001 1.441857e+001 0.000000e+000
      vertex   1.332583e+001 1.470480e+001 0.000000e+000
      vertex   1.332583e+001 1.470480e+001 5.000000e+000
    endloop
  endfacet
  facet normal 9.961947e-001 8.715574e-002 -0.000000e+000
    outer loop
      vertex   1.332583e+001 1.470480e+001 0.000000e+000
      vertex   1.330000e+001 1.500000e+001 0.000000e+000
      vertex   1.330000e+001 1.500000e+001 5.000000e+000
    endloop
  endfacet
  facet normal 9.961947e-001 -8.715574e-002 0.000000e+000
    outer loop
      vertex   1.330000e+001 1.500000e+001 0.000000e+000
      vertex   1.332583e+001 1.529520e+001 0.000000e+000
      vertex   1.332583e+001 1.529520e+001 5.000000e+000
    endloop
  endfacet
  facet normal 9.659258e-001 -2.588190e-001 0.000000e+000
    outer loop
      vertex   1.332583e+001 1.529520e+001 0.000000e+000
      vertex   1.340252e+001 1.558143e+001 0.000000e+000
      vertex   1.340252e+001 1.558143e+001 5.000000e+000
    endloop
  endfacet
  facet normal 9.063078e-001 -4.226183e-001 0.000000e+000
    outer loop
      vertex   1.340252e+001 1.558143e+001 0.000000e+000
      vertex   1.352776e+001 1.585000e+001 0.000000e+000
      vertex   1.352776e+001 1.585000e+001 5.000000e+000
    endloop
  endfacet
  facet normal 8.191520e-001 -5.735764e-001 0.000000e+000
    outer loop
      vertex   1.352776e+001 1.585000e+001 0.000000e+000
      vertex   1.369772e+001 1.609274e+001 0.000000e+000
      vertex   1.369772e+001 1.609274e+001 5.000000e+000
    endloop
  endfacet
  facet normal 7.071068e-001 -7.071068e-001 0.000000e+000
    outer loop
      vertex   1.369772e+001 1.609274e+001 0.000000e+000
      vertex   1.390726e+001 1.630228e+001 0.000000e+000
      vertex   1.390726e+001 1.630228e+001 5.000000e+000
    endloop
  endfacet
  facet normal 5.735764e-001 -8.191520e-001 0.000000e+000
    outer loop
      vertex   1.390726e+001 1.630228e+001 0.000000e+000
      vertex   1.415000e+001 1.647224e+001 0.000000e+000
      vertex   1.415000e+001 1.647224e+001 5.000000e+000
    endloop
  endfacet
  facet normal 4.226183e-001 -9.063078e-001 0.000000e+000
    outer loop
      vertex   1.415000e+001 1.647224e+001 0.000000e+000
      vertex   1.441857e+001 1.659748e+001 0.000000e+000
      vertex   1.441857e+001 1.659748e+001 5.000000e+000
    endloop
  endfacet
  facet normal 2.588190e-001 -9.659258e-001 0.000000e+000
    outer loop
      vertex   1.441857e+001 1.659748e+001 0.000000e+000
      vertex   1.470480e+001 1.667417e+001 0.000000e+000
      vertex   1.470480e+001 1.667417e+001 5.000000e+000
    endloop
  endfacet
  facet normal 8.715574e-002 -9.961947e-001 0.000000e+000
    outer loop
      vertex   1.470480e+001 1.667417e+001 0.000000e+000
      vertex   1.500000e+001 1.670000e+001 0.000000e+000
      vertex   1.500000e+001 1.670000e+001 5.000000e+000
    endloop
  endfacet
  facet normal -8.715574e-002 -9.961947e-001 0.000000e+000
    outer loop
      vertex   1.500000e+001 1.670000e+001 0.000000e+000
      vertex   1.529520e+001 1.667417e+001 0.000000e+000
      vertex   1.529520e+001 1.667417e+001 5.000000e+000
    endloop
  endfacet
  facet normal -2.588190e-001 -9.659258e-001 0.000000e+000
    outer loop
      vertex   1.529520e+001 1.667417e+001 0.000000e+000
      vertex   1.558143e+001 1.659748e+001 0.000000e+000
      vertex   1.558143e+001 1.659748e+001 5.000000e+000
    endloop
  endfacet
  facet normal -4.226183e-001 -9.063078e-001 0.000000e+000
    outer loop
      vertex   1.558143e+001 1.659748e+001 0.000000e+000
      vertex   1.585000e+001 1.647224e+001 0.000000e+000
      vertex   1.585000e+001 1.647224e+001 5.000000e+000
    endloop
  endfacet
  facet normal -5.735764e-001 -8.191520e-001 0.000000e+000
    outer loop
      vertex   1.585000e+001 1.647224e+001 0.000000e+000
      vertex   1.609274e+001 1.630228e+001 0.000000e+000
      vertex   1.609274e+001 1.630228e+001 5.000000e+000
    endloop
  endfacet
  facet normal -7.071068e-001 -7.071068e-001 0.000000e+000
    outer loop
      vertex   1.609274e+001 1.630228e+001 0.000000e+000
      vertex   1.630228e+001 1.609274e+001 0.000000e+000
      vertex   1.630228e+001 1.609274e+001 5.000000e+000
    endloop
  endfacet
  facet normal -8.191520e-001 -5.735764e-001 0.000000e+000
    outer loop
      vertex   1.630228e+001 1.609274e+001 0.000000e+000
      vertex   1.647224e+001 1.585000e+001 0.000000e+000
      vertex   1.647224e+001 1.585000e+001 5.000000e+000
    endloop
  endfacet
  facet normal -9.961947e-001 -8.715574e-002 -0.000000e+000
    outer loop
      vertex   1.674173e+000 2.952019e-001 5.000000e+000
      vertex   1.674173e+000 2.952019e-001 0.000000e+000
      vertex   1.700000e+000 0.000000e+000 5.000000e+000
    endloop
  endfacet
  facet normal -9.659258e-001 -2.588190e-001 0.000000e+000
    outer loop
      vertex   1.674173e+000 2.952019e-001 5.000000e+000
      vertex   1.597477e+000 5.814342e-001 0.000000e+000
      vertex   1.674173e+000 2.952019e-001 0.000000e+000
    endloop
  endfacet
  facet normal -9.659258e-001 -2.588190e-001 -0.000000e+000
    outer loop
      vertex   1.674173e+000 2.952019e-001 5.000000e+000
      vertex   1.597477e+000 5.814342e-001 5.000000e+000
      vertex   1.597477e+000 5.814342e-001 0.000000e+000
    endloop
  endfacet
  facet normal -9.063078e-001 -4.226183e-001 0.000000e+000
    outer loop
      vertex   1.597477e+000 5.814342e-001 0.000000e+000
      vertex   1.597477e+000 5.814342e-001 5.000000e+000
      vertex   1.472243e+000 8.500000e-001 0.000000e+000
    endloop
  endfacet
  facet normal -9.063078e-001 -4.226183e-001 0.000000e+000
    outer loop
      vertex   1.472243e+000 8.500000e-001 0.000000e+000
      vertex   1.597477e+000 5.814342e-001 5.000000e+000
      vertex   1.472243e+000 8.500000e-001 5.000000e+000
    endloop
  endfacet
  facet normal -8.191520e-001 -5.735764e-001 0.000000e+000
    outer loop
      vertex   1.302276e+000 1.092739e+000 0.000000e+000
      vertex   1.472243e+000 8.500000e-001 5.000000e+000
      vertex   1.302276e+000 1.092739e+000 5.000000e+000
    endloop
  endfacet
  facet normal -7.071068e-001 -7.071068e-001 0.000000e+000
    outer loop
      vertex   1.092739e+000 1.302276e+000 0.000000e+000
      vertex   1.302276e+000 1.092739e+000 5.000000e+000
      vertex   1.092739e+000 1.302276e+000 5.000000e+000
    endloop
  endfacet
  facet normal -5.735764e-001 -8.191520e-001 0.000000e+000
    outer loop
      vertex   8.500000e-001 1.472243e+000 0.000000e+000
      vertex   1.092739e+000 1.302276e+000 5.000000e+000
      vertex   8.500000e-001 1.472243e+000 5.000000e+000
    endloop
  endfacet
  facet normal -4.226183e-001 -9.063078e-001 0.000000e+000
    outer loop
      vertex   5.814342e-001 1.597477e+000 0.000000e+000
      vertex   8.500000e-001 1.472243e+000 5.000000e+000
      vertex   5.814342e-001 1.597477e+000 5.000000e+000
    endloop
  endfacet
  facet normal -2.588190e-001 -9.659258e-001 0.000000e+000
    outer loop
      vertex   2.952019e-001 1.674173e+000 0.000000e+000
      vertex   5.814342e-001 1.597477e+000 5.000000e+000
      vertex   2.952019e-001 1.674173e+000 5.000000e+000
    endloop
  endfacet
  facet normal -8.715574e-002 -9.961947e-001 0.000000e+000
    outer loop
      vertex   -3.122746e-016 1.700000e+000 0.000000e+000
      vertex   2.952019e-001 1.674173e+000 5.000000e+000
      vertex   -3.122746e-016 1.700000e+000 5.000000e+000
    endloop
  endfacet
  facet normal 8.715574e-002 -9.961947e-001 0.000000e+000
    outer loop
      vertex   -2.952019e-001 1.674173e+000 0.000000e+000
      vertex   -3.122746e-016 1.700000e+000 5.000000e+000
      vertex   -2.952019e-001 1.674173e+000 5.000000e+000
    endloop
  endfacet
  facet normal 2.588190e-001 -9.659258e-001 0.000000e+000
    outer loop
      vertex   -5.814342e-001 1.597477e+000 0.000000e+000
      vertex   -2.952019e-001 1.674173e+000 5.000000e+000
      vertex   -5.814342e-001 1.597477e+000 5.000000e+000
    endloop
  endfacet
  facet normal 4.226183e-001 -9.063078e-001 0.000000e+000
    outer loop
      vertex   -8.500000e-001 1.472243e+000 0.000000e+000
      vertex   -5.814342e-001 1.597477e+000 5.000000e+000
      vertex   -8.500000e-001 1.472243e+000 5.000000e+000
    endloop
  endfacet
  facet normal 5.735764e-001 -8.191520e-001 0.000000e+000
    outer loop
      vertex   -1.092739e+000 1.302276e+000 0.000000e+000
      vertex   -8.500000e-001 1.472243e+000 5.000000e+000
      vertex   -1.092739e+000 1.302276e+000 5.000000e+000
    endloop
  endfacet
  facet normal 7.071068e-001 -7.071068e-001 0.000000e+000
    outer loop
      vertex   -1.302276e+000 1.092739e+000 0.000000e+000
      vertex   -1.092739e+000 1.302276e+000 5.000000e+000
      vertex   -1.302276e+000 1.092739e+000 5.000000e+000
    endloop
  endfacet
  facet normal 8.191520e-001 -5.735764e-001 0.000000e+000
    outer loop
      vertex   -1.472243e+000 8.500000e-001 0.000000e+000
      vertex   -1.302276e+000 1.092739e+000 5.000000e+000
      vertex   -1.472243e+000 8.500000e-001 5.000000e+000
    endloop
  endfacet
  facet normal 9.063078e-001 -4.226183e-001 0.000000e+000
    outer loop
      vertex   -1.597477e+000 5.814342e-001 0.000000e+000
      vertex   -1.472243e+000 8.500000e-001 5.000000e+000
      vertex   -1.597477e+000 5.814342e-001 5.000000e+000
    endloop
  endfacet
  facet normal 9.659258e-001 -2.588190e-001 0.000000e+000
    outer loop
      vertex   -1.674173e+000 2.952019e-001 0.000000e+000
      vertex   -1.597477e+000 5.814342e-001 5.000000e+000
      vertex   -1.674173e+000 2.952019e-001 5.000000e+000
    endloop
  endfacet
  facet normal 9.961947e-001 -8.715574e-002 0.000000e+000
    outer loop
      vertex   -1.700000e+000 -2.081831e-016 0.000000e+000
      vertex   -1.674173e+000 2.952019e-001 5.000000e+000
      vertex   -1.700000e+000 -2.081831e-016 5.000000e+000
    endloop
  endfacet
  facet normal 9.961947e-001 8.715574e-002 0.000000e+000
    outer loop
      vertex   -1.674173e+000 -2.952019e-001 0.000000e+000
      vertex   -1.700000e+000 -2.081831e-016 5.000000e+000
      vertex   -1.674173e+000 -2.952019e-001 5.000000e+000
    endloop
  endfacet
  facet normal 9.659258e-001 2.588190e-001 0.000000e+000
    outer loop
      vertex   -1.597477e+000 -5.814342e-001 0.000000e+000
      vertex   -1.674173e+000 -2.952019e-001 5.000000e+000
      vertex   -1.597477e+000 -5.814342e-001 5.000000e+000
    endloop
  endfacet
  facet normal 9.063078e-001 4.226183e-001 0.000000e+000
    outer loop
      vertex   -1.472243e+000 -8.500000e-001 0.000000e+000
      vertex   -1.597477e+000 -5.814342e-001 5.000000e+000
      vertex   -1.472243e+000 -8.500000e-001 5.000000e+000
    endloop
  endfacet
  facet normal 8.191520e-001 5.735764e-001 0.000000e+000
    outer loop
      vertex   -1.302276e+000 -1.092739e+000 0.000000e+000
      vertex   -1.472243e+000 -8.500000e-001 5.000000e+000
      vertex   -1.302276e+000 -1.092739e+000 5.000000e+000
    endloop
  endfacet
  facet normal 7.071068e-001 7.071068e-001 0.000000e+000
    outer loop
      vertex   -1.092739e+000 -1.302276e+000 0.000000e+000
      vertex   -1.302276e+000 -1.092739e+000 5.000000e+000
      vertex   -1.092739e+000 -1.302276e+000 5.000000e+000
    endloop
  endfacet
  facet normal 5.735764e-001 8.191520e-001 0.000000e+000
    outer loop
      vertex   -8.500000e-001 -1.472243e+000 0.000000e+000
      vertex   -1.092739e+000 -1.302276e+000 5.000000e+000
      vertex   -8.500000e-001 -1.472243e+000 5.000000e+000
    endloop
  endfacet
  facet normal 4.226183e-001 9.063078e-001 0.000000e+000
    outer loop
      vertex   -5.814342e-001 -1.597477e+000 0.000000e+000
      vertex   -8.500000e-001 -1.472243e+000 5.000000e+000
      vertex   -5.814342e-001 -1.597477e+000 5.000000e+000
    endloop
  endfacet
  facet normal 2.588190e-001 9.659258e-001 0.000000e+000
    outer loop
      vertex   -2.952019e-001 -1.674173e+000 0.000000e+000
      vertex   -5.814342e-001 -1.597477e+000 5.000000e+000
      vertex   -2.952019e-001 -1.674173e+000 5.000000e+000
    endloop
  endfacet
  facet normal 8.715574e-002 9.961947e-001 0.000000e+000
    outer loop
      vertex   1.040915e-016 -1.700000e+000 0.000000e+000
      vertex   -2.952019e-001 -1.674173e+000 5.000000e+000
      vertex   1.040915e-016 -1.700000e+000 5.000000e+000
    endloop
  endfacet
  facet normal -8.715574e-002 9.961947e-001 0.000000e+000
    outer loop
      vertex   2.952019e-001 -1.674173e+000 0.000000e+000
      vertex   1.040915e-016 -1.700000e+000 5.000000e+000
      vertex   2.952019e-001 -1.674173e+000 5.000000e+000
    endloop
  endfacet
  facet normal -2.588190e-001 9.659258e-001 0.000000e+000
    outer loop
      vertex   5.814342e-001 -1.597477e+000 0.000000e+000
      vertex   2.952019e-001 -1.674173e+000 5.000000e+000
      vertex   5.814342e-001 -1.597477e+000 5.000000e+000
    endloop
  endfacet
  facet normal -4.226183e-001 9.063078e-001 0.000000e+000
    outer loop
      vertex   8.500000e-001 -1.472243e+000 0.000000e+000
      vertex   5.814342e-001 -1.597477e+000 5.000000e+000
      vertex   8.500000e-001 -1.472243e+000 5.000000e+000
    endloop
  endfacet
  facet normal -5.735764e-001 8.191520e-001 0.000000e+000
    outer loop
      vertex   1.092739e+000 -1.302276e+000 0.000000e+000
      vertex   8.500000e-001 -1.472243e+000 5.000000e+000
      vertex   1.092739e+000 -1.302276e+000 5.000000e+000
    endloop
  endfacet
  facet normal -7.071068e-001 7.071068e-001 0.000000e+000
    outer loop
      vertex   1.302276e+000 -1.092739e+000 0.000000e+000
      vertex   1.092739e+000 -1.302276e+000 5.000000e+000
      vertex   1.302276e+000 -1.092739e+000 5.000000e+000
    endloop
  endfacet
  facet normal -8.191520e-001 5.735764e-001 0.000000e+000
    outer loop
      vertex   1.472243e+000 -8.500000e-001 0.000000e+000
      vertex   1.302276e+000 -1.092739e+000 5.000000e+000
      vertex   1.472243e+000 -8.500000e-001 5.000000e+000
    endloop
  endfacet
  facet normal -9.063078e-001 4.226183e-001 0.000000e+000
    outer loop
      vertex   1.597477e+000 -5.814342e-001 0.000000e+000
      vertex   1.472243e+000 -8.500000e-001 5.000000e+000
      vertex   1.597477e+000 -5.814342e-001 5.000000e+000
    endloop
  endfacet
  facet normal -9.659258e-001 2.588190e-001 0.000000e+000
    outer loop
      vertex   1.674173e+000 -2.952019e-001 0.000000e+000
      vertex   1.597477e+000 -5.814342e-001 5.000000e+000
      vertex   1.674173e+000 -2.952019e-001 5.000000e+000
    endloop
  endfacet
  facet normal -9.961947e-001 8.715574e-002 0.000000e+000
    outer loop
      vertex   1.700000e+000 0.000000e+000 0.000000e+000
      vertex   1.674173e+000 -2.952019e-001 5.000000e+000
      vertex   1.700000e+000 0.000000e+000 5.000000e+000
    endloop
  endfacet
  facet normal -9.961947e-001 -8.715574e-002 0.000000e+000
    outer loop
      vertex   1.674173e+000 2.952019e-001 0.000000e+000
      vertex   1.700000e+000 0.000000e+000 0.000000e+000
      vertex   1.700000e+000 0.000000e+000 5.000000e+000
    endloop
  endfacet
  facet normal -9.961947e-001 8.715574e-002 0.000000e+000
    outer loop
      vertex   1.700000e+000 0.000000e+000 0.000000e+000
      vertex   1.674173e+000 -2.952019e-001 0.000000e+000
      vertex   1.674173e+000 -2.952019e-001 5.000000e+000
    endloop
  endfacet
  facet normal -9.659258e-001 2.588190e-001 0.000000e+000
    outer loop
      vertex   1.674173e+000 -2.952019e-001 0.000000e+000
      vertex   1.597477e+000 -5.814342e-001 0.000000e+000
      vertex   1.597477e+000 -5.814342e-001 5.000000e+000
    endloop
  endfacet
  facet normal -9.063078e-001 4.226183e-001 0.000000e+000
    outer loop
      vertex   1.597477e+000 -5.814342e-001 0.000000e+000
      vertex   1.472243e+000 -8.500000e-001 0.000000e+000
      vertex   1.472243e+000 -8.500000e-001 5.000000e+000
    endloop
  endfacet
  facet normal -8.191520e-001 5.735764e-001 0.000000e+000
    outer loop
      vertex   1.472243e+000 -8.500000e-001 0.000000e+000
      vertex   1.302276e+000 -1.092739e+000 0.000000e+000
      vertex   1.302276e+000 -1.092739e+000 5.000000e+000
    endloop
  endfacet
  facet normal -7.071068e-001 7.071068e-001 0.000000e+000
    outer loop
      vertex   1.302276e+000 -1.092739e+000 0.000000e+000
      vertex   1.092739e+000 -1.302276e+000 0.000000e+000
      vertex   1.092739e+000 -1.302276e+000 5.000000e+000
    endloop
  endfacet
  facet normal -5.735764e-001 8.191520e-001 0.000000e+000
    outer loop
      vertex   1.092739e+000 -1.302276e+000 0.000000e+000
      vertex   8.500000e-001 -1.472243e+000 0.000000e+000
      vertex   8.500000e-001 -1.472243e+000 5.000000e+000
    endloop
  endfacet
  facet normal -4.226183e-001 9.063078e-001 0.000000e+000
    outer loop
      vertex   8.500000e-001 -1.472243e+000 0.000000e+000
      vertex   5.814342e-001 -1.597477e+000 0.000000e+000
      vertex   5.814342e-001 -1.597477e+000 5.000000e+000
    endloop
  endfacet
  facet normal -2.588190e-001 9.659258e-001 0.000000e+000
    outer loop
      vertex   5.814342e-001 -1.597477e+000 0.000000e+000
      vertex   2.952019e-001 -1.674173e+000 0.000000e+000
      vertex   2.952019e-001 -1.674173e+000 5.000000e+000
    endloop
  endfacet
  facet normal -8.715574e-002 9.961947e-001 0.000000e+000
    outer loop
      vertex   2.952019e-001 -1.674173e+000 0.000000e+000
      vertex   1.040915e-016 -1.700000e+000 0.000000e+000
      vertex   1.040915e-016 -1.700000e+000 5.000000e+000
    endloop
  endfacet
  facet normal 8.715574e-002 9.961947e-001 -0.000000e+000
    outer loop
      vertex   1.040915e-016 -1.700000e+000 0.000000e+000
      vertex   -2.952019e-001 -1.674173e+000 0.000000e+000
      vertex   -2.952019e-001 -1.674173e+000 5.000000e+000
    endloop
  endfacet
  facet normal 2.588190e-001 9.659258e-001 -0.000000e+000
    outer loop
      vertex   -2.952019e-001 -1.674173e+000 0.000000e+000
      vertex   -5.814342e-001 -1.597477e+000 0.000000e+000
      vertex   -5.814342e-001 -1.597477e+000 5.000000e+000
    endloop
  endfacet
  facet normal 4.226183e-001 9.063078e-001 -0.000000e+000
    outer loop
      vertex   -5.814342e-001 -1.597477e+000 0.000000e+000
      vertex   -8.500000e-001 -1.472243e+000 0.000000e+000
      vertex   -8.500000e-001 -1.472243e+000 5.000000e+000
    endloop
  endfacet
  facet normal 5.735764e-001 8.191520e-001 -0.000000e+000
    outer loop
      vertex   -8.500000e-001 -1.472243e+000 0.000000e+000
      vertex   -1.092739e+000 -1.302276e+000 0.000000e+000
      vertex   -1.092739e+000 -1.302276e+000 5.000000e+000
    endloop
  endfacet
  facet normal 7.071068e-001 7.071068e-001 -0.000000e+000
    outer loop
      vertex   -1.092739e+000 -1.302276e+000 0.000000e+000
      vertex   -1.302276e+000 -1.092739e+000 0.000000e+000
      vertex   -1.302276e+000 -1.092739e+000 5.000000e+000
    endloop
  endfacet
  facet normal 8.191520e-001 5.735764e-001 -0.000000e+000
    outer loop
      vertex   -1.302276e+000 -1.092739e+000 0.000000e+000
      vertex   -1.472243e+000 -8.500000e-001 0.000000e+000
      vertex   -1.472243e+000 -8.500000e-001 5.000000e+000
    endloop
  endfacet
  facet normal 9.063078e-001 4.226183e-001 -0.000000e+000
    outer loop
      vertex   -1.472243e+000 -8.500000e-001 0.000000e+000
      vertex   -1.597477e+000 -5.814342e-001 0.000000e+000
      vertex   -1.597477e+000 -5.814342e-001 5.000000e+000
    endloop
  endfacet
  facet normal 9.659258e-001 2.588190e-001 -0.000000e+000
    outer loop
      vertex   -1.597477e+000 -5.814342e-001 0.000000e+000
      vertex   -1.674173e+000 -2.952019e-001 0.000000e+000
      vertex   -1.674173e+000 -2.952019e-001 5.000000e+000
    endloop
  endfacet
  facet normal 9.961947e-001 8.715574e-002 -0.000000e+000
    outer loop
      vertex   -1.674173e+000 -2.952019e-001 0.000000e+000
      vertex   -1.700000e+000 -2.081831e-016 0.000000e+000
      vertex   -1.700000e+000 -2.081831e-016 5.000000e+000
    endloop
  endfacet
  facet normal 9.961947e-001 -8.715574e-002 0.000000e+000
    outer loop
      vertex   -1.700000e+000 -2.081831e-016 0.000000e+000
      vertex   -1.674173e+000 2.952019e-001 0.000000e+000
      vertex   -1.674173e+000 2.952019e-001 5.000000e+000
    endloop
  endfacet
  facet normal 9.659258e-001 -2.588190e-001 0.000000e+000
    outer loop
      vertex   -1.674173e+000 2.952019e-001 0.000000e+000
      vertex   -1.597477e+000 5.814342e-001 0.000000e+000
      vertex   -1.597477e+000 5.814342e-001 5.000000e+000
    endloop
  endfacet
  facet normal 9.063078e-001 -4.226183e-001 0.000000e+000
    outer loop
      vertex   -1.597477e+000 5.814342e-001 0.000000e+000
      vertex   -1.472243e+000 8.500000e-001 0.000000e+000
      vertex   -1.472243e+000 8.500000e-001 5.000000e+000
    endloop
  endfacet
  facet normal 8.191520e-001 -5.735764e-001 0.000000e+000
    outer loop
      vertex   -1.472243e+000 8.500000e-001 0.000000e+000
      vertex   -1.302276e+000 1.092739e+000 0.000000e+000
      vertex   -1.302276e+000 1.092739e+000 5.000000e+000
    endloop
  endfacet
  facet normal 7.071068e-001 -7.071068e-001 0.000000e+000
    outer loop
      vertex   -1.302276e+000 1.092739e+000 0.000000e+000
      vertex   -1.092739e+000 1.302276e+000 0.000000e+000
      vertex   -1.092739e+000 1.302276e+000 5.000000e+000
    endloop
  endfacet
  facet normal 5.735764e-001 -8.191520e-001 0.000000e+000
    outer loop
      vertex   -1.092739e+000 1.302276e+000 0.000000e+000
      vertex   -8.500000e-001 1.472243e+000 0.000000e+000
      vertex   -8.500000e-001 1.472243e+000 5.000000e+000
    endloop
  endfacet
  facet normal 4.226183e-001 -9.063078e-001 0.000000e+000
    outer loop
      vertex   -8.500000e-001 1.472243e+000 0.000000e+000
      vertex   -5.814342e-001 1.597477e+000 0.000000e+000
      vertex   -5.814342e-001 1.597477e+000 5.000000e+000
    endloop
  endfacet
  facet normal 2.588190e-001 -9.659258e-001 0.000000e+000
    outer loop
      vertex   -5.814342e-001 1.597477e+000 0.000000e+000
      vertex   -2.952019e-001 1.674173e+000 0.000000e+000
      vertex   -2.952019e-001 1.674173e+000 5.000000e+000
    endloop
  endfacet
  facet normal 8.715574e-002 -9.961947e-001 0.000000e+000
    outer loop
      vertex   -2.952019e-001 1.674173e+000 0.000000e+000
      vertex   -3.122746e-016 1.700000e+000 0.000000e+000
      vertex   -3.122746e-016 1.700000e+000 5.000000e+000
    endloop
  endfacet
  facet normal -8.715574e-002 -9.961947e-001 0.000000e+000
    outer loop
      vertex   -3.122746e-016 1.700000e+000 0.000000e+000
      vertex   2.952019e-001 1.674173e+000 0.000000e+000
      vertex   2.952019e-001 1.674173e+000 5.000000e+000
    endloop
  endfacet
  facet normal -2.588190e-001 -9.659258e-001 0.000000e+000
    outer loop
      vertex   2.952019e-001 1.674173e+000 0.000000e+000
      vertex   5.814342e-001 1.597477e+000 0.000000e+000
      vertex   5.814342e-001 1.597477e+000 5.000000e+000
    endloop
  endfacet
  facet normal -4.226183e-001 -9.063078e-001 0.000000e+000
    outer loop
      vertex   5.814342e-001 1.597477e+000 0.000000e+000
      vertex   8.500000e-001 1.472243e+000 0.000000e+000
      vertex   8.500000e-001 1.472243e+000 5.000000e+000
    endloop
  endfacet
  facet normal -5.735764e-001 -8.191520e-001 0.000000e+000
    outer loop
      vertex   8.500000e-001 1.472243e+000 0.000000e+000
      vertex   1.092739e+000 1.302276e+000 0.000000e+000
      vertex   1.092739e+000 1.302276e+000 5.000000e+000
    endloop
  endfacet
  facet normal -7.071068e-001 -7.071068e-001 0.000000e+000
    outer loop
      vertex   1.092739e+000 1.302276e+000 0.000000e+000
      vertex   1.302276e+000 1.092739e+000 0.000000e+000
      vertex   1.302276e+000 1.092739e+000 5.000000e+000
    endloop
  endfacet
  facet normal -8.191520e-001 -5.735764e-001 0.000000e+000
    outer loop
      vertex   1.302276e+000 1.092739e+000 0.000000e+000
      vertex   1.472243e+000 8.500000e-001 0.000000e+000
      vertex   1.472243e+000 8.500000e-001 5.000000e+000
    endloop
  endfacet
endsolid
