solid OpenSCAD_Model
  facet normal -1.000000 -0.000000 -0.000000
    outer loop
      vertex -18.000000 -27.000000 -2.500000
      vertex -18.000000 -27.000000 2.128342
      vertex -18.000000 27.000000 -2.500000
    endloop
  endfacet
  facet normal -1.000000 0.000000 0.000000
    outer loop
      vertex -18.000000 27.000000 -2.500000
      vertex -18.000000 -27.000000 2.128342
      vertex -18.000000 -19.908349 2.500000
    endloop
  endfacet
  facet normal -1.000000 0.000000 0.000000
    outer loop
      vertex -18.000000 27.000000 -2.500000
      vertex -18.000000 -19.908349 2.500000
      vertex -18.000000 -14.000000 2.500000
    endloop
  endfacet
  facet normal -1.000000 0.000000 0.000000
    outer loop
      vertex -18.000000 27.000000 -2.500000
      vertex -18.000000 -14.000000 2.500000
      vertex -18.000000 -14.000000 8.500000
    endloop
  endfacet
  facet normal -1.000000 0.000000 0.000000
    outer loop
      vertex -18.000000 14.000000 2.500000
      vertex -18.000000 -14.000000 8.500000
      vertex -18.000000 14.000000 8.500000
    endloop
  endfacet
  facet normal -1.000000 0.000000 0.000000
    outer loop
      vertex -18.000000 27.000000 -2.500000
      vertex -18.000000 -14.000000 8.500000
      vertex -18.000000 14.000000 2.500000
    endloop
  endfacet
  facet normal -1.000000 0.000000 0.000000
    outer loop
      vertex -18.000000 27.000000 2.500000
      vertex -18.000000 27.000000 -2.500000
      vertex -18.000000 14.000000 2.500000
    endloop
  endfacet
  facet normal 0.000000 -1.000000 0.000000
    outer loop
      vertex -18.000000 -27.000000 2.128342
      vertex -18.000000 -27.000000 -2.500000
      vertex -2.000000 -27.000000 -2.500000
    endloop
  endfacet
  facet normal 0.000000 -1.000000 0.000000
    outer loop
      vertex -2.000000 -27.000000 2.128342
      vertex -18.000000 -27.000000 2.128342
      vertex -2.000000 -27.000000 -2.500000
    endloop
  endfacet
  facet normal -0.000000 -0.000000 -1.000000
    outer loop
      vertex -12.500000 0.000000 -2.500000
      vertex -18.000000 27.000000 -2.500000
      vertex -2.000000 -27.000000 -2.500000
    endloop
  endfacet
  facet normal 0.000000 0.000000 -1.000000
    outer loop
      vertex -2.000000 23.000000 -2.500000
      vertex -18.000000 27.000000 -2.500000
      vertex -2.000000 27.000000 -2.500000
    endloop
  endfacet
  facet normal 0.000000 0.000000 -1.000000
    outer loop
      vertex -2.000000 -27.000000 -2.500000
      vertex -18.000000 27.000000 -2.500000
      vertex -2.000000 -23.000000 -2.500000
    endloop
  endfacet
  facet normal 0.000000 0.000000 -1.000000
    outer loop
      vertex -14.463525 -1.426585 -2.500000
      vertex -2.000000 -27.000000 -2.500000
      vertex -15.213525 -0.881678 -2.500000
    endloop
  endfacet
  facet normal 0.000000 0.000000 -1.000000
    outer loop
      vertex -1.313322 4.041990 -2.500000
      vertex -0.618034 21.097887 -2.500000
      vertex 0.618034 21.097887 -2.500000
    endloop
  endfacet
  facet normal 0.000000 0.000000 -1.000000
    outer loop
      vertex -0.444246 -4.226718 -2.500000
      vertex -1.618034 -21.824429 -2.500000
      vertex -2.000000 -23.000000 -2.500000
    endloop
  endfacet
  facet normal 0.000000 -0.000000 -1.000000
    outer loop
      vertex 2.000000 23.000000 -2.500000
      vertex 2.000000 27.000000 -2.500000
      vertex 18.000000 27.000000 -2.500000
    endloop
  endfacet
  facet normal 0.000000 0.000000 -1.000000
    outer loop
      vertex 12.786475 0.881678 -2.500000
      vertex 18.000000 27.000000 -2.500000
      vertex 18.000000 10.000000 -2.500000
    endloop
  endfacet
  facet normal 0.000000 0.000000 -1.000000
    outer loop
      vertex 14.463525 1.426585 -2.500000
      vertex 18.000000 10.000000 -2.500000
      vertex 23.000000 10.000000 -2.500000
    endloop
  endfacet
  facet normal -0.000000 0.000000 -1.000000
    outer loop
      vertex 18.000000 -10.000000 -2.500000
      vertex 23.000000 10.000000 -2.500000
      vertex 23.000000 -10.000000 -2.500000
    endloop
  endfacet
  facet normal 0.000000 0.000000 -1.000000
    outer loop
      vertex 2.000000 -23.000000 -2.500000
      vertex 23.000000 10.000000 -2.500000
      vertex 18.000000 -10.000000 -2.500000
    endloop
  endfacet
  facet normal -0.000000 0.000000 -1.000000
    outer loop
      vertex 15.500000 0.000000 -2.500000
      vertex 23.000000 10.000000 -2.500000
      vertex 15.213525 -0.881678 -2.500000
    endloop
  endfacet
  facet normal -0.000000 0.000000 -1.000000
    outer loop
      vertex 2.000000 -23.000000 -2.500000
      vertex 18.000000 -10.000000 -2.500000
      vertex 2.000000 -27.000000 -2.500000
    endloop
  endfacet
  facet normal -0.000000 0.000000 -1.000000
    outer loop
      vertex 1.618034 -21.824429 -2.500000
      vertex 23.000000 10.000000 -2.500000
      vertex 2.000000 -23.000000 -2.500000
    endloop
  endfacet
  facet normal 0.000000 0.000000 -1.000000
    outer loop
      vertex 12.786475 -0.881678 -2.500000
      vertex 0.618034 -21.097887 -2.500000
      vertex 12.500000 0.000000 -2.500000
    endloop
  endfacet
  facet normal -0.000000 0.000000 -1.000000
    outer loop
      vertex 3.882568 -1.728631 -2.500000
      vertex 18.000000 27.000000 -2.500000
      vertex -0.618034 -21.097887 -2.500000
    endloop
  endfacet
  facet normal 0.000000 0.000000 -1.000000
    outer loop
      vertex -0.444246 4.226718 -2.500000
      vertex 0.618034 21.097887 -2.500000
      vertex 1.618034 21.824429 -2.500000
    endloop
  endfacet
  facet normal 0.000000 0.000000 -1.000000
    outer loop
      vertex -4.250000 0.000000 -2.500000
      vertex -2.000000 -23.000000 -2.500000
      vertex -18.000000 27.000000 -2.500000
    endloop
  endfacet
  facet normal 0.000000 -0.000000 -1.000000
    outer loop
      vertex -18.000000 -27.000000 -2.500000
      vertex -18.000000 27.000000 -2.500000
      vertex -15.500000 0.000000 -2.500000
    endloop
  endfacet
  facet normal 0.000000 0.000000 -1.000000
    outer loop
      vertex -18.000000 -27.000000 -2.500000
      vertex -15.500000 0.000000 -2.500000
      vertex -15.213525 -0.881678 -2.500000
    endloop
  endfacet
  facet normal -0.000000 0.000000 -1.000000
    outer loop
      vertex -18.000000 -27.000000 -2.500000
      vertex -15.213525 -0.881678 -2.500000
      vertex -2.000000 -27.000000 -2.500000
    endloop
  endfacet
  facet normal 0.000000 0.000000 -1.000000
    outer loop
      vertex -1.313322 -4.041990 -2.500000
      vertex -2.000000 -23.000000 -2.500000
      vertex -2.125000 -3.680608 -2.500000
    endloop
  endfacet
  facet normal -0.000000 -0.000000 -1.000000
    outer loop
      vertex -13.536475 1.426585 -2.500000
      vertex -18.000000 27.000000 -2.500000
      vertex -12.786475 0.881678 -2.500000
    endloop
  endfacet
  facet normal 0.000000 -0.000000 -1.000000
    outer loop
      vertex -15.213525 0.881678 -2.500000
      vertex -18.000000 27.000000 -2.500000
      vertex -14.463525 1.426585 -2.500000
    endloop
  endfacet
  facet normal 0.000000 0.000000 -1.000000
    outer loop
      vertex -14.463525 -1.426585 -2.500000
      vertex -13.536475 -1.426585 -2.500000
      vertex -2.000000 -27.000000 -2.500000
    endloop
  endfacet
  facet normal -0.000000 -0.000000 -1.000000
    outer loop
      vertex -14.463525 1.426585 -2.500000
      vertex -18.000000 27.000000 -2.500000
      vertex -13.536475 1.426585 -2.500000
    endloop
  endfacet
  facet normal -0.000000 0.000000 -1.000000
    outer loop
      vertex -13.536475 -1.426585 -2.500000
      vertex -12.786475 -0.881678 -2.500000
      vertex -2.000000 -27.000000 -2.500000
    endloop
  endfacet
  facet normal -0.000000 -0.000000 -1.000000
    outer loop
      vertex -12.786475 0.881678 -2.500000
      vertex -18.000000 27.000000 -2.500000
      vertex -12.500000 0.000000 -2.500000
    endloop
  endfacet
  facet normal -0.000000 0.000000 -1.000000
    outer loop
      vertex -12.786475 -0.881678 -2.500000
      vertex -12.500000 0.000000 -2.500000
      vertex -2.000000 -27.000000 -2.500000
    endloop
  endfacet
  facet normal 0.000000 -0.000000 -1.000000
    outer loop
      vertex -15.500000 0.000000 -2.500000
      vertex -18.000000 27.000000 -2.500000
      vertex -15.213525 0.881678 -2.500000
    endloop
  endfacet
  facet normal 0.000000 0.000000 -1.000000
    outer loop
      vertex -4.157127 -0.883625 -2.500000
      vertex -2.000000 -23.000000 -2.500000
      vertex -4.250000 0.000000 -2.500000
    endloop
  endfacet
  facet normal 0.000000 0.000000 -1.000000
    outer loop
      vertex -2.000000 23.000000 -2.500000
      vertex -4.250000 0.000000 -2.500000
      vertex -18.000000 27.000000 -2.500000
    endloop
  endfacet
  facet normal 0.000000 0.000000 -1.000000
    outer loop
      vertex -3.882568 -1.728631 -2.500000
      vertex -2.000000 -23.000000 -2.500000
      vertex -4.157127 -0.883625 -2.500000
    endloop
  endfacet
  facet normal 0.000000 0.000000 -1.000000
    outer loop
      vertex -3.438322 -2.498087 -2.500000
      vertex -2.000000 -23.000000 -2.500000
      vertex -3.882568 -1.728631 -2.500000
    endloop
  endfacet
  facet normal 0.000000 0.000000 -1.000000
    outer loop
      vertex -2.843805 -3.158366 -2.500000
      vertex -2.000000 -23.000000 -2.500000
      vertex -3.438322 -2.498087 -2.500000
    endloop
  endfacet
  facet normal 0.000000 0.000000 -1.000000
    outer loop
      vertex -2.125000 -3.680608 -2.500000
      vertex -2.000000 -23.000000 -2.500000
      vertex -2.843805 -3.158366 -2.500000
    endloop
  endfacet
  facet normal 0.000000 0.000000 -1.000000
    outer loop
      vertex -2.125000 3.680608 -2.500000
      vertex -1.618034 21.824429 -2.500000
      vertex -1.313322 4.041990 -2.500000
    endloop
  endfacet
  facet normal 0.000000 0.000000 -1.000000
    outer loop
      vertex -2.125000 3.680608 -2.500000
      vertex -2.000000 23.000000 -2.500000
      vertex -1.618034 21.824429 -2.500000
    endloop
  endfacet
  facet normal 0.000000 0.000000 -1.000000
    outer loop
      vertex -1.313322 4.041990 -2.500000
      vertex 0.618034 21.097887 -2.500000
      vertex -0.444246 4.226718 -2.500000
    endloop
  endfacet
  facet normal 0.000000 0.000000 -1.000000
    outer loop
      vertex 0.444246 -4.226718 -2.500000
      vertex -0.618034 -21.097887 -2.500000
      vertex -1.618034 -21.824429 -2.500000
    endloop
  endfacet
  facet normal -0.000000 0.000000 -1.000000
    outer loop
      vertex 0.444246 4.226718 -2.500000
      vertex 2.000000 23.000000 -2.500000
      vertex 1.313322 4.041990 -2.500000
    endloop
  endfacet
  facet normal -0.000000 0.000000 -1.000000
    outer loop
      vertex 4.157127 -0.883625 -2.500000
      vertex 18.000000 27.000000 -2.500000
      vertex 3.882568 -1.728631 -2.500000
    endloop
  endfacet
  facet normal -0.000000 0.000000 -1.000000
    outer loop
      vertex 3.438322 2.498087 -2.500000
      vertex 18.000000 27.000000 -2.500000
      vertex 3.882568 1.728631 -2.500000
    endloop
  endfacet
  facet normal -0.000000 0.000000 -1.000000
    outer loop
      vertex 0.444246 -4.226718 -2.500000
      vertex 1.313322 -4.041990 -2.500000
      vertex -0.618034 -21.097887 -2.500000
    endloop
  endfacet
  facet normal -0.000000 0.000000 -1.000000
    outer loop
      vertex 3.882568 1.728631 -2.500000
      vertex 18.000000 27.000000 -2.500000
      vertex 4.157127 0.883625 -2.500000
    endloop
  endfacet
  facet normal -0.000000 0.000000 -1.000000
    outer loop
      vertex 1.313322 -4.041990 -2.500000
      vertex 2.125000 -3.680608 -2.500000
      vertex -0.618034 -21.097887 -2.500000
    endloop
  endfacet
  facet normal -0.000000 0.000000 -1.000000
    outer loop
      vertex 4.157127 0.883625 -2.500000
      vertex 18.000000 27.000000 -2.500000
      vertex 4.250000 0.000000 -2.500000
    endloop
  endfacet
  facet normal -0.000000 0.000000 -1.000000
    outer loop
      vertex 2.125000 -3.680608 -2.500000
      vertex 2.843805 -3.158366 -2.500000
      vertex -0.618034 -21.097887 -2.500000
    endloop
  endfacet
  facet normal -0.000000 0.000000 -1.000000
    outer loop
      vertex 4.250000 0.000000 -2.500000
      vertex 18.000000 27.000000 -2.500000
      vertex 4.157127 -0.883625 -2.500000
    endloop
  endfacet
  facet normal -0.000000 0.000000 -1.000000
    outer loop
      vertex 2.843805 -3.158366 -2.500000
      vertex 3.438322 -2.498087 -2.500000
      vertex -0.618034 -21.097887 -2.500000
    endloop
  endfacet
  facet normal -0.000000 0.000000 -1.000000
    outer loop
      vertex 3.438322 -2.498087 -2.500000
      vertex 3.882568 -1.728631 -2.500000
      vertex -0.618034 -21.097887 -2.500000
    endloop
  endfacet
  facet normal -0.000000 0.000000 -1.000000
    outer loop
      vertex 2.000000 23.000000 -2.500000
      vertex 18.000000 27.000000 -2.500000
      vertex 3.438322 2.498087 -2.500000
    endloop
  endfacet
  facet normal 0.000000 0.000000 -1.000000
    outer loop
      vertex 2.000000 23.000000 -2.500000
      vertex 3.438322 2.498087 -2.500000
      vertex 2.843805 3.158366 -2.500000
    endloop
  endfacet
  facet normal 0.000000 0.000000 -1.000000
    outer loop
      vertex 2.000000 23.000000 -2.500000
      vertex 2.843805 3.158366 -2.500000
      vertex 2.125000 3.680608 -2.500000
    endloop
  endfacet
  facet normal 0.000000 0.000000 -1.000000
    outer loop
      vertex 2.000000 23.000000 -2.500000
      vertex 2.125000 3.680608 -2.500000
      vertex 1.313322 4.041990 -2.500000
    endloop
  endfacet
  facet normal -0.000000 0.000000 -1.000000
    outer loop
      vertex -0.444246 4.226718 -2.500000
      vertex 1.618034 21.824429 -2.500000
      vertex 0.444246 4.226718 -2.500000
    endloop
  endfacet
  facet normal -0.000000 0.000000 -1.000000
    outer loop
      vertex 1.618034 21.824429 -2.500000
      vertex 2.000000 23.000000 -2.500000
      vertex 0.444246 4.226718 -2.500000
    endloop
  endfacet
  facet normal 0.000000 0.000000 -1.000000
    outer loop
      vertex -0.444246 -4.226718 -2.500000
      vertex -2.000000 -23.000000 -2.500000
      vertex -1.313322 -4.041990 -2.500000
    endloop
  endfacet
  facet normal 0.000000 0.000000 -1.000000
    outer loop
      vertex -1.618034 21.824429 -2.500000
      vertex -0.618034 21.097887 -2.500000
      vertex -1.313322 4.041990 -2.500000
    endloop
  endfacet
  facet normal 0.000000 0.000000 -1.000000
    outer loop
      vertex -2.843805 3.158366 -2.500000
      vertex -2.000000 23.000000 -2.500000
      vertex -2.125000 3.680608 -2.500000
    endloop
  endfacet
  facet normal 0.000000 0.000000 -1.000000
    outer loop
      vertex -3.438322 2.498087 -2.500000
      vertex -2.000000 23.000000 -2.500000
      vertex -2.843805 3.158366 -2.500000
    endloop
  endfacet
  facet normal 0.000000 0.000000 -1.000000
    outer loop
      vertex -3.882568 1.728631 -2.500000
      vertex -2.000000 23.000000 -2.500000
      vertex -3.438322 2.498087 -2.500000
    endloop
  endfacet
  facet normal 0.000000 0.000000 -1.000000
    outer loop
      vertex -4.157127 0.883625 -2.500000
      vertex -2.000000 23.000000 -2.500000
      vertex -3.882568 1.728631 -2.500000
    endloop
  endfacet
  facet normal 0.000000 -0.000000 -1.000000
    outer loop
      vertex 12.500000 0.000000 -2.500000
      vertex 0.618034 -21.097887 -2.500000
      vertex 12.786475 0.881678 -2.500000
    endloop
  endfacet
  facet normal 0.000000 0.000000 -1.000000
    outer loop
      vertex -2.000000 23.000000 -2.500000
      vertex -4.157127 0.883625 -2.500000
      vertex -4.250000 0.000000 -2.500000
    endloop
  endfacet
  facet normal -0.000000 0.000000 -1.000000
    outer loop
      vertex -0.618034 -21.097887 -2.500000
      vertex 18.000000 27.000000 -2.500000
      vertex 0.618034 -21.097887 -2.500000
    endloop
  endfacet
  facet normal 0.000000 0.000000 -1.000000
    outer loop
      vertex 12.786475 0.881678 -2.500000
      vertex 18.000000 10.000000 -2.500000
      vertex 13.536475 1.426585 -2.500000
    endloop
  endfacet
  facet normal 0.000000 0.000000 -1.000000
    outer loop
      vertex 0.444246 -4.226718 -2.500000
      vertex -1.618034 -21.824429 -2.500000
      vertex -0.444246 -4.226718 -2.500000
    endloop
  endfacet
  facet normal -0.000000 0.000000 -1.000000
    outer loop
      vertex 15.213525 0.881678 -2.500000
      vertex 23.000000 10.000000 -2.500000
      vertex 15.500000 0.000000 -2.500000
    endloop
  endfacet
  facet normal -0.000000 0.000000 -1.000000
    outer loop
      vertex 14.463525 1.426585 -2.500000
      vertex 23.000000 10.000000 -2.500000
      vertex 15.213525 0.881678 -2.500000
    endloop
  endfacet
  facet normal -0.000000 0.000000 -1.000000
    outer loop
      vertex 13.536475 1.426585 -2.500000
      vertex 18.000000 10.000000 -2.500000
      vertex 14.463525 1.426585 -2.500000
    endloop
  endfacet
  facet normal 0.000000 0.000000 -1.000000
    outer loop
      vertex 0.618034 -21.097887 -2.500000
      vertex 18.000000 27.000000 -2.500000
      vertex 12.786475 0.881678 -2.500000
    endloop
  endfacet
  facet normal 0.000000 0.000000 -1.000000
    outer loop
      vertex 18.000000 -27.000000 -2.500000
      vertex 2.000000 -27.000000 -2.500000
      vertex 18.000000 -10.000000 -2.500000
    endloop
  endfacet
  facet normal 0.000000 0.000000 -1.000000
    outer loop
      vertex 0.618034 -21.097887 -2.500000
      vertex 12.786475 -0.881678 -2.500000
      vertex 13.536475 -1.426585 -2.500000
    endloop
  endfacet
  facet normal 0.000000 0.000000 -1.000000
    outer loop
      vertex 0.618034 -21.097887 -2.500000
      vertex 13.536475 -1.426585 -2.500000
      vertex 14.463525 -1.426585 -2.500000
    endloop
  endfacet
  facet normal 0.000000 0.000000 -1.000000
    outer loop
      vertex 0.618034 -21.097887 -2.500000
      vertex 14.463525 -1.426585 -2.500000
      vertex 15.213525 -0.881678 -2.500000
    endloop
  endfacet
  facet normal -0.000000 0.000000 -1.000000
    outer loop
      vertex 15.213525 -0.881678 -2.500000
      vertex 23.000000 10.000000 -2.500000
      vertex 1.618034 -21.824429 -2.500000
    endloop
  endfacet
  facet normal -0.000000 0.000000 -1.000000
    outer loop
      vertex 0.618034 -21.097887 -2.500000
      vertex 15.213525 -0.881678 -2.500000
      vertex 1.618034 -21.824429 -2.500000
    endloop
  endfacet
  facet normal 0.000000 1.000000 0.000000
    outer loop
      vertex -18.000000 27.000000 -2.500000
      vertex -18.000000 27.000000 2.500000
      vertex -2.000000 27.000000 -2.500000
    endloop
  endfacet
  facet normal 0.000000 1.000000 0.000000
    outer loop
      vertex -2.000000 27.000000 -2.500000
      vertex -18.000000 27.000000 2.500000
      vertex -2.000000 27.000000 2.500000
    endloop
  endfacet
  facet normal 0.000000 -0.000000 1.000000
    outer loop
      vertex -18.000000 27.000000 2.500000
      vertex -18.000000 14.000000 2.500000
      vertex 18.000000 14.000000 2.500000
    endloop
  endfacet
  facet normal -0.000000 -0.000000 1.000000
    outer loop
      vertex -0.618034 21.097887 2.500000
      vertex -18.000000 27.000000 2.500000
      vertex 18.000000 14.000000 2.500000
    endloop
  endfacet
  facet normal 0.000000 0.000000 1.000000
    outer loop
      vertex 18.000000 27.000000 2.500000
      vertex 2.000000 27.000000 2.500000
      vertex 18.000000 14.000000 2.500000
    endloop
  endfacet
  facet normal 0.000000 -0.000000 1.000000
    outer loop
      vertex 2.000000 27.000000 2.500000
      vertex 2.000000 23.000000 2.500000
      vertex 18.000000 14.000000 2.500000
    endloop
  endfacet
  facet normal 0.000000 -0.000000 1.000000
    outer loop
      vertex 2.000000 23.000000 2.500000
      vertex 1.618034 21.824429 2.500000
      vertex 18.000000 14.000000 2.500000
    endloop
  endfacet
  facet normal 0.000000 -0.000000 1.000000
    outer loop
      vertex 1.618034 21.824429 2.500000
      vertex 0.618034 21.097887 2.500000
      vertex 18.000000 14.000000 2.500000
    endloop
  endfacet
  facet normal 0.000000 -0.000000 1.000000
    outer loop
      vertex 0.618034 21.097887 2.500000
      vertex -0.618034 21.097887 2.500000
      vertex 18.000000 14.000000 2.500000
    endloop
  endfacet
  facet normal 0.000000 0.000000 1.000000
    outer loop
      vertex -1.618034 21.824429 2.500000
      vertex -2.000000 23.000000 2.500000
      vertex -18.000000 27.000000 2.500000
    endloop
  endfacet
  facet normal 0.000000 0.000000 1.000000
    outer loop
      vertex -2.000000 23.000000 2.500000
      vertex -2.000000 27.000000 2.500000
      vertex -18.000000 27.000000 2.500000
    endloop
  endfacet
  facet normal 0.000000 0.000000 1.000000
    outer loop
      vertex -0.618034 21.097887 2.500000
      vertex -1.618034 21.824429 2.500000
      vertex -18.000000 27.000000 2.500000
    endloop
  endfacet
  facet normal 0.000000 1.000000 0.000000
    outer loop
      vertex -18.000000 14.000000 2.500000
      vertex -18.000000 14.000000 8.500000
      vertex 18.000000 14.000000 2.500000
    endloop
  endfacet
  facet normal 0.000000 1.000000 0.000000
    outer loop
      vertex 18.000000 14.000000 2.500000
      vertex -18.000000 14.000000 8.500000
      vertex 18.000000 14.000000 8.500000
    endloop
  endfacet
  facet normal 0.000000 -0.000000 1.000000
    outer loop
      vertex -14.463525 -1.426585 8.500000
      vertex -18.000000 -14.000000 8.500000
      vertex 18.000000 -14.000000 8.500000
    endloop
  endfacet
  facet normal 0.000000 0.000000 1.000000
    outer loop
      vertex -1.313322 4.041990 8.500000
      vertex -0.444246 4.226718 8.500000
      vertex 18.000000 14.000000 8.500000
    endloop
  endfacet
  facet normal 0.000000 -0.000000 1.000000
    outer loop
      vertex -15.500000 0.000000 8.500000
      vertex -18.000000 -14.000000 8.500000
      vertex -15.213525 -0.881678 8.500000
    endloop
  endfacet
  facet normal 0.000000 0.000000 1.000000
    outer loop
      vertex -12.786475 0.881678 8.500000
      vertex -12.500000 0.000000 8.500000
      vertex 18.000000 -14.000000 8.500000
    endloop
  endfacet
  facet normal 0.000000 -0.000000 1.000000
    outer loop
      vertex -18.000000 14.000000 8.500000
      vertex -18.000000 -14.000000 8.500000
      vertex -15.500000 0.000000 8.500000
    endloop
  endfacet
  facet normal 0.000000 -0.000000 1.000000
    outer loop
      vertex -13.536475 -1.426585 8.500000
      vertex -14.463525 -1.426585 8.500000
      vertex 18.000000 -14.000000 8.500000
    endloop
  endfacet
  facet normal 0.000000 -0.000000 1.000000
    outer loop
      vertex -12.500000 0.000000 8.500000
      vertex -12.786475 -0.881678 8.500000
      vertex 18.000000 -14.000000 8.500000
    endloop
  endfacet
  facet normal 0.000000 0.000000 1.000000
    outer loop
      vertex -18.000000 14.000000 8.500000
      vertex -15.213525 0.881678 8.500000
      vertex -14.463525 1.426585 8.500000
    endloop
  endfacet
  facet normal -0.000000 -0.000000 1.000000
    outer loop
      vertex -2.125000 -3.680608 8.500000
      vertex -13.536475 1.426585 8.500000
      vertex 18.000000 -14.000000 8.500000
    endloop
  endfacet
  facet normal 0.000000 0.000000 1.000000
    outer loop
      vertex -18.000000 14.000000 8.500000
      vertex -14.463525 1.426585 8.500000
      vertex -13.536475 1.426585 8.500000
    endloop
  endfacet
  facet normal 0.000000 0.000000 1.000000
    outer loop
      vertex -13.536475 1.426585 8.500000
      vertex -12.786475 0.881678 8.500000
      vertex 18.000000 -14.000000 8.500000
    endloop
  endfacet
  facet normal 0.000000 -0.000000 1.000000
    outer loop
      vertex -12.786475 -0.881678 8.500000
      vertex -13.536475 -1.426585 8.500000
      vertex 18.000000 -14.000000 8.500000
    endloop
  endfacet
  facet normal 0.000000 0.000000 1.000000
    outer loop
      vertex -2.125000 -3.680608 8.500000
      vertex -2.843805 -3.158366 8.500000
      vertex -13.536475 1.426585 8.500000
    endloop
  endfacet
  facet normal 0.000000 -0.000000 1.000000
    outer loop
      vertex -15.213525 -0.881678 8.500000
      vertex -18.000000 -14.000000 8.500000
      vertex -14.463525 -1.426585 8.500000
    endloop
  endfacet
  facet normal 0.000000 0.000000 1.000000
    outer loop
      vertex -18.000000 14.000000 8.500000
      vertex -13.536475 1.426585 8.500000
      vertex -4.157127 -0.883625 8.500000
    endloop
  endfacet
  facet normal 0.000000 -0.000000 1.000000
    outer loop
      vertex 1.313322 -4.041990 8.500000
      vertex 0.444246 -4.226718 8.500000
      vertex 18.000000 -14.000000 8.500000
    endloop
  endfacet
  facet normal 0.000000 0.000000 1.000000
    outer loop
      vertex -18.000000 14.000000 8.500000
      vertex -4.157127 -0.883625 8.500000
      vertex -4.250000 0.000000 8.500000
    endloop
  endfacet
  facet normal 0.000000 -0.000000 1.000000
    outer loop
      vertex 2.125000 -3.680608 8.500000
      vertex 1.313322 -4.041990 8.500000
      vertex 18.000000 -14.000000 8.500000
    endloop
  endfacet
  facet normal 0.000000 0.000000 1.000000
    outer loop
      vertex -18.000000 14.000000 8.500000
      vertex -4.250000 0.000000 8.500000
      vertex -4.157127 0.883625 8.500000
    endloop
  endfacet
  facet normal 0.000000 -0.000000 1.000000
    outer loop
      vertex 2.843805 -3.158366 8.500000
      vertex 2.125000 -3.680608 8.500000
      vertex 18.000000 -14.000000 8.500000
    endloop
  endfacet
  facet normal 0.000000 0.000000 1.000000
    outer loop
      vertex -18.000000 14.000000 8.500000
      vertex -4.157127 0.883625 8.500000
      vertex -3.882568 1.728631 8.500000
    endloop
  endfacet
  facet normal 0.000000 0.000000 1.000000
    outer loop
      vertex 3.882568 1.728631 8.500000
      vertex 4.157127 0.883625 8.500000
      vertex 18.000000 -14.000000 8.500000
    endloop
  endfacet
  facet normal 0.000000 0.000000 1.000000
    outer loop
      vertex -18.000000 14.000000 8.500000
      vertex -3.882568 1.728631 8.500000
      vertex -3.438322 2.498087 8.500000
    endloop
  endfacet
  facet normal -0.000000 0.000000 1.000000
    outer loop
      vertex -2.125000 3.680608 8.500000
      vertex -18.000000 14.000000 8.500000
      vertex -2.843805 3.158366 8.500000
    endloop
  endfacet
  facet normal 0.000000 0.000000 1.000000
    outer loop
      vertex 18.000000 14.000000 8.500000
      vertex -18.000000 14.000000 8.500000
      vertex -2.125000 3.680608 8.500000
    endloop
  endfacet
  facet normal 0.000000 0.000000 1.000000
    outer loop
      vertex 3.438322 2.498087 8.500000
      vertex 3.882568 1.728631 8.500000
      vertex 18.000000 -14.000000 8.500000
    endloop
  endfacet
  facet normal 0.000000 0.000000 1.000000
    outer loop
      vertex 18.000000 14.000000 8.500000
      vertex -2.125000 3.680608 8.500000
      vertex -1.313322 4.041990 8.500000
    endloop
  endfacet
  facet normal 0.000000 -0.000000 1.000000
    outer loop
      vertex 3.882568 -1.728631 8.500000
      vertex 3.438322 -2.498087 8.500000
      vertex 18.000000 -14.000000 8.500000
    endloop
  endfacet
  facet normal 0.000000 -0.000000 1.000000
    outer loop
      vertex 4.250000 0.000000 8.500000
      vertex 4.157127 -0.883625 8.500000
      vertex 18.000000 -14.000000 8.500000
    endloop
  endfacet
  facet normal 0.000000 0.000000 1.000000
    outer loop
      vertex 18.000000 14.000000 8.500000
      vertex -0.444246 4.226718 8.500000
      vertex 0.444246 4.226718 8.500000
    endloop
  endfacet
  facet normal 0.000000 0.000000 1.000000
    outer loop
      vertex 4.157127 0.883625 8.500000
      vertex 4.250000 0.000000 8.500000
      vertex 18.000000 -14.000000 8.500000
    endloop
  endfacet
  facet normal 0.000000 0.000000 1.000000
    outer loop
      vertex 18.000000 14.000000 8.500000
      vertex 0.444246 4.226718 8.500000
      vertex 1.313322 4.041990 8.500000
    endloop
  endfacet
  facet normal 0.000000 -0.000000 1.000000
    outer loop
      vertex 3.438322 -2.498087 8.500000
      vertex 2.843805 -3.158366 8.500000
      vertex 18.000000 -14.000000 8.500000
    endloop
  endfacet
  facet normal 0.000000 0.000000 1.000000
    outer loop
      vertex 18.000000 14.000000 8.500000
      vertex 1.313322 4.041990 8.500000
      vertex 2.125000 3.680608 8.500000
    endloop
  endfacet
  facet normal 0.000000 0.000000 1.000000
    outer loop
      vertex 18.000000 14.000000 8.500000
      vertex 2.125000 3.680608 8.500000
      vertex 2.843805 3.158366 8.500000
    endloop
  endfacet
  facet normal -0.000000 -0.000000 1.000000
    outer loop
      vertex 12.786475 -0.881678 8.500000
      vertex 3.438322 2.498087 8.500000
      vertex 18.000000 -14.000000 8.500000
    endloop
  endfacet
  facet normal 0.000000 0.000000 1.000000
    outer loop
      vertex 18.000000 14.000000 8.500000
      vertex 2.843805 3.158366 8.500000
      vertex 3.438322 2.498087 8.500000
    endloop
  endfacet
  facet normal 0.000000 -0.000000 1.000000
    outer loop
      vertex 4.157127 -0.883625 8.500000
      vertex 3.882568 -1.728631 8.500000
      vertex 18.000000 -14.000000 8.500000
    endloop
  endfacet
  facet normal 0.000000 -0.000000 1.000000
    outer loop
      vertex 0.444246 -4.226718 8.500000
      vertex -0.444246 -4.226718 8.500000
      vertex 18.000000 -14.000000 8.500000
    endloop
  endfacet
  facet normal -0.000000 -0.000000 1.000000
    outer loop
      vertex -0.444246 -4.226718 8.500000
      vertex -1.313322 -4.041990 8.500000
      vertex 18.000000 -14.000000 8.500000
    endloop
  endfacet
  facet normal 0.000000 0.000000 1.000000
    outer loop
      vertex -2.843805 -3.158366 8.500000
      vertex -3.438322 -2.498087 8.500000
      vertex -13.536475 1.426585 8.500000
    endloop
  endfacet
  facet normal -0.000000 -0.000000 1.000000
    outer loop
      vertex -1.313322 -4.041990 8.500000
      vertex -2.125000 -3.680608 8.500000
      vertex 18.000000 -14.000000 8.500000
    endloop
  endfacet
  facet normal 0.000000 0.000000 1.000000
    outer loop
      vertex 12.786475 0.881678 8.500000
      vertex 13.536475 1.426585 8.500000
      vertex 18.000000 14.000000 8.500000
    endloop
  endfacet
  facet normal -0.000000 -0.000000 1.000000
    outer loop
      vertex -3.882568 -1.728631 8.500000
      vertex -13.536475 1.426585 8.500000
      vertex -3.438322 -2.498087 8.500000
    endloop
  endfacet
  facet normal -0.000000 -0.000000 1.000000
    outer loop
      vertex -4.157127 -0.883625 8.500000
      vertex -13.536475 1.426585 8.500000
      vertex -3.882568 -1.728631 8.500000
    endloop
  endfacet
  facet normal -0.000000 -0.000000 1.000000
    outer loop
      vertex 13.536475 -1.426585 8.500000
      vertex 12.786475 -0.881678 8.500000
      vertex 18.000000 -14.000000 8.500000
    endloop
  endfacet
  facet normal -0.000000 -0.000000 1.000000
    outer loop
      vertex 12.500000 0.000000 8.500000
      vertex 3.438322 2.498087 8.500000
      vertex 12.786475 -0.881678 8.500000
    endloop
  endfacet
  facet normal -0.000000 0.000000 1.000000
    outer loop
      vertex 12.786475 0.881678 8.500000
      vertex 3.438322 2.498087 8.500000
      vertex 12.500000 0.000000 8.500000
    endloop
  endfacet
  facet normal 0.000000 0.000000 1.000000
    outer loop
      vertex 13.536475 1.426585 8.500000
      vertex 14.463525 1.426585 8.500000
      vertex 18.000000 14.000000 8.500000
    endloop
  endfacet
  facet normal 0.000000 0.000000 1.000000
    outer loop
      vertex 18.000000 14.000000 8.500000
      vertex 3.438322 2.498087 8.500000
      vertex 12.786475 0.881678 8.500000
    endloop
  endfacet
  facet normal 0.000000 -0.000000 1.000000
    outer loop
      vertex 15.500000 0.000000 8.500000
      vertex 15.213525 -0.881678 8.500000
      vertex 18.000000 -14.000000 8.500000
    endloop
  endfacet
  facet normal 0.000000 -0.000000 1.000000
    outer loop
      vertex 15.213525 -0.881678 8.500000
      vertex 14.463525 -1.426585 8.500000
      vertex 18.000000 -14.000000 8.500000
    endloop
  endfacet
  facet normal 0.000000 0.000000 1.000000
    outer loop
      vertex 18.000000 14.000000 8.500000
      vertex 14.463525 1.426585 8.500000
      vertex 15.213525 0.881678 8.500000
    endloop
  endfacet
  facet normal 0.000000 0.000000 1.000000
    outer loop
      vertex 18.000000 14.000000 8.500000
      vertex 15.500000 0.000000 8.500000
      vertex 18.000000 -14.000000 8.500000
    endloop
  endfacet
  facet normal 0.000000 0.000000 1.000000
    outer loop
      vertex 18.000000 14.000000 8.500000
      vertex 15.213525 0.881678 8.500000
      vertex 15.500000 0.000000 8.500000
    endloop
  endfacet
  facet normal 0.000000 -0.000000 1.000000
    outer loop
      vertex 14.463525 -1.426585 8.500000
      vertex 13.536475 -1.426585 8.500000
      vertex 18.000000 -14.000000 8.500000
    endloop
  endfacet
  facet normal 0.000000 0.000000 1.000000
    outer loop
      vertex -15.500000 0.000000 8.500000
      vertex -15.213525 0.881678 8.500000
      vertex -18.000000 14.000000 8.500000
    endloop
  endfacet
  facet normal 0.000000 0.000000 1.000000
    outer loop
      vertex -3.438322 2.498087 8.500000
      vertex -2.843805 3.158366 8.500000
      vertex -18.000000 14.000000 8.500000
    endloop
  endfacet
  facet normal 0.000000 -1.000000 0.000000
    outer loop
      vertex -18.000000 -14.000000 8.500000
      vertex -18.000000 -14.000000 2.500000
      vertex 18.000000 -14.000000 2.500000
    endloop
  endfacet
  facet normal 0.000000 -1.000000 0.000000
    outer loop
      vertex 18.000000 -14.000000 8.500000
      vertex -18.000000 -14.000000 8.500000
      vertex 18.000000 -14.000000 2.500000
    endloop
  endfacet
  facet normal 0.000000 -0.000000 1.000000
    outer loop
      vertex -18.000000 -14.000000 2.500000
      vertex -18.000000 -19.908349 2.500000
      vertex 18.000000 -19.908349 2.500000
    endloop
  endfacet
  facet normal 0.000000 0.000000 1.000000
    outer loop
      vertex 18.000000 -14.000000 2.500000
      vertex -18.000000 -14.000000 2.500000
      vertex 18.000000 -19.908349 2.500000
    endloop
  endfacet
  facet normal 0.000000 -0.052336 0.998630
    outer loop
      vertex -18.000000 -19.908349 2.500000
      vertex -2.000000 -23.000000 2.337973
      vertex -1.618034 -21.824429 2.399583
    endloop
  endfacet
  facet normal 0.000000 -0.052336 0.998630
    outer loop
      vertex 0.618034 -21.097887 2.437659
      vertex 18.000000 -19.908349 2.500000
      vertex -0.618034 -21.097887 2.437659
    endloop
  endfacet
  facet normal -0.000000 -0.052336 0.998630
    outer loop
      vertex -0.618034 -21.097887 2.437659
      vertex -18.000000 -19.908349 2.500000
      vertex -1.618034 -21.824429 2.399583
    endloop
  endfacet
  facet normal 0.000000 -0.052336 0.998630
    outer loop
      vertex -2.000000 -27.000000 2.128342
      vertex -2.000000 -23.000000 2.337973
      vertex -18.000000 -19.908349 2.500000
    endloop
  endfacet
  facet normal -0.000000 -0.052336 0.998630
    outer loop
      vertex 1.618034 -21.824429 2.399583
      vertex 18.000000 -27.000000 2.128342
      vertex 0.618034 -21.097887 2.437659
    endloop
  endfacet
  facet normal 0.000000 -0.052336 0.998630
    outer loop
      vertex 2.000000 -23.000000 2.337973
      vertex 18.000000 -27.000000 2.128342
      vertex 1.618034 -21.824429 2.399583
    endloop
  endfacet
  facet normal 0.000000 -0.052336 0.998630
    outer loop
      vertex 2.000000 -27.000000 2.128342
      vertex 18.000000 -27.000000 2.128342
      vertex 2.000000 -23.000000 2.337973
    endloop
  endfacet
  facet normal 0.000000 -0.052336 0.998630
    outer loop
      vertex 18.000000 -27.000000 2.128342
      vertex 18.000000 -19.908349 2.500000
      vertex 0.618034 -21.097887 2.437659
    endloop
  endfacet
  facet normal 0.000000 -0.052336 0.998630
    outer loop
      vertex 18.000000 -19.908349 2.500000
      vertex -18.000000 -19.908349 2.500000
      vertex -0.618034 -21.097887 2.437659
    endloop
  endfacet
  facet normal 0.000000 -0.052336 0.998630
    outer loop
      vertex -18.000000 -19.908349 2.500000
      vertex -18.000000 -27.000000 2.128342
      vertex -2.000000 -27.000000 2.128342
    endloop
  endfacet
  facet normal 1.000000 0.000000 0.000000
    outer loop
      vertex -2.000000 -23.000000 -2.500000
      vertex -2.000000 -23.000000 2.337973
      vertex -2.000000 -27.000000 2.128342
    endloop
  endfacet
  facet normal 1.000000 0.000000 0.000000
    outer loop
      vertex -2.000000 -27.000000 -2.500000
      vertex -2.000000 -23.000000 -2.500000
      vertex -2.000000 -27.000000 2.128342
    endloop
  endfacet
  facet normal 0.951057 -0.309017 0.000000
    outer loop
      vertex -1.618034 -21.824429 -2.500000
      vertex -1.618034 -21.824429 2.399583
      vertex -2.000000 -23.000000 2.337973
    endloop
  endfacet
  facet normal 0.951057 -0.309017 0.000000
    outer loop
      vertex -2.000000 -23.000000 -2.500000
      vertex -1.618034 -21.824429 -2.500000
      vertex -2.000000 -23.000000 2.337973
    endloop
  endfacet
  facet normal 0.587785 -0.809017 0.000000
    outer loop
      vertex -0.618034 -21.097887 -2.500000
      vertex -0.618034 -21.097887 2.437659
      vertex -1.618034 -21.824429 2.399583
    endloop
  endfacet
  facet normal 0.587785 -0.809017 0.000000
    outer loop
      vertex -1.618034 -21.824429 -2.500000
      vertex -0.618034 -21.097887 -2.500000
      vertex -1.618034 -21.824429 2.399583
    endloop
  endfacet
  facet normal 0.000000 -1.000000 0.000000
    outer loop
      vertex 0.618034 -21.097887 -2.500000
      vertex 0.618034 -21.097887 2.437659
      vertex -0.618034 -21.097887 2.437659
    endloop
  endfacet
  facet normal -0.000000 -1.000000 -0.000000
    outer loop
      vertex -0.618034 -21.097887 -2.500000
      vertex 0.618034 -21.097887 -2.500000
      vertex -0.618034 -21.097887 2.437659
    endloop
  endfacet
  facet normal -0.587785 -0.809017 -0.000000
    outer loop
      vertex 1.618034 -21.824429 -2.500000
      vertex 1.618034 -21.824429 2.399583
      vertex 0.618034 -21.097887 2.437659
    endloop
  endfacet
  facet normal -0.587785 -0.809017 -0.000000
    outer loop
      vertex 0.618034 -21.097887 -2.500000
      vertex 1.618034 -21.824429 -2.500000
      vertex 0.618034 -21.097887 2.437659
    endloop
  endfacet
  facet normal -0.951057 -0.309017 0.000000
    outer loop
      vertex 2.000000 -23.000000 2.337973
      vertex 1.618034 -21.824429 2.399583
      vertex 2.000000 -23.000000 -2.500000
    endloop
  endfacet
  facet normal -0.951057 -0.309017 0.000000
    outer loop
      vertex 2.000000 -23.000000 -2.500000
      vertex 1.618034 -21.824429 2.399583
      vertex 1.618034 -21.824429 -2.500000
    endloop
  endfacet
  facet normal -1.000000 0.000000 0.000000
    outer loop
      vertex 2.000000 -23.000000 2.337973
      vertex 2.000000 -23.000000 -2.500000
      vertex 2.000000 -27.000000 2.128342
    endloop
  endfacet
  facet normal -1.000000 0.000000 0.000000
    outer loop
      vertex 2.000000 -27.000000 2.128342
      vertex 2.000000 -23.000000 -2.500000
      vertex 2.000000 -27.000000 -2.500000
    endloop
  endfacet
  facet normal 0.000000 -1.000000 0.000000
    outer loop
      vertex 2.000000 -27.000000 2.128342
      vertex 2.000000 -27.000000 -2.500000
      vertex 18.000000 -27.000000 -2.500000
    endloop
  endfacet
  facet normal 0.000000 -1.000000 0.000000
    outer loop
      vertex 18.000000 -27.000000 2.128342
      vertex 2.000000 -27.000000 2.128342
      vertex 18.000000 -27.000000 -2.500000
    endloop
  endfacet
  facet normal 1.000000 0.000000 -0.000000
    outer loop
      vertex 18.000000 -27.000000 2.128342
      vertex 18.000000 -27.000000 -2.500000
      vertex 18.000000 -10.000000 -2.500000
    endloop
  endfacet
  facet normal 1.000000 -0.000000 0.000000
    outer loop
      vertex 18.000000 10.000000 2.000000
      vertex 18.000000 -27.000000 2.128342
      vertex 18.000000 -10.000000 2.000000
    endloop
  endfacet
  facet normal 1.000000 -0.000000 0.000000
    outer loop
      vertex 18.000000 -10.000000 2.000000
      vertex 18.000000 -27.000000 2.128342
      vertex 18.000000 -10.000000 -2.500000
    endloop
  endfacet
  facet normal 1.000000 0.000000 0.000000
    outer loop
      vertex 18.000000 27.000000 2.500000
      vertex 18.000000 -27.000000 2.128342
      vertex 18.000000 10.000000 2.000000
    endloop
  endfacet
  facet normal 1.000000 -0.000000 0.000000
    outer loop
      vertex 18.000000 27.000000 -2.500000
      vertex 18.000000 10.000000 2.000000
      vertex 18.000000 10.000000 -2.500000
    endloop
  endfacet
  facet normal 1.000000 0.000000 0.000000
    outer loop
      vertex 18.000000 27.000000 2.500000
      vertex 18.000000 10.000000 2.000000
      vertex 18.000000 27.000000 -2.500000
    endloop
  endfacet
  facet normal 1.000000 0.000000 -0.000000
    outer loop
      vertex 18.000000 14.000000 2.500000
      vertex 18.000000 -27.000000 2.128342
      vertex 18.000000 27.000000 2.500000
    endloop
  endfacet
  facet normal 1.000000 0.000000 -0.000000
    outer loop
      vertex 18.000000 -14.000000 2.500000
      vertex 18.000000 -27.000000 2.128342
      vertex 18.000000 14.000000 2.500000
    endloop
  endfacet
  facet normal 1.000000 0.000000 0.000000
    outer loop
      vertex 18.000000 14.000000 8.500000
      vertex 18.000000 -14.000000 2.500000
      vertex 18.000000 14.000000 2.500000
    endloop
  endfacet
  facet normal 1.000000 0.000000 -0.000000
    outer loop
      vertex 18.000000 -19.908349 2.500000
      vertex 18.000000 -27.000000 2.128342
      vertex 18.000000 -14.000000 2.500000
    endloop
  endfacet
  facet normal 1.000000 0.000000 -0.000000
    outer loop
      vertex 18.000000 -14.000000 8.500000
      vertex 18.000000 -14.000000 2.500000
      vertex 18.000000 14.000000 8.500000
    endloop
  endfacet
  facet normal 0.000000 -1.000000 0.000000
    outer loop
      vertex 18.000000 -10.000000 2.000000
      vertex 18.000000 -10.000000 -2.500000
      vertex 23.000000 -10.000000 -2.500000
    endloop
  endfacet
  facet normal 0.000000 -1.000000 0.000000
    outer loop
      vertex 20.500000 -10.000000 2.000000
      vertex 18.000000 -10.000000 2.000000
      vertex 23.000000 -10.000000 -2.500000
    endloop
  endfacet
  facet normal 0.000000 -1.000000 0.000000
    outer loop
      vertex 23.000000 -10.000000 11.500000
      vertex 20.500000 -10.000000 2.000000
      vertex 23.000000 -10.000000 -2.500000
    endloop
  endfacet
  facet normal 0.000000 -1.000000 0.000000
    outer loop
      vertex 20.500000 -10.000000 11.500000
      vertex 20.500000 -10.000000 2.000000
      vertex 23.000000 -10.000000 11.500000
    endloop
  endfacet
  facet normal 1.000000 0.000000 -0.000000
    outer loop
      vertex 23.000000 -10.000000 11.500000
      vertex 23.000000 -10.000000 -2.500000
      vertex 23.000000 10.000000 -2.500000
    endloop
  endfacet
  facet normal 1.000000 0.000000 0.000000
    outer loop
      vertex 23.000000 10.000000 11.500000
      vertex 23.000000 -10.000000 11.500000
      vertex 23.000000 10.000000 -2.500000
    endloop
  endfacet
  facet normal 0.000000 1.000000 0.000000
    outer loop
      vertex 18.000000 10.000000 -2.500000
      vertex 18.000000 10.000000 2.000000
      vertex 23.000000 10.000000 -2.500000
    endloop
  endfacet
  facet normal 0.000000 1.000000 0.000000
    outer loop
      vertex 23.000000 10.000000 -2.500000
      vertex 18.000000 10.000000 2.000000
      vertex 20.500000 10.000000 2.000000
    endloop
  endfacet
  facet normal 0.000000 1.000000 0.000000
    outer loop
      vertex 23.000000 10.000000 -2.500000
      vertex 20.500000 10.000000 2.000000
      vertex 20.500000 10.000000 11.500000
    endloop
  endfacet
  facet normal 0.000000 1.000000 0.000000
    outer loop
      vertex 23.000000 10.000000 -2.500000
      vertex 20.500000 10.000000 11.500000
      vertex 23.000000 10.000000 11.500000
    endloop
  endfacet
  facet normal 0.000000 1.000000 0.000000
    outer loop
      vertex 2.000000 27.000000 -2.500000
      vertex 2.000000 27.000000 2.500000
      vertex 18.000000 27.000000 -2.500000
    endloop
  endfacet
  facet normal 0.000000 1.000000 0.000000
    outer loop
      vertex 18.000000 27.000000 -2.500000
      vertex 2.000000 27.000000 2.500000
      vertex 18.000000 27.000000 2.500000
    endloop
  endfacet
  facet normal -1.000000 0.000000 0.000000
    outer loop
      vertex 2.000000 27.000000 2.500000
      vertex 2.000000 27.000000 -2.500000
      vertex 2.000000 23.000000 2.500000
    endloop
  endfacet
  facet normal -1.000000 0.000000 0.000000
    outer loop
      vertex 2.000000 23.000000 2.500000
      vertex 2.000000 27.000000 -2.500000
      vertex 2.000000 23.000000 -2.500000
    endloop
  endfacet
  facet normal -0.951057 0.309017 0.000000
    outer loop
      vertex 2.000000 23.000000 2.500000
      vertex 2.000000 23.000000 -2.500000
      vertex 1.618034 21.824429 2.500000
    endloop
  endfacet
  facet normal -0.951057 0.309017 0.000000
    outer loop
      vertex 1.618034 21.824429 2.500000
      vertex 2.000000 23.000000 -2.500000
      vertex 1.618034 21.824429 -2.500000
    endloop
  endfacet
  facet normal -0.587785 0.809017 0.000000
    outer loop
      vertex 1.618034 21.824429 2.500000
      vertex 1.618034 21.824429 -2.500000
      vertex 0.618034 21.097887 2.500000
    endloop
  endfacet
  facet normal -0.587785 0.809017 0.000000
    outer loop
      vertex 0.618034 21.097887 2.500000
      vertex 1.618034 21.824429 -2.500000
      vertex 0.618034 21.097887 -2.500000
    endloop
  endfacet
  facet normal 0.000000 1.000000 0.000000
    outer loop
      vertex 0.618034 21.097887 2.500000
      vertex 0.618034 21.097887 -2.500000
      vertex -0.618034 21.097887 2.500000
    endloop
  endfacet
  facet normal 0.000000 1.000000 -0.000000
    outer loop
      vertex -0.618034 21.097887 2.500000
      vertex 0.618034 21.097887 -2.500000
      vertex -0.618034 21.097887 -2.500000
    endloop
  endfacet
  facet normal 0.587785 0.809017 -0.000000
    outer loop
      vertex -0.618034 21.097887 2.500000
      vertex -0.618034 21.097887 -2.500000
      vertex -1.618034 21.824429 2.500000
    endloop
  endfacet
  facet normal 0.587785 0.809017 -0.000000
    outer loop
      vertex -1.618034 21.824429 2.500000
      vertex -0.618034 21.097887 -2.500000
      vertex -1.618034 21.824429 -2.500000
    endloop
  endfacet
  facet normal 0.951057 0.309017 0.000000
    outer loop
      vertex -2.000000 23.000000 2.500000
      vertex -1.618034 21.824429 2.500000
      vertex -1.618034 21.824429 -2.500000
    endloop
  endfacet
  facet normal 0.951057 0.309017 0.000000
    outer loop
      vertex -2.000000 23.000000 -2.500000
      vertex -2.000000 23.000000 2.500000
      vertex -1.618034 21.824429 -2.500000
    endloop
  endfacet
  facet normal 1.000000 0.000000 0.000000
    outer loop
      vertex -2.000000 27.000000 -2.500000
      vertex -2.000000 27.000000 2.500000
      vertex -2.000000 23.000000 2.500000
    endloop
  endfacet
  facet normal 1.000000 0.000000 0.000000
    outer loop
      vertex -2.000000 23.000000 -2.500000
      vertex -2.000000 27.000000 -2.500000
      vertex -2.000000 23.000000 2.500000
    endloop
  endfacet
  facet normal 0.951056 -0.309017 0.000000
    outer loop
      vertex -15.213525 0.881678 -2.500000
      vertex -15.213525 0.881678 8.500000
      vertex -15.500000 0.000000 8.500000
    endloop
  endfacet
  facet normal 0.951056 -0.309017 0.000000
    outer loop
      vertex -15.500000 0.000000 -2.500000
      vertex -15.213525 0.881678 -2.500000
      vertex -15.500000 0.000000 8.500000
    endloop
  endfacet
  facet normal 0.951056 0.309017 0.000000
    outer loop
      vertex -15.500000 0.000000 8.500000
      vertex -15.213525 -0.881678 8.500000
      vertex -15.213525 -0.881678 -2.500000
    endloop
  endfacet
  facet normal 0.951056 0.309017 0.000000
    outer loop
      vertex -15.500000 0.000000 -2.500000
      vertex -15.500000 0.000000 8.500000
      vertex -15.213525 -0.881678 -2.500000
    endloop
  endfacet
  facet normal 0.587785 -0.809017 0.000000
    outer loop
      vertex -14.463525 1.426585 -2.500000
      vertex -14.463525 1.426585 8.500000
      vertex -15.213525 0.881678 8.500000
    endloop
  endfacet
  facet normal 0.587785 -0.809017 0.000000
    outer loop
      vertex -15.213525 0.881678 -2.500000
      vertex -14.463525 1.426585 -2.500000
      vertex -15.213525 0.881678 8.500000
    endloop
  endfacet
  facet normal 0.000000 -1.000000 0.000000
    outer loop
      vertex -13.536475 1.426585 -2.500000
      vertex -13.536475 1.426585 8.500000
      vertex -14.463525 1.426585 8.500000
    endloop
  endfacet
  facet normal -0.000000 -1.000000 -0.000000
    outer loop
      vertex -14.463525 1.426585 -2.500000
      vertex -13.536475 1.426585 -2.500000
      vertex -14.463525 1.426585 8.500000
    endloop
  endfacet
  facet normal -0.587785 -0.809017 -0.000000
    outer loop
      vertex -12.786475 0.881678 -2.500000
      vertex -12.786475 0.881678 8.500000
      vertex -13.536475 1.426585 8.500000
    endloop
  endfacet
  facet normal -0.587785 -0.809017 -0.000000
    outer loop
      vertex -13.536475 1.426585 -2.500000
      vertex -12.786475 0.881678 -2.500000
      vertex -13.536475 1.426585 8.500000
    endloop
  endfacet
  facet normal -0.951056 -0.309017 0.000000
    outer loop
      vertex -12.500000 0.000000 8.500000
      vertex -12.786475 0.881678 8.500000
      vertex -12.500000 0.000000 -2.500000
    endloop
  endfacet
  facet normal -0.951056 -0.309017 0.000000
    outer loop
      vertex -12.500000 0.000000 -2.500000
      vertex -12.786475 0.881678 8.500000
      vertex -12.786475 0.881678 -2.500000
    endloop
  endfacet
  facet normal -0.951056 0.309017 0.000000
    outer loop
      vertex -12.500000 0.000000 8.500000
      vertex -12.500000 0.000000 -2.500000
      vertex -12.786475 -0.881678 8.500000
    endloop
  endfacet
  facet normal -0.951056 0.309017 0.000000
    outer loop
      vertex -12.786475 -0.881678 8.500000
      vertex -12.500000 0.000000 -2.500000
      vertex -12.786475 -0.881678 -2.500000
    endloop
  endfacet
  facet normal -0.587785 0.809017 0.000000
    outer loop
      vertex -12.786475 -0.881678 8.500000
      vertex -12.786475 -0.881678 -2.500000
      vertex -13.536475 -1.426585 8.500000
    endloop
  endfacet
  facet normal -0.587785 0.809017 0.000000
    outer loop
      vertex -13.536475 -1.426585 8.500000
      vertex -12.786475 -0.881678 -2.500000
      vertex -13.536475 -1.426585 -2.500000
    endloop
  endfacet
  facet normal 0.000000 1.000000 0.000000
    outer loop
      vertex -13.536475 -1.426585 8.500000
      vertex -13.536475 -1.426585 -2.500000
      vertex -14.463525 -1.426585 8.500000
    endloop
  endfacet
  facet normal 0.000000 1.000000 -0.000000
    outer loop
      vertex -14.463525 -1.426585 8.500000
      vertex -13.536475 -1.426585 -2.500000
      vertex -14.463525 -1.426585 -2.500000
    endloop
  endfacet
  facet normal 0.587785 0.809017 -0.000000
    outer loop
      vertex -14.463525 -1.426585 8.500000
      vertex -14.463525 -1.426585 -2.500000
      vertex -15.213525 -0.881678 8.500000
    endloop
  endfacet
  facet normal 0.587785 0.809017 -0.000000
    outer loop
      vertex -15.213525 -0.881678 8.500000
      vertex -14.463525 -1.426585 -2.500000
      vertex -15.213525 -0.881678 -2.500000
    endloop
  endfacet
  facet normal 0.994522 -0.104529 0.000000
    outer loop
      vertex -4.157127 0.883625 -2.500000
      vertex -4.157127 0.883625 8.500000
      vertex -4.250000 0.000000 8.500000
    endloop
  endfacet
  facet normal 0.994522 -0.104529 0.000000
    outer loop
      vertex -4.250000 0.000000 -2.500000
      vertex -4.157127 0.883625 -2.500000
      vertex -4.250000 0.000000 8.500000
    endloop
  endfacet
  facet normal 0.994522 0.104529 0.000000
    outer loop
      vertex -4.250000 0.000000 8.500000
      vertex -4.157127 -0.883625 8.500000
      vertex -4.157127 -0.883625 -2.500000
    endloop
  endfacet
  facet normal 0.994522 0.104529 0.000000
    outer loop
      vertex -4.250000 0.000000 -2.500000
      vertex -4.250000 0.000000 8.500000
      vertex -4.157127 -0.883625 -2.500000
    endloop
  endfacet
  facet normal 0.951057 -0.309017 0.000000
    outer loop
      vertex -3.882568 1.728631 -2.500000
      vertex -3.882568 1.728631 8.500000
      vertex -4.157127 0.883625 8.500000
    endloop
  endfacet
  facet normal 0.951057 -0.309017 0.000000
    outer loop
      vertex -4.157127 0.883625 -2.500000
      vertex -3.882568 1.728631 -2.500000
      vertex -4.157127 0.883625 8.500000
    endloop
  endfacet
  facet normal 0.866025 -0.500000 0.000000
    outer loop
      vertex -3.438322 2.498087 -2.500000
      vertex -3.438322 2.498087 8.500000
      vertex -3.882568 1.728631 8.500000
    endloop
  endfacet
  facet normal 0.866025 -0.500000 0.000000
    outer loop
      vertex -3.882568 1.728631 -2.500000
      vertex -3.438322 2.498087 -2.500000
      vertex -3.882568 1.728631 8.500000
    endloop
  endfacet
  facet normal 0.743145 -0.669130 0.000000
    outer loop
      vertex -2.843805 3.158366 -2.500000
      vertex -2.843805 3.158366 8.500000
      vertex -3.438322 2.498087 8.500000
    endloop
  endfacet
  facet normal 0.743145 -0.669130 0.000000
    outer loop
      vertex -3.438322 2.498087 -2.500000
      vertex -2.843805 3.158366 -2.500000
      vertex -3.438322 2.498087 8.500000
    endloop
  endfacet
  facet normal 0.587785 -0.809017 0.000000
    outer loop
      vertex -2.125000 3.680608 -2.500000
      vertex -2.125000 3.680608 8.500000
      vertex -2.843805 3.158366 8.500000
    endloop
  endfacet
  facet normal 0.587785 -0.809017 0.000000
    outer loop
      vertex -2.843805 3.158366 -2.500000
      vertex -2.125000 3.680608 -2.500000
      vertex -2.843805 3.158366 8.500000
    endloop
  endfacet
  facet normal 0.406736 -0.913546 0.000000
    outer loop
      vertex -1.313322 4.041990 -2.500000
      vertex -1.313322 4.041990 8.500000
      vertex -2.125000 3.680608 8.500000
    endloop
  endfacet
  facet normal 0.406736 -0.913546 0.000000
    outer loop
      vertex -2.125000 3.680608 -2.500000
      vertex -1.313322 4.041990 -2.500000
      vertex -2.125000 3.680608 8.500000
    endloop
  endfacet
  facet normal 0.207912 -0.978148 0.000000
    outer loop
      vertex -0.444246 4.226718 -2.500000
      vertex -0.444246 4.226718 8.500000
      vertex -1.313322 4.041990 8.500000
    endloop
  endfacet
  facet normal 0.207912 -0.978148 0.000000
    outer loop
      vertex -1.313322 4.041990 -2.500000
      vertex -0.444246 4.226718 -2.500000
      vertex -1.313322 4.041990 8.500000
    endloop
  endfacet
  facet normal 0.000000 -1.000000 0.000000
    outer loop
      vertex 0.444246 4.226718 -2.500000
      vertex 0.444246 4.226718 8.500000
      vertex -0.444246 4.226718 8.500000
    endloop
  endfacet
  facet normal -0.000000 -1.000000 -0.000000
    outer loop
      vertex -0.444246 4.226718 -2.500000
      vertex 0.444246 4.226718 -2.500000
      vertex -0.444246 4.226718 8.500000
    endloop
  endfacet
  facet normal -0.207912 -0.978148 -0.000000
    outer loop
      vertex 1.313322 4.041990 -2.500000
      vertex 1.313322 4.041990 8.500000
      vertex 0.444246 4.226718 8.500000
    endloop
  endfacet
  facet normal -0.207912 -0.978148 -0.000000
    outer loop
      vertex 0.444246 4.226718 -2.500000
      vertex 1.313322 4.041990 -2.500000
      vertex 0.444246 4.226718 8.500000
    endloop
  endfacet
  facet normal -0.406736 -0.913546 -0.000000
    outer loop
      vertex 2.125000 3.680608 -2.500000
      vertex 2.125000 3.680608 8.500000
      vertex 1.313322 4.041990 8.500000
    endloop
  endfacet
  facet normal -0.406736 -0.913546 -0.000000
    outer loop
      vertex 1.313322 4.041990 -2.500000
      vertex 2.125000 3.680608 -2.500000
      vertex 1.313322 4.041990 8.500000
    endloop
  endfacet
  facet normal -0.587785 -0.809017 -0.000000
    outer loop
      vertex 2.843805 3.158366 -2.500000
      vertex 2.843805 3.158366 8.500000
      vertex 2.125000 3.680608 8.500000
    endloop
  endfacet
  facet normal -0.587785 -0.809017 -0.000000
    outer loop
      vertex 2.125000 3.680608 -2.500000
      vertex 2.843805 3.158366 -2.500000
      vertex 2.125000 3.680608 8.500000
    endloop
  endfacet
  facet normal -0.743145 -0.669130 0.000000
    outer loop
      vertex 3.438322 2.498087 8.500000
      vertex 2.843805 3.158366 8.500000
      vertex 3.438322 2.498087 -2.500000
    endloop
  endfacet
  facet normal -0.743145 -0.669130 0.000000
    outer loop
      vertex 3.438322 2.498087 -2.500000
      vertex 2.843805 3.158366 8.500000
      vertex 2.843805 3.158366 -2.500000
    endloop
  endfacet
  facet normal -0.866025 -0.500000 0.000000
    outer loop
      vertex 3.882568 1.728631 8.500000
      vertex 3.438322 2.498087 8.500000
      vertex 3.882568 1.728631 -2.500000
    endloop
  endfacet
  facet normal -0.866025 -0.500000 0.000000
    outer loop
      vertex 3.882568 1.728631 -2.500000
      vertex 3.438322 2.498087 8.500000
      vertex 3.438322 2.498087 -2.500000
    endloop
  endfacet
  facet normal -0.951057 -0.309017 0.000000
    outer loop
      vertex 4.157127 0.883625 8.500000
      vertex 3.882568 1.728631 8.500000
      vertex 4.157127 0.883625 -2.500000
    endloop
  endfacet
  facet normal -0.951057 -0.309017 0.000000
    outer loop
      vertex 4.157127 0.883625 -2.500000
      vertex 3.882568 1.728631 8.500000
      vertex 3.882568 1.728631 -2.500000
    endloop
  endfacet
  facet normal -0.994522 -0.104529 0.000000
    outer loop
      vertex 4.250000 0.000000 8.500000
      vertex 4.157127 0.883625 8.500000
      vertex 4.250000 0.000000 -2.500000
    endloop
  endfacet
  facet normal -0.994522 -0.104529 0.000000
    outer loop
      vertex 4.250000 0.000000 -2.500000
      vertex 4.157127 0.883625 8.500000
      vertex 4.157127 0.883625 -2.500000
    endloop
  endfacet
  facet normal -0.994522 0.104529 0.000000
    outer loop
      vertex 4.250000 0.000000 8.500000
      vertex 4.250000 0.000000 -2.500000
      vertex 4.157127 -0.883625 8.500000
    endloop
  endfacet
  facet normal -0.994522 0.104529 0.000000
    outer loop
      vertex 4.157127 -0.883625 8.500000
      vertex 4.250000 0.000000 -2.500000
      vertex 4.157127 -0.883625 -2.500000
    endloop
  endfacet
  facet normal -0.951057 0.309017 0.000000
    outer loop
      vertex 4.157127 -0.883625 8.500000
      vertex 4.157127 -0.883625 -2.500000
      vertex 3.882568 -1.728631 8.500000
    endloop
  endfacet
  facet normal -0.951057 0.309017 0.000000
    outer loop
      vertex 3.882568 -1.728631 8.500000
      vertex 4.157127 -0.883625 -2.500000
      vertex 3.882568 -1.728631 -2.500000
    endloop
  endfacet
  facet normal -0.866025 0.500000 0.000000
    outer loop
      vertex 3.882568 -1.728631 8.500000
      vertex 3.882568 -1.728631 -2.500000
      vertex 3.438322 -2.498087 8.500000
    endloop
  endfacet
  facet normal -0.866025 0.500000 0.000000
    outer loop
      vertex 3.438322 -2.498087 8.500000
      vertex 3.882568 -1.728631 -2.500000
      vertex 3.438322 -2.498087 -2.500000
    endloop
  endfacet
  facet normal -0.743145 0.669130 0.000000
    outer loop
      vertex 3.438322 -2.498087 8.500000
      vertex 3.438322 -2.498087 -2.500000
      vertex 2.843805 -3.158366 8.500000
    endloop
  endfacet
  facet normal -0.743145 0.669130 0.000000
    outer loop
      vertex 2.843805 -3.158366 8.500000
      vertex 3.438322 -2.498087 -2.500000
      vertex 2.843805 -3.158366 -2.500000
    endloop
  endfacet
  facet normal -0.587785 0.809017 0.000000
    outer loop
      vertex 2.843805 -3.158366 8.500000
      vertex 2.843805 -3.158366 -2.500000
      vertex 2.125000 -3.680608 8.500000
    endloop
  endfacet
  facet normal -0.587785 0.809017 0.000000
    outer loop
      vertex 2.125000 -3.680608 8.500000
      vertex 2.843805 -3.158366 -2.500000
      vertex 2.125000 -3.680608 -2.500000
    endloop
  endfacet
  facet normal -0.406736 0.913546 0.000000
    outer loop
      vertex 2.125000 -3.680608 8.500000
      vertex 2.125000 -3.680608 -2.500000
      vertex 1.313322 -4.041990 8.500000
    endloop
  endfacet
  facet normal -0.406736 0.913546 0.000000
    outer loop
      vertex 1.313322 -4.041990 8.500000
      vertex 2.125000 -3.680608 -2.500000
      vertex 1.313322 -4.041990 -2.500000
    endloop
  endfacet
  facet normal -0.207912 0.978148 0.000000
    outer loop
      vertex 1.313322 -4.041990 8.500000
      vertex 1.313322 -4.041990 -2.500000
      vertex 0.444246 -4.226718 8.500000
    endloop
  endfacet
  facet normal -0.207912 0.978148 0.000000
    outer loop
      vertex 0.444246 -4.226718 8.500000
      vertex 1.313322 -4.041990 -2.500000
      vertex 0.444246 -4.226718 -2.500000
    endloop
  endfacet
  facet normal 0.000000 1.000000 0.000000
    outer loop
      vertex 0.444246 -4.226718 8.500000
      vertex 0.444246 -4.226718 -2.500000
      vertex -0.444246 -4.226718 8.500000
    endloop
  endfacet
  facet normal 0.000000 1.000000 -0.000000
    outer loop
      vertex -0.444246 -4.226718 8.500000
      vertex 0.444246 -4.226718 -2.500000
      vertex -0.444246 -4.226718 -2.500000
    endloop
  endfacet
  facet normal 0.207912 0.978148 -0.000000
    outer loop
      vertex -0.444246 -4.226718 8.500000
      vertex -0.444246 -4.226718 -2.500000
      vertex -1.313322 -4.041990 8.500000
    endloop
  endfacet
  facet normal 0.207912 0.978148 -0.000000
    outer loop
      vertex -1.313322 -4.041990 8.500000
      vertex -0.444246 -4.226718 -2.500000
      vertex -1.313322 -4.041990 -2.500000
    endloop
  endfacet
  facet normal 0.406736 0.913546 -0.000000
    outer loop
      vertex -1.313322 -4.041990 8.500000
      vertex -1.313322 -4.041990 -2.500000
      vertex -2.125000 -3.680608 8.500000
    endloop
  endfacet
  facet normal 0.406736 0.913546 -0.000000
    outer loop
      vertex -2.125000 -3.680608 8.500000
      vertex -1.313322 -4.041990 -2.500000
      vertex -2.125000 -3.680608 -2.500000
    endloop
  endfacet
  facet normal 0.587785 0.809017 -0.000000
    outer loop
      vertex -2.125000 -3.680608 8.500000
      vertex -2.125000 -3.680608 -2.500000
      vertex -2.843805 -3.158366 8.500000
    endloop
  endfacet
  facet normal 0.587785 0.809017 -0.000000
    outer loop
      vertex -2.843805 -3.158366 8.500000
      vertex -2.125000 -3.680608 -2.500000
      vertex -2.843805 -3.158366 -2.500000
    endloop
  endfacet
  facet normal 0.743145 0.669130 0.000000
    outer loop
      vertex -3.438322 -2.498087 8.500000
      vertex -2.843805 -3.158366 8.500000
      vertex -2.843805 -3.158366 -2.500000
    endloop
  endfacet
  facet normal 0.743145 0.669130 0.000000
    outer loop
      vertex -3.438322 -2.498087 -2.500000
      vertex -3.438322 -2.498087 8.500000
      vertex -2.843805 -3.158366 -2.500000
    endloop
  endfacet
  facet normal 0.866025 0.500000 0.000000
    outer loop
      vertex -3.882568 -1.728631 8.500000
      vertex -3.438322 -2.498087 8.500000
      vertex -3.438322 -2.498087 -2.500000
    endloop
  endfacet
  facet normal 0.866025 0.500000 0.000000
    outer loop
      vertex -3.882568 -1.728631 -2.500000
      vertex -3.882568 -1.728631 8.500000
      vertex -3.438322 -2.498087 -2.500000
    endloop
  endfacet
  facet normal 0.951057 0.309017 0.000000
    outer loop
      vertex -4.157127 -0.883625 8.500000
      vertex -3.882568 -1.728631 8.500000
      vertex -3.882568 -1.728631 -2.500000
    endloop
  endfacet
  facet normal 0.951057 0.309017 0.000000
    outer loop
      vertex -4.157127 -0.883625 -2.500000
      vertex -4.157127 -0.883625 8.500000
      vertex -3.882568 -1.728631 -2.500000
    endloop
  endfacet
  facet normal 0.951056 -0.309017 0.000000
    outer loop
      vertex 12.786475 0.881678 -2.500000
      vertex 12.786475 0.881678 8.500000
      vertex 12.500000 0.000000 8.500000
    endloop
  endfacet
  facet normal 0.951056 -0.309017 0.000000
    outer loop
      vertex 12.500000 0.000000 -2.500000
      vertex 12.786475 0.881678 -2.500000
      vertex 12.500000 0.000000 8.500000
    endloop
  endfacet
  facet normal 0.951056 0.309017 0.000000
    outer loop
      vertex 12.500000 0.000000 8.500000
      vertex 12.786475 -0.881678 8.500000
      vertex 12.786475 -0.881678 -2.500000
    endloop
  endfacet
  facet normal 0.951056 0.309017 0.000000
    outer loop
      vertex 12.500000 0.000000 -2.500000
      vertex 12.500000 0.000000 8.500000
      vertex 12.786475 -0.881678 -2.500000
    endloop
  endfacet
  facet normal 0.587785 -0.809017 0.000000
    outer loop
      vertex 13.536475 1.426585 -2.500000
      vertex 13.536475 1.426585 8.500000
      vertex 12.786475 0.881678 8.500000
    endloop
  endfacet
  facet normal 0.587785 -0.809017 0.000000
    outer loop
      vertex 12.786475 0.881678 -2.500000
      vertex 13.536475 1.426585 -2.500000
      vertex 12.786475 0.881678 8.500000
    endloop
  endfacet
  facet normal 0.000000 -1.000000 0.000000
    outer loop
      vertex 14.463525 1.426585 -2.500000
      vertex 14.463525 1.426585 8.500000
      vertex 13.536475 1.426585 8.500000
    endloop
  endfacet
  facet normal -0.000000 -1.000000 -0.000000
    outer loop
      vertex 13.536475 1.426585 -2.500000
      vertex 14.463525 1.426585 -2.500000
      vertex 13.536475 1.426585 8.500000
    endloop
  endfacet
  facet normal -0.587785 -0.809017 -0.000000
    outer loop
      vertex 15.213525 0.881678 -2.500000
      vertex 15.213525 0.881678 8.500000
      vertex 14.463525 1.426585 8.500000
    endloop
  endfacet
  facet normal -0.587785 -0.809017 -0.000000
    outer loop
      vertex 14.463525 1.426585 -2.500000
      vertex 15.213525 0.881678 -2.500000
      vertex 14.463525 1.426585 8.500000
    endloop
  endfacet
  facet normal -0.951056 -0.309017 0.000000
    outer loop
      vertex 15.500000 0.000000 8.500000
      vertex 15.213525 0.881678 8.500000
      vertex 15.500000 0.000000 -2.500000
    endloop
  endfacet
  facet normal -0.951056 -0.309017 0.000000
    outer loop
      vertex 15.500000 0.000000 -2.500000
      vertex 15.213525 0.881678 8.500000
      vertex 15.213525 0.881678 -2.500000
    endloop
  endfacet
  facet normal -0.951056 0.309017 0.000000
    outer loop
      vertex 15.500000 0.000000 8.500000
      vertex 15.500000 0.000000 -2.500000
      vertex 15.213525 -0.881678 8.500000
    endloop
  endfacet
  facet normal -0.951056 0.309017 0.000000
    outer loop
      vertex 15.213525 -0.881678 8.500000
      vertex 15.500000 0.000000 -2.500000
      vertex 15.213525 -0.881678 -2.500000
    endloop
  endfacet
  facet normal -0.587785 0.809017 0.000000
    outer loop
      vertex 15.213525 -0.881678 8.500000
      vertex 15.213525 -0.881678 -2.500000
      vertex 14.463525 -1.426585 8.500000
    endloop
  endfacet
  facet normal -0.587785 0.809017 0.000000
    outer loop
      vertex 14.463525 -1.426585 8.500000
      vertex 15.213525 -0.881678 -2.500000
      vertex 14.463525 -1.426585 -2.500000
    endloop
  endfacet
  facet normal 0.000000 1.000000 0.000000
    outer loop
      vertex 14.463525 -1.426585 8.500000
      vertex 14.463525 -1.426585 -2.500000
      vertex 13.536475 -1.426585 8.500000
    endloop
  endfacet
  facet normal 0.000000 1.000000 -0.000000
    outer loop
      vertex 13.536475 -1.426585 8.500000
      vertex 14.463525 -1.426585 -2.500000
      vertex 13.536475 -1.426585 -2.500000
    endloop
  endfacet
  facet normal 0.587785 0.809017 -0.000000
    outer loop
      vertex 13.536475 -1.426585 8.500000
      vertex 13.536475 -1.426585 -2.500000
      vertex 12.786475 -0.881678 8.500000
    endloop
  endfacet
  facet normal 0.587785 0.809017 -0.000000
    outer loop
      vertex 12.786475 -0.881678 8.500000
      vertex 13.536475 -1.426585 -2.500000
      vertex 12.786475 -0.881678 -2.500000
    endloop
  endfacet
  facet normal 0.000000 0.000000 1.000000
    outer loop
      vertex 20.500000 -10.000000 2.000000
      vertex 20.500000 10.000000 2.000000
      vertex 18.000000 10.000000 2.000000
    endloop
  endfacet
  facet normal 0.000000 0.000000 1.000000
    outer loop
      vertex 18.000000 -10.000000 2.000000
      vertex 20.500000 -10.000000 2.000000
      vertex 18.000000 10.000000 2.000000
    endloop
  endfacet
  facet normal -1.000000 0.000000 0.000000
    outer loop
      vertex 20.500000 10.000000 11.500000
      vertex 20.500000 10.000000 2.000000
      vertex 20.500000 -10.000000 11.500000
    endloop
  endfacet
  facet normal -1.000000 0.000000 0.000000
    outer loop
      vertex 20.500000 -10.000000 11.500000
      vertex 20.500000 10.000000 2.000000
      vertex 20.500000 -10.000000 2.000000
    endloop
  endfacet
  facet normal 0.000000 -0.000000 1.000000
    outer loop
      vertex 20.500000 10.000000 11.500000
      vertex 20.500000 -10.000000 11.500000
      vertex 23.000000 -10.000000 11.500000
    endloop
  endfacet
  facet normal 0.000000 0.000000 1.000000
    outer loop
      vertex 23.000000 10.000000 11.500000
      vertex 20.500000 10.000000 11.500000
      vertex 23.000000 -10.000000 11.500000
    endloop
  endfacet
endsolid OpenSCAD_Model
