solid OpenSCAD_Model
  facet normal -1.000000 -0.000000 -0.000000
    outer loop
      vertex -18.000000 -27.000000 -8.700000
      vertex -18.000000 -27.000000 -4.071658
      vertex -18.000000 27.000000 -8.700000
    endloop
  endfacet
  facet normal -1.000000 0.000000 0.000000
    outer loop
      vertex -18.000000 27.000000 -8.700000
      vertex -18.000000 -27.000000 -4.071658
      vertex -18.000000 -19.908349 -3.700000
    endloop
  endfacet
  facet normal -1.000000 0.000000 0.000000
    outer loop
      vertex -18.000000 27.000000 -8.700000
      vertex -18.000000 -19.908349 -3.700000
      vertex -18.000000 -14.000000 -3.700000
    endloop
  endfacet
  facet normal -1.000000 0.000000 0.000000
    outer loop
      vertex -18.000000 27.000000 -8.700000
      vertex -18.000000 -14.000000 -3.700000
      vertex -18.000000 -14.000000 2.300000
    endloop
  endfacet
  facet normal -1.000000 0.000000 0.000000
    outer loop
      vertex -18.000000 14.000000 -3.700000
      vertex -18.000000 -14.000000 2.300000
      vertex -18.000000 14.000000 2.300000
    endloop
  endfacet
  facet normal -1.000000 0.000000 0.000000
    outer loop
      vertex -18.000000 27.000000 -8.700000
      vertex -18.000000 -14.000000 2.300000
      vertex -18.000000 14.000000 -3.700000
    endloop
  endfacet
  facet normal -1.000000 0.000000 0.000000
    outer loop
      vertex -18.000000 27.000000 -3.700000
      vertex -18.000000 27.000000 -8.700000
      vertex -18.000000 14.000000 -3.700000
    endloop
  endfacet
  facet normal 0.000000 -1.000000 0.000000
    outer loop
      vertex -18.000000 -27.000000 -4.071658
      vertex -18.000000 -27.000000 -8.700000
      vertex -2.000000 -27.000000 -8.700000
    endloop
  endfacet
  facet normal 0.000000 -1.000000 0.000000
    outer loop
      vertex -2.000000 -27.000000 -4.071658
      vertex -18.000000 -27.000000 -4.071658
      vertex -2.000000 -27.000000 -8.700000
    endloop
  endfacet
  facet normal -0.000000 -0.000000 -1.000000
    outer loop
      vertex -12.500000 0.000000 -8.700000
      vertex -18.000000 27.000000 -8.700000
      vertex -2.000000 -27.000000 -8.700000
    endloop
  endfacet
  facet normal 0.000000 0.000000 -1.000000
    outer loop
      vertex -2.000000 23.000000 -8.700000
      vertex -18.000000 27.000000 -8.700000
      vertex -2.000000 27.000000 -8.700000
    endloop
  endfacet
  facet normal 0.000000 0.000000 -1.000000
    outer loop
      vertex -2.000000 -27.000000 -8.700000
      vertex -18.000000 27.000000 -8.700000
      vertex -2.000000 -23.000000 -8.700000
    endloop
  endfacet
  facet normal 0.000000 0.000000 -1.000000
    outer loop
      vertex -14.463525 -1.426585 -8.700000
      vertex -2.000000 -27.000000 -8.700000
      vertex -15.213525 -0.881678 -8.700000
    endloop
  endfacet
  facet normal 0.000000 0.000000 -1.000000
    outer loop
      vertex -1.313322 4.041990 -8.700000
      vertex -0.618034 21.097887 -8.700000
      vertex 0.618034 21.097887 -8.700000
    endloop
  endfacet
  facet normal 0.000000 0.000000 -1.000000
    outer loop
      vertex -0.444246 -4.226718 -8.700000
      vertex -1.618034 -21.824429 -8.700000
      vertex -2.000000 -23.000000 -8.700000
    endloop
  endfacet
  facet normal 0.000000 -0.000000 -1.000000
    outer loop
      vertex 2.000000 23.000000 -8.700000
      vertex 2.000000 27.000000 -8.700000
      vertex 18.000000 27.000000 -8.700000
    endloop
  endfacet
  facet normal -0.000000 0.000000 -1.000000
    outer loop
      vertex 15.500000 0.000000 -8.700000
      vertex 18.000000 27.000000 -8.700000
      vertex 18.000000 -27.000000 -8.700000
    endloop
  endfacet
  facet normal -0.000000 0.000000 -1.000000
    outer loop
      vertex 2.000000 -23.000000 -8.700000
      vertex 18.000000 27.000000 -8.700000
      vertex 2.000000 -27.000000 -8.700000
    endloop
  endfacet
  facet normal -0.000000 0.000000 -1.000000
    outer loop
      vertex 1.618034 -21.824429 -8.700000
      vertex 18.000000 27.000000 -8.700000
      vertex 2.000000 -23.000000 -8.700000
    endloop
  endfacet
  facet normal -0.000000 0.000000 -1.000000
    outer loop
      vertex 0.618034 -21.097887 -8.700000
      vertex 18.000000 27.000000 -8.700000
      vertex 1.618034 -21.824429 -8.700000
    endloop
  endfacet
  facet normal -0.000000 0.000000 -1.000000
    outer loop
      vertex 3.882568 -1.728631 -8.700000
      vertex 18.000000 27.000000 -8.700000
      vertex -0.618034 -21.097887 -8.700000
    endloop
  endfacet
  facet normal 0.000000 0.000000 -1.000000
    outer loop
      vertex -0.444246 4.226718 -8.700000
      vertex 0.618034 21.097887 -8.700000
      vertex 1.618034 21.824429 -8.700000
    endloop
  endfacet
  facet normal 0.000000 0.000000 -1.000000
    outer loop
      vertex -4.250000 0.000000 -8.700000
      vertex -2.000000 -23.000000 -8.700000
      vertex -18.000000 27.000000 -8.700000
    endloop
  endfacet
  facet normal 0.000000 -0.000000 -1.000000
    outer loop
      vertex -18.000000 -27.000000 -8.700000
      vertex -18.000000 27.000000 -8.700000
      vertex -15.500000 0.000000 -8.700000
    endloop
  endfacet
  facet normal 0.000000 0.000000 -1.000000
    outer loop
      vertex -18.000000 -27.000000 -8.700000
      vertex -15.500000 0.000000 -8.700000
      vertex -15.213525 -0.881678 -8.700000
    endloop
  endfacet
  facet normal -0.000000 0.000000 -1.000000
    outer loop
      vertex -18.000000 -27.000000 -8.700000
      vertex -15.213525 -0.881678 -8.700000
      vertex -2.000000 -27.000000 -8.700000
    endloop
  endfacet
  facet normal 0.000000 0.000000 -1.000000
    outer loop
      vertex -1.313322 -4.041990 -8.700000
      vertex -2.000000 -23.000000 -8.700000
      vertex -2.125000 -3.680608 -8.700000
    endloop
  endfacet
  facet normal -0.000000 -0.000000 -1.000000
    outer loop
      vertex -13.536475 1.426585 -8.700000
      vertex -18.000000 27.000000 -8.700000
      vertex -12.786475 0.881678 -8.700000
    endloop
  endfacet
  facet normal 0.000000 -0.000000 -1.000000
    outer loop
      vertex -15.213525 0.881678 -8.700000
      vertex -18.000000 27.000000 -8.700000
      vertex -14.463525 1.426585 -8.700000
    endloop
  endfacet
  facet normal 0.000000 0.000000 -1.000000
    outer loop
      vertex -14.463525 -1.426585 -8.700000
      vertex -13.536475 -1.426585 -8.700000
      vertex -2.000000 -27.000000 -8.700000
    endloop
  endfacet
  facet normal -0.000000 -0.000000 -1.000000
    outer loop
      vertex -14.463525 1.426585 -8.700000
      vertex -18.000000 27.000000 -8.700000
      vertex -13.536475 1.426585 -8.700000
    endloop
  endfacet
  facet normal -0.000000 0.000000 -1.000000
    outer loop
      vertex -13.536475 -1.426585 -8.700000
      vertex -12.786475 -0.881678 -8.700000
      vertex -2.000000 -27.000000 -8.700000
    endloop
  endfacet
  facet normal -0.000000 -0.000000 -1.000000
    outer loop
      vertex -12.786475 0.881678 -8.700000
      vertex -18.000000 27.000000 -8.700000
      vertex -12.500000 0.000000 -8.700000
    endloop
  endfacet
  facet normal -0.000000 0.000000 -1.000000
    outer loop
      vertex -12.786475 -0.881678 -8.700000
      vertex -12.500000 0.000000 -8.700000
      vertex -2.000000 -27.000000 -8.700000
    endloop
  endfacet
  facet normal 0.000000 -0.000000 -1.000000
    outer loop
      vertex -15.500000 0.000000 -8.700000
      vertex -18.000000 27.000000 -8.700000
      vertex -15.213525 0.881678 -8.700000
    endloop
  endfacet
  facet normal 0.000000 0.000000 -1.000000
    outer loop
      vertex -4.157127 -0.883625 -8.700000
      vertex -2.000000 -23.000000 -8.700000
      vertex -4.250000 0.000000 -8.700000
    endloop
  endfacet
  facet normal 0.000000 0.000000 -1.000000
    outer loop
      vertex -2.000000 23.000000 -8.700000
      vertex -4.250000 0.000000 -8.700000
      vertex -18.000000 27.000000 -8.700000
    endloop
  endfacet
  facet normal 0.000000 0.000000 -1.000000
    outer loop
      vertex -3.882568 -1.728631 -8.700000
      vertex -2.000000 -23.000000 -8.700000
      vertex -4.157127 -0.883625 -8.700000
    endloop
  endfacet
  facet normal 0.000000 0.000000 -1.000000
    outer loop
      vertex -3.438322 -2.498087 -8.700000
      vertex -2.000000 -23.000000 -8.700000
      vertex -3.882568 -1.728631 -8.700000
    endloop
  endfacet
  facet normal 0.000000 0.000000 -1.000000
    outer loop
      vertex -2.843805 -3.158366 -8.700000
      vertex -2.000000 -23.000000 -8.700000
      vertex -3.438322 -2.498087 -8.700000
    endloop
  endfacet
  facet normal 0.000000 0.000000 -1.000000
    outer loop
      vertex -2.125000 -3.680608 -8.700000
      vertex -2.000000 -23.000000 -8.700000
      vertex -2.843805 -3.158366 -8.700000
    endloop
  endfacet
  facet normal 0.000000 0.000000 -1.000000
    outer loop
      vertex -2.125000 3.680608 -8.700000
      vertex -1.618034 21.824429 -8.700000
      vertex -1.313322 4.041990 -8.700000
    endloop
  endfacet
  facet normal 0.000000 0.000000 -1.000000
    outer loop
      vertex -2.125000 3.680608 -8.700000
      vertex -2.000000 23.000000 -8.700000
      vertex -1.618034 21.824429 -8.700000
    endloop
  endfacet
  facet normal 0.000000 0.000000 -1.000000
    outer loop
      vertex -1.313322 4.041990 -8.700000
      vertex 0.618034 21.097887 -8.700000
      vertex -0.444246 4.226718 -8.700000
    endloop
  endfacet
  facet normal 0.000000 0.000000 -1.000000
    outer loop
      vertex 0.444246 -4.226718 -8.700000
      vertex -0.618034 -21.097887 -8.700000
      vertex -1.618034 -21.824429 -8.700000
    endloop
  endfacet
  facet normal -0.000000 0.000000 -1.000000
    outer loop
      vertex 0.444246 4.226718 -8.700000
      vertex 2.000000 23.000000 -8.700000
      vertex 1.313322 4.041990 -8.700000
    endloop
  endfacet
  facet normal -0.000000 0.000000 -1.000000
    outer loop
      vertex 4.157127 -0.883625 -8.700000
      vertex 18.000000 27.000000 -8.700000
      vertex 3.882568 -1.728631 -8.700000
    endloop
  endfacet
  facet normal -0.000000 0.000000 -1.000000
    outer loop
      vertex 3.438322 2.498087 -8.700000
      vertex 18.000000 27.000000 -8.700000
      vertex 3.882568 1.728631 -8.700000
    endloop
  endfacet
  facet normal -0.000000 0.000000 -1.000000
    outer loop
      vertex 0.444246 -4.226718 -8.700000
      vertex 1.313322 -4.041990 -8.700000
      vertex -0.618034 -21.097887 -8.700000
    endloop
  endfacet
  facet normal -0.000000 0.000000 -1.000000
    outer loop
      vertex 3.882568 1.728631 -8.700000
      vertex 18.000000 27.000000 -8.700000
      vertex 4.157127 0.883625 -8.700000
    endloop
  endfacet
  facet normal -0.000000 0.000000 -1.000000
    outer loop
      vertex 1.313322 -4.041990 -8.700000
      vertex 2.125000 -3.680608 -8.700000
      vertex -0.618034 -21.097887 -8.700000
    endloop
  endfacet
  facet normal -0.000000 0.000000 -1.000000
    outer loop
      vertex 4.157127 0.883625 -8.700000
      vertex 18.000000 27.000000 -8.700000
      vertex 4.250000 0.000000 -8.700000
    endloop
  endfacet
  facet normal -0.000000 0.000000 -1.000000
    outer loop
      vertex 2.125000 -3.680608 -8.700000
      vertex 2.843805 -3.158366 -8.700000
      vertex -0.618034 -21.097887 -8.700000
    endloop
  endfacet
  facet normal -0.000000 0.000000 -1.000000
    outer loop
      vertex 4.250000 0.000000 -8.700000
      vertex 18.000000 27.000000 -8.700000
      vertex 4.157127 -0.883625 -8.700000
    endloop
  endfacet
  facet normal -0.000000 0.000000 -1.000000
    outer loop
      vertex 2.843805 -3.158366 -8.700000
      vertex 3.438322 -2.498087 -8.700000
      vertex -0.618034 -21.097887 -8.700000
    endloop
  endfacet
  facet normal -0.000000 0.000000 -1.000000
    outer loop
      vertex 3.438322 -2.498087 -8.700000
      vertex 3.882568 -1.728631 -8.700000
      vertex -0.618034 -21.097887 -8.700000
    endloop
  endfacet
  facet normal -0.000000 0.000000 -1.000000
    outer loop
      vertex 2.000000 23.000000 -8.700000
      vertex 18.000000 27.000000 -8.700000
      vertex 3.438322 2.498087 -8.700000
    endloop
  endfacet
  facet normal 0.000000 0.000000 -1.000000
    outer loop
      vertex 2.000000 23.000000 -8.700000
      vertex 3.438322 2.498087 -8.700000
      vertex 2.843805 3.158366 -8.700000
    endloop
  endfacet
  facet normal 0.000000 0.000000 -1.000000
    outer loop
      vertex 2.000000 23.000000 -8.700000
      vertex 2.843805 3.158366 -8.700000
      vertex 2.125000 3.680608 -8.700000
    endloop
  endfacet
  facet normal 0.000000 0.000000 -1.000000
    outer loop
      vertex 2.000000 23.000000 -8.700000
      vertex 2.125000 3.680608 -8.700000
      vertex 1.313322 4.041990 -8.700000
    endloop
  endfacet
  facet normal -0.000000 0.000000 -1.000000
    outer loop
      vertex -0.444246 4.226718 -8.700000
      vertex 1.618034 21.824429 -8.700000
      vertex 0.444246 4.226718 -8.700000
    endloop
  endfacet
  facet normal -0.000000 0.000000 -1.000000
    outer loop
      vertex 1.618034 21.824429 -8.700000
      vertex 2.000000 23.000000 -8.700000
      vertex 0.444246 4.226718 -8.700000
    endloop
  endfacet
  facet normal 0.000000 0.000000 -1.000000
    outer loop
      vertex -0.444246 -4.226718 -8.700000
      vertex -2.000000 -23.000000 -8.700000
      vertex -1.313322 -4.041990 -8.700000
    endloop
  endfacet
  facet normal 0.000000 0.000000 -1.000000
    outer loop
      vertex -1.618034 21.824429 -8.700000
      vertex -0.618034 21.097887 -8.700000
      vertex -1.313322 4.041990 -8.700000
    endloop
  endfacet
  facet normal 0.000000 0.000000 -1.000000
    outer loop
      vertex -2.843805 3.158366 -8.700000
      vertex -2.000000 23.000000 -8.700000
      vertex -2.125000 3.680608 -8.700000
    endloop
  endfacet
  facet normal 0.000000 0.000000 -1.000000
    outer loop
      vertex -3.438322 2.498087 -8.700000
      vertex -2.000000 23.000000 -8.700000
      vertex -2.843805 3.158366 -8.700000
    endloop
  endfacet
  facet normal 0.000000 0.000000 -1.000000
    outer loop
      vertex -3.882568 1.728631 -8.700000
      vertex -2.000000 23.000000 -8.700000
      vertex -3.438322 2.498087 -8.700000
    endloop
  endfacet
  facet normal 0.000000 0.000000 -1.000000
    outer loop
      vertex -4.157127 0.883625 -8.700000
      vertex -2.000000 23.000000 -8.700000
      vertex -3.882568 1.728631 -8.700000
    endloop
  endfacet
  facet normal -0.000000 0.000000 -1.000000
    outer loop
      vertex 15.213525 0.881678 -8.700000
      vertex 18.000000 27.000000 -8.700000
      vertex 15.500000 0.000000 -8.700000
    endloop
  endfacet
  facet normal 0.000000 0.000000 -1.000000
    outer loop
      vertex -2.000000 23.000000 -8.700000
      vertex -4.157127 0.883625 -8.700000
      vertex -4.250000 0.000000 -8.700000
    endloop
  endfacet
  facet normal 0.000000 0.000000 -1.000000
    outer loop
      vertex 2.000000 -27.000000 -8.700000
      vertex 18.000000 27.000000 -8.700000
      vertex 12.500000 0.000000 -8.700000
    endloop
  endfacet
  facet normal -0.000000 0.000000 -1.000000
    outer loop
      vertex 2.000000 -27.000000 -8.700000
      vertex 12.500000 0.000000 -8.700000
      vertex 18.000000 -27.000000 -8.700000
    endloop
  endfacet
  facet normal 0.000000 0.000000 -1.000000
    outer loop
      vertex 12.500000 0.000000 -8.700000
      vertex 12.786475 -0.881678 -8.700000
      vertex 18.000000 -27.000000 -8.700000
    endloop
  endfacet
  facet normal 0.000000 0.000000 -1.000000
    outer loop
      vertex 12.786475 0.881678 -8.700000
      vertex 18.000000 27.000000 -8.700000
      vertex 13.536475 1.426585 -8.700000
    endloop
  endfacet
  facet normal 0.000000 0.000000 -1.000000
    outer loop
      vertex 12.786475 -0.881678 -8.700000
      vertex 13.536475 -1.426585 -8.700000
      vertex 18.000000 -27.000000 -8.700000
    endloop
  endfacet
  facet normal -0.000000 0.000000 -1.000000
    outer loop
      vertex 13.536475 1.426585 -8.700000
      vertex 18.000000 27.000000 -8.700000
      vertex 14.463525 1.426585 -8.700000
    endloop
  endfacet
  facet normal 0.000000 0.000000 -1.000000
    outer loop
      vertex 13.536475 -1.426585 -8.700000
      vertex 14.463525 -1.426585 -8.700000
      vertex 18.000000 -27.000000 -8.700000
    endloop
  endfacet
  facet normal -0.000000 0.000000 -1.000000
    outer loop
      vertex 14.463525 1.426585 -8.700000
      vertex 18.000000 27.000000 -8.700000
      vertex 15.213525 0.881678 -8.700000
    endloop
  endfacet
  facet normal -0.000000 0.000000 -1.000000
    outer loop
      vertex 14.463525 -1.426585 -8.700000
      vertex 15.213525 -0.881678 -8.700000
      vertex 18.000000 -27.000000 -8.700000
    endloop
  endfacet
  facet normal -0.000000 0.000000 -1.000000
    outer loop
      vertex 15.213525 -0.881678 -8.700000
      vertex 15.500000 0.000000 -8.700000
      vertex 18.000000 -27.000000 -8.700000
    endloop
  endfacet
  facet normal 0.000000 0.000000 -1.000000
    outer loop
      vertex 12.500000 0.000000 -8.700000
      vertex 18.000000 27.000000 -8.700000
      vertex 12.786475 0.881678 -8.700000
    endloop
  endfacet
  facet normal -0.000000 0.000000 -1.000000
    outer loop
      vertex -0.618034 -21.097887 -8.700000
      vertex 18.000000 27.000000 -8.700000
      vertex 0.618034 -21.097887 -8.700000
    endloop
  endfacet
  facet normal 0.000000 0.000000 -1.000000
    outer loop
      vertex 0.444246 -4.226718 -8.700000
      vertex -1.618034 -21.824429 -8.700000
      vertex -0.444246 -4.226718 -8.700000
    endloop
  endfacet
  facet normal 0.000000 1.000000 0.000000
    outer loop
      vertex -18.000000 27.000000 -8.700000
      vertex -18.000000 27.000000 -3.700000
      vertex -2.000000 27.000000 -8.700000
    endloop
  endfacet
  facet normal 0.000000 1.000000 0.000000
    outer loop
      vertex -2.000000 27.000000 -8.700000
      vertex -18.000000 27.000000 -3.700000
      vertex -2.000000 27.000000 -3.700000
    endloop
  endfacet
  facet normal 0.000000 -0.000000 1.000000
    outer loop
      vertex -18.000000 27.000000 -3.700000
      vertex -18.000000 14.000000 -3.700000
      vertex 18.000000 14.000000 -3.700000
    endloop
  endfacet
  facet normal -0.000000 -0.000000 1.000000
    outer loop
      vertex -0.618034 21.097887 -3.700000
      vertex -18.000000 27.000000 -3.700000
      vertex 18.000000 14.000000 -3.700000
    endloop
  endfacet
  facet normal 0.000000 0.000000 1.000000
    outer loop
      vertex 18.000000 27.000000 -3.700000
      vertex 2.000000 27.000000 -3.700000
      vertex 18.000000 14.000000 -3.700000
    endloop
  endfacet
  facet normal 0.000000 -0.000000 1.000000
    outer loop
      vertex 2.000000 27.000000 -3.700000
      vertex 2.000000 23.000000 -3.700000
      vertex 18.000000 14.000000 -3.700000
    endloop
  endfacet
  facet normal 0.000000 -0.000000 1.000000
    outer loop
      vertex 2.000000 23.000000 -3.700000
      vertex 1.618034 21.824429 -3.700000
      vertex 18.000000 14.000000 -3.700000
    endloop
  endfacet
  facet normal 0.000000 -0.000000 1.000000
    outer loop
      vertex 1.618034 21.824429 -3.700000
      vertex 0.618034 21.097887 -3.700000
      vertex 18.000000 14.000000 -3.700000
    endloop
  endfacet
  facet normal 0.000000 -0.000000 1.000000
    outer loop
      vertex 0.618034 21.097887 -3.700000
      vertex -0.618034 21.097887 -3.700000
      vertex 18.000000 14.000000 -3.700000
    endloop
  endfacet
  facet normal 0.000000 0.000000 1.000000
    outer loop
      vertex -1.618034 21.824429 -3.700000
      vertex -2.000000 23.000000 -3.700000
      vertex -18.000000 27.000000 -3.700000
    endloop
  endfacet
  facet normal 0.000000 0.000000 1.000000
    outer loop
      vertex -2.000000 23.000000 -3.700000
      vertex -2.000000 27.000000 -3.700000
      vertex -18.000000 27.000000 -3.700000
    endloop
  endfacet
  facet normal 0.000000 0.000000 1.000000
    outer loop
      vertex -0.618034 21.097887 -3.700000
      vertex -1.618034 21.824429 -3.700000
      vertex -18.000000 27.000000 -3.700000
    endloop
  endfacet
  facet normal 0.000000 1.000000 0.000000
    outer loop
      vertex -18.000000 14.000000 -3.700000
      vertex -18.000000 14.000000 2.300000
      vertex 18.000000 14.000000 -3.700000
    endloop
  endfacet
  facet normal 0.000000 1.000000 0.000000
    outer loop
      vertex 18.000000 14.000000 -3.700000
      vertex -18.000000 14.000000 2.300000
      vertex 18.000000 14.000000 2.300000
    endloop
  endfacet
  facet normal 0.000000 -0.000000 1.000000
    outer loop
      vertex -14.463525 -1.426585 2.300000
      vertex -18.000000 -14.000000 2.300000
      vertex 18.000000 -14.000000 2.300000
    endloop
  endfacet
  facet normal 0.000000 0.000000 1.000000
    outer loop
      vertex -1.313322 4.041990 2.300000
      vertex -0.444246 4.226718 2.300000
      vertex 18.000000 14.000000 2.300000
    endloop
  endfacet
  facet normal 0.000000 -0.000000 1.000000
    outer loop
      vertex -15.500000 0.000000 2.300000
      vertex -18.000000 -14.000000 2.300000
      vertex -15.213525 -0.881678 2.300000
    endloop
  endfacet
  facet normal 0.000000 0.000000 1.000000
    outer loop
      vertex -12.786475 0.881678 2.300000
      vertex -12.500000 0.000000 2.300000
      vertex 18.000000 -14.000000 2.300000
    endloop
  endfacet
  facet normal 0.000000 -0.000000 1.000000
    outer loop
      vertex -18.000000 14.000000 2.300000
      vertex -18.000000 -14.000000 2.300000
      vertex -15.500000 0.000000 2.300000
    endloop
  endfacet
  facet normal 0.000000 -0.000000 1.000000
    outer loop
      vertex -13.536475 -1.426585 2.300000
      vertex -14.463525 -1.426585 2.300000
      vertex 18.000000 -14.000000 2.300000
    endloop
  endfacet
  facet normal 0.000000 -0.000000 1.000000
    outer loop
      vertex -12.500000 0.000000 2.300000
      vertex -12.786475 -0.881678 2.300000
      vertex 18.000000 -14.000000 2.300000
    endloop
  endfacet
  facet normal 0.000000 0.000000 1.000000
    outer loop
      vertex -18.000000 14.000000 2.300000
      vertex -15.213525 0.881678 2.300000
      vertex -14.463525 1.426585 2.300000
    endloop
  endfacet
  facet normal -0.000000 -0.000000 1.000000
    outer loop
      vertex -2.125000 -3.680608 2.300000
      vertex -13.536475 1.426585 2.300000
      vertex 18.000000 -14.000000 2.300000
    endloop
  endfacet
  facet normal 0.000000 0.000000 1.000000
    outer loop
      vertex -18.000000 14.000000 2.300000
      vertex -14.463525 1.426585 2.300000
      vertex -13.536475 1.426585 2.300000
    endloop
  endfacet
  facet normal 0.000000 0.000000 1.000000
    outer loop
      vertex -13.536475 1.426585 2.300000
      vertex -12.786475 0.881678 2.300000
      vertex 18.000000 -14.000000 2.300000
    endloop
  endfacet
  facet normal 0.000000 -0.000000 1.000000
    outer loop
      vertex -12.786475 -0.881678 2.300000
      vertex -13.536475 -1.426585 2.300000
      vertex 18.000000 -14.000000 2.300000
    endloop
  endfacet
  facet normal 0.000000 0.000000 1.000000
    outer loop
      vertex -2.125000 -3.680608 2.300000
      vertex -2.843805 -3.158366 2.300000
      vertex -13.536475 1.426585 2.300000
    endloop
  endfacet
  facet normal 0.000000 -0.000000 1.000000
    outer loop
      vertex -15.213525 -0.881678 2.300000
      vertex -18.000000 -14.000000 2.300000
      vertex -14.463525 -1.426585 2.300000
    endloop
  endfacet
  facet normal 0.000000 0.000000 1.000000
    outer loop
      vertex -18.000000 14.000000 2.300000
      vertex -13.536475 1.426585 2.300000
      vertex -4.157127 -0.883625 2.300000
    endloop
  endfacet
  facet normal 0.000000 -0.000000 1.000000
    outer loop
      vertex 1.313322 -4.041990 2.300000
      vertex 0.444246 -4.226718 2.300000
      vertex 18.000000 -14.000000 2.300000
    endloop
  endfacet
  facet normal 0.000000 0.000000 1.000000
    outer loop
      vertex -18.000000 14.000000 2.300000
      vertex -4.157127 -0.883625 2.300000
      vertex -4.250000 0.000000 2.300000
    endloop
  endfacet
  facet normal 0.000000 -0.000000 1.000000
    outer loop
      vertex 2.125000 -3.680608 2.300000
      vertex 1.313322 -4.041990 2.300000
      vertex 18.000000 -14.000000 2.300000
    endloop
  endfacet
  facet normal 0.000000 0.000000 1.000000
    outer loop
      vertex -18.000000 14.000000 2.300000
      vertex -4.250000 0.000000 2.300000
      vertex -4.157127 0.883625 2.300000
    endloop
  endfacet
  facet normal 0.000000 -0.000000 1.000000
    outer loop
      vertex 2.843805 -3.158366 2.300000
      vertex 2.125000 -3.680608 2.300000
      vertex 18.000000 -14.000000 2.300000
    endloop
  endfacet
  facet normal 0.000000 0.000000 1.000000
    outer loop
      vertex -18.000000 14.000000 2.300000
      vertex -4.157127 0.883625 2.300000
      vertex -3.882568 1.728631 2.300000
    endloop
  endfacet
  facet normal 0.000000 0.000000 1.000000
    outer loop
      vertex 3.882568 1.728631 2.300000
      vertex 4.157127 0.883625 2.300000
      vertex 18.000000 -14.000000 2.300000
    endloop
  endfacet
  facet normal 0.000000 0.000000 1.000000
    outer loop
      vertex -18.000000 14.000000 2.300000
      vertex -3.882568 1.728631 2.300000
      vertex -3.438322 2.498087 2.300000
    endloop
  endfacet
  facet normal -0.000000 0.000000 1.000000
    outer loop
      vertex -2.125000 3.680608 2.300000
      vertex -18.000000 14.000000 2.300000
      vertex -2.843805 3.158366 2.300000
    endloop
  endfacet
  facet normal 0.000000 0.000000 1.000000
    outer loop
      vertex 18.000000 14.000000 2.300000
      vertex -18.000000 14.000000 2.300000
      vertex -2.125000 3.680608 2.300000
    endloop
  endfacet
  facet normal 0.000000 0.000000 1.000000
    outer loop
      vertex 3.438322 2.498087 2.300000
      vertex 3.882568 1.728631 2.300000
      vertex 18.000000 -14.000000 2.300000
    endloop
  endfacet
  facet normal 0.000000 0.000000 1.000000
    outer loop
      vertex 18.000000 14.000000 2.300000
      vertex -2.125000 3.680608 2.300000
      vertex -1.313322 4.041990 2.300000
    endloop
  endfacet
  facet normal 0.000000 -0.000000 1.000000
    outer loop
      vertex 3.882568 -1.728631 2.300000
      vertex 3.438322 -2.498087 2.300000
      vertex 18.000000 -14.000000 2.300000
    endloop
  endfacet
  facet normal 0.000000 -0.000000 1.000000
    outer loop
      vertex 4.250000 0.000000 2.300000
      vertex 4.157127 -0.883625 2.300000
      vertex 18.000000 -14.000000 2.300000
    endloop
  endfacet
  facet normal 0.000000 0.000000 1.000000
    outer loop
      vertex 18.000000 14.000000 2.300000
      vertex -0.444246 4.226718 2.300000
      vertex 0.444246 4.226718 2.300000
    endloop
  endfacet
  facet normal 0.000000 0.000000 1.000000
    outer loop
      vertex 4.157127 0.883625 2.300000
      vertex 4.250000 0.000000 2.300000
      vertex 18.000000 -14.000000 2.300000
    endloop
  endfacet
  facet normal 0.000000 0.000000 1.000000
    outer loop
      vertex 18.000000 14.000000 2.300000
      vertex 0.444246 4.226718 2.300000
      vertex 1.313322 4.041990 2.300000
    endloop
  endfacet
  facet normal 0.000000 -0.000000 1.000000
    outer loop
      vertex 3.438322 -2.498087 2.300000
      vertex 2.843805 -3.158366 2.300000
      vertex 18.000000 -14.000000 2.300000
    endloop
  endfacet
  facet normal 0.000000 0.000000 1.000000
    outer loop
      vertex 18.000000 14.000000 2.300000
      vertex 1.313322 4.041990 2.300000
      vertex 2.125000 3.680608 2.300000
    endloop
  endfacet
  facet normal 0.000000 0.000000 1.000000
    outer loop
      vertex 18.000000 14.000000 2.300000
      vertex 2.125000 3.680608 2.300000
      vertex 2.843805 3.158366 2.300000
    endloop
  endfacet
  facet normal -0.000000 -0.000000 1.000000
    outer loop
      vertex 12.786475 -0.881678 2.300000
      vertex 3.438322 2.498087 2.300000
      vertex 18.000000 -14.000000 2.300000
    endloop
  endfacet
  facet normal 0.000000 0.000000 1.000000
    outer loop
      vertex 18.000000 14.000000 2.300000
      vertex 2.843805 3.158366 2.300000
      vertex 3.438322 2.498087 2.300000
    endloop
  endfacet
  facet normal 0.000000 -0.000000 1.000000
    outer loop
      vertex 4.157127 -0.883625 2.300000
      vertex 3.882568 -1.728631 2.300000
      vertex 18.000000 -14.000000 2.300000
    endloop
  endfacet
  facet normal 0.000000 -0.000000 1.000000
    outer loop
      vertex 0.444246 -4.226718 2.300000
      vertex -0.444246 -4.226718 2.300000
      vertex 18.000000 -14.000000 2.300000
    endloop
  endfacet
  facet normal -0.000000 -0.000000 1.000000
    outer loop
      vertex -0.444246 -4.226718 2.300000
      vertex -1.313322 -4.041990 2.300000
      vertex 18.000000 -14.000000 2.300000
    endloop
  endfacet
  facet normal 0.000000 0.000000 1.000000
    outer loop
      vertex -2.843805 -3.158366 2.300000
      vertex -3.438322 -2.498087 2.300000
      vertex -13.536475 1.426585 2.300000
    endloop
  endfacet
  facet normal -0.000000 -0.000000 1.000000
    outer loop
      vertex -1.313322 -4.041990 2.300000
      vertex -2.125000 -3.680608 2.300000
      vertex 18.000000 -14.000000 2.300000
    endloop
  endfacet
  facet normal 0.000000 0.000000 1.000000
    outer loop
      vertex 12.786475 0.881678 2.300000
      vertex 13.536475 1.426585 2.300000
      vertex 18.000000 14.000000 2.300000
    endloop
  endfacet
  facet normal -0.000000 -0.000000 1.000000
    outer loop
      vertex -3.882568 -1.728631 2.300000
      vertex -13.536475 1.426585 2.300000
      vertex -3.438322 -2.498087 2.300000
    endloop
  endfacet
  facet normal -0.000000 -0.000000 1.000000
    outer loop
      vertex -4.157127 -0.883625 2.300000
      vertex -13.536475 1.426585 2.300000
      vertex -3.882568 -1.728631 2.300000
    endloop
  endfacet
  facet normal -0.000000 -0.000000 1.000000
    outer loop
      vertex 13.536475 -1.426585 2.300000
      vertex 12.786475 -0.881678 2.300000
      vertex 18.000000 -14.000000 2.300000
    endloop
  endfacet
  facet normal -0.000000 -0.000000 1.000000
    outer loop
      vertex 12.500000 0.000000 2.300000
      vertex 3.438322 2.498087 2.300000
      vertex 12.786475 -0.881678 2.300000
    endloop
  endfacet
  facet normal -0.000000 0.000000 1.000000
    outer loop
      vertex 12.786475 0.881678 2.300000
      vertex 3.438322 2.498087 2.300000
      vertex 12.500000 0.000000 2.300000
    endloop
  endfacet
  facet normal 0.000000 0.000000 1.000000
    outer loop
      vertex 13.536475 1.426585 2.300000
      vertex 14.463525 1.426585 2.300000
      vertex 18.000000 14.000000 2.300000
    endloop
  endfacet
  facet normal 0.000000 0.000000 1.000000
    outer loop
      vertex 18.000000 14.000000 2.300000
      vertex 3.438322 2.498087 2.300000
      vertex 12.786475 0.881678 2.300000
    endloop
  endfacet
  facet normal 0.000000 -0.000000 1.000000
    outer loop
      vertex 15.500000 0.000000 2.300000
      vertex 15.213525 -0.881678 2.300000
      vertex 18.000000 -14.000000 2.300000
    endloop
  endfacet
  facet normal 0.000000 -0.000000 1.000000
    outer loop
      vertex 15.213525 -0.881678 2.300000
      vertex 14.463525 -1.426585 2.300000
      vertex 18.000000 -14.000000 2.300000
    endloop
  endfacet
  facet normal 0.000000 0.000000 1.000000
    outer loop
      vertex 18.000000 14.000000 2.300000
      vertex 14.463525 1.426585 2.300000
      vertex 15.213525 0.881678 2.300000
    endloop
  endfacet
  facet normal 0.000000 0.000000 1.000000
    outer loop
      vertex 18.000000 14.000000 2.300000
      vertex 15.500000 0.000000 2.300000
      vertex 18.000000 -14.000000 2.300000
    endloop
  endfacet
  facet normal 0.000000 0.000000 1.000000
    outer loop
      vertex 18.000000 14.000000 2.300000
      vertex 15.213525 0.881678 2.300000
      vertex 15.500000 0.000000 2.300000
    endloop
  endfacet
  facet normal 0.000000 -0.000000 1.000000
    outer loop
      vertex 14.463525 -1.426585 2.300000
      vertex 13.536475 -1.426585 2.300000
      vertex 18.000000 -14.000000 2.300000
    endloop
  endfacet
  facet normal 0.000000 0.000000 1.000000
    outer loop
      vertex -15.500000 0.000000 2.300000
      vertex -15.213525 0.881678 2.300000
      vertex -18.000000 14.000000 2.300000
    endloop
  endfacet
  facet normal 0.000000 0.000000 1.000000
    outer loop
      vertex -3.438322 2.498087 2.300000
      vertex -2.843805 3.158366 2.300000
      vertex -18.000000 14.000000 2.300000
    endloop
  endfacet
  facet normal 0.000000 -1.000000 0.000000
    outer loop
      vertex -18.000000 -14.000000 2.300000
      vertex -18.000000 -14.000000 -3.700000
      vertex 18.000000 -14.000000 -3.700000
    endloop
  endfacet
  facet normal 0.000000 -1.000000 0.000000
    outer loop
      vertex 18.000000 -14.000000 2.300000
      vertex -18.000000 -14.000000 2.300000
      vertex 18.000000 -14.000000 -3.700000
    endloop
  endfacet
  facet normal 0.000000 -0.000000 1.000000
    outer loop
      vertex -18.000000 -14.000000 -3.700000
      vertex -18.000000 -19.908349 -3.700000
      vertex 18.000000 -19.908349 -3.700000
    endloop
  endfacet
  facet normal 0.000000 0.000000 1.000000
    outer loop
      vertex 18.000000 -14.000000 -3.700000
      vertex -18.000000 -14.000000 -3.700000
      vertex 18.000000 -19.908349 -3.700000
    endloop
  endfacet
  facet normal 0.000000 -0.052336 0.998630
    outer loop
      vertex -18.000000 -19.908349 -3.700000
      vertex -2.000000 -23.000000 -3.862027
      vertex -1.618034 -21.824429 -3.800417
    endloop
  endfacet
  facet normal 0.000000 -0.052336 0.998630
    outer loop
      vertex 0.618034 -21.097887 -3.762341
      vertex 18.000000 -19.908349 -3.700000
      vertex -0.618034 -21.097887 -3.762341
    endloop
  endfacet
  facet normal -0.000000 -0.052336 0.998630
    outer loop
      vertex -0.618034 -21.097887 -3.762341
      vertex -18.000000 -19.908349 -3.700000
      vertex -1.618034 -21.824429 -3.800417
    endloop
  endfacet
  facet normal -0.000000 -0.052336 0.998630
    outer loop
      vertex -2.000000 -27.000000 -4.071658
      vertex -2.000000 -23.000000 -3.862027
      vertex -18.000000 -19.908349 -3.700000
    endloop
  endfacet
  facet normal -0.000000 -0.052336 0.998630
    outer loop
      vertex 1.618034 -21.824429 -3.800417
      vertex 18.000000 -27.000000 -4.071658
      vertex 0.618034 -21.097887 -3.762341
    endloop
  endfacet
  facet normal 0.000000 -0.052336 0.998630
    outer loop
      vertex 2.000000 -23.000000 -3.862027
      vertex 18.000000 -27.000000 -4.071658
      vertex 1.618034 -21.824429 -3.800417
    endloop
  endfacet
  facet normal 0.000000 -0.052336 0.998630
    outer loop
      vertex 2.000000 -27.000000 -4.071658
      vertex 18.000000 -27.000000 -4.071658
      vertex 2.000000 -23.000000 -3.862027
    endloop
  endfacet
  facet normal 0.000000 -0.052336 0.998630
    outer loop
      vertex 18.000000 -27.000000 -4.071658
      vertex 18.000000 -19.908349 -3.700000
      vertex 0.618034 -21.097887 -3.762341
    endloop
  endfacet
  facet normal 0.000000 -0.052336 0.998630
    outer loop
      vertex 18.000000 -19.908349 -3.700000
      vertex -18.000000 -19.908349 -3.700000
      vertex -0.618034 -21.097887 -3.762341
    endloop
  endfacet
  facet normal 0.000000 -0.052336 0.998630
    outer loop
      vertex -18.000000 -19.908349 -3.700000
      vertex -18.000000 -27.000000 -4.071658
      vertex -2.000000 -27.000000 -4.071658
    endloop
  endfacet
  facet normal 1.000000 0.000000 0.000000
    outer loop
      vertex -2.000000 -23.000000 -8.700000
      vertex -2.000000 -23.000000 -3.862027
      vertex -2.000000 -27.000000 -4.071658
    endloop
  endfacet
  facet normal 1.000000 0.000000 0.000000
    outer loop
      vertex -2.000000 -27.000000 -8.700000
      vertex -2.000000 -23.000000 -8.700000
      vertex -2.000000 -27.000000 -4.071658
    endloop
  endfacet
  facet normal 0.951057 -0.309017 0.000000
    outer loop
      vertex -1.618034 -21.824429 -8.700000
      vertex -1.618034 -21.824429 -3.800417
      vertex -2.000000 -23.000000 -3.862027
    endloop
  endfacet
  facet normal 0.951057 -0.309017 0.000000
    outer loop
      vertex -2.000000 -23.000000 -8.700000
      vertex -1.618034 -21.824429 -8.700000
      vertex -2.000000 -23.000000 -3.862027
    endloop
  endfacet
  facet normal 0.587785 -0.809017 0.000000
    outer loop
      vertex -0.618034 -21.097887 -8.700000
      vertex -0.618034 -21.097887 -3.762341
      vertex -1.618034 -21.824429 -3.800417
    endloop
  endfacet
  facet normal 0.587785 -0.809017 0.000000
    outer loop
      vertex -1.618034 -21.824429 -8.700000
      vertex -0.618034 -21.097887 -8.700000
      vertex -1.618034 -21.824429 -3.800417
    endloop
  endfacet
  facet normal 0.000000 -1.000000 0.000000
    outer loop
      vertex 0.618034 -21.097887 -8.700000
      vertex 0.618034 -21.097887 -3.762341
      vertex -0.618034 -21.097887 -3.762341
    endloop
  endfacet
  facet normal -0.000000 -1.000000 -0.000000
    outer loop
      vertex -0.618034 -21.097887 -8.700000
      vertex 0.618034 -21.097887 -8.700000
      vertex -0.618034 -21.097887 -3.762341
    endloop
  endfacet
  facet normal -0.587785 -0.809017 -0.000000
    outer loop
      vertex 1.618034 -21.824429 -8.700000
      vertex 1.618034 -21.824429 -3.800417
      vertex 0.618034 -21.097887 -3.762341
    endloop
  endfacet
  facet normal -0.587785 -0.809017 -0.000000
    outer loop
      vertex 0.618034 -21.097887 -8.700000
      vertex 1.618034 -21.824429 -8.700000
      vertex 0.618034 -21.097887 -3.762341
    endloop
  endfacet
  facet normal -0.951057 -0.309017 0.000000
    outer loop
      vertex 2.000000 -23.000000 -3.862027
      vertex 1.618034 -21.824429 -3.800417
      vertex 2.000000 -23.000000 -8.700000
    endloop
  endfacet
  facet normal -0.951057 -0.309017 0.000000
    outer loop
      vertex 2.000000 -23.000000 -8.700000
      vertex 1.618034 -21.824429 -3.800417
      vertex 1.618034 -21.824429 -8.700000
    endloop
  endfacet
  facet normal -1.000000 0.000000 0.000000
    outer loop
      vertex 2.000000 -23.000000 -3.862027
      vertex 2.000000 -23.000000 -8.700000
      vertex 2.000000 -27.000000 -4.071658
    endloop
  endfacet
  facet normal -1.000000 0.000000 0.000000
    outer loop
      vertex 2.000000 -27.000000 -4.071658
      vertex 2.000000 -23.000000 -8.700000
      vertex 2.000000 -27.000000 -8.700000
    endloop
  endfacet
  facet normal 0.000000 -1.000000 0.000000
    outer loop
      vertex 2.000000 -27.000000 -4.071658
      vertex 2.000000 -27.000000 -8.700000
      vertex 18.000000 -27.000000 -8.700000
    endloop
  endfacet
  facet normal 0.000000 -1.000000 0.000000
    outer loop
      vertex 18.000000 -27.000000 -4.071658
      vertex 2.000000 -27.000000 -4.071658
      vertex 18.000000 -27.000000 -8.700000
    endloop
  endfacet
  facet normal 1.000000 0.000000 -0.000000
    outer loop
      vertex 18.000000 -10.000000 -7.649164
      vertex 18.000000 -27.000000 -8.700000
      vertex 18.000000 27.000000 -8.700000
    endloop
  endfacet
  facet normal 1.000000 0.000000 0.000000
    outer loop
      vertex 18.000000 14.000000 -3.700000
      vertex 18.000000 27.000000 -8.700000
      vertex 18.000000 27.000000 -3.700000
    endloop
  endfacet
  facet normal 1.000000 0.000000 -0.000000
    outer loop
      vertex 18.000000 10.000000 1.815643
      vertex 18.000000 10.000000 -7.649164
      vertex 18.000000 14.000000 -3.700000
    endloop
  endfacet
  facet normal 1.000000 0.000000 -0.000000
    outer loop
      vertex 18.000000 -19.908349 -3.700000
      vertex 18.000000 -27.000000 -4.071658
      vertex 18.000000 -14.000000 -3.700000
    endloop
  endfacet
  facet normal 1.000000 0.000000 0.000000
    outer loop
      vertex 18.000000 10.000000 1.815643
      vertex 18.000000 14.000000 -3.700000
      vertex 18.000000 14.000000 2.300000
    endloop
  endfacet
  facet normal 1.000000 0.000000 -0.000000
    outer loop
      vertex 18.000000 10.000000 -7.649164
      vertex 18.000000 -10.000000 -7.649164
      vertex 18.000000 27.000000 -8.700000
    endloop
  endfacet
  facet normal 1.000000 0.000000 -0.000000
    outer loop
      vertex 18.000000 -27.000000 -4.071658
      vertex 18.000000 -27.000000 -8.700000
      vertex 18.000000 -10.000000 -7.649164
    endloop
  endfacet
  facet normal 1.000000 0.000000 0.000000
    outer loop
      vertex 18.000000 -14.000000 2.300000
      vertex 18.000000 -10.000000 1.815643
      vertex 18.000000 14.000000 2.300000
    endloop
  endfacet
  facet normal 1.000000 0.000000 0.000000
    outer loop
      vertex 18.000000 -10.000000 1.815643
      vertex 18.000000 10.000000 1.815643
      vertex 18.000000 14.000000 2.300000
    endloop
  endfacet
  facet normal 1.000000 0.000000 -0.000000
    outer loop
      vertex 18.000000 14.000000 -3.700000
      vertex 18.000000 10.000000 -7.649164
      vertex 18.000000 27.000000 -8.700000
    endloop
  endfacet
  facet normal 1.000000 0.000000 -0.000000
    outer loop
      vertex 18.000000 -14.000000 2.300000
      vertex 18.000000 -14.000000 -3.700000
      vertex 18.000000 -10.000000 1.815643
    endloop
  endfacet
  facet normal 1.000000 0.000000 0.000000
    outer loop
      vertex 18.000000 -10.000000 -7.649164
      vertex 18.000000 -14.000000 -3.700000
      vertex 18.000000 -27.000000 -4.071658
    endloop
  endfacet
  facet normal 1.000000 0.000000 0.000000
    outer loop
      vertex 18.000000 -10.000000 -7.649164
      vertex 18.000000 -10.000000 1.815643
      vertex 18.000000 -14.000000 -3.700000
    endloop
  endfacet
  facet normal 0.000000 1.000000 0.000000
    outer loop
      vertex 2.000000 27.000000 -8.700000
      vertex 2.000000 27.000000 -3.700000
      vertex 18.000000 27.000000 -8.700000
    endloop
  endfacet
  facet normal 0.000000 1.000000 0.000000
    outer loop
      vertex 18.000000 27.000000 -8.700000
      vertex 2.000000 27.000000 -3.700000
      vertex 18.000000 27.000000 -3.700000
    endloop
  endfacet
  facet normal -1.000000 0.000000 0.000000
    outer loop
      vertex 2.000000 27.000000 -3.700000
      vertex 2.000000 27.000000 -8.700000
      vertex 2.000000 23.000000 -3.700000
    endloop
  endfacet
  facet normal -1.000000 0.000000 0.000000
    outer loop
      vertex 2.000000 23.000000 -3.700000
      vertex 2.000000 27.000000 -8.700000
      vertex 2.000000 23.000000 -8.700000
    endloop
  endfacet
  facet normal -0.951057 0.309017 0.000000
    outer loop
      vertex 2.000000 23.000000 -3.700000
      vertex 2.000000 23.000000 -8.700000
      vertex 1.618034 21.824429 -3.700000
    endloop
  endfacet
  facet normal -0.951057 0.309017 0.000000
    outer loop
      vertex 1.618034 21.824429 -3.700000
      vertex 2.000000 23.000000 -8.700000
      vertex 1.618034 21.824429 -8.700000
    endloop
  endfacet
  facet normal -0.587785 0.809017 0.000000
    outer loop
      vertex 1.618034 21.824429 -3.700000
      vertex 1.618034 21.824429 -8.700000
      vertex 0.618034 21.097887 -3.700000
    endloop
  endfacet
  facet normal -0.587785 0.809017 0.000000
    outer loop
      vertex 0.618034 21.097887 -3.700000
      vertex 1.618034 21.824429 -8.700000
      vertex 0.618034 21.097887 -8.700000
    endloop
  endfacet
  facet normal 0.000000 1.000000 0.000000
    outer loop
      vertex 0.618034 21.097887 -3.700000
      vertex 0.618034 21.097887 -8.700000
      vertex -0.618034 21.097887 -3.700000
    endloop
  endfacet
  facet normal 0.000000 1.000000 -0.000000
    outer loop
      vertex -0.618034 21.097887 -3.700000
      vertex 0.618034 21.097887 -8.700000
      vertex -0.618034 21.097887 -8.700000
    endloop
  endfacet
  facet normal 0.587785 0.809017 -0.000000
    outer loop
      vertex -0.618034 21.097887 -3.700000
      vertex -0.618034 21.097887 -8.700000
      vertex -1.618034 21.824429 -3.700000
    endloop
  endfacet
  facet normal 0.587785 0.809017 -0.000000
    outer loop
      vertex -1.618034 21.824429 -3.700000
      vertex -0.618034 21.097887 -8.700000
      vertex -1.618034 21.824429 -8.700000
    endloop
  endfacet
  facet normal 0.951057 0.309017 0.000000
    outer loop
      vertex -2.000000 23.000000 -3.700000
      vertex -1.618034 21.824429 -3.700000
      vertex -1.618034 21.824429 -8.700000
    endloop
  endfacet
  facet normal 0.951057 0.309017 0.000000
    outer loop
      vertex -2.000000 23.000000 -8.700000
      vertex -2.000000 23.000000 -3.700000
      vertex -1.618034 21.824429 -8.700000
    endloop
  endfacet
  facet normal 1.000000 0.000000 0.000000
    outer loop
      vertex -2.000000 27.000000 -8.700000
      vertex -2.000000 27.000000 -3.700000
      vertex -2.000000 23.000000 -3.700000
    endloop
  endfacet
  facet normal 1.000000 0.000000 0.000000
    outer loop
      vertex -2.000000 23.000000 -8.700000
      vertex -2.000000 27.000000 -8.700000
      vertex -2.000000 23.000000 -3.700000
    endloop
  endfacet
  facet normal 0.951056 -0.309017 0.000000
    outer loop
      vertex -15.213525 0.881678 -8.700000
      vertex -15.213525 0.881678 2.300000
      vertex -15.500000 0.000000 2.300000
    endloop
  endfacet
  facet normal 0.951056 -0.309017 0.000000
    outer loop
      vertex -15.500000 0.000000 -8.700000
      vertex -15.213525 0.881678 -8.700000
      vertex -15.500000 0.000000 2.300000
    endloop
  endfacet
  facet normal 0.951056 0.309017 0.000000
    outer loop
      vertex -15.500000 0.000000 2.300000
      vertex -15.213525 -0.881678 2.300000
      vertex -15.213525 -0.881678 -8.700000
    endloop
  endfacet
  facet normal 0.951056 0.309017 0.000000
    outer loop
      vertex -15.500000 0.000000 -8.700000
      vertex -15.500000 0.000000 2.300000
      vertex -15.213525 -0.881678 -8.700000
    endloop
  endfacet
  facet normal 0.587785 -0.809017 0.000000
    outer loop
      vertex -14.463525 1.426585 -8.700000
      vertex -14.463525 1.426585 2.300000
      vertex -15.213525 0.881678 2.300000
    endloop
  endfacet
  facet normal 0.587785 -0.809017 0.000000
    outer loop
      vertex -15.213525 0.881678 -8.700000
      vertex -14.463525 1.426585 -8.700000
      vertex -15.213525 0.881678 2.300000
    endloop
  endfacet
  facet normal 0.000000 -1.000000 0.000000
    outer loop
      vertex -13.536475 1.426585 -8.700000
      vertex -13.536475 1.426585 2.300000
      vertex -14.463525 1.426585 2.300000
    endloop
  endfacet
  facet normal -0.000000 -1.000000 -0.000000
    outer loop
      vertex -14.463525 1.426585 -8.700000
      vertex -13.536475 1.426585 -8.700000
      vertex -14.463525 1.426585 2.300000
    endloop
  endfacet
  facet normal -0.587785 -0.809017 -0.000000
    outer loop
      vertex -12.786475 0.881678 -8.700000
      vertex -12.786475 0.881678 2.300000
      vertex -13.536475 1.426585 2.300000
    endloop
  endfacet
  facet normal -0.587785 -0.809017 -0.000000
    outer loop
      vertex -13.536475 1.426585 -8.700000
      vertex -12.786475 0.881678 -8.700000
      vertex -13.536475 1.426585 2.300000
    endloop
  endfacet
  facet normal -0.951056 -0.309017 0.000000
    outer loop
      vertex -12.500000 0.000000 2.300000
      vertex -12.786475 0.881678 2.300000
      vertex -12.500000 0.000000 -8.700000
    endloop
  endfacet
  facet normal -0.951056 -0.309017 0.000000
    outer loop
      vertex -12.500000 0.000000 -8.700000
      vertex -12.786475 0.881678 2.300000
      vertex -12.786475 0.881678 -8.700000
    endloop
  endfacet
  facet normal -0.951056 0.309017 0.000000
    outer loop
      vertex -12.500000 0.000000 2.300000
      vertex -12.500000 0.000000 -8.700000
      vertex -12.786475 -0.881678 2.300000
    endloop
  endfacet
  facet normal -0.951056 0.309017 0.000000
    outer loop
      vertex -12.786475 -0.881678 2.300000
      vertex -12.500000 0.000000 -8.700000
      vertex -12.786475 -0.881678 -8.700000
    endloop
  endfacet
  facet normal -0.587785 0.809017 0.000000
    outer loop
      vertex -12.786475 -0.881678 2.300000
      vertex -12.786475 -0.881678 -8.700000
      vertex -13.536475 -1.426585 2.300000
    endloop
  endfacet
  facet normal -0.587785 0.809017 0.000000
    outer loop
      vertex -13.536475 -1.426585 2.300000
      vertex -12.786475 -0.881678 -8.700000
      vertex -13.536475 -1.426585 -8.700000
    endloop
  endfacet
  facet normal 0.000000 1.000000 0.000000
    outer loop
      vertex -13.536475 -1.426585 2.300000
      vertex -13.536475 -1.426585 -8.700000
      vertex -14.463525 -1.426585 2.300000
    endloop
  endfacet
  facet normal 0.000000 1.000000 -0.000000
    outer loop
      vertex -14.463525 -1.426585 2.300000
      vertex -13.536475 -1.426585 -8.700000
      vertex -14.463525 -1.426585 -8.700000
    endloop
  endfacet
  facet normal 0.587785 0.809017 -0.000000
    outer loop
      vertex -14.463525 -1.426585 2.300000
      vertex -14.463525 -1.426585 -8.700000
      vertex -15.213525 -0.881678 2.300000
    endloop
  endfacet
  facet normal 0.587785 0.809017 -0.000000
    outer loop
      vertex -15.213525 -0.881678 2.300000
      vertex -14.463525 -1.426585 -8.700000
      vertex -15.213525 -0.881678 -8.700000
    endloop
  endfacet
  facet normal 0.994522 -0.104529 0.000000
    outer loop
      vertex -4.157127 0.883625 -8.700000
      vertex -4.157127 0.883625 2.300000
      vertex -4.250000 0.000000 2.300000
    endloop
  endfacet
  facet normal 0.994522 -0.104529 0.000000
    outer loop
      vertex -4.250000 0.000000 -8.700000
      vertex -4.157127 0.883625 -8.700000
      vertex -4.250000 0.000000 2.300000
    endloop
  endfacet
  facet normal 0.994522 0.104529 0.000000
    outer loop
      vertex -4.250000 0.000000 2.300000
      vertex -4.157127 -0.883625 2.300000
      vertex -4.157127 -0.883625 -8.700000
    endloop
  endfacet
  facet normal 0.994522 0.104529 0.000000
    outer loop
      vertex -4.250000 0.000000 -8.700000
      vertex -4.250000 0.000000 2.300000
      vertex -4.157127 -0.883625 -8.700000
    endloop
  endfacet
  facet normal 0.951057 -0.309017 0.000000
    outer loop
      vertex -3.882568 1.728631 -8.700000
      vertex -3.882568 1.728631 2.300000
      vertex -4.157127 0.883625 2.300000
    endloop
  endfacet
  facet normal 0.951057 -0.309017 0.000000
    outer loop
      vertex -4.157127 0.883625 -8.700000
      vertex -3.882568 1.728631 -8.700000
      vertex -4.157127 0.883625 2.300000
    endloop
  endfacet
  facet normal 0.866025 -0.500000 0.000000
    outer loop
      vertex -3.438322 2.498087 -8.700000
      vertex -3.438322 2.498087 2.300000
      vertex -3.882568 1.728631 2.300000
    endloop
  endfacet
  facet normal 0.866025 -0.500000 0.000000
    outer loop
      vertex -3.882568 1.728631 -8.700000
      vertex -3.438322 2.498087 -8.700000
      vertex -3.882568 1.728631 2.300000
    endloop
  endfacet
  facet normal 0.743145 -0.669130 0.000000
    outer loop
      vertex -2.843805 3.158366 -8.700000
      vertex -2.843805 3.158366 2.300000
      vertex -3.438322 2.498087 2.300000
    endloop
  endfacet
  facet normal 0.743145 -0.669130 0.000000
    outer loop
      vertex -3.438322 2.498087 -8.700000
      vertex -2.843805 3.158366 -8.700000
      vertex -3.438322 2.498087 2.300000
    endloop
  endfacet
  facet normal 0.587785 -0.809017 0.000000
    outer loop
      vertex -2.125000 3.680608 -8.700000
      vertex -2.125000 3.680608 2.300000
      vertex -2.843805 3.158366 2.300000
    endloop
  endfacet
  facet normal 0.587785 -0.809017 0.000000
    outer loop
      vertex -2.843805 3.158366 -8.700000
      vertex -2.125000 3.680608 -8.700000
      vertex -2.843805 3.158366 2.300000
    endloop
  endfacet
  facet normal 0.406736 -0.913546 0.000000
    outer loop
      vertex -1.313322 4.041990 -8.700000
      vertex -1.313322 4.041990 2.300000
      vertex -2.125000 3.680608 2.300000
    endloop
  endfacet
  facet normal 0.406736 -0.913546 0.000000
    outer loop
      vertex -2.125000 3.680608 -8.700000
      vertex -1.313322 4.041990 -8.700000
      vertex -2.125000 3.680608 2.300000
    endloop
  endfacet
  facet normal 0.207912 -0.978148 0.000000
    outer loop
      vertex -0.444246 4.226718 -8.700000
      vertex -0.444246 4.226718 2.300000
      vertex -1.313322 4.041990 2.300000
    endloop
  endfacet
  facet normal 0.207912 -0.978148 0.000000
    outer loop
      vertex -1.313322 4.041990 -8.700000
      vertex -0.444246 4.226718 -8.700000
      vertex -1.313322 4.041990 2.300000
    endloop
  endfacet
  facet normal 0.000000 -1.000000 0.000000
    outer loop
      vertex 0.444246 4.226718 -8.700000
      vertex 0.444246 4.226718 2.300000
      vertex -0.444246 4.226718 2.300000
    endloop
  endfacet
  facet normal -0.000000 -1.000000 -0.000000
    outer loop
      vertex -0.444246 4.226718 -8.700000
      vertex 0.444246 4.226718 -8.700000
      vertex -0.444246 4.226718 2.300000
    endloop
  endfacet
  facet normal -0.207912 -0.978148 -0.000000
    outer loop
      vertex 1.313322 4.041990 -8.700000
      vertex 1.313322 4.041990 2.300000
      vertex 0.444246 4.226718 2.300000
    endloop
  endfacet
  facet normal -0.207912 -0.978148 -0.000000
    outer loop
      vertex 0.444246 4.226718 -8.700000
      vertex 1.313322 4.041990 -8.700000
      vertex 0.444246 4.226718 2.300000
    endloop
  endfacet
  facet normal -0.406736 -0.913546 -0.000000
    outer loop
      vertex 2.125000 3.680608 -8.700000
      vertex 2.125000 3.680608 2.300000
      vertex 1.313322 4.041990 2.300000
    endloop
  endfacet
  facet normal -0.406736 -0.913546 -0.000000
    outer loop
      vertex 1.313322 4.041990 -8.700000
      vertex 2.125000 3.680608 -8.700000
      vertex 1.313322 4.041990 2.300000
    endloop
  endfacet
  facet normal -0.587785 -0.809017 -0.000000
    outer loop
      vertex 2.843805 3.158366 -8.700000
      vertex 2.843805 3.158366 2.300000
      vertex 2.125000 3.680608 2.300000
    endloop
  endfacet
  facet normal -0.587785 -0.809017 -0.000000
    outer loop
      vertex 2.125000 3.680608 -8.700000
      vertex 2.843805 3.158366 -8.700000
      vertex 2.125000 3.680608 2.300000
    endloop
  endfacet
  facet normal -0.743145 -0.669130 0.000000
    outer loop
      vertex 3.438322 2.498087 2.300000
      vertex 2.843805 3.158366 2.300000
      vertex 3.438322 2.498087 -8.700000
    endloop
  endfacet
  facet normal -0.743145 -0.669130 0.000000
    outer loop
      vertex 3.438322 2.498087 -8.700000
      vertex 2.843805 3.158366 2.300000
      vertex 2.843805 3.158366 -8.700000
    endloop
  endfacet
  facet normal -0.866025 -0.500000 0.000000
    outer loop
      vertex 3.882568 1.728631 2.300000
      vertex 3.438322 2.498087 2.300000
      vertex 3.882568 1.728631 -8.700000
    endloop
  endfacet
  facet normal -0.866025 -0.500000 0.000000
    outer loop
      vertex 3.882568 1.728631 -8.700000
      vertex 3.438322 2.498087 2.300000
      vertex 3.438322 2.498087 -8.700000
    endloop
  endfacet
  facet normal -0.951057 -0.309017 0.000000
    outer loop
      vertex 4.157127 0.883625 2.300000
      vertex 3.882568 1.728631 2.300000
      vertex 4.157127 0.883625 -8.700000
    endloop
  endfacet
  facet normal -0.951057 -0.309017 0.000000
    outer loop
      vertex 4.157127 0.883625 -8.700000
      vertex 3.882568 1.728631 2.300000
      vertex 3.882568 1.728631 -8.700000
    endloop
  endfacet
  facet normal -0.994522 -0.104529 0.000000
    outer loop
      vertex 4.250000 0.000000 2.300000
      vertex 4.157127 0.883625 2.300000
      vertex 4.250000 0.000000 -8.700000
    endloop
  endfacet
  facet normal -0.994522 -0.104529 0.000000
    outer loop
      vertex 4.250000 0.000000 -8.700000
      vertex 4.157127 0.883625 2.300000
      vertex 4.157127 0.883625 -8.700000
    endloop
  endfacet
  facet normal -0.994522 0.104529 0.000000
    outer loop
      vertex 4.250000 0.000000 2.300000
      vertex 4.250000 0.000000 -8.700000
      vertex 4.157127 -0.883625 2.300000
    endloop
  endfacet
  facet normal -0.994522 0.104529 0.000000
    outer loop
      vertex 4.157127 -0.883625 2.300000
      vertex 4.250000 0.000000 -8.700000
      vertex 4.157127 -0.883625 -8.700000
    endloop
  endfacet
  facet normal -0.951057 0.309017 0.000000
    outer loop
      vertex 4.157127 -0.883625 2.300000
      vertex 4.157127 -0.883625 -8.700000
      vertex 3.882568 -1.728631 2.300000
    endloop
  endfacet
  facet normal -0.951057 0.309017 0.000000
    outer loop
      vertex 3.882568 -1.728631 2.300000
      vertex 4.157127 -0.883625 -8.700000
      vertex 3.882568 -1.728631 -8.700000
    endloop
  endfacet
  facet normal -0.866025 0.500000 0.000000
    outer loop
      vertex 3.882568 -1.728631 2.300000
      vertex 3.882568 -1.728631 -8.700000
      vertex 3.438322 -2.498087 2.300000
    endloop
  endfacet
  facet normal -0.866025 0.500000 0.000000
    outer loop
      vertex 3.438322 -2.498087 2.300000
      vertex 3.882568 -1.728631 -8.700000
      vertex 3.438322 -2.498087 -8.700000
    endloop
  endfacet
  facet normal -0.743145 0.669130 0.000000
    outer loop
      vertex 3.438322 -2.498087 2.300000
      vertex 3.438322 -2.498087 -8.700000
      vertex 2.843805 -3.158366 2.300000
    endloop
  endfacet
  facet normal -0.743145 0.669130 0.000000
    outer loop
      vertex 2.843805 -3.158366 2.300000
      vertex 3.438322 -2.498087 -8.700000
      vertex 2.843805 -3.158366 -8.700000
    endloop
  endfacet
  facet normal -0.587785 0.809017 0.000000
    outer loop
      vertex 2.843805 -3.158366 2.300000
      vertex 2.843805 -3.158366 -8.700000
      vertex 2.125000 -3.680608 2.300000
    endloop
  endfacet
  facet normal -0.587785 0.809017 0.000000
    outer loop
      vertex 2.125000 -3.680608 2.300000
      vertex 2.843805 -3.158366 -8.700000
      vertex 2.125000 -3.680608 -8.700000
    endloop
  endfacet
  facet normal -0.406736 0.913546 0.000000
    outer loop
      vertex 2.125000 -3.680608 2.300000
      vertex 2.125000 -3.680608 -8.700000
      vertex 1.313322 -4.041990 2.300000
    endloop
  endfacet
  facet normal -0.406736 0.913546 0.000000
    outer loop
      vertex 1.313322 -4.041990 2.300000
      vertex 2.125000 -3.680608 -8.700000
      vertex 1.313322 -4.041990 -8.700000
    endloop
  endfacet
  facet normal -0.207912 0.978148 0.000000
    outer loop
      vertex 1.313322 -4.041990 2.300000
      vertex 1.313322 -4.041990 -8.700000
      vertex 0.444246 -4.226718 2.300000
    endloop
  endfacet
  facet normal -0.207912 0.978148 0.000000
    outer loop
      vertex 0.444246 -4.226718 2.300000
      vertex 1.313322 -4.041990 -8.700000
      vertex 0.444246 -4.226718 -8.700000
    endloop
  endfacet
  facet normal 0.000000 1.000000 0.000000
    outer loop
      vertex 0.444246 -4.226718 2.300000
      vertex 0.444246 -4.226718 -8.700000
      vertex -0.444246 -4.226718 2.300000
    endloop
  endfacet
  facet normal 0.000000 1.000000 -0.000000
    outer loop
      vertex -0.444246 -4.226718 2.300000
      vertex 0.444246 -4.226718 -8.700000
      vertex -0.444246 -4.226718 -8.700000
    endloop
  endfacet
  facet normal 0.207912 0.978148 -0.000000
    outer loop
      vertex -0.444246 -4.226718 2.300000
      vertex -0.444246 -4.226718 -8.700000
      vertex -1.313322 -4.041990 2.300000
    endloop
  endfacet
  facet normal 0.207912 0.978148 -0.000000
    outer loop
      vertex -1.313322 -4.041990 2.300000
      vertex -0.444246 -4.226718 -8.700000
      vertex -1.313322 -4.041990 -8.700000
    endloop
  endfacet
  facet normal 0.406736 0.913546 -0.000000
    outer loop
      vertex -1.313322 -4.041990 2.300000
      vertex -1.313322 -4.041990 -8.700000
      vertex -2.125000 -3.680608 2.300000
    endloop
  endfacet
  facet normal 0.406736 0.913546 -0.000000
    outer loop
      vertex -2.125000 -3.680608 2.300000
      vertex -1.313322 -4.041990 -8.700000
      vertex -2.125000 -3.680608 -8.700000
    endloop
  endfacet
  facet normal 0.587785 0.809017 -0.000000
    outer loop
      vertex -2.125000 -3.680608 2.300000
      vertex -2.125000 -3.680608 -8.700000
      vertex -2.843805 -3.158366 2.300000
    endloop
  endfacet
  facet normal 0.587785 0.809017 -0.000000
    outer loop
      vertex -2.843805 -3.158366 2.300000
      vertex -2.125000 -3.680608 -8.700000
      vertex -2.843805 -3.158366 -8.700000
    endloop
  endfacet
  facet normal 0.743145 0.669130 0.000000
    outer loop
      vertex -3.438322 -2.498087 2.300000
      vertex -2.843805 -3.158366 2.300000
      vertex -2.843805 -3.158366 -8.700000
    endloop
  endfacet
  facet normal 0.743145 0.669130 0.000000
    outer loop
      vertex -3.438322 -2.498087 -8.700000
      vertex -3.438322 -2.498087 2.300000
      vertex -2.843805 -3.158366 -8.700000
    endloop
  endfacet
  facet normal 0.866025 0.500000 0.000000
    outer loop
      vertex -3.882568 -1.728631 2.300000
      vertex -3.438322 -2.498087 2.300000
      vertex -3.438322 -2.498087 -8.700000
    endloop
  endfacet
  facet normal 0.866025 0.500000 0.000000
    outer loop
      vertex -3.882568 -1.728631 -8.700000
      vertex -3.882568 -1.728631 2.300000
      vertex -3.438322 -2.498087 -8.700000
    endloop
  endfacet
  facet normal 0.951057 0.309017 0.000000
    outer loop
      vertex -4.157127 -0.883625 2.300000
      vertex -3.882568 -1.728631 2.300000
      vertex -3.882568 -1.728631 -8.700000
    endloop
  endfacet
  facet normal 0.951057 0.309017 0.000000
    outer loop
      vertex -4.157127 -0.883625 -8.700000
      vertex -4.157127 -0.883625 2.300000
      vertex -3.882568 -1.728631 -8.700000
    endloop
  endfacet
  facet normal 0.951056 -0.309017 0.000000
    outer loop
      vertex 12.786475 0.881678 -8.700000
      vertex 12.786475 0.881678 2.300000
      vertex 12.500000 0.000000 2.300000
    endloop
  endfacet
  facet normal 0.951056 -0.309017 0.000000
    outer loop
      vertex 12.500000 0.000000 -8.700000
      vertex 12.786475 0.881678 -8.700000
      vertex 12.500000 0.000000 2.300000
    endloop
  endfacet
  facet normal 0.951056 0.309017 0.000000
    outer loop
      vertex 12.500000 0.000000 2.300000
      vertex 12.786475 -0.881678 2.300000
      vertex 12.786475 -0.881678 -8.700000
    endloop
  endfacet
  facet normal 0.951056 0.309017 0.000000
    outer loop
      vertex 12.500000 0.000000 -8.700000
      vertex 12.500000 0.000000 2.300000
      vertex 12.786475 -0.881678 -8.700000
    endloop
  endfacet
  facet normal 0.587785 -0.809017 0.000000
    outer loop
      vertex 13.536475 1.426585 -8.700000
      vertex 13.536475 1.426585 2.300000
      vertex 12.786475 0.881678 2.300000
    endloop
  endfacet
  facet normal 0.587785 -0.809017 0.000000
    outer loop
      vertex 12.786475 0.881678 -8.700000
      vertex 13.536475 1.426585 -8.700000
      vertex 12.786475 0.881678 2.300000
    endloop
  endfacet
  facet normal 0.000000 -1.000000 0.000000
    outer loop
      vertex 14.463525 1.426585 -8.700000
      vertex 14.463525 1.426585 -6.178476
      vertex 14.306438 1.426585 -6.105226
    endloop
  endfacet
  facet normal 0.000000 -1.000000 0.000000
    outer loop
      vertex 13.536475 1.426585 2.300000
      vertex 14.463525 1.426585 -8.700000
      vertex 14.306438 1.426585 -6.105226
    endloop
  endfacet
  facet normal 0.000000 -1.000000 0.000000
    outer loop
      vertex 14.463525 1.426585 -5.768352
      vertex 14.463525 1.426585 2.300000
      vertex 14.306438 1.426585 -6.105226
    endloop
  endfacet
  facet normal 0.000000 -1.000000 0.000000
    outer loop
      vertex 14.463525 1.426585 2.300000
      vertex 13.536475 1.426585 2.300000
      vertex 14.306438 1.426585 -6.105226
    endloop
  endfacet
  facet normal 0.000000 -1.000000 0.000000
    outer loop
      vertex 13.536475 1.426585 2.300000
      vertex 13.536475 1.426585 -8.700000
      vertex 14.463525 1.426585 -8.700000
    endloop
  endfacet
  facet normal -0.587785 -0.809017 -0.000000
    outer loop
      vertex 15.213525 0.881678 -8.700000
      vertex 15.213525 0.881678 -6.528207
      vertex 14.463525 1.426585 -6.178476
    endloop
  endfacet
  facet normal -0.587785 -0.809017 -0.000000
    outer loop
      vertex 14.463525 1.426585 -8.700000
      vertex 15.213525 0.881678 -8.700000
      vertex 14.463525 1.426585 -6.178476
    endloop
  endfacet
  facet normal -0.951056 -0.309017 0.000000
    outer loop
      vertex 15.500000 0.000000 -6.661793
      vertex 15.213525 0.881678 -6.528207
      vertex 15.500000 0.000000 -8.700000
    endloop
  endfacet
  facet normal -0.951056 -0.309017 0.000000
    outer loop
      vertex 15.500000 0.000000 -8.700000
      vertex 15.213525 0.881678 -6.528207
      vertex 15.213525 0.881678 -8.700000
    endloop
  endfacet
  facet normal -0.951056 0.309017 0.000000
    outer loop
      vertex 15.500000 0.000000 -6.661793
      vertex 15.500000 0.000000 -8.700000
      vertex 15.213525 -0.881678 -6.528207
    endloop
  endfacet
  facet normal -0.951056 0.309017 0.000000
    outer loop
      vertex 15.213525 -0.881678 -6.528207
      vertex 15.500000 0.000000 -8.700000
      vertex 15.213525 -0.881678 -8.700000
    endloop
  endfacet
  facet normal -0.587785 0.809017 0.000000
    outer loop
      vertex 15.213525 -0.881678 -6.528207
      vertex 15.213525 -0.881678 -8.700000
      vertex 14.463525 -1.426585 -6.178476
    endloop
  endfacet
  facet normal -0.587785 0.809017 0.000000
    outer loop
      vertex 14.463525 -1.426585 -6.178476
      vertex 15.213525 -0.881678 -8.700000
      vertex 14.463525 -1.426585 -8.700000
    endloop
  endfacet
  facet normal 0.000000 1.000000 0.000000
    outer loop
      vertex 14.463525 -1.426585 2.300000
      vertex 14.463525 -1.426585 -5.768352
      vertex 13.536475 -1.426585 2.300000
    endloop
  endfacet
  facet normal 0.000000 1.000000 0.000000
    outer loop
      vertex 13.536475 -1.426585 2.300000
      vertex 14.463525 -1.426585 -5.768352
      vertex 14.306438 -1.426585 -6.105226
    endloop
  endfacet
  facet normal 0.000000 1.000000 0.000000
    outer loop
      vertex 14.306438 -1.426585 -6.105226
      vertex 14.463525 -1.426585 -6.178476
      vertex 14.463525 -1.426585 -8.700000
    endloop
  endfacet
  facet normal -0.000000 1.000000 -0.000000
    outer loop
      vertex 14.306438 -1.426585 -6.105226
      vertex 14.463525 -1.426585 -8.700000
      vertex 13.536475 -1.426585 2.300000
    endloop
  endfacet
  facet normal 0.000000 1.000000 -0.000000
    outer loop
      vertex 13.536475 -1.426585 2.300000
      vertex 14.463525 -1.426585 -8.700000
      vertex 13.536475 -1.426585 -8.700000
    endloop
  endfacet
  facet normal 0.587785 0.809017 -0.000000
    outer loop
      vertex 13.536475 -1.426585 2.300000
      vertex 13.536475 -1.426585 -8.700000
      vertex 12.786475 -0.881678 2.300000
    endloop
  endfacet
  facet normal 0.587785 0.809017 -0.000000
    outer loop
      vertex 12.786475 -0.881678 2.300000
      vertex 13.536475 -1.426585 -8.700000
      vertex 12.786475 -0.881678 -8.700000
    endloop
  endfacet
  facet normal -0.587785 0.809017 0.000000
    outer loop
      vertex 15.213525 -0.881678 2.300000
      vertex 15.213525 -0.881678 -4.159972
      vertex 14.463525 -1.426585 2.300000
    endloop
  endfacet
  facet normal -0.587785 0.809017 0.000000
    outer loop
      vertex 14.463525 -1.426585 2.300000
      vertex 15.213525 -0.881678 -4.159972
      vertex 14.463525 -1.426585 -5.768352
    endloop
  endfacet
  facet normal -0.951056 0.309017 0.000000
    outer loop
      vertex 15.500000 0.000000 2.300000
      vertex 15.500000 0.000000 -3.545625
      vertex 15.213525 -0.881678 2.300000
    endloop
  endfacet
  facet normal -0.951056 0.309017 0.000000
    outer loop
      vertex 15.213525 -0.881678 2.300000
      vertex 15.500000 0.000000 -3.545625
      vertex 15.213525 -0.881678 -4.159972
    endloop
  endfacet
  facet normal -0.951056 -0.309017 0.000000
    outer loop
      vertex 15.500000 0.000000 2.300000
      vertex 15.213525 0.881678 2.300000
      vertex 15.500000 0.000000 -3.545625
    endloop
  endfacet
  facet normal -0.951056 -0.309017 0.000000
    outer loop
      vertex 15.500000 0.000000 -3.545625
      vertex 15.213525 0.881678 2.300000
      vertex 15.213525 0.881678 -4.159972
    endloop
  endfacet
  facet normal -0.587785 -0.809017 -0.000000
    outer loop
      vertex 15.213525 0.881678 -4.159972
      vertex 15.213525 0.881678 2.300000
      vertex 14.463525 1.426585 2.300000
    endloop
  endfacet
  facet normal -0.587785 -0.809017 -0.000000
    outer loop
      vertex 14.463525 1.426585 -5.768352
      vertex 15.213525 0.881678 -4.159972
      vertex 14.463525 1.426585 2.300000
    endloop
  endfacet
  facet normal 0.906308 0.000000 -0.422618
    outer loop
      vertex 23.571986 -10.000000 4.300000
      vertex 18.000000 -10.000000 -7.649164
      vertex 18.000000 10.000000 -7.649164
    endloop
  endfacet
  facet normal 0.906308 0.000000 -0.422618
    outer loop
      vertex 23.571986 10.000000 4.300000
      vertex 23.571986 -10.000000 4.300000
      vertex 18.000000 10.000000 -7.649164
    endloop
  endfacet
  facet normal -0.000000 -1.000000 0.000000
    outer loop
      vertex 18.000000 -10.000000 1.815643
      vertex 18.000000 -10.000000 -7.649164
      vertex 23.571986 -10.000000 4.300000
    endloop
  endfacet
  facet normal 0.000000 -1.000000 0.000000
    outer loop
      vertex 19.158475 -10.000000 4.300000
      vertex 18.000000 -10.000000 1.815643
      vertex 23.571986 -10.000000 4.300000
    endloop
  endfacet
  facet normal 0.000000 1.000000 0.000000
    outer loop
      vertex 18.000000 10.000000 -7.649164
      vertex 18.000000 10.000000 1.815643
      vertex 23.571986 10.000000 4.300000
    endloop
  endfacet
  facet normal 0.000000 1.000000 0.000000
    outer loop
      vertex 23.571986 10.000000 4.300000
      vertex 18.000000 10.000000 1.815643
      vertex 19.158475 10.000000 4.300000
    endloop
  endfacet
  facet normal -0.906308 0.000000 0.422618
    outer loop
      vertex 18.000000 -10.000000 1.815643
      vertex 19.158475 -10.000000 4.300000
      vertex 18.000000 10.000000 1.815643
    endloop
  endfacet
  facet normal -0.906308 0.000000 0.422618
    outer loop
      vertex 18.000000 10.000000 1.815643
      vertex 19.158475 -10.000000 4.300000
      vertex 19.158475 10.000000 4.300000
    endloop
  endfacet
  facet normal -0.906308 0.000000 0.422618
    outer loop
      vertex 14.306438 -1.426585 -6.105226
      vertex 14.463525 -1.426585 -5.768352
      vertex 14.306438 1.426585 -6.105226
    endloop
  endfacet
  facet normal -0.906308 0.000000 0.422618
    outer loop
      vertex 14.306438 1.426585 -6.105226
      vertex 14.463525 -1.426585 -5.768352
      vertex 15.213525 -0.881678 -4.159972
    endloop
  endfacet
  facet normal -0.906308 0.000000 0.422618
    outer loop
      vertex 14.306438 1.426585 -6.105226
      vertex 15.213525 -0.881678 -4.159972
      vertex 15.500000 0.000000 -3.545625
    endloop
  endfacet
  facet normal -0.906308 -0.000000 0.422618
    outer loop
      vertex 14.306438 1.426585 -6.105226
      vertex 15.500000 0.000000 -3.545625
      vertex 15.213525 0.881678 -4.159972
    endloop
  endfacet
  facet normal -0.906308 -0.000000 0.422618
    outer loop
      vertex 14.306438 1.426585 -6.105226
      vertex 15.213525 0.881678 -4.159972
      vertex 14.463525 1.426585 -5.768352
    endloop
  endfacet
  facet normal -0.422618 -0.000000 -0.906308
    outer loop
      vertex 14.306438 -1.426585 -6.105226
      vertex 14.306438 1.426585 -6.105226
      vertex 14.463525 -1.426585 -6.178476
    endloop
  endfacet
  facet normal -0.422618 -0.000000 -0.906308
    outer loop
      vertex 14.463525 -1.426585 -6.178476
      vertex 14.306438 1.426585 -6.105226
      vertex 14.463525 1.426585 -6.178476
    endloop
  endfacet
  facet normal -0.422618 -0.000000 -0.906308
    outer loop
      vertex 14.463525 -1.426585 -6.178476
      vertex 14.463525 1.426585 -6.178476
      vertex 15.213525 0.881678 -6.528207
    endloop
  endfacet
  facet normal -0.422618 -0.000000 -0.906308
    outer loop
      vertex 14.463525 -1.426585 -6.178476
      vertex 15.213525 0.881678 -6.528207
      vertex 15.500000 0.000000 -6.661793
    endloop
  endfacet
  facet normal -0.422618 0.000000 -0.906308
    outer loop
      vertex 14.463525 -1.426585 -6.178476
      vertex 15.500000 0.000000 -6.661793
      vertex 15.213525 -0.881678 -6.528207
    endloop
  endfacet
  facet normal 0.000000 0.000000 1.000000
    outer loop
      vertex 23.571986 -10.000000 4.300000
      vertex 23.571986 10.000000 4.300000
      vertex 19.158475 10.000000 4.300000
    endloop
  endfacet
  facet normal 0.000000 0.000000 1.000000
    outer loop
      vertex 19.158475 -10.000000 4.300000
      vertex 23.571986 -10.000000 4.300000
      vertex 19.158475 10.000000 4.300000
    endloop
  endfacet
endsolid OpenSCAD_Model
