solid OpenSCAD_Model
  facet normal -1.000000 0.000000 0.000000
    outer loop
      vertex -15.000000 22.500000 0.000000
      vertex -15.000000 32.500000 -15.000000
      vertex -15.000000 -22.500000 0.000000
    endloop
  endfacet
  facet normal -1.000000 0.000000 -0.000000
    outer loop
      vertex -15.000000 -32.500000 -15.000000
      vertex -15.000000 -32.500000 5.000000
      vertex -15.000000 -22.500000 0.000000
    endloop
  endfacet
  facet normal -1.000000 -0.000000 0.000000
    outer loop
      vertex -15.000000 -32.500000 -15.000000
      vertex -15.000000 -22.500000 0.000000
      vertex -15.000000 32.500000 -15.000000
    endloop
  endfacet
  facet normal -1.000000 0.000000 0.000000
    outer loop
      vertex -15.000000 32.500000 -15.000000
      vertex -15.000000 22.500000 0.000000
      vertex -15.000000 22.500000 5.000000
    endloop
  endfacet
  facet normal -1.000000 0.000000 0.000000
    outer loop
      vertex -15.000000 32.500000 -15.000000
      vertex -15.000000 22.500000 5.000000
      vertex -15.000000 32.500000 5.000000
    endloop
  endfacet
  facet normal -1.000000 0.000000 0.000000
    outer loop
      vertex -15.000000 -22.500000 0.000000
      vertex -15.000000 -32.500000 5.000000
      vertex -15.000000 -22.500000 5.000000
    endloop
  endfacet
  facet normal 0.000000 -1.000000 0.000000
    outer loop
      vertex 3.090170 -32.500000 -9.510565
      vertex -15.000000 -32.500000 -15.000000
      vertex 15.000000 -32.500000 -15.000000
    endloop
  endfacet
  facet normal 0.000000 -1.000000 0.000000
    outer loop
      vertex 5.877853 -32.500000 -8.090170
      vertex 3.090170 -32.500000 -9.510565
      vertex 15.000000 -32.500000 -15.000000
    endloop
  endfacet
  facet normal 0.000000 -1.000000 0.000000
    outer loop
      vertex 15.000000 -32.500000 5.000000
      vertex 9.510565 -32.500000 3.090170
      vertex 15.000000 -32.500000 -15.000000
    endloop
  endfacet
  facet normal 0.000000 -1.000000 0.000000
    outer loop
      vertex 15.000000 -32.500000 5.000000
      vertex 8.537458 -32.500000 5.000000
      vertex 9.510565 -32.500000 3.090170
    endloop
  endfacet
  facet normal 0.000000 -1.000000 -0.000000
    outer loop
      vertex -9.510565 -32.500000 3.090170
      vertex -8.537458 -32.500000 5.000000
      vertex -15.000000 -32.500000 5.000000
    endloop
  endfacet
  facet normal 0.000000 -1.000000 0.000000
    outer loop
      vertex 10.000000 -32.500000 -0.000000
      vertex 9.510565 -32.500000 -3.090170
      vertex 15.000000 -32.500000 -15.000000
    endloop
  endfacet
  facet normal 0.000000 -1.000000 0.000000
    outer loop
      vertex 9.510565 -32.500000 -3.090170
      vertex 8.090170 -32.500000 -5.877853
      vertex 15.000000 -32.500000 -15.000000
    endloop
  endfacet
  facet normal 0.000000 -1.000000 0.000000
    outer loop
      vertex 8.090170 -32.500000 -5.877853
      vertex 5.877853 -32.500000 -8.090170
      vertex 15.000000 -32.500000 -15.000000
    endloop
  endfacet
  facet normal -0.000000 -1.000000 0.000000
    outer loop
      vertex 0.000000 -32.500000 -10.000000
      vertex -15.000000 -32.500000 -15.000000
      vertex 3.090170 -32.500000 -9.510565
    endloop
  endfacet
  facet normal 0.000000 -1.000000 0.000000
    outer loop
      vertex -3.090170 -32.500000 -9.510565
      vertex -15.000000 -32.500000 -15.000000
      vertex 0.000000 -32.500000 -10.000000
    endloop
  endfacet
  facet normal 0.000000 -1.000000 0.000000
    outer loop
      vertex -5.877853 -32.500000 -8.090170
      vertex -15.000000 -32.500000 -15.000000
      vertex -3.090170 -32.500000 -9.510565
    endloop
  endfacet
  facet normal 0.000000 -1.000000 0.000000
    outer loop
      vertex -8.090170 -32.500000 -5.877853
      vertex -15.000000 -32.500000 -15.000000
      vertex -5.877853 -32.500000 -8.090170
    endloop
  endfacet
  facet normal 0.000000 -1.000000 0.000000
    outer loop
      vertex -15.000000 -32.500000 5.000000
      vertex -15.000000 -32.500000 -15.000000
      vertex -8.090170 -32.500000 -5.877853
    endloop
  endfacet
  facet normal 0.000000 -1.000000 0.000000
    outer loop
      vertex -15.000000 -32.500000 5.000000
      vertex -8.090170 -32.500000 -5.877853
      vertex -9.510565 -32.500000 -3.090170
    endloop
  endfacet
  facet normal 0.000000 -1.000000 0.000000
    outer loop
      vertex 9.510565 -32.500000 3.090170
      vertex 10.000000 -32.500000 -0.000000
      vertex 15.000000 -32.500000 -15.000000
    endloop
  endfacet
  facet normal 0.000000 -1.000000 0.000000
    outer loop
      vertex -9.510565 -32.500000 -3.090170
      vertex -10.000000 -32.500000 -0.000000
      vertex -15.000000 -32.500000 5.000000
    endloop
  endfacet
  facet normal 0.000000 -1.000000 -0.000000
    outer loop
      vertex -10.000000 -32.500000 -0.000000
      vertex -9.510565 -32.500000 3.090170
      vertex -15.000000 -32.500000 5.000000
    endloop
  endfacet
  facet normal 0.000000 0.000000 -1.000000
    outer loop
      vertex 1.500000 14.500000 -15.000000
      vertex 15.000000 -32.500000 -15.000000
      vertex 1.500000 -0.500000 -15.000000
    endloop
  endfacet
  facet normal 0.000000 -0.000000 -1.000000
    outer loop
      vertex -1.500000 14.500000 -15.000000
      vertex -15.000000 32.500000 -15.000000
      vertex 15.000000 32.500000 -15.000000
    endloop
  endfacet
  facet normal 0.000000 -0.000000 -1.000000
    outer loop
      vertex -15.000000 -32.500000 -15.000000
      vertex -15.000000 32.500000 -15.000000
      vertex -1.500000 -9.500000 -15.000000
    endloop
  endfacet
  facet normal 0.000000 0.000000 -1.000000
    outer loop
      vertex 1.500000 -0.500000 -15.000000
      vertex 15.000000 -32.500000 -15.000000
      vertex -1.500000 -0.500000 -15.000000
    endloop
  endfacet
  facet normal 0.000000 0.000000 -1.000000
    outer loop
      vertex -15.000000 -32.500000 -15.000000
      vertex -1.500000 -9.500000 -15.000000
      vertex -1.500000 -24.500000 -15.000000
    endloop
  endfacet
  facet normal -0.000000 0.000000 -1.000000
    outer loop
      vertex -15.000000 -32.500000 -15.000000
      vertex -1.500000 -24.500000 -15.000000
      vertex 15.000000 -32.500000 -15.000000
    endloop
  endfacet
  facet normal 0.000000 0.000000 -1.000000
    outer loop
      vertex -1.500000 -24.500000 -15.000000
      vertex 1.500000 -24.500000 -15.000000
      vertex 15.000000 -32.500000 -15.000000
    endloop
  endfacet
  facet normal -0.000000 -0.000000 -1.000000
    outer loop
      vertex -1.500000 -9.500000 -15.000000
      vertex -15.000000 32.500000 -15.000000
      vertex 1.500000 -9.500000 -15.000000
    endloop
  endfacet
  facet normal 0.000000 0.000000 -1.000000
    outer loop
      vertex -1.500000 -0.500000 -15.000000
      vertex -15.000000 32.500000 -15.000000
      vertex -1.500000 14.500000 -15.000000
    endloop
  endfacet
  facet normal 0.000000 -0.000000 -1.000000
    outer loop
      vertex 1.500000 14.500000 -15.000000
      vertex -1.500000 14.500000 -15.000000
      vertex 15.000000 32.500000 -15.000000
    endloop
  endfacet
  facet normal 0.000000 0.000000 -1.000000
    outer loop
      vertex 1.500000 -9.500000 -15.000000
      vertex -15.000000 32.500000 -15.000000
      vertex -1.500000 -0.500000 -15.000000
    endloop
  endfacet
  facet normal -0.000000 -0.000000 -1.000000
    outer loop
      vertex 1.500000 -9.500000 -15.000000
      vertex -1.500000 -0.500000 -15.000000
      vertex 15.000000 -32.500000 -15.000000
    endloop
  endfacet
  facet normal 0.000000 0.000000 -1.000000
    outer loop
      vertex 15.000000 -32.500000 -15.000000
      vertex 1.500000 14.500000 -15.000000
      vertex 15.000000 32.500000 -15.000000
    endloop
  endfacet
  facet normal 0.000000 0.000000 -1.000000
    outer loop
      vertex 1.500000 -9.500000 -15.000000
      vertex 15.000000 -32.500000 -15.000000
      vertex 1.500000 -24.500000 -15.000000
    endloop
  endfacet
  facet normal -0.000000 1.000000 -0.000000
    outer loop
      vertex 0.000000 32.500000 -10.000000
      vertex 15.000000 32.500000 -15.000000
      vertex -3.090170 32.500000 -9.510565
    endloop
  endfacet
  facet normal 0.000000 1.000000 0.000000
    outer loop
      vertex -9.510565 32.500000 3.090170
      vertex -15.000000 32.500000 5.000000
      vertex -8.537458 32.500000 5.000000
    endloop
  endfacet
  facet normal 0.000000 1.000000 0.000000
    outer loop
      vertex -15.000000 32.500000 -15.000000
      vertex -15.000000 32.500000 5.000000
      vertex -10.000000 32.500000 0.000000
    endloop
  endfacet
  facet normal 0.000000 1.000000 0.000000
    outer loop
      vertex -15.000000 32.500000 -15.000000
      vertex -10.000000 32.500000 0.000000
      vertex -9.510565 32.500000 -3.090170
    endloop
  endfacet
  facet normal 0.000000 1.000000 0.000000
    outer loop
      vertex -15.000000 32.500000 -15.000000
      vertex -9.510565 32.500000 -3.090170
      vertex -8.090170 32.500000 -5.877853
    endloop
  endfacet
  facet normal 0.000000 1.000000 0.000000
    outer loop
      vertex -15.000000 32.500000 -15.000000
      vertex -8.090170 32.500000 -5.877853
      vertex -5.877853 32.500000 -8.090170
    endloop
  endfacet
  facet normal 0.000000 1.000000 0.000000
    outer loop
      vertex -15.000000 32.500000 -15.000000
      vertex -5.877853 32.500000 -8.090170
      vertex -3.090170 32.500000 -9.510565
    endloop
  endfacet
  facet normal 0.000000 1.000000 0.000000
    outer loop
      vertex -15.000000 32.500000 -15.000000
      vertex -3.090170 32.500000 -9.510565
      vertex 15.000000 32.500000 -15.000000
    endloop
  endfacet
  facet normal 0.000000 1.000000 -0.000000
    outer loop
      vertex 3.090170 32.500000 -9.510565
      vertex 15.000000 32.500000 -15.000000
      vertex 0.000000 32.500000 -10.000000
    endloop
  endfacet
  facet normal 0.000000 1.000000 -0.000000
    outer loop
      vertex 5.877853 32.500000 -8.090170
      vertex 15.000000 32.500000 -15.000000
      vertex 3.090170 32.500000 -9.510565
    endloop
  endfacet
  facet normal 0.000000 1.000000 -0.000000
    outer loop
      vertex 8.090170 32.500000 -5.877853
      vertex 15.000000 32.500000 -15.000000
      vertex 5.877853 32.500000 -8.090170
    endloop
  endfacet
  facet normal 0.000000 1.000000 0.000000
    outer loop
      vertex 15.000000 32.500000 -15.000000
      vertex 8.090170 32.500000 -5.877853
      vertex 9.510565 32.500000 -3.090170
    endloop
  endfacet
  facet normal 0.000000 1.000000 0.000000
    outer loop
      vertex 9.510565 32.500000 -3.090170
      vertex 10.000000 32.500000 0.000000
      vertex 15.000000 32.500000 -15.000000
    endloop
  endfacet
  facet normal 0.000000 1.000000 0.000000
    outer loop
      vertex 10.000000 32.500000 0.000000
      vertex 9.510565 32.500000 3.090170
      vertex 15.000000 32.500000 -15.000000
    endloop
  endfacet
  facet normal 0.000000 1.000000 0.000000
    outer loop
      vertex 9.510565 32.500000 3.090170
      vertex 8.537458 32.500000 5.000000
      vertex 15.000000 32.500000 5.000000
    endloop
  endfacet
  facet normal 0.000000 1.000000 0.000000
    outer loop
      vertex 9.510565 32.500000 3.090170
      vertex 15.000000 32.500000 5.000000
      vertex 15.000000 32.500000 -15.000000
    endloop
  endfacet
  facet normal 0.000000 1.000000 0.000000
    outer loop
      vertex -10.000000 32.500000 0.000000
      vertex -15.000000 32.500000 5.000000
      vertex -9.510565 32.500000 3.090170
    endloop
  endfacet
  facet normal 0.000000 -0.000000 1.000000
    outer loop
      vertex -15.000000 32.500000 5.000000
      vertex -15.000000 22.500000 5.000000
      vertex -5.410577 22.500000 5.000000
    endloop
  endfacet
  facet normal -0.000000 -0.000000 1.000000
    outer loop
      vertex -8.537458 27.400000 5.000000
      vertex -15.000000 32.500000 5.000000
      vertex -5.410577 22.500000 5.000000
    endloop
  endfacet
  facet normal 0.000000 0.000000 1.000000
    outer loop
      vertex -5.410577 27.400000 5.000000
      vertex -8.537458 27.400000 5.000000
      vertex -5.410577 22.500000 5.000000
    endloop
  endfacet
  facet normal 0.000000 0.000000 1.000000
    outer loop
      vertex -8.537458 27.400000 5.000000
      vertex -8.537458 32.500000 5.000000
      vertex -15.000000 32.500000 5.000000
    endloop
  endfacet
  facet normal 0.000000 -1.000000 0.000000
    outer loop
      vertex -15.000000 22.500000 5.000000
      vertex -7.336107 22.500000 1.559338
      vertex -6.067627 22.500000 4.408389
    endloop
  endfacet
  facet normal 0.000000 -1.000000 0.000000
    outer loop
      vertex -7.336107 22.500000 0.000000
      vertex -7.336107 22.500000 1.559338
      vertex -15.000000 22.500000 5.000000
    endloop
  endfacet
  facet normal 0.000000 -1.000000 0.000000
    outer loop
      vertex -5.410577 22.500000 5.000000
      vertex -15.000000 22.500000 5.000000
      vertex -6.067627 22.500000 4.408389
    endloop
  endfacet
  facet normal 0.000000 -1.000000 0.000000
    outer loop
      vertex -15.000000 22.500000 5.000000
      vertex -15.000000 22.500000 0.000000
      vertex -7.336107 22.500000 0.000000
    endloop
  endfacet
  facet normal 0.000000 0.000000 1.000000
    outer loop
      vertex -7.336107 -22.500000 0.000000
      vertex -7.336107 22.500000 0.000000
      vertex -15.000000 22.500000 0.000000
    endloop
  endfacet
  facet normal 0.000000 0.000000 1.000000
    outer loop
      vertex -15.000000 -22.500000 0.000000
      vertex -7.336107 -22.500000 0.000000
      vertex -15.000000 22.500000 0.000000
    endloop
  endfacet
  facet normal 0.000000 1.000000 0.000000
    outer loop
      vertex -5.410577 -22.500000 5.000000
      vertex -6.067627 -22.500000 4.408389
      vertex -15.000000 -22.500000 5.000000
    endloop
  endfacet
  facet normal 0.000000 1.000000 0.000000
    outer loop
      vertex -15.000000 -22.500000 5.000000
      vertex -6.067627 -22.500000 4.408389
      vertex -7.336107 -22.500000 1.559338
    endloop
  endfacet
  facet normal -0.000000 1.000000 0.000000
    outer loop
      vertex -7.336107 -22.500000 1.559338
      vertex -7.336107 -22.500000 0.000000
      vertex -15.000000 -22.500000 5.000000
    endloop
  endfacet
  facet normal 0.000000 1.000000 -0.000000
    outer loop
      vertex -15.000000 -22.500000 5.000000
      vertex -7.336107 -22.500000 0.000000
      vertex -15.000000 -22.500000 0.000000
    endloop
  endfacet
  facet normal 0.000000 -0.000000 1.000000
    outer loop
      vertex -15.000000 -22.500000 5.000000
      vertex -15.000000 -32.500000 5.000000
      vertex -8.537458 -32.500000 5.000000
    endloop
  endfacet
  facet normal -0.000000 0.000000 1.000000
    outer loop
      vertex -5.410577 -27.400000 5.000000
      vertex -15.000000 -22.500000 5.000000
      vertex -8.537458 -27.400000 5.000000
    endloop
  endfacet
  facet normal -0.000000 0.000000 1.000000
    outer loop
      vertex -8.537458 -27.400000 5.000000
      vertex -15.000000 -22.500000 5.000000
      vertex -8.537458 -32.500000 5.000000
    endloop
  endfacet
  facet normal 0.000000 0.000000 1.000000
    outer loop
      vertex -5.410577 -22.500000 5.000000
      vertex -15.000000 -22.500000 5.000000
      vertex -5.410577 -27.400000 5.000000
    endloop
  endfacet
  facet normal 0.891007 0.000000 -0.453990
    outer loop
      vertex -9.510565 -27.400000 3.090170
      vertex -8.537458 -27.400000 5.000000
      vertex -8.537458 -32.500000 5.000000
    endloop
  endfacet
  facet normal 0.891007 0.000000 -0.453990
    outer loop
      vertex -9.510565 -32.500000 3.090170
      vertex -9.510565 -27.400000 3.090170
      vertex -8.537458 -32.500000 5.000000
    endloop
  endfacet
  facet normal 0.987688 0.000000 -0.156435
    outer loop
      vertex -10.000000 -27.400000 -0.000000
      vertex -9.510565 -27.400000 3.090170
      vertex -9.510565 -32.500000 3.090170
    endloop
  endfacet
  facet normal 0.987688 0.000000 -0.156435
    outer loop
      vertex -10.000000 -32.500000 -0.000000
      vertex -10.000000 -27.400000 -0.000000
      vertex -9.510565 -32.500000 3.090170
    endloop
  endfacet
  facet normal 0.987688 -0.000000 0.156435
    outer loop
      vertex -9.510565 -32.500000 -3.090170
      vertex -9.510565 -27.400000 -3.090170
      vertex -10.000000 -27.400000 -0.000000
    endloop
  endfacet
  facet normal 0.987688 -0.000000 0.156435
    outer loop
      vertex -10.000000 -32.500000 -0.000000
      vertex -9.510565 -32.500000 -3.090170
      vertex -10.000000 -27.400000 -0.000000
    endloop
  endfacet
  facet normal 0.891007 -0.000000 0.453990
    outer loop
      vertex -8.090170 -32.500000 -5.877853
      vertex -8.090170 -27.400000 -5.877853
      vertex -9.510565 -27.400000 -3.090170
    endloop
  endfacet
  facet normal 0.891007 -0.000000 0.453990
    outer loop
      vertex -9.510565 -32.500000 -3.090170
      vertex -8.090170 -32.500000 -5.877853
      vertex -9.510565 -27.400000 -3.090170
    endloop
  endfacet
  facet normal 0.707107 -0.000000 0.707107
    outer loop
      vertex -5.877853 -32.500000 -8.090170
      vertex -5.877853 -27.400000 -8.090170
      vertex -8.090170 -27.400000 -5.877853
    endloop
  endfacet
  facet normal 0.707107 -0.000000 0.707107
    outer loop
      vertex -8.090170 -32.500000 -5.877853
      vertex -5.877853 -32.500000 -8.090170
      vertex -8.090170 -27.400000 -5.877853
    endloop
  endfacet
  facet normal 0.453990 -0.000000 0.891007
    outer loop
      vertex -3.090170 -32.500000 -9.510565
      vertex -3.090170 -27.400000 -9.510565
      vertex -5.877853 -27.400000 -8.090170
    endloop
  endfacet
  facet normal 0.453990 -0.000000 0.891007
    outer loop
      vertex -5.877853 -32.500000 -8.090170
      vertex -3.090170 -32.500000 -9.510565
      vertex -5.877853 -27.400000 -8.090170
    endloop
  endfacet
  facet normal 0.156435 -0.000000 0.987688
    outer loop
      vertex 0.000000 -32.500000 -10.000000
      vertex 0.000000 -27.400000 -10.000000
      vertex -3.090170 -27.400000 -9.510565
    endloop
  endfacet
  facet normal 0.156435 -0.000000 0.987688
    outer loop
      vertex -3.090170 -32.500000 -9.510565
      vertex 0.000000 -32.500000 -10.000000
      vertex -3.090170 -27.400000 -9.510565
    endloop
  endfacet
  facet normal -0.156435 -0.000000 0.987688
    outer loop
      vertex 3.090170 -32.500000 -9.510565
      vertex 3.090170 -27.400000 -9.510565
      vertex 0.000000 -27.400000 -10.000000
    endloop
  endfacet
  facet normal -0.156435 -0.000000 0.987688
    outer loop
      vertex 0.000000 -32.500000 -10.000000
      vertex 3.090170 -32.500000 -9.510565
      vertex 0.000000 -27.400000 -10.000000
    endloop
  endfacet
  facet normal -0.453990 -0.000000 0.891007
    outer loop
      vertex 5.877853 -32.500000 -8.090170
      vertex 5.877853 -27.400000 -8.090170
      vertex 3.090170 -27.400000 -9.510565
    endloop
  endfacet
  facet normal -0.453990 -0.000000 0.891007
    outer loop
      vertex 3.090170 -32.500000 -9.510565
      vertex 5.877853 -32.500000 -8.090170
      vertex 3.090170 -27.400000 -9.510565
    endloop
  endfacet
  facet normal -0.707107 -0.000000 0.707107
    outer loop
      vertex 8.090170 -27.400000 -5.877853
      vertex 5.877853 -27.400000 -8.090170
      vertex 8.090170 -32.500000 -5.877853
    endloop
  endfacet
  facet normal -0.707107 -0.000000 0.707107
    outer loop
      vertex 8.090170 -32.500000 -5.877853
      vertex 5.877853 -27.400000 -8.090170
      vertex 5.877853 -32.500000 -8.090170
    endloop
  endfacet
  facet normal -0.891007 -0.000000 0.453990
    outer loop
      vertex 9.510565 -27.400000 -3.090170
      vertex 8.090170 -27.400000 -5.877853
      vertex 9.510565 -32.500000 -3.090170
    endloop
  endfacet
  facet normal -0.891007 -0.000000 0.453990
    outer loop
      vertex 9.510565 -32.500000 -3.090170
      vertex 8.090170 -27.400000 -5.877853
      vertex 8.090170 -32.500000 -5.877853
    endloop
  endfacet
  facet normal -0.987688 -0.000000 0.156435
    outer loop
      vertex 10.000000 -27.400000 -0.000000
      vertex 9.510565 -27.400000 -3.090170
      vertex 10.000000 -32.500000 -0.000000
    endloop
  endfacet
  facet normal -0.987688 -0.000000 0.156435
    outer loop
      vertex 10.000000 -32.500000 -0.000000
      vertex 9.510565 -27.400000 -3.090170
      vertex 9.510565 -32.500000 -3.090170
    endloop
  endfacet
  facet normal -0.987688 0.000000 -0.156435
    outer loop
      vertex 10.000000 -27.400000 -0.000000
      vertex 10.000000 -32.500000 -0.000000
      vertex 9.510565 -27.400000 3.090170
    endloop
  endfacet
  facet normal -0.987688 0.000000 -0.156435
    outer loop
      vertex 9.510565 -27.400000 3.090170
      vertex 10.000000 -32.500000 -0.000000
      vertex 9.510565 -32.500000 3.090170
    endloop
  endfacet
  facet normal -0.891007 0.000000 -0.453990
    outer loop
      vertex 9.510565 -27.400000 3.090170
      vertex 9.510565 -32.500000 3.090170
      vertex 8.537458 -27.400000 5.000000
    endloop
  endfacet
  facet normal -0.891007 0.000000 -0.453990
    outer loop
      vertex 8.537458 -27.400000 5.000000
      vertex 9.510565 -32.500000 3.090170
      vertex 8.537458 -32.500000 5.000000
    endloop
  endfacet
  facet normal 0.000000 -0.000000 1.000000
    outer loop
      vertex 5.435215 -22.500000 5.000000
      vertex 5.435215 -27.400000 5.000000
      vertex 8.537458 -27.400000 5.000000
    endloop
  endfacet
  facet normal 0.000000 0.000000 1.000000
    outer loop
      vertex 15.000000 -32.500000 5.000000
      vertex 5.435215 -22.500000 5.000000
      vertex 8.537458 -27.400000 5.000000
    endloop
  endfacet
  facet normal 0.000000 0.000000 1.000000
    outer loop
      vertex 8.537458 -32.500000 5.000000
      vertex 15.000000 -32.500000 5.000000
      vertex 8.537458 -27.400000 5.000000
    endloop
  endfacet
  facet normal 0.000000 0.000000 1.000000
    outer loop
      vertex 15.000000 -32.500000 5.000000
      vertex 15.000000 -22.500000 5.000000
      vertex 5.435215 -22.500000 5.000000
    endloop
  endfacet
  facet normal 1.000000 0.000000 -0.000000
    outer loop
      vertex 15.000000 -22.500000 0.000000
      vertex 15.000000 -32.500000 -15.000000
      vertex 15.000000 32.500000 -15.000000
    endloop
  endfacet
  facet normal 1.000000 0.000000 0.000000
    outer loop
      vertex 15.000000 -22.500000 0.000000
      vertex 15.000000 -22.500000 5.000000
      vertex 15.000000 -32.500000 5.000000
    endloop
  endfacet
  facet normal 1.000000 0.000000 0.000000
    outer loop
      vertex 15.000000 32.500000 5.000000
      vertex 15.000000 22.500000 5.000000
      vertex 15.000000 32.500000 -15.000000
    endloop
  endfacet
  facet normal 1.000000 0.000000 -0.000000
    outer loop
      vertex 15.000000 22.500000 5.000000
      vertex 15.000000 22.500000 0.000000
      vertex 15.000000 32.500000 -15.000000
    endloop
  endfacet
  facet normal 1.000000 0.000000 -0.000000
    outer loop
      vertex 15.000000 -32.500000 5.000000
      vertex 15.000000 -32.500000 -15.000000
      vertex 15.000000 -22.500000 0.000000
    endloop
  endfacet
  facet normal 1.000000 0.000000 -0.000000
    outer loop
      vertex 15.000000 22.500000 0.000000
      vertex 15.000000 -22.500000 0.000000
      vertex 15.000000 32.500000 -15.000000
    endloop
  endfacet
  facet normal 0.000000 -1.000000 0.000000
    outer loop
      vertex 1.500000 -9.500000 -15.000000
      vertex 1.500000 -9.500000 -7.218860
      vertex -0.783963 -9.500000 -7.458914
    endloop
  endfacet
  facet normal 0.000000 -1.000000 0.000000
    outer loop
      vertex -1.500000 -9.500000 -7.226260
      vertex 1.500000 -9.500000 -15.000000
      vertex -0.783963 -9.500000 -7.458914
    endloop
  endfacet
  facet normal 0.000000 -1.000000 0.000000
    outer loop
      vertex -1.500000 -9.500000 -7.226260
      vertex -1.500000 -9.500000 -15.000000
      vertex 1.500000 -9.500000 -15.000000
    endloop
  endfacet
  facet normal 1.000000 0.000000 0.000000
    outer loop
      vertex -1.500000 -9.500000 -15.000000
      vertex -1.500000 -9.500000 -7.226260
      vertex -1.500000 -24.500000 -7.226260
    endloop
  endfacet
  facet normal 1.000000 0.000000 0.000000
    outer loop
      vertex -1.500000 -24.500000 -15.000000
      vertex -1.500000 -9.500000 -15.000000
      vertex -1.500000 -24.500000 -7.226260
    endloop
  endfacet
  facet normal -1.000000 0.000000 0.000000
    outer loop
      vertex 1.500000 -9.500000 -7.218860
      vertex 1.500000 -9.500000 -15.000000
      vertex 1.500000 -24.500000 -7.218860
    endloop
  endfacet
  facet normal -1.000000 0.000000 0.000000
    outer loop
      vertex 1.500000 -24.500000 -7.218860
      vertex 1.500000 -9.500000 -15.000000
      vertex 1.500000 -24.500000 -15.000000
    endloop
  endfacet
  facet normal 0.000000 1.000000 0.000000
    outer loop
      vertex -0.783963 -24.500000 -7.458914
      vertex 1.500000 -24.500000 -7.218860
      vertex 1.500000 -24.500000 -15.000000
    endloop
  endfacet
  facet normal -0.000000 1.000000 -0.000000
    outer loop
      vertex -0.783963 -24.500000 -7.458914
      vertex 1.500000 -24.500000 -15.000000
      vertex -1.500000 -24.500000 -7.226260
    endloop
  endfacet
  facet normal -0.000000 1.000000 0.000000
    outer loop
      vertex 1.500000 -24.500000 -15.000000
      vertex -1.500000 -24.500000 -15.000000
      vertex -1.500000 -24.500000 -7.226260
    endloop
  endfacet
  facet normal 1.000000 0.000000 0.000000
    outer loop
      vertex -1.500000 14.500000 -15.000000
      vertex -1.500000 14.500000 -7.226260
      vertex -1.500000 -0.500000 -7.226260
    endloop
  endfacet
  facet normal 1.000000 0.000000 0.000000
    outer loop
      vertex -1.500000 -0.500000 -15.000000
      vertex -1.500000 14.500000 -15.000000
      vertex -1.500000 -0.500000 -7.226260
    endloop
  endfacet
  facet normal 0.000000 -1.000000 0.000000
    outer loop
      vertex 1.500000 14.500000 -15.000000
      vertex 1.500000 14.500000 -7.218860
      vertex -0.783963 14.500000 -7.458914
    endloop
  endfacet
  facet normal 0.000000 -1.000000 0.000000
    outer loop
      vertex -1.500000 14.500000 -7.226260
      vertex 1.500000 14.500000 -15.000000
      vertex -0.783963 14.500000 -7.458914
    endloop
  endfacet
  facet normal 0.000000 -1.000000 0.000000
    outer loop
      vertex -1.500000 14.500000 -7.226260
      vertex -1.500000 14.500000 -15.000000
      vertex 1.500000 14.500000 -15.000000
    endloop
  endfacet
  facet normal -1.000000 0.000000 0.000000
    outer loop
      vertex 1.500000 14.500000 -7.218860
      vertex 1.500000 14.500000 -15.000000
      vertex 1.500000 -0.500000 -7.218860
    endloop
  endfacet
  facet normal -1.000000 0.000000 0.000000
    outer loop
      vertex 1.500000 -0.500000 -7.218860
      vertex 1.500000 14.500000 -15.000000
      vertex 1.500000 -0.500000 -15.000000
    endloop
  endfacet
  facet normal 0.000000 1.000000 0.000000
    outer loop
      vertex -0.783963 -0.500000 -7.458914
      vertex 1.500000 -0.500000 -7.218860
      vertex 1.500000 -0.500000 -15.000000
    endloop
  endfacet
  facet normal -0.000000 1.000000 -0.000000
    outer loop
      vertex -0.783963 -0.500000 -7.458914
      vertex 1.500000 -0.500000 -15.000000
      vertex -1.500000 -0.500000 -7.226260
    endloop
  endfacet
  facet normal -0.000000 1.000000 0.000000
    outer loop
      vertex 1.500000 -0.500000 -15.000000
      vertex -1.500000 -0.500000 -15.000000
      vertex -1.500000 -0.500000 -7.226260
    endloop
  endfacet
  facet normal 0.000000 -0.000000 1.000000
    outer loop
      vertex 5.435215 27.400000 5.000000
      vertex 5.435215 22.500000 5.000000
      vertex 15.000000 22.500000 5.000000
    endloop
  endfacet
  facet normal 0.000000 -0.000000 1.000000
    outer loop
      vertex 8.537458 27.400000 5.000000
      vertex 5.435215 27.400000 5.000000
      vertex 15.000000 22.500000 5.000000
    endloop
  endfacet
  facet normal 0.000000 0.000000 1.000000
    outer loop
      vertex 15.000000 32.500000 5.000000
      vertex 8.537458 27.400000 5.000000
      vertex 15.000000 22.500000 5.000000
    endloop
  endfacet
  facet normal 0.000000 -0.000000 1.000000
    outer loop
      vertex 8.537458 32.500000 5.000000
      vertex 8.537458 27.400000 5.000000
      vertex 15.000000 32.500000 5.000000
    endloop
  endfacet
  facet normal -0.891007 0.000000 -0.453990
    outer loop
      vertex 9.510565 32.500000 3.090170
      vertex 9.510565 27.400000 3.090170
      vertex 8.537458 32.500000 5.000000
    endloop
  endfacet
  facet normal -0.891007 0.000000 -0.453990
    outer loop
      vertex 8.537458 32.500000 5.000000
      vertex 9.510565 27.400000 3.090170
      vertex 8.537458 27.400000 5.000000
    endloop
  endfacet
  facet normal -0.987688 0.000000 -0.156435
    outer loop
      vertex 10.000000 32.500000 0.000000
      vertex 10.000000 27.400000 0.000000
      vertex 9.510565 32.500000 3.090170
    endloop
  endfacet
  facet normal -0.987688 0.000000 -0.156435
    outer loop
      vertex 9.510565 32.500000 3.090170
      vertex 10.000000 27.400000 0.000000
      vertex 9.510565 27.400000 3.090170
    endloop
  endfacet
  facet normal -0.987688 -0.000000 0.156435
    outer loop
      vertex 10.000000 32.500000 0.000000
      vertex 9.510565 32.500000 -3.090170
      vertex 10.000000 27.400000 0.000000
    endloop
  endfacet
  facet normal -0.987688 -0.000000 0.156435
    outer loop
      vertex 10.000000 27.400000 0.000000
      vertex 9.510565 32.500000 -3.090170
      vertex 9.510565 27.400000 -3.090170
    endloop
  endfacet
  facet normal -0.891007 -0.000000 0.453990
    outer loop
      vertex 9.510565 32.500000 -3.090170
      vertex 8.090170 32.500000 -5.877853
      vertex 9.510565 27.400000 -3.090170
    endloop
  endfacet
  facet normal -0.891007 -0.000000 0.453990
    outer loop
      vertex 9.510565 27.400000 -3.090170
      vertex 8.090170 32.500000 -5.877853
      vertex 8.090170 27.400000 -5.877853
    endloop
  endfacet
  facet normal -0.707107 -0.000000 0.707107
    outer loop
      vertex 8.090170 32.500000 -5.877853
      vertex 5.877853 32.500000 -8.090170
      vertex 8.090170 27.400000 -5.877853
    endloop
  endfacet
  facet normal -0.707107 -0.000000 0.707107
    outer loop
      vertex 8.090170 27.400000 -5.877853
      vertex 5.877853 32.500000 -8.090170
      vertex 5.877853 27.400000 -8.090170
    endloop
  endfacet
  facet normal -0.453990 -0.000000 0.891007
    outer loop
      vertex 5.877853 27.400000 -8.090170
      vertex 5.877853 32.500000 -8.090170
      vertex 3.090170 32.500000 -9.510565
    endloop
  endfacet
  facet normal -0.453990 -0.000000 0.891007
    outer loop
      vertex 3.090170 27.400000 -9.510565
      vertex 5.877853 27.400000 -8.090170
      vertex 3.090170 32.500000 -9.510565
    endloop
  endfacet
  facet normal -0.156435 -0.000000 0.987688
    outer loop
      vertex 3.090170 27.400000 -9.510565
      vertex 3.090170 32.500000 -9.510565
      vertex 0.000000 32.500000 -10.000000
    endloop
  endfacet
  facet normal -0.156435 -0.000000 0.987688
    outer loop
      vertex 0.000000 27.400000 -10.000000
      vertex 3.090170 27.400000 -9.510565
      vertex 0.000000 32.500000 -10.000000
    endloop
  endfacet
  facet normal 0.156435 -0.000000 0.987688
    outer loop
      vertex 0.000000 27.400000 -10.000000
      vertex 0.000000 32.500000 -10.000000
      vertex -3.090170 32.500000 -9.510565
    endloop
  endfacet
  facet normal 0.156435 -0.000000 0.987688
    outer loop
      vertex -3.090170 27.400000 -9.510565
      vertex 0.000000 27.400000 -10.000000
      vertex -3.090170 32.500000 -9.510565
    endloop
  endfacet
  facet normal 0.453990 -0.000000 0.891007
    outer loop
      vertex -3.090170 27.400000 -9.510565
      vertex -3.090170 32.500000 -9.510565
      vertex -5.877853 32.500000 -8.090170
    endloop
  endfacet
  facet normal 0.453990 -0.000000 0.891007
    outer loop
      vertex -5.877853 27.400000 -8.090170
      vertex -3.090170 27.400000 -9.510565
      vertex -5.877853 32.500000 -8.090170
    endloop
  endfacet
  facet normal 0.707107 -0.000000 0.707107
    outer loop
      vertex -5.877853 27.400000 -8.090170
      vertex -5.877853 32.500000 -8.090170
      vertex -8.090170 32.500000 -5.877853
    endloop
  endfacet
  facet normal 0.707107 -0.000000 0.707107
    outer loop
      vertex -8.090170 27.400000 -5.877853
      vertex -5.877853 27.400000 -8.090170
      vertex -8.090170 32.500000 -5.877853
    endloop
  endfacet
  facet normal 0.891007 -0.000000 0.453990
    outer loop
      vertex -8.090170 27.400000 -5.877853
      vertex -8.090170 32.500000 -5.877853
      vertex -9.510565 32.500000 -3.090170
    endloop
  endfacet
  facet normal 0.891007 -0.000000 0.453990
    outer loop
      vertex -9.510565 27.400000 -3.090170
      vertex -8.090170 27.400000 -5.877853
      vertex -9.510565 32.500000 -3.090170
    endloop
  endfacet
  facet normal 0.987688 -0.000000 0.156435
    outer loop
      vertex -9.510565 27.400000 -3.090170
      vertex -9.510565 32.500000 -3.090170
      vertex -10.000000 32.500000 0.000000
    endloop
  endfacet
  facet normal 0.987688 -0.000000 0.156435
    outer loop
      vertex -10.000000 27.400000 0.000000
      vertex -9.510565 27.400000 -3.090170
      vertex -10.000000 32.500000 0.000000
    endloop
  endfacet
  facet normal 0.987688 0.000000 -0.156435
    outer loop
      vertex -10.000000 32.500000 0.000000
      vertex -9.510565 32.500000 3.090170
      vertex -9.510565 27.400000 3.090170
    endloop
  endfacet
  facet normal 0.987688 0.000000 -0.156435
    outer loop
      vertex -10.000000 27.400000 0.000000
      vertex -10.000000 32.500000 0.000000
      vertex -9.510565 27.400000 3.090170
    endloop
  endfacet
  facet normal 0.891007 0.000000 -0.453990
    outer loop
      vertex -9.510565 32.500000 3.090170
      vertex -8.537458 32.500000 5.000000
      vertex -8.537458 27.400000 5.000000
    endloop
  endfacet
  facet normal 0.891007 0.000000 -0.453990
    outer loop
      vertex -9.510565 27.400000 3.090170
      vertex -9.510565 32.500000 3.090170
      vertex -8.537458 27.400000 5.000000
    endloop
  endfacet
  facet normal 0.000000 1.000000 -0.000000
    outer loop
      vertex -8.537458 27.400000 5.000000
      vertex -5.410577 27.400000 5.000000
      vertex -9.510565 27.400000 3.090170
    endloop
  endfacet
  facet normal 0.000000 1.000000 0.000000
    outer loop
      vertex -9.510565 27.400000 3.090170
      vertex -5.410577 27.400000 5.000000
      vertex -6.067627 27.400000 4.408389
    endloop
  endfacet
  facet normal 0.000000 1.000000 0.000000
    outer loop
      vertex -9.510565 27.400000 3.090170
      vertex -6.067627 27.400000 4.408389
      vertex -7.336107 27.400000 1.559338
    endloop
  endfacet
  facet normal -0.000000 1.000000 0.000000
    outer loop
      vertex -7.336107 27.400000 1.559338
      vertex -7.336107 27.400000 -1.559338
      vertex -9.510565 27.400000 3.090170
    endloop
  endfacet
  facet normal -0.000000 1.000000 -0.000000
    outer loop
      vertex -7.336107 27.400000 -1.559338
      vertex -6.067627 27.400000 -4.408389
      vertex -9.510565 27.400000 3.090170
    endloop
  endfacet
  facet normal 0.000000 1.000000 0.000000
    outer loop
      vertex 6.851591 27.400000 3.050525
      vertex 5.435215 27.400000 5.000000
      vertex 8.537458 27.400000 5.000000
    endloop
  endfacet
  facet normal 0.000000 1.000000 0.000000
    outer loop
      vertex 6.851591 27.400000 3.050525
      vertex 8.537458 27.400000 5.000000
      vertex 7.500000 27.400000 0.000000
    endloop
  endfacet
  facet normal 0.000000 1.000000 0.000000
    outer loop
      vertex 7.500000 27.400000 0.000000
      vertex 8.537458 27.400000 5.000000
      vertex 9.510565 27.400000 3.090170
    endloop
  endfacet
  facet normal 0.000000 1.000000 -0.000000
    outer loop
      vertex 7.500000 27.400000 0.000000
      vertex 9.510565 27.400000 3.090170
      vertex 6.851591 27.400000 -3.050525
    endloop
  endfacet
  facet normal 0.000000 1.000000 0.000000
    outer loop
      vertex 6.851591 27.400000 -3.050525
      vertex 9.510565 27.400000 3.090170
      vertex 10.000000 27.400000 0.000000
    endloop
  endfacet
  facet normal 0.000000 1.000000 -0.000000
    outer loop
      vertex 6.851591 27.400000 -3.050525
      vertex 10.000000 27.400000 0.000000
      vertex 5.018480 27.400000 -5.573586
    endloop
  endfacet
  facet normal 0.000000 1.000000 0.000000
    outer loop
      vertex 5.018480 27.400000 -5.573586
      vertex 10.000000 27.400000 0.000000
      vertex 9.510565 27.400000 -3.090170
    endloop
  endfacet
  facet normal 0.000000 1.000000 -0.000000
    outer loop
      vertex 5.018480 27.400000 -5.573586
      vertex 9.510565 27.400000 -3.090170
      vertex 2.317627 27.400000 -7.132924
    endloop
  endfacet
  facet normal 0.000000 1.000000 0.000000
    outer loop
      vertex 2.317627 27.400000 -7.132924
      vertex 9.510565 27.400000 -3.090170
      vertex 8.090170 27.400000 -5.877853
    endloop
  endfacet
  facet normal 0.000000 1.000000 0.000000
    outer loop
      vertex 2.317627 27.400000 -7.132924
      vertex 8.090170 27.400000 -5.877853
      vertex 5.877853 27.400000 -8.090170
    endloop
  endfacet
  facet normal 0.000000 1.000000 -0.000000
    outer loop
      vertex 2.317627 27.400000 -7.132924
      vertex 5.877853 27.400000 -8.090170
      vertex -0.783963 27.400000 -7.458914
    endloop
  endfacet
  facet normal 0.000000 1.000000 0.000000
    outer loop
      vertex -0.783963 27.400000 -7.458914
      vertex 5.877853 27.400000 -8.090170
      vertex 3.090170 27.400000 -9.510565
    endloop
  endfacet
  facet normal -0.000000 1.000000 -0.000000
    outer loop
      vertex -0.783963 27.400000 -7.458914
      vertex 3.090170 27.400000 -9.510565
      vertex -3.750000 27.400000 -6.495191
    endloop
  endfacet
  facet normal 0.000000 1.000000 0.000000
    outer loop
      vertex -3.750000 27.400000 -6.495191
      vertex 3.090170 27.400000 -9.510565
      vertex 0.000000 27.400000 -10.000000
    endloop
  endfacet
  facet normal -0.000000 1.000000 -0.000000
    outer loop
      vertex -3.750000 27.400000 -6.495191
      vertex 0.000000 27.400000 -10.000000
      vertex -6.067627 27.400000 -4.408389
    endloop
  endfacet
  facet normal 0.000000 1.000000 0.000000
    outer loop
      vertex -6.067627 27.400000 -4.408389
      vertex 0.000000 27.400000 -10.000000
      vertex -3.090170 27.400000 -9.510565
    endloop
  endfacet
  facet normal 0.000000 1.000000 0.000000
    outer loop
      vertex -6.067627 27.400000 -4.408389
      vertex -3.090170 27.400000 -9.510565
      vertex -5.877853 27.400000 -8.090170
    endloop
  endfacet
  facet normal -0.000000 1.000000 -0.000000
    outer loop
      vertex -6.067627 27.400000 -4.408389
      vertex -5.877853 27.400000 -8.090170
      vertex -9.510565 27.400000 3.090170
    endloop
  endfacet
  facet normal 0.000000 1.000000 0.000000
    outer loop
      vertex -9.510565 27.400000 3.090170
      vertex -5.877853 27.400000 -8.090170
      vertex -8.090170 27.400000 -5.877853
    endloop
  endfacet
  facet normal 0.000000 1.000000 -0.000000
    outer loop
      vertex -9.510565 27.400000 3.090170
      vertex -8.090170 27.400000 -5.877853
      vertex -9.510565 27.400000 -3.090170
    endloop
  endfacet
  facet normal 0.000000 1.000000 0.000000
    outer loop
      vertex -9.510565 27.400000 3.090170
      vertex -9.510565 27.400000 -3.090170
      vertex -10.000000 27.400000 0.000000
    endloop
  endfacet
  facet normal 0.669131 0.000000 -0.743145
    outer loop
      vertex -5.410577 27.400000 5.000000
      vertex -5.410577 22.500000 5.000000
      vertex -6.067627 27.400000 4.408389
    endloop
  endfacet
  facet normal 0.669131 0.000000 -0.743145
    outer loop
      vertex -6.067627 27.400000 4.408389
      vertex -5.410577 22.500000 5.000000
      vertex -6.067627 22.500000 4.408389
    endloop
  endfacet
  facet normal 1.000000 0.000000 0.000000
    outer loop
      vertex -7.336107 22.500000 0.000000
      vertex -7.336107 27.400000 -1.559338
      vertex -7.336107 27.400000 1.559338
    endloop
  endfacet
  facet normal 1.000000 0.000000 0.000000
    outer loop
      vertex -7.336107 22.500000 0.000000
      vertex -7.336107 -22.500000 0.000000
      vertex -7.336107 -27.400000 -1.559338
    endloop
  endfacet
  facet normal 1.000000 0.000000 0.000000
    outer loop
      vertex -7.336107 -27.400000 -1.559338
      vertex -7.336107 27.400000 -1.559338
      vertex -7.336107 22.500000 0.000000
    endloop
  endfacet
  facet normal 1.000000 0.000000 0.000000
    outer loop
      vertex -7.336107 -22.500000 1.559338
      vertex -7.336107 -27.400000 -1.559338
      vertex -7.336107 -22.500000 0.000000
    endloop
  endfacet
  facet normal 1.000000 0.000000 -0.000000
    outer loop
      vertex -7.336107 -27.400000 1.559338
      vertex -7.336107 -27.400000 -1.559338
      vertex -7.336107 -22.500000 1.559338
    endloop
  endfacet
  facet normal 1.000000 0.000000 -0.000000
    outer loop
      vertex -7.336107 22.500000 1.559338
      vertex -7.336107 22.500000 0.000000
      vertex -7.336107 27.400000 1.559338
    endloop
  endfacet
  facet normal 0.913545 0.000000 -0.406737
    outer loop
      vertex -7.336107 27.400000 1.559338
      vertex -6.067627 27.400000 4.408389
      vertex -6.067627 22.500000 4.408389
    endloop
  endfacet
  facet normal 0.913545 0.000000 -0.406737
    outer loop
      vertex -7.336107 22.500000 1.559338
      vertex -7.336107 27.400000 1.559338
      vertex -6.067627 22.500000 4.408389
    endloop
  endfacet
  facet normal 0.913545 0.000000 -0.406737
    outer loop
      vertex -7.336107 -22.500000 1.559338
      vertex -6.067627 -22.500000 4.408389
      vertex -6.067627 -27.400000 4.408389
    endloop
  endfacet
  facet normal 0.913545 0.000000 -0.406737
    outer loop
      vertex -7.336107 -27.400000 1.559338
      vertex -7.336107 -22.500000 1.559338
      vertex -6.067627 -27.400000 4.408389
    endloop
  endfacet
  facet normal 0.669131 0.000000 -0.743145
    outer loop
      vertex -5.410577 -22.500000 5.000000
      vertex -5.410577 -27.400000 5.000000
      vertex -6.067627 -22.500000 4.408389
    endloop
  endfacet
  facet normal 0.669131 0.000000 -0.743145
    outer loop
      vertex -6.067627 -22.500000 4.408389
      vertex -5.410577 -27.400000 5.000000
      vertex -6.067627 -27.400000 4.408389
    endloop
  endfacet
  facet normal 0.000000 -1.000000 0.000000
    outer loop
      vertex -9.510565 -27.400000 -3.090170
      vertex -8.090170 -27.400000 -5.877853
      vertex -5.877853 -27.400000 -8.090170
    endloop
  endfacet
  facet normal 0.000000 -1.000000 0.000000
    outer loop
      vertex 0.000000 -27.400000 -10.000000
      vertex -9.510565 -27.400000 -3.090170
      vertex -3.090170 -27.400000 -9.510565
    endloop
  endfacet
  facet normal 0.000000 -1.000000 0.000000
    outer loop
      vertex -3.090170 -27.400000 -9.510565
      vertex -9.510565 -27.400000 -3.090170
      vertex -5.877853 -27.400000 -8.090170
    endloop
  endfacet
  facet normal 0.000000 -1.000000 0.000000
    outer loop
      vertex -3.750000 -27.400000 -6.495191
      vertex -9.510565 -27.400000 -3.090170
      vertex 0.000000 -27.400000 -10.000000
    endloop
  endfacet
  facet normal 0.000000 -1.000000 0.000000
    outer loop
      vertex -3.750000 -27.400000 -6.495191
      vertex -6.067627 -27.400000 -4.408389
      vertex -9.510565 -27.400000 -3.090170
    endloop
  endfacet
  facet normal 0.000000 -1.000000 0.000000
    outer loop
      vertex -0.783963 -27.400000 -7.458914
      vertex -3.750000 -27.400000 -6.495191
      vertex 3.090170 -27.400000 -9.510565
    endloop
  endfacet
  facet normal 0.000000 -1.000000 0.000000
    outer loop
      vertex 5.018480 -27.400000 -5.573586
      vertex 2.317627 -27.400000 -7.132924
      vertex 5.877853 -27.400000 -8.090170
    endloop
  endfacet
  facet normal 0.000000 -1.000000 0.000000
    outer loop
      vertex 6.851591 -27.400000 -3.050525
      vertex 8.090170 -27.400000 -5.877853
      vertex 9.510565 -27.400000 -3.090170
    endloop
  endfacet
  facet normal 0.000000 -1.000000 0.000000
    outer loop
      vertex 7.500000 -27.400000 -0.000000
      vertex 6.851591 -27.400000 -3.050525
      vertex 10.000000 -27.400000 -0.000000
    endloop
  endfacet
  facet normal -0.000000 -1.000000 0.000000
    outer loop
      vertex 6.851591 -27.400000 3.050525
      vertex 7.500000 -27.400000 -0.000000
      vertex 9.510565 -27.400000 3.090170
    endloop
  endfacet
  facet normal 0.000000 -1.000000 0.000000
    outer loop
      vertex 8.537458 -27.400000 5.000000
      vertex 6.851591 -27.400000 3.050525
      vertex 9.510565 -27.400000 3.090170
    endloop
  endfacet
  facet normal 0.000000 -1.000000 0.000000
    outer loop
      vertex 9.510565 -27.400000 3.090170
      vertex 7.500000 -27.400000 -0.000000
      vertex 10.000000 -27.400000 -0.000000
    endloop
  endfacet
  facet normal 0.000000 -1.000000 0.000000
    outer loop
      vertex 10.000000 -27.400000 -0.000000
      vertex 6.851591 -27.400000 -3.050525
      vertex 9.510565 -27.400000 -3.090170
    endloop
  endfacet
  facet normal 0.000000 -1.000000 0.000000
    outer loop
      vertex 8.090170 -27.400000 -5.877853
      vertex 5.018480 -27.400000 -5.573586
      vertex 5.877853 -27.400000 -8.090170
    endloop
  endfacet
  facet normal 0.000000 -1.000000 0.000000
    outer loop
      vertex 5.877853 -27.400000 -8.090170
      vertex 2.317627 -27.400000 -7.132924
      vertex 3.090170 -27.400000 -9.510565
    endloop
  endfacet
  facet normal 0.000000 -1.000000 0.000000
    outer loop
      vertex 2.317627 -27.400000 -7.132924
      vertex -0.783963 -27.400000 -7.458914
      vertex 3.090170 -27.400000 -9.510565
    endloop
  endfacet
  facet normal 0.000000 -1.000000 0.000000
    outer loop
      vertex 3.090170 -27.400000 -9.510565
      vertex -3.750000 -27.400000 -6.495191
      vertex 0.000000 -27.400000 -10.000000
    endloop
  endfacet
  facet normal 0.000000 -1.000000 0.000000
    outer loop
      vertex -7.336107 -27.400000 1.559338
      vertex -9.510565 -27.400000 -3.090170
      vertex -7.336107 -27.400000 -1.559338
    endloop
  endfacet
  facet normal 0.000000 -1.000000 0.000000
    outer loop
      vertex -6.067627 -27.400000 4.408389
      vertex -9.510565 -27.400000 -3.090170
      vertex -7.336107 -27.400000 1.559338
    endloop
  endfacet
  facet normal 0.000000 -1.000000 0.000000
    outer loop
      vertex -8.537458 -27.400000 5.000000
      vertex -9.510565 -27.400000 -3.090170
      vertex -6.067627 -27.400000 4.408389
    endloop
  endfacet
  facet normal 0.000000 -1.000000 0.000000
    outer loop
      vertex -8.537458 -27.400000 5.000000
      vertex -6.067627 -27.400000 4.408389
      vertex -5.410577 -27.400000 5.000000
    endloop
  endfacet
  facet normal -0.000000 -1.000000 0.000000
    outer loop
      vertex -9.510565 -27.400000 3.090170
      vertex -9.510565 -27.400000 -3.090170
      vertex -8.537458 -27.400000 5.000000
    endloop
  endfacet
  facet normal -0.000000 -1.000000 0.000000
    outer loop
      vertex -10.000000 -27.400000 -0.000000
      vertex -9.510565 -27.400000 -3.090170
      vertex -9.510565 -27.400000 3.090170
    endloop
  endfacet
  facet normal 0.000000 -1.000000 0.000000
    outer loop
      vertex 5.435215 -27.400000 5.000000
      vertex 6.851591 -27.400000 3.050525
      vertex 8.537458 -27.400000 5.000000
    endloop
  endfacet
  facet normal 0.000000 -1.000000 0.000000
    outer loop
      vertex 6.851591 -27.400000 -3.050525
      vertex 5.018480 -27.400000 -5.573586
      vertex 8.090170 -27.400000 -5.877853
    endloop
  endfacet
  facet normal 0.000000 -1.000000 0.000000
    outer loop
      vertex -6.067627 -27.400000 -4.408389
      vertex -7.336107 -27.400000 -1.559338
      vertex -9.510565 -27.400000 -3.090170
    endloop
  endfacet
  facet normal -0.809017 0.000000 -0.587785
    outer loop
      vertex 6.851591 -22.500000 3.050525
      vertex 6.851591 -27.400000 3.050525
      vertex 5.435215 -22.500000 5.000000
    endloop
  endfacet
  facet normal -0.809017 0.000000 -0.587785
    outer loop
      vertex 5.435215 -22.500000 5.000000
      vertex 6.851591 -27.400000 3.050525
      vertex 5.435215 -27.400000 5.000000
    endloop
  endfacet
  facet normal -0.000000 1.000000 0.000000
    outer loop
      vertex 15.000000 -22.500000 0.000000
      vertex 7.500000 -22.500000 0.000000
      vertex 15.000000 -22.500000 5.000000
    endloop
  endfacet
  facet normal 0.000000 1.000000 0.000000
    outer loop
      vertex 15.000000 -22.500000 5.000000
      vertex 7.500000 -22.500000 0.000000
      vertex 6.851591 -22.500000 3.050525
    endloop
  endfacet
  facet normal 0.000000 1.000000 0.000000
    outer loop
      vertex 15.000000 -22.500000 5.000000
      vertex 6.851591 -22.500000 3.050525
      vertex 5.435215 -22.500000 5.000000
    endloop
  endfacet
  facet normal 0.000000 0.000000 1.000000
    outer loop
      vertex 15.000000 -22.500000 0.000000
      vertex 15.000000 22.500000 0.000000
      vertex 7.500000 22.500000 0.000000
    endloop
  endfacet
  facet normal 0.000000 0.000000 1.000000
    outer loop
      vertex 7.500000 -22.500000 0.000000
      vertex 15.000000 -22.500000 0.000000
      vertex 7.500000 0.000000 0.000000
    endloop
  endfacet
  facet normal 0.000000 0.000000 1.000000
    outer loop
      vertex 7.500000 0.000000 0.000000
      vertex 15.000000 -22.500000 0.000000
      vertex 7.500000 22.500000 0.000000
    endloop
  endfacet
  facet normal 0.000000 -1.000000 0.000000
    outer loop
      vertex 6.851591 22.500000 3.050525
      vertex 7.500000 22.500000 0.000000
      vertex 15.000000 22.500000 0.000000
    endloop
  endfacet
  facet normal -0.000000 -1.000000 0.000000
    outer loop
      vertex 6.851591 22.500000 3.050525
      vertex 15.000000 22.500000 0.000000
      vertex 15.000000 22.500000 5.000000
    endloop
  endfacet
  facet normal 0.000000 -1.000000 -0.000000
    outer loop
      vertex 6.851591 22.500000 3.050525
      vertex 15.000000 22.500000 5.000000
      vertex 5.435215 22.500000 5.000000
    endloop
  endfacet
  facet normal 0.309017 -0.000000 0.951057
    outer loop
      vertex -1.500000 -9.500000 -7.226260
      vertex -3.750000 27.400000 -6.495191
      vertex -1.500000 -24.500000 -7.226260
    endloop
  endfacet
  facet normal 0.309017 0.000000 0.951057
    outer loop
      vertex -0.783963 -27.400000 -7.458914
      vertex -0.783963 -24.500000 -7.458914
      vertex -1.500000 -24.500000 -7.226260
    endloop
  endfacet
  facet normal 0.309017 -0.000000 0.951057
    outer loop
      vertex -1.500000 -0.500000 -7.226260
      vertex -3.750000 27.400000 -6.495191
      vertex -1.500000 -9.500000 -7.226260
    endloop
  endfacet
  facet normal 0.309017 0.000000 0.951057
    outer loop
      vertex -3.750000 -27.400000 -6.495191
      vertex -0.783963 -27.400000 -7.458914
      vertex -1.500000 -24.500000 -7.226260
    endloop
  endfacet
  facet normal 0.309017 0.000000 0.951057
    outer loop
      vertex -0.783963 -9.500000 -7.458914
      vertex -0.783963 -0.500000 -7.458914
      vertex -1.500000 -9.500000 -7.226260
    endloop
  endfacet
  facet normal 0.309017 -0.000000 0.951057
    outer loop
      vertex -0.783963 -0.500000 -7.458914
      vertex -1.500000 -0.500000 -7.226260
      vertex -1.500000 -9.500000 -7.226260
    endloop
  endfacet
  facet normal 0.309017 -0.000000 0.951057
    outer loop
      vertex -1.500000 14.500000 -7.226260
      vertex -3.750000 27.400000 -6.495191
      vertex -1.500000 -0.500000 -7.226260
    endloop
  endfacet
  facet normal 0.309017 -0.000000 0.951057
    outer loop
      vertex -0.783963 14.500000 -7.458914
      vertex -0.783963 27.400000 -7.458914
      vertex -1.500000 14.500000 -7.226260
    endloop
  endfacet
  facet normal 0.309017 -0.000000 0.951057
    outer loop
      vertex -0.783963 27.400000 -7.458914
      vertex -3.750000 27.400000 -6.495191
      vertex -1.500000 14.500000 -7.226260
    endloop
  endfacet
  facet normal 0.309017 -0.000000 0.951057
    outer loop
      vertex -3.750000 27.400000 -6.495191
      vertex -3.750000 -27.400000 -6.495191
      vertex -1.500000 -24.500000 -7.226260
    endloop
  endfacet
  facet normal -0.104528 -0.000000 0.994522
    outer loop
      vertex 1.500000 14.500000 -7.218860
      vertex 2.317627 27.400000 -7.132924
      vertex -0.783963 27.400000 -7.458914
    endloop
  endfacet
  facet normal -0.104528 -0.000000 0.994522
    outer loop
      vertex 2.317627 -27.400000 -7.132924
      vertex 2.317627 27.400000 -7.132924
      vertex 1.500000 14.500000 -7.218860
    endloop
  endfacet
  facet normal -0.104528 -0.000000 0.994522
    outer loop
      vertex 2.317627 -27.400000 -7.132924
      vertex 1.500000 14.500000 -7.218860
      vertex 1.500000 -0.500000 -7.218860
    endloop
  endfacet
  facet normal -0.104528 -0.000000 0.994522
    outer loop
      vertex 1.500000 -9.500000 -7.218860
      vertex 1.500000 -24.500000 -7.218860
      vertex 2.317627 -27.400000 -7.132924
    endloop
  endfacet
  facet normal -0.104528 0.000000 0.994522
    outer loop
      vertex 1.500000 -0.500000 -7.218860
      vertex -0.783963 -0.500000 -7.458914
      vertex 1.500000 -9.500000 -7.218860
    endloop
  endfacet
  facet normal -0.104528 0.000000 0.994522
    outer loop
      vertex 2.317627 -27.400000 -7.132924
      vertex 1.500000 -0.500000 -7.218860
      vertex 1.500000 -9.500000 -7.218860
    endloop
  endfacet
  facet normal -0.104528 -0.000000 0.994522
    outer loop
      vertex -0.783963 -24.500000 -7.458914
      vertex 2.317627 -27.400000 -7.132924
      vertex 1.500000 -24.500000 -7.218860
    endloop
  endfacet
  facet normal -0.104528 0.000000 0.994522
    outer loop
      vertex -0.783963 -27.400000 -7.458914
      vertex 2.317627 -27.400000 -7.132924
      vertex -0.783963 -24.500000 -7.458914
    endloop
  endfacet
  facet normal -0.104528 0.000000 0.994522
    outer loop
      vertex -0.783963 -9.500000 -7.458914
      vertex 1.500000 -9.500000 -7.218860
      vertex -0.783963 -0.500000 -7.458914
    endloop
  endfacet
  facet normal -0.104528 -0.000000 0.994522
    outer loop
      vertex -0.783963 14.500000 -7.458914
      vertex 1.500000 14.500000 -7.218860
      vertex -0.783963 27.400000 -7.458914
    endloop
  endfacet
  facet normal -0.809017 0.000000 -0.587785
    outer loop
      vertex 6.851591 27.400000 3.050525
      vertex 6.851591 22.500000 3.050525
      vertex 5.435215 27.400000 5.000000
    endloop
  endfacet
  facet normal -0.809017 0.000000 -0.587785
    outer loop
      vertex 5.435215 27.400000 5.000000
      vertex 6.851591 22.500000 3.050525
      vertex 5.435215 22.500000 5.000000
    endloop
  endfacet
  facet normal -0.978148 0.000000 -0.207912
    outer loop
      vertex 7.500000 27.400000 0.000000
      vertex 7.500000 22.500000 0.000000
      vertex 6.851591 27.400000 3.050525
    endloop
  endfacet
  facet normal -0.978148 0.000000 -0.207912
    outer loop
      vertex 6.851591 27.400000 3.050525
      vertex 7.500000 22.500000 0.000000
      vertex 6.851591 22.500000 3.050525
    endloop
  endfacet
  facet normal -0.000000 -0.000000 0.000000
    outer loop
      vertex 7.500000 0.000000 0.000000
      vertex 7.500000 22.500000 0.000000
      vertex 7.500000 -27.400000 -0.000000
    endloop
  endfacet
  facet normal -0.978148 0.000000 0.207912
    outer loop
      vertex 6.851591 27.400000 -3.050525
      vertex 7.500000 22.500000 0.000000
      vertex 7.500000 27.400000 0.000000
    endloop
  endfacet
  facet normal -0.978148 -0.000000 0.207912
    outer loop
      vertex 7.500000 -27.400000 -0.000000
      vertex 7.500000 22.500000 0.000000
      vertex 6.851591 27.400000 -3.050525
    endloop
  endfacet
  facet normal -0.978148 -0.000000 0.207912
    outer loop
      vertex 7.500000 -27.400000 -0.000000
      vertex 6.851591 27.400000 -3.050525
      vertex 6.851591 -27.400000 -3.050525
    endloop
  endfacet
  facet normal -0.809017 -0.000000 0.587785
    outer loop
      vertex 6.851591 27.400000 -3.050525
      vertex 5.018480 27.400000 -5.573586
      vertex 6.851591 -27.400000 -3.050525
    endloop
  endfacet
  facet normal -0.809017 -0.000000 0.587785
    outer loop
      vertex 6.851591 -27.400000 -3.050525
      vertex 5.018480 27.400000 -5.573586
      vertex 5.018480 -27.400000 -5.573586
    endloop
  endfacet
  facet normal -0.500000 -0.000000 0.866025
    outer loop
      vertex 5.018480 -27.400000 -5.573586
      vertex 5.018480 27.400000 -5.573586
      vertex 2.317627 27.400000 -7.132924
    endloop
  endfacet
  facet normal -0.500000 -0.000000 0.866025
    outer loop
      vertex 2.317627 -27.400000 -7.132924
      vertex 5.018480 -27.400000 -5.573586
      vertex 2.317627 27.400000 -7.132924
    endloop
  endfacet
  facet normal 0.669131 -0.000000 0.743145
    outer loop
      vertex -3.750000 -27.400000 -6.495191
      vertex -3.750000 27.400000 -6.495191
      vertex -6.067627 27.400000 -4.408389
    endloop
  endfacet
  facet normal 0.669131 -0.000000 0.743145
    outer loop
      vertex -6.067627 -27.400000 -4.408389
      vertex -3.750000 -27.400000 -6.495191
      vertex -6.067627 27.400000 -4.408389
    endloop
  endfacet
  facet normal 0.913545 -0.000000 0.406737
    outer loop
      vertex -6.067627 -27.400000 -4.408389
      vertex -6.067627 27.400000 -4.408389
      vertex -7.336107 27.400000 -1.559338
    endloop
  endfacet
  facet normal 0.913545 -0.000000 0.406737
    outer loop
      vertex -7.336107 -27.400000 -1.559338
      vertex -6.067627 -27.400000 -4.408389
      vertex -7.336107 27.400000 -1.559338
    endloop
  endfacet
  facet normal -0.000000 0.000000 -0.000000
    outer loop
      vertex 7.500000 -22.500000 0.000000
      vertex 7.500000 0.000000 0.000000
      vertex 7.500000 -27.400000 -0.000000
    endloop
  endfacet
  facet normal -0.978148 -0.000000 -0.207912
    outer loop
      vertex 7.500000 -22.500000 0.000000
      vertex 7.500000 -27.400000 -0.000000
      vertex 6.851591 -22.500000 3.050525
    endloop
  endfacet
  facet normal -0.978148 0.000000 -0.207912
    outer loop
      vertex 7.500000 -27.400000 -0.000000
      vertex 6.851591 -27.400000 3.050525
      vertex 6.851591 -22.500000 3.050525
    endloop
  endfacet
endsolid OpenSCAD_Model
