  0
SECTION
  2
HEADER
  9
$ACADVER
  1
AC1015
  9
$ACADMAINTVER
 70
     6
  9
$DWGCODEPAGE
  3
ANSI_1252
  9
$INSBASE
 10
0.0
 20
0.0
 30
0.0
  9
$EXTMIN
 10
0.0
 20
0.0
 30
0.0
  9
$EXTMAX
 10
420.0
 20
297.0
 30
0.0
  9
$LIMMIN
 10
0.0
 20
0.0
  9
$LIMMAX
 10
420.0
 20
297.0
  9
$ORTHOMODE
 70
     0
  9
$REGENMODE
 70
     1
  9
$FILLMODE
 70
     1
  9
$QTEXTMODE
 70
     0
  9
$MIRRTEXT
 70
     1
  9
$LTSCALE
 40
1.0
  9
$ATTMODE
 70
     1
  9
$TEXTSIZE
 40
2.5
  9
$TRACEWID
 40
1.0
  9
$TEXTSTYLE
  7
Standard
  9
$CLAYER
  8
0
  9
$CELTYPE
  6
ByLayer
  9
$CECOLOR
 62
   256
  9
$CELTSCALE
 40
1.0
  9
$DISPSILH
 70
     0
  9
$DIMSCALE
 40
1.0
  9
$DIMASZ
 40
2.5
  9
$DIMEXO
 40
0.625
  9
$DIMDLI
 40
3.75
  9
$DIMRND
 40
0.0
  9
$DIMDLE
 40
0.0
  9
$DIMEXE
 40
1.25
  9
$DIMTP
 40
0.0
  9
$DIMTM
 40
0.0
  9
$DIMTXT
 40
2.5
  9
$DIMCEN
 40
2.5
  9
$DIMTSZ
 40
0.0
  9
$DIMTOL
 70
     0
  9
$DIMLIM
 70
     0
  9
$DIMTIH
 70
     0
  9
$DIMTOH
 70
     0
  9
$DIMSE1
 70
     0
  9
$DIMSE2
 70
     0
  9
$DIMTAD
 70
     1
  9
$DIMZIN
 70
     8
  9
$DIMBLK
  1

  9
$DIMASO
 70
     1
  9
$DIMSHO
 70
     1
  9
$DIMPOST
  1

  9
$DIMAPOST
  1

  9
$DIMALT
 70
     0
  9
$DIMALTD
 70
     3
  9
$DIMALTF
 40
0.0393700787
  9
$DIMLFAC
 40
1.0
  9
$DIMTOFL
 70
     1
  9
$DIMTVP
 40
0.0
  9
$DIMTIX
 70
     0
  9
$DIMSOXD
 70
     0
  9
$DIMSAH
 70
     0
  9
$DIMBLK1
  1

  9
$DIMBLK2
  1

  9
$DIMSTYLE
  2
ISO-25
  9
$DIMCLRD
 70
     0
  9
$DIMCLRE
 70
     0
  9
$DIMCLRT
 70
     0
  9
$DIMTFAC
 40
1.0
  9
$DIMGAP
 40
0.625
  9
$DIMJUST
 70
     0
  9
$DIMSD1
 70
     0
  9
$DIMSD2
 70
     0
  9
$DIMTOLJ
 70
     0
  9
$DIMTZIN
 70
     8
  9
$DIMALTZ
 70
     0
  9
$DIMALTTZ
 70
     0
  9
$DIMUPT
 70
     0
  9
$DIMDEC
 70
     2
  9
$DIMTDEC
 70
     2
  9
$DIMALTU
 70
     2
  9
$DIMALTTD
 70
     3
  9
$DIMTXSTY
  7
Standard
  9
$DIMAUNIT
 70
     0
  9
$DIMADEC
 70
     0
  9
$DIMALTRND
 40
0.0
  9
$DIMAZIN
 70
     0
  9
$DIMDSEP
 70
    44
  9
$DIMATFIT
 70
     3
  9
$DIMFRAC
 70
     0
  9
$DIMLDRBLK
  1

  9
$DIMLUNIT
 70
     2
  9
$DIMLWD
 70
    -2
  9
$DIMLWE
 70
    -2
  9
$DIMTMOVE
 70
     0
  9
$LUNITS
 70
     2
  9
$LUPREC
 70
     4
  9
$SKETCHINC
 40
1.0
  9
$FILLETRAD
 40
10.0
  9
$AUNITS
 70
     0
  9
$AUPREC
 70
     0
  9
$MENU
  1
.
  9
$ELEVATION
 40
0.0
  9
$PELEVATION
 40
0.0
  9
$THICKNESS
 40
0.0
  9
$LIMCHECK
 70
     0
  9
$CHAMFERA
 40
10.0
  9
$CHAMFERB
 40
10.0
  9
$CHAMFERC
 40
20.0
  9
$CHAMFERD
 40
0.0
  9
$SKPOLY
 70
     0
  9
$TDCREATE
 40
2455120.834599236
  9
$TDUCREATE
 40
2455120.79293257
  9
$TDUPDATE
 40
2455120.834599248
  9
$TDUUPDATE
 40
2455120.792932581
  9
$TDINDWG
 40
0.0000000116
  9
$TDUSRTIMER
 40
0.0000000116
  9
$USRTIMER
 70
     1
  9
$ANGBASE
 50
0.0
  9
$ANGDIR
 70
     0
  9
$PDMODE
 70
     0
  9
$PDSIZE
 40
0.0
  9
$PLINEWID
 40
0.0
  9
$SPLFRAME
 70
     0
  9
$SPLINETYPE
 70
     6
  9
$SPLINESEGS
 70
     8
  9
$HANDSEED
  5
94
  9
$SURFTAB1
 70
     6
  9
$SURFTAB2
 70
     6
  9
$SURFTYPE
 70
     6
  9
$SURFU
 70
     6
  9
$SURFV
 70
     6
  9
$UCSBASE
  2

  9
$UCSNAME
  2

  9
$UCSORG
 10
0.0
 20
0.0
 30
0.0
  9
$UCSXDIR
 10
1.0
 20
0.0
 30
0.0
  9
$UCSYDIR
 10
0.0
 20
1.0
 30
0.0
  9
$UCSORTHOREF
  2

  9
$UCSORTHOVIEW
 70
     0
  9
$UCSORGTOP
 10
0.0
 20
0.0
 30
0.0
  9
$UCSORGBOTTOM
 10
0.0
 20
0.0
 30
0.0
  9
$UCSORGLEFT
 10
0.0
 20
0.0
 30
0.0
  9
$UCSORGRIGHT
 10
0.0
 20
0.0
 30
0.0
  9
$UCSORGFRONT
 10
0.0
 20
0.0
 30
0.0
  9
$UCSORGBACK
 10
0.0
 20
0.0
 30
0.0
  9
$PUCSBASE
  2

  9
$PUCSNAME
  2

  9
$PUCSORG
 10
0.0
 20
0.0
 30
0.0
  9
$PUCSXDIR
 10
1.0
 20
0.0
 30
0.0
  9
$PUCSYDIR
 10
0.0
 20
1.0
 30
0.0
  9
$PUCSORTHOREF
  2

  9
$PUCSORTHOVIEW
 70
     0
  9
$PUCSORGTOP
 10
0.0
 20
0.0
 30
0.0
  9
$PUCSORGBOTTOM
 10
0.0
 20
0.0
 30
0.0
  9
$PUCSORGLEFT
 10
0.0
 20
0.0
 30
0.0
  9
$PUCSORGRIGHT
 10
0.0
 20
0.0
 30
0.0
  9
$PUCSORGFRONT
 10
0.0
 20
0.0
 30
0.0
  9
$PUCSORGBACK
 10
0.0
 20
0.0
 30
0.0
  9
$USERI1
 70
     0
  9
$USERI2
 70
     0
  9
$USERI3
 70
     0
  9
$USERI4
 70
     0
  9
$USERI5
 70
     0
  9
$USERR1
 40
0.0
  9
$USERR2
 40
0.0
  9
$USERR3
 40
0.0
  9
$USERR4
 40
0.0
  9
$USERR5
 40
0.0
  9
$WORLDVIEW
 70
     1
  9
$SHADEDGE
 70
     3
  9
$SHADEDIF
 70
    70
  9
$TILEMODE
 70
     1
  9
$MAXACTVP
 70
    64
  9
$PINSBASE
 10
0.0
 20
0.0
 30
0.0
  9
$PLIMCHECK
 70
     0
  9
$PEXTMIN
 10
0.0
 20
0.0
 30
0.0
  9
$PEXTMAX
 10
420.0
 20
297.0
 30
0.0
  9
$PLIMMIN
 10
0.0
 20
0.0
  9
$PLIMMAX
 10
420.0
 20
297.0
  9
$UNITMODE
 70
     0
  9
$VISRETAIN
 70
     1
  9
$PLINEGEN
 70
     0
  9
$PSLTSCALE
 70
     1
  9
$TREEDEPTH
 70
  3020
  9
$CMLSTYLE
  2
Standard
  9
$CMLJUST
 70
     0
  9
$CMLSCALE
 40
20.0
  9
$PROXYGRAPHICS
 70
     1
  9
$MEASUREMENT
 70
     1
  9
$CELWEIGHT
370
    -1
  9
$ENDCAPS
280
     0
  9
$JOINSTYLE
280
     0
  9
$LWDISPLAY
290
     0
  9
$INSUNITS
 70
     4
  9
$HYPERLINKBASE
  1

  9
$STYLESHEET
  1

  9
$XEDIT
290
     1
  9
$CEPSNTYPE
380
     0
  9
$PSTYLEMODE
290
     1
  9
$FINGERPRINTGUID
  2
{CD3E1385-49D3-461C-8657-195CF997170F}
  9
$VERSIONGUID
  2
{FAEB1C32-E019-11D5-929B-00C0DF256EC4}
  9
$EXTNAMES
290
     1
  9
$PSVPSCALE
 40
0.0
  9
$OLESTARTUP
290
     0
  0
ENDSEC
  0
SECTION
  2
CLASSES
  0
CLASS
  1
ACDBDICTIONARYWDFLT
  2
AcDbDictionaryWithDefault
  3
ObjectDBX Classes
 90
        0
280
     0
281
     0
  0
CLASS
  1
ACDBPLACEHOLDER
  2
AcDbPlaceHolder
  3
ObjectDBX Classes
 90
        0
280
     0
281
     0
  0
CLASS
  1
LAYOUT
  2
AcDbLayout
  3
ObjectDBX Classes
 90
        0
280
     0
281
     0
  0
ENDSEC
  0
SECTION
  2
TABLES
  0
TABLE
  2
VPORT
  5
8
330
0
100
AcDbSymbolTable
 70
     1
  0
VPORT
  5
29
330
8
100
AcDbSymbolTableRecord
100
AcDbViewportTableRecord
  2
*Active
 70
     0
 10
0.0
 20
0.0
 11
1.0
 21
1.0
 12
344.1869158879
 22
148.5
 13
0.0
 23
0.0
 14
10.0
 24
10.0
 15
10.0
 25
10.0
 16
0.0
 26
0.0
 36
1.0
 17
0.0
 27
0.0
 37
0.0
 40
297.0
 41
1.9729729729
 42
50.0
 43
0.0
 44
0.0
 50
0.0
 51
0.0
 71
     0
 72
   100
 73
     1
 74
     3
 75
     0
 76
     0
 77
     0
 78
     0
281
     0
 65
     1
110
0.0
120
0.0
130
0.0
111
1.0
121
0.0
131
0.0
112
0.0
122
1.0
132
0.0
 79
     0
146
0.0
  0
ENDTAB
  0
TABLE
  2
LTYPE
  5
5
330
0
100
AcDbSymbolTable
 70
     1
  0
LTYPE
  5
14
330
5
100
AcDbSymbolTableRecord
100
AcDbLinetypeTableRecord
  2
ByBlock
 70
     0
  3

 72
    65
 73
     0
 40
0.0
  0
LTYPE
  5
15
330
5
100
AcDbSymbolTableRecord
100
AcDbLinetypeTableRecord
  2
ByLayer
 70
     0
  3

 72
    65
 73
     0
 40
0.0
  0
LTYPE
  5
16
330
5
100
AcDbSymbolTableRecord
100
AcDbLinetypeTableRecord
  2
Continuous
 70
     0
  3
Solid line
 72
    65
 73
     0
 40
0.0
  0
ENDTAB
  0
TABLE
  2
LAYER
  5
2
330
0
100
AcDbSymbolTable
 70
     3
  0
LAYER
  5
10
330
2
100
AcDbSymbolTableRecord
100
AcDbLayerTableRecord
  2
0
 70
     0
 62
     7
  6
Continuous
370
    -3
390
F
  0
LAYER
  5
2A
330
2
100
AcDbSymbolTableRecord
100
AcDbLayerTableRecord
  2
Default
 70
     0
 62
     7
  6
Continuous
370
    -3
390
F
  0
LAYER
  5
2D
330
2
100
AcDbSymbolTableRecord
100
AcDbLayerTableRecord
  2
BASE-SHEET-TOP
 70
     0
 62
     7
  6
Continuous
370
    -3
390
F
  0
ENDTAB
  0
TABLE
  2
STYLE
  5
3
330
0
100
AcDbSymbolTable
 70
     1
  0
STYLE
  5
11
330
3
100
AcDbSymbolTableRecord
100
AcDbTextStyleTableRecord
  2
Standard
 70
     0
 40
0.0
 41
1.0
 50
0.0
 71
     0
 42
2.5
  3
txt
  4

  0
ENDTAB
  0
TABLE
  2
VIEW
  5
6
330
0
100
AcDbSymbolTable
 70
     0
  0
ENDTAB
  0
TABLE
  2
UCS
  5
7
330
0
100
AcDbSymbolTable
 70
     0
  0
ENDTAB
  0
TABLE
  2
APPID
  5
9
330
0
100
AcDbSymbolTable
 70
     1
  0
APPID
  5
12
330
9
100
AcDbSymbolTableRecord
100
AcDbRegAppTableRecord
  2
ACAD
 70
     0
  0
ENDTAB
  0
TABLE
  2
DIMSTYLE
  5
A
330
0
100
AcDbSymbolTable
 70
     1
100
AcDbDimStyleTable
  0
DIMSTYLE
105
27
330
A
100
AcDbSymbolTableRecord
100
AcDbDimStyleTableRecord
  2
ISO-25
 70
     0
 41
2.5
 42
0.625
 43
3.75
 44
1.25
 73
     0
 74
     0
 77
     1
 78
     8
140
2.5
141
2.5
143
0.0393700787
147
0.625
171
     3
172
     1
271
     2
272
     2
274
     3
278
    44
283
     0
284
     8
340
11
  0
ENDTAB
  0
TABLE
  2
BLOCK_RECORD
  5
1
330
0
100
AcDbSymbolTable
 70
     2
  0
BLOCK_RECORD
  5
1F
330
1
100
AcDbSymbolTableRecord
100
AcDbBlockTableRecord
  2
*Model_Space
340
22
  0
BLOCK_RECORD
  5
1B
330
1
100
AcDbSymbolTableRecord
100
AcDbBlockTableRecord
  2
*Paper_Space
340
1E
  0
BLOCK_RECORD
  5
2B
330
1
100
AcDbSymbolTableRecord
100
AcDbBlockTableRecord
  2
SE
340
0
102
{BLKREFS
331
2C
102
}
1001
ACAD
1000
DesignCenter Data
1002
{
1070
     1
1070
     0
1002
}
  0
ENDTAB
  0
ENDSEC
  0
SECTION
  2
BLOCKS
  0
BLOCK
  5
20
330
1F
100
AcDbEntity
  8
0
100
AcDbBlockBegin
  2
*Model_Space
 70
     0
 71
     0
 10
0.0
 20
0.0
 30
0.0
  3
*Model_Space
  1

  0
ENDBLK
  5
21
330
1F
100
AcDbEntity
  8
0
100
AcDbBlockEnd
  0
BLOCK
  5
1C
330
1B
100
AcDbEntity
 67
     1
  8
0
100
AcDbBlockBegin
  2
*Paper_Space
 70
     0
 71
     0
 10
0.0
 20
0.0
 30
0.0
  3
*Paper_Space
  1

  0
ENDBLK
  5
1D
330
1B
100
AcDbEntity
 67
     1
  8
0
100
AcDbBlockEnd
  0
BLOCK
  5
92
330
2B
100
AcDbEntity
  8
0
100
AcDbBlockBegin
  2
SE
 70
     0
 71
     0
 10
0.0
 20
0.0
 30
0.0
  3
SE
  1

  0
CIRCLE
  5
2E
330
2B
100
AcDbEntity
  8
BASE-SHEET-TOP
  6
Continuous
 62
     7
100
AcDbCircle
 10
294.1114484827
 20
81.0198316476
 30
0.0
 40
1.7
  0
CIRCLE
  5
2F
330
2B
100
AcDbEntity
  8
BASE-SHEET-TOP
  6
Continuous
 62
     7
100
AcDbCircle
 10
130.1114484827
 20
239.0198316476
 30
0.0
 40
1.7
  0
CIRCLE
  5
30
330
2B
100
AcDbEntity
  8
BASE-SHEET-TOP
  6
Continuous
 62
     7
100
AcDbCircle
 10
322.0454815554
 20
80.9872059321
 30
0.0
 40
1.7
  0
ARC
  5
31
330
2B
100
AcDbEntity
  8
BASE-SHEET-TOP
  6
Continuous
 62
     7
100
AcDbCircle
 10
332.0571496269
 20
100.1187636947
 30
0.0
 40
4.199999999999999
100
AcDbArc
 50
57.0621006033
 51
237.0621006033
  0
LINE
  5
32
330
2B
100
AcDbEntity
  8
BASE-SHEET-TOP
  6
Continuous
 62
     7
100
AcDbLine
 10
334.3408144249
 20
103.643657323
 30
0.0
 11
338.5371163633
 21
100.9250087539
 31
0.0
  0
ARC
  5
33
330
2B
100
AcDbEntity
  8
BASE-SHEET-TOP
  6
Continuous
 62
     7
100
AcDbCircle
 10
336.2534515653
 20
97.4001151257
 30
0.0
 40
4.20000000000001
100
AcDbArc
 50
237.0621006033
 51
57.0621006033
  0
LINE
  5
34
330
2B
100
AcDbEntity
  8
BASE-SHEET-TOP
  6
Continuous
 62
     7
100
AcDbLine
 10
333.9697867673
 20
93.8752214975
 30
0.0
 11
329.7734848289
 21
96.5938700665
 31
0.0
  0
ARC
  5
35
330
2B
100
AcDbEntity
  8
BASE-SHEET-TOP
  6
Continuous
 62
     7
100
AcDbCircle
 10
358.0742216449
 20
83.2631425667
 30
0.0
 40
4.199999999999984
100
AcDbArc
 50
57.0621006033
 51
237.0621006033
  0
LINE
  5
36
330
2B
100
AcDbEntity
  8
BASE-SHEET-TOP
  6
Continuous
 62
     7
100
AcDbLine
 10
360.3578864428
 20
86.7880361949
 30
0.0
 11
364.5541883812
 21
84.0693876259
 31
0.0
  0
ARC
  5
37
330
2B
100
AcDbEntity
  8
BASE-SHEET-TOP
  6
Continuous
 62
     7
100
AcDbCircle
 10
362.2705235832
 20
80.5444939976
 30
0.0
 40
4.199999999999987
100
AcDbArc
 50
237.0621006033
 51
57.0621006033
  0
LINE
  5
38
330
2B
100
AcDbEntity
  8
BASE-SHEET-TOP
  6
Continuous
 62
     7
100
AcDbLine
 10
359.9868587852
 20
77.0196003694
 30
0.0
 11
355.7905568469
 21
79.7382489384
 31
0.0
  0
ARC
  5
39
330
2B
100
AcDbEntity
  8
BASE-SHEET-TOP
  6
Continuous
 62
     7
100
AcDbCircle
 10
341.2186005168
 20
57.2460705487
 30
0.0
 40
4.199999999999984
100
AcDbArc
 50
57.0621006033
 51
237.0621006033
  0
LINE
  5
3A
330
2B
100
AcDbEntity
  8
BASE-SHEET-TOP
  6
Continuous
 62
     7
100
AcDbLine
 10
343.5022653148
 20
60.770964177
 30
0.0
 11
347.6985672532
 21
58.0523156079
 31
0.0
  0
ARC
  5
3B
330
2B
100
AcDbEntity
  8
BASE-SHEET-TOP
  6
Continuous
 62
     7
100
AcDbCircle
 10
345.4149024552
 20
54.5274219797
 30
0.0
 40
4.199999999999996
100
AcDbArc
 50
237.0621006033
 51
57.0621006033
  0
LINE
  5
3C
330
2B
100
AcDbEntity
  8
BASE-SHEET-TOP
  6
Continuous
 62
     7
100
AcDbLine
 10
343.1312376572
 20
51.0025283514
 30
0.0
 11
338.9349357188
 21
53.7211769205
 31
0.0
  0
ARC
  5
3D
330
2B
100
AcDbEntity
  8
BASE-SHEET-TOP
  6
Continuous
 62
     7
100
AcDbCircle
 10
319.3978304372
 20
71.3830431077
 30
0.0
 40
4.199999999999999
100
AcDbArc
 50
237.0621006033
 51
57.0621006033
  0
LINE
  5
3E
330
2B
100
AcDbEntity
  8
BASE-SHEET-TOP
  6
Continuous
 62
     7
100
AcDbLine
 10
317.1141656392
 20
67.8581494795
 30
0.0
 11
312.9178637009
 21
70.5767980485
 31
0.0
  0
ARC
  5
3F
330
2B
100
AcDbEntity
  8
BASE-SHEET-TOP
  6
Continuous
 62
     7
100
AcDbCircle
 10
315.2015284988
 20
74.1016916768
 30
0.0
 40
4.20000000000001
100
AcDbArc
 50
57.0621006033
 51
237.0621006033
  0
LINE
  5
40
330
2B
100
AcDbEntity
  8
BASE-SHEET-TOP
  6
Continuous
 62
     7
100
AcDbLine
 10
317.4851932968
 20
77.626585305
 30
0.0
 11
321.6814952352
 21
74.907936736
 31
0.0
  0
CIRCLE
  5
41
330
2B
100
AcDbEntity
  8
BASE-SHEET-TOP
  6
Continuous
 62
     7
100
AcDbCircle
 10
338.7360260579
 20
77.3230928633
 30
0.0
 40
5.500000000000005
  0
CIRCLE
  5
42
330
2B
100
AcDbEntity
  8
BASE-SHEET-TOP
  6
Continuous
 62
     7
100
AcDbCircle
 10
347.1286299178
 20
71.8857956991
 30
0.0
 40
1.7
  0
CIRCLE
  5
43
330
2B
100
AcDbEntity
  8
BASE-SHEET-TOP
  6
Continuous
 62
     7
100
AcDbCircle
 10
328.5702381211
 20
91.0583305842
 30
0.0
 40
1.7
  0
CIRCLE
  5
44
330
2B
100
AcDbEntity
  8
BASE-SHEET-TOP
  6
Continuous
 62
     7
100
AcDbCircle
 10
57.7627741863
 20
91.0198337717
 30
0.0
 40
1.7
  0
CIRCLE
  5
45
330
2B
100
AcDbEntity
  8
BASE-SHEET-TOP
  6
Continuous
 62
     7
100
AcDbCircle
 10
57.7627741863
 20
239.0198295235
 30
0.0
 40
1.7
  0
CIRCLE
  5
46
330
2B
100
AcDbEntity
  8
BASE-SHEET-TOP
  6
Continuous
 62
     7
100
AcDbCircle
 10
57.7627741863
 20
249.0198295235
 30
0.0
 40
1.7
  0
CIRCLE
  5
47
330
2B
100
AcDbEntity
  8
BASE-SHEET-TOP
  6
Continuous
 62
     7
100
AcDbCircle
 10
140.1114484827
 20
239.0198316476
 30
0.0
 40
1.7
  0
CIRCLE
  5
48
330
2B
100
AcDbEntity
  8
BASE-SHEET-TOP
  6
Continuous
 62
     7
100
AcDbCircle
 10
140.1114484827
 20
249.0198316476
 30
0.0
 40
1.7
  0
CIRCLE
  5
49
330
2B
100
AcDbEntity
  8
BASE-SHEET-TOP
  6
Continuous
 62
     7
100
AcDbCircle
 10
130.1114484827
 20
249.0198295235
 30
0.0
 40
1.7
  0
CIRCLE
  5
4A
330
2B
100
AcDbEntity
  8
BASE-SHEET-TOP
  6
Continuous
 62
     7
100
AcDbCircle
 10
130.1114484827
 20
81.0198337717
 30
0.0
 40
1.7
  0
CIRCLE
  5
4B
330
2B
100
AcDbEntity
  8
BASE-SHEET-TOP
  6
Continuous
 62
     7
100
AcDbCircle
 10
140.1114484827
 20
81.0198337717
 30
0.0
 40
1.7
  0
CIRCLE
  5
4C
330
2B
100
AcDbEntity
  8
BASE-SHEET-TOP
  6
Continuous
 62
     7
100
AcDbCircle
 10
140.1114484827
 20
91.0198337717
 30
0.0
 40
1.7
  0
CIRCLE
  5
4D
330
2B
100
AcDbEntity
  8
BASE-SHEET-TOP
  6
Continuous
 62
     7
100
AcDbCircle
 10
130.1114484827
 20
91.0198337717
 30
0.0
 40
1.7
  0
CIRCLE
  5
4E
330
2B
100
AcDbEntity
  8
BASE-SHEET-TOP
  6
Continuous
 62
     7
100
AcDbCircle
 10
284.1114484827
 20
81.0198316476
 30
0.0
 40
1.7
  0
CIRCLE
  5
4F
330
2B
100
AcDbEntity
  8
BASE-SHEET-TOP
  6
Continuous
 62
     7
100
AcDbCircle
 10
294.1114484827
 20
91.0198316476
 30
0.0
 40
1.7
  0
CIRCLE
  5
50
330
2B
100
AcDbEntity
  8
BASE-SHEET-TOP
  6
Continuous
 62
     7
100
AcDbCircle
 10
284.1114484827
 20
91.0198316476
 30
0.0
 40
1.7
  0
CIRCLE
  5
51
330
2B
100
AcDbEntity
  8
BASE-SHEET-TOP
  6
Continuous
 62
     7
100
AcDbCircle
 10
284.1114484827
 20
239.0198295235
 30
0.0
 40
1.7
  0
CIRCLE
  5
52
330
2B
100
AcDbEntity
  8
BASE-SHEET-TOP
  6
Continuous
 62
     7
100
AcDbCircle
 10
294.1114484827
 20
239.0198295235
 30
0.0
 40
1.7
  0
CIRCLE
  5
53
330
2B
100
AcDbEntity
  8
BASE-SHEET-TOP
  6
Continuous
 62
     7
100
AcDbCircle
 10
294.1114484827
 20
249.0198295235
 30
0.0
 40
1.7
  0
CIRCLE
  5
54
330
2B
100
AcDbEntity
  8
BASE-SHEET-TOP
  6
Continuous
 62
     7
100
AcDbCircle
 10
284.1114484827
 20
249.0198295235
 30
0.0
 40
1.7
  0
CIRCLE
  5
55
330
2B
100
AcDbEntity
  8
BASE-SHEET-TOP
  6
Continuous
 62
     7
100
AcDbCircle
 10
366.460122779
 20
239.0198295235
 30
0.0
 40
1.7
  0
CIRCLE
  5
56
330
2B
100
AcDbEntity
  8
BASE-SHEET-TOP
  6
Continuous
 62
     7
100
AcDbCircle
 10
366.460122779
 20
249.0198295235
 30
0.0
 40
1.7
  0
CIRCLE
  5
57
330
2B
100
AcDbEntity
  8
BASE-SHEET-TOP
  6
Continuous
 62
     7
100
AcDbCircle
 10
57.7627741863
 20
81.0198337717
 30
0.0
 40
1.7
  0
CIRCLE
  5
58
330
2B
100
AcDbEntity
  8
BASE-SHEET-TOP
  6
Continuous
 62
     7
100
AcDbCircle
 10
305.1114484827
 20
234.0198316476
 30
0.0
 40
3.2
  0
CIRCLE
  5
59
330
2B
100
AcDbEntity
  8
BASE-SHEET-TOP
  6
Continuous
 62
     7
100
AcDbCircle
 10
119.1114484827
 20
96.0198316476
 30
0.0
 40
3.2
  0
CIRCLE
  5
5A
330
2B
100
AcDbEntity
  8
BASE-SHEET-TOP
  6
Continuous
 62
     7
100
AcDbCircle
 10
305.1114484827
 20
96.0198316476
 30
0.0
 40
3.2
  0
CIRCLE
  5
5B
330
2B
100
AcDbEntity
  8
BASE-SHEET-TOP
  6
Continuous
 62
     7
100
AcDbCircle
 10
119.1114484827
 20
234.0198316476
 30
0.0
 40
3.2
  0
ARC
  5
5C
330
2B
100
AcDbEntity
  8
BASE-SHEET-TOP
  6
Continuous
 62
     7
100
AcDbCircle
 10
293.2614484827
 20
227.7198316476
 30
0.0
 40
5.000000000000004
100
AcDbArc
 50
19.2687754915
 51
90.0
  0
CIRCLE
  5
5D
330
2B
100
AcDbEntity
  8
BASE-SHEET-TOP
  6
Continuous
 62
     7
100
AcDbCircle
 10
355.460122779
 20
251.0198316476
 30
0.0
 40
3.2
  0
CIRCLE
  5
5E
330
2B
100
AcDbEntity
  8
BASE-SHEET-TOP
  6
Continuous
 62
     7
100
AcDbCircle
 10
68.7627741863
 20
251.0198316476
 30
0.0
 40
3.2
  0
CIRCLE
  5
5F
330
2B
100
AcDbEntity
  8
BASE-SHEET-TOP
  6
Continuous
 62
     7
100
AcDbCircle
 10
68.7627741863
 20
79.0198316476
 30
0.0
 40
3.2
  0
CIRCLE
  5
60
330
2B
100
AcDbEntity
  8
BASE-SHEET-TOP
  6
Continuous
 62
     7
100
AcDbCircle
 10
335.9907166719
 20
35.0152534434
 30
0.0
 40
3.2
  0
ARC
  5
61
330
2B
100
AcDbEntity
  8
BASE-SHEET-TOP
  6
Continuous
 62
     7
100
AcDbCircle
 10
362.2705235832
 20
80.5444939976
 30
0.0
 40
12.98419476398801
100
AcDbArc
 50
315.0523635837
 51
37.9074815654
  0
ARC
  5
62
330
2B
100
AcDbEntity
  8
BASE-SHEET-TOP
  6
Continuous
 62
     7
100
AcDbCircle
 10
376.460122779
 20
91.5937716198
 30
0.0
 40
5.000000000000002
100
AcDbArc
 50
180.0
 51
217.9074815654
  0
ARC
  5
63
330
2B
100
AcDbEntity
  8
BASE-SHEET-TOP
  6
Continuous
 62
     7
100
AcDbCircle
 10
355.460122779
 20
251.0198316476
 30
0.0
 40
12.00000000000001
100
AcDbArc
 50
40.32021507
 51
139.67978493
  0
ARC
  5
64
330
2B
100
AcDbEntity
  8
BASE-SHEET-TOP
  6
Continuous
 62
     7
100
AcDbCircle
 10
342.4986413822
 20
262.0198316476
 30
0.0
 40
5.000000000000004
100
AcDbArc
 50
270.0
 51
319.67978493
  0
ARC
  5
65
330
2B
100
AcDbEntity
  8
BASE-SHEET-TOP
  6
Continuous
 62
     7
100
AcDbCircle
 10
68.7627741863
 20
251.0198316476
 30
0.0
 40
11.99999999999999
100
AcDbArc
 50
40.32021507
 51
140.7132836718
  0
LINE
  5
66
330
2B
100
AcDbEntity
  8
BASE-SHEET-TOP
  6
Continuous
 62
     7
100
AcDbLine
 10
81.7242555832
 20
257.0198316476
 30
0.0
 11
342.4986413822
 21
257.0198316476
 31
0.0
  0
ARC
  5
67
330
2B
100
AcDbEntity
  8
BASE-SHEET-TOP
  6
Continuous
 62
     7
100
AcDbCircle
 10
81.7242555832
 20
262.0198316476
 30
0.0
 40
5.000000000000004
100
AcDbArc
 50
220.32021507
 51
270.0
  0
ARC
  5
68
330
2B
100
AcDbEntity
  8
BASE-SHEET-TOP
  6
Continuous
 62
     7
100
AcDbCircle
 10
57.7627741863
 20
252.0198316476
 30
0.0
 40
4.999999999999996
100
AcDbArc
 50
102.4611724067
 51
180.0
  0
ARC
  5
69
330
2B
100
AcDbEntity
  8
BASE-SHEET-TOP
  6
Continuous
 62
     7
100
AcDbCircle
 10
55.6049946022
 20
261.7842562219
 30
0.0
 40
4.999999999999979
100
AcDbArc
 50
282.4611724067
 51
320.7132836718
  0
ARC
  5
6A
330
2B
100
AcDbEntity
  8
BASE-SHEET-TOP
  6
Continuous
 62
     7
100
AcDbCircle
 10
81.7242555832
 20
68.0198316476
 30
0.0
 40
4.99999999999999
100
AcDbArc
 50
90.0
 51
139.67978493
  0
ARC
  5
6B
330
2B
100
AcDbEntity
  8
BASE-SHEET-TOP
  6
Continuous
 62
     7
100
AcDbCircle
 10
68.7627741863
 20
79.0198316476
 30
0.0
 40
11.99999999999999
100
AcDbArc
 50
220.32021507
 51
319.67978493
  0
LINE
  5
6C
330
2B
100
AcDbEntity
  8
BASE-SHEET-TOP
  6
Continuous
 62
     7
100
AcDbLine
 10
296.9617201845
 20
72.216133586
 30
0.0
 11
319.8794642261
 21
57.3684670073
 31
0.0
  0
LINE
  5
6D
330
2B
100
AcDbEntity
  8
BASE-SHEET-TOP
  6
Continuous
 62
     7
100
AcDbLine
 10
294.2430716154
 20
73.0198316476
 30
0.0
 11
81.7242555832
 21
73.0198316476
 31
0.0
  0
ARC
  5
6E
330
2B
100
AcDbEntity
  8
BASE-SHEET-TOP
  6
Continuous
 62
     7
100
AcDbCircle
 10
294.2430716154
 20
68.0198316476
 30
0.0
 40
4.999999999999999
100
AcDbArc
 50
57.0621006033
 51
90.0
  0
LINE
  5
6F
330
2B
100
AcDbEntity
  8
BASE-SHEET-TOP
  6
Continuous
 62
     7
100
AcDbLine
 10
322.1608156571
 20
53.172165069
 30
0.0
 11
322.1608156571
 21
34.7782346932
 31
0.0
  0
ARC
  5
70
330
2B
100
AcDbEntity
  8
BASE-SHEET-TOP
  6
Continuous
 62
     7
100
AcDbCircle
 10
317.1608156571
 20
53.172165069
 30
0.0
 40
5.0
100
AcDbArc
 50
0.0
 51
57.0621006033
  0
LINE
  5
71
330
2B
100
AcDbEntity
  8
BASE-SHEET-TOP
  6
Continuous
 62
     7
100
AcDbLine
 10
324.4421670881
 20
30.5819327548
 30
0.0
 11
334.7497214722
 21
23.9040009976
 31
0.0
  0
ARC
  5
72
330
2B
100
AcDbEntity
  8
BASE-SHEET-TOP
  6
Continuous
 62
     7
100
AcDbCircle
 10
327.1608156571
 20
34.7782346932
 30
0.0
 40
4.999999999999997
100
AcDbArc
 50
180.0
 51
237.0621006033
  0
LINE
  5
73
330
2B
100
AcDbEntity
  8
BASE-SHEET-TOP
  6
Continuous
 62
     7
100
AcDbLine
 10
341.6646719797
 20
25.381654367
 30
0.0
 11
371.460122779
 21
71.3716765303
 31
0.0
  0
ARC
  5
74
330
2B
100
AcDbEntity
  8
BASE-SHEET-TOP
  6
Continuous
 62
     7
100
AcDbCircle
 10
337.4683700413
 20
28.100302936
 30
0.0
 40
4.999999999999998
100
AcDbArc
 50
237.0621006033
 51
327.0621006033
  0
LINE
  5
75
330
2B
100
AcDbEntity
  8
BASE-SHEET-TOP
  6
Continuous
 62
     7
100
AcDbLine
 10
371.460122779
 20
252.2140889052
 30
0.0
 11
371.460122779
 21
91.5937716198
 31
0.0
  0
ARC
  5
76
330
2B
100
AcDbEntity
  8
BASE-SHEET-TOP
  6
Continuous
 62
     7
100
AcDbCircle
 10
368.4216041758
 20
262.0198316476
 30
0.0
 40
5.0
100
AcDbArc
 50
220.32021507
 51
258.6881974797
  0
ARC
  5
77
330
2B
100
AcDbEntity
  8
BASE-SHEET-TOP
  6
Continuous
 62
     7
100
AcDbCircle
 10
366.460122779
 20
252.2140889052
 30
0.0
 40
5.000000000000004
100
AcDbArc
 50
0.0
 51
78.6881974797
  0
LINE
  5
78
330
2B
100
AcDbEntity
  8
BASE-SHEET-TOP
  6
Continuous
 62
     7
100
AcDbLine
 10
52.7627741863
 20
77.82557439
 30
0.0
 11
52.7627741863
 21
252.0198316476
 31
0.0
  0
ARC
  5
79
330
2B
100
AcDbEntity
  8
BASE-SHEET-TOP
  6
Continuous
 62
     7
100
AcDbCircle
 10
55.8012927895
 20
68.0198316476
 30
0.0
 40
5.000000000000001
100
AcDbArc
 50
40.32021507
 51
78.6881974797
  0
ARC
  5
7A
330
2B
100
AcDbEntity
  8
BASE-SHEET-TOP
  6
Continuous
 62
     7
100
AcDbCircle
 10
57.7627741863
 20
77.82557439
 30
0.0
 40
5.000000000000004
100
AcDbArc
 50
180.0
 51
258.6881974797
  0
CIRCLE
  5
7B
330
2B
100
AcDbEntity
  8
BASE-SHEET-TOP
  6
Continuous
 62
     7
100
AcDbCircle
 10
85.1114484827
 20
79.0198316476
 30
0.0
 40
1.7
  0
CIRCLE
  5
7C
330
2B
100
AcDbEntity
  8
BASE-SHEET-TOP
  6
Continuous
 62
     7
100
AcDbCircle
 10
115.1114484827
 20
79.0198316476
 30
0.0
 40
1.7
  0
LINE
  5
7D
330
2B
100
AcDbEntity
  8
BASE-SHEET-TOP
  6
Continuous
 62
     7
100
AcDbLine
 10
82.5114484827
 20
129.3198316476
 30
0.0
 11
192.8114484827
 21
129.3198316476
 31
0.0
  0
ARC
  5
7E
330
2B
100
AcDbEntity
  8
BASE-SHEET-TOP
  6
Continuous
 62
     7
100
AcDbCircle
 10
82.5114484827
 20
134.3198316476
 30
0.0
 40
5.000000000000004
100
AcDbArc
 50
180.0
 51
270.0
  0
LINE
  5
7F
330
2B
100
AcDbEntity
  8
BASE-SHEET-TOP
  6
Continuous
 62
     7
100
AcDbLine
 10
271.4114484827
 20
232.7198316476
 30
0.0
 11
293.2614484827
 21
232.7198316476
 31
0.0
  0
ARC
  5
80
330
2B
100
AcDbEntity
  8
BASE-SHEET-TOP
  6
Continuous
 62
     7
100
AcDbCircle
 10
271.4114484827
 20
227.7198316476
 30
0.0
 40
5.000000000000004
100
AcDbArc
 50
90.0
 51
180.0
  0
LINE
  5
81
330
2B
100
AcDbEntity
  8
BASE-SHEET-TOP
  6
Continuous
 62
     7
100
AcDbLine
 10
302.7012578028
 20
226.0198316476
 30
0.0
 11
341.7114484827
 21
226.0198316476
 31
0.0
  0
ARC
  5
82
330
2B
100
AcDbEntity
  8
BASE-SHEET-TOP
  6
Continuous
 62
     7
100
AcDbCircle
 10
302.7012578028
 20
231.0198316476
 30
0.0
 40
5.000000000000003
100
AcDbArc
 50
199.2687754915
 51
270.0
  0
LINE
  5
83
330
2B
100
AcDbEntity
  8
BASE-SHEET-TOP
  6
Continuous
 62
     7
100
AcDbLine
 10
346.7114484827
 20
221.0198316476
 30
0.0
 11
346.7114484827
 21
134.3198316476
 31
0.0
  0
ARC
  5
84
330
2B
100
AcDbEntity
  8
BASE-SHEET-TOP
  6
Continuous
 62
     7
100
AcDbCircle
 10
341.7114484827
 20
221.0198316476
 30
0.0
 40
5.000000000000004
100
AcDbArc
 50
0.0
 51
90.0
  0
LINE
  5
85
330
2B
100
AcDbEntity
  8
BASE-SHEET-TOP
  6
Continuous
 62
     7
100
AcDbLine
 10
341.7114484827
 20
129.3198316476
 30
0.0
 11
271.4114484827
 21
129.3198316476
 31
0.0
  0
ARC
  5
86
330
2B
100
AcDbEntity
  8
BASE-SHEET-TOP
  6
Continuous
 62
     7
100
AcDbCircle
 10
341.7114484827
 20
134.3198316476
 30
0.0
 40
4.99999999999997
100
AcDbArc
 50
270.0
 51
360.0
  0
LINE
  5
87
330
2B
100
AcDbEntity
  8
BASE-SHEET-TOP
  6
Continuous
 62
     7
100
AcDbLine
 10
266.4114484827
 20
134.3198316476
 30
0.0
 11
266.4114484827
 21
227.7198316476
 31
0.0
  0
ARC
  5
88
330
2B
100
AcDbEntity
  8
BASE-SHEET-TOP
  6
Continuous
 62
     7
100
AcDbCircle
 10
271.4114484827
 20
134.3198316476
 30
0.0
 40
4.99999999999999
100
AcDbArc
 50
180.0
 51
270.0
  0
ARC
  5
89
330
2B
100
AcDbEntity
  8
BASE-SHEET-TOP
  6
Continuous
 62
     7
100
AcDbCircle
 10
192.8114484827
 20
134.3198316476
 30
0.0
 40
5.000000000000004
100
AcDbArc
 50
270.0
 51
360.0
  0
LINE
  5
8A
330
2B
100
AcDbEntity
  8
BASE-SHEET-TOP
  6
Continuous
 62
     7
100
AcDbLine
 10
197.8114484827
 20
227.7198316476
 30
0.0
 11
197.8114484827
 21
134.3198316476
 31
0.0
  0
LINE
  5
8B
330
2B
100
AcDbEntity
  8
BASE-SHEET-TOP
  6
Continuous
 62
     7
100
AcDbLine
 10
192.8114484827
 20
232.7198316476
 30
0.0
 11
130.9614484827
 21
232.7198316476
 31
0.0
  0
ARC
  5
8C
330
2B
100
AcDbEntity
  8
BASE-SHEET-TOP
  6
Continuous
 62
     7
100
AcDbCircle
 10
192.8114484827
 20
227.7198316476
 30
0.0
 40
5.000000000000004
100
AcDbArc
 50
0.0
 51
90.0
  0
ARC
  5
8D
330
2B
100
AcDbEntity
  8
BASE-SHEET-TOP
  6
Continuous
 62
     7
100
AcDbCircle
 10
130.9614484827
 20
227.7198316476
 30
0.0
 40
5.000000000000012
100
AcDbArc
 50
90.0
 51
160.7312245085
  0
ARC
  5
8E
330
2B
100
AcDbEntity
  8
BASE-SHEET-TOP
  6
Continuous
 62
     7
100
AcDbCircle
 10
121.5216391626
 20
231.0198316476
 30
0.0
 40
5.000000000000004
100
AcDbArc
 50
270.0
 51
340.7312245085
  0
LINE
  5
8F
330
2B
100
AcDbEntity
  8
BASE-SHEET-TOP
  6
Continuous
 62
     7
100
AcDbLine
 10
82.5114484827
 20
226.0198316476
 30
0.0
 11
121.5216391626
 21
226.0198316476
 31
0.0
  0
LINE
  5
90
330
2B
100
AcDbEntity
  8
BASE-SHEET-TOP
  6
Continuous
 62
     7
100
AcDbLine
 10
77.5114484827
 20
221.0198316476
 30
0.0
 11
77.5114484827
 21
134.3198316476
 31
0.0
  0
ARC
  5
91
330
2B
100
AcDbEntity
  8
BASE-SHEET-TOP
  6
Continuous
 62
     7
100
AcDbCircle
 10
82.5114484827
 20
221.0198316476
 30
0.0
 40
5.000000000000004
100
AcDbArc
 50
90.0
 51
180.0
  0
ENDBLK
  5
93
330
2B
100
AcDbEntity
  8
0
100
AcDbBlockEnd
  0
ENDSEC
  0
SECTION
  2
ENTITIES
  0
INSERT
  5
2C
330
1F
100
AcDbEntity
  8
Default
100
AcDbBlockReference
  2
SE
 10
0.0
 20
0.0
 30
0.0
  0
ENDSEC
  0
SECTION
  2
OBJECTS
  0
DICTIONARY
  5
C
330
0
100
AcDbDictionary
281
     1
  3
ACAD_GROUP
350
D
  3
ACAD_LAYOUT
350
1A
  3
ACAD_MLINESTYLE
350
17
  3
ACAD_PLOTSETTINGS
350
19
  3
ACAD_PLOTSTYLENAME
350
E
  0
DICTIONARY
  5
D
102
{ACAD_REACTORS
330
C
102
}
330
C
100
AcDbDictionary
281
     1
  0
DICTIONARY
  5
1A
102
{ACAD_REACTORS
330
C
102
}
330
C
100
AcDbDictionary
281
     1
  3
Layout1
350
1E
  3
Model
350
22
  0
DICTIONARY
  5
17
102
{ACAD_REACTORS
330
C
102
}
330
C
100
AcDbDictionary
281
     1
  3
Standard
350
18
  0
DICTIONARY
  5
19
102
{ACAD_REACTORS
330
C
102
}
330
C
100
AcDbDictionary
281
     1
  0
ACDBDICTIONARYWDFLT
  5
E
102
{ACAD_REACTORS
330
C
102
}
330
C
100
AcDbDictionary
281
     1
  3
Normal
350
F
100
AcDbDictionaryWithDefault
340
F
  0
LAYOUT
  5
1E
102
{ACAD_REACTORS
330
1A
102
}
330
1A
100
AcDbPlotSettings
  1

  2
none_device
  4

  6

 40
0.0
 41
0.0
 42
0.0
 43
0.0
 44
0.0
 45
0.0
 46
0.0
 47
0.0
 48
0.0
 49
0.0
140
0.0
141
0.0
142
1.0
143
1.0
 70
   688
 72
     0
 73
     0
 74
     5
  7

 75
    16
147
1.0
148
0.0
149
0.0
100
AcDbLayout
  1
Layout1
 70
     1
 71
     1
 10
0.0
 20
0.0
 11
420.0
 21
297.0
 12
0.0
 22
0.0
 32
0.0
 14
0.0
 24
0.0
 34
0.0
 15
420.0
 25
297.0
 35
0.0
146
0.0
 13
0.0
 23
0.0
 33
0.0
 16
1.0
 26
0.0
 36
0.0
 17
0.0
 27
1.0
 37
0.0
 76
     0
330
1B
  0
LAYOUT
  5
22
102
{ACAD_REACTORS
330
1A
102
}
330
1A
100
AcDbPlotSettings
  1

  2
none_device
  4

  6

 40
0.0
 41
0.0
 42
0.0
 43
0.0
 44
0.0
 45
0.0
 46
0.0
 47
0.0
 48
0.0
 49
0.0
140
0.0
141
0.0
142
1.0
143
1.0
 70
  1712
 72
     0
 73
     0
 74
     0
  7

 75
     0
147
1.0
148
0.0
149
0.0
100
AcDbLayout
  1
Model
 70
     1
 71
     0
 10
0.0
 20
0.0
 11
420.0
 21
297.0
 12
0.0
 22
0.0
 32
0.0
 14
0.0
 24
0.0
 34
0.0
 15
420.0
 25
297.0
 35
0.0
146
0.0
 13
0.0
 23
0.0
 33
0.0
 16
1.0
 26
0.0
 36
0.0
 17
0.0
 27
1.0
 37
0.0
 76
     0
330
1F
  0
MLINESTYLE
  5
18
102
{ACAD_REACTORS
330
17
102
}
330
17
100
AcDbMlineStyle
  2
Standard
 70
     0
  3

 62
   256
 51
90.0
 52
90.0
 71
     2
 49
0.5
 62
   256
  6
BYLAYER
 49
-0.5
 62
   256
  6
BYLAYER
  0
ACDBPLACEHOLDER
  5
F
102
{ACAD_REACTORS
330
E
102
}
330
E
  0
ENDSEC
  0
EOF
